<?xml version="1.0" standalone="no"?>
<!DOCTYPE svg PUBLIC "-//W3C//DTD SVG 1.1//EN" "http://www.w3.org/Graphics/SVG/1.1/DTD/svg11.dtd" >
<svg xmlns="http://www.w3.org/2000/svg" width="100%" height="100%">
<metadata>
Created by FontXChange 20110222 at Fri Aug 21 17:01:56 2015
 By Nguyen Can
Spaced and kerned with iKern.
</metadata>
<defs>
<font id="MuseoSansRounded-900" horiz-adv-x="600" >
  <font-face 
    font-family="Museo Sans Rounded 900"
    font-weight="700"
    font-stretch="normal"
    units-per-em="1000"
    panose-1="2 0 0 0 0 0 0 0 0 0"
    ascent="750"
    descent="-250"
    x-height="515"
    cap-height="715"
    bbox="-108.781 -230 1225 918"
    underline-thickness="50"
    underline-position="-50"
    stemh="150"
    stemv="173"
    unicode-range="U+0020-FB04"
  />
<missing-glyph horiz-adv-x="604" 
d="M52 55v590c0 36 19 55 55 55h390c36 0 55 -19 55 -55v-590c0 -36 -19 -55 -55 -55h-390c-36 0 -55 19 -55 55zM302 395l170 255h-340zM332 350l170 -255v510zM102 95l170 255l-170 255v-510zM132 50h340l-170 255z" />
    <glyph glyph-name="f_f" unicode="ff" horiz-adv-x="728" 
d="M86 55v325h-13c-36 0 -55 19 -55 55v25c0 36 19 55 55 55h13v16c0 164 162 188 216 188h17c36 0 55 -19 55 -55v-37c0 -36 -19 -52 -55 -55c-22 -2 -60 -6 -60 -50v-7h191v16c0 164 162 188 216 188h17c36 0 55 -19 55 -55v-37c0 -36 -19 -52 -55 -55
c-22 -2 -60 -6 -60 -50v-7h40c36 0 55 -19 55 -55v-25c0 -36 -17 -55 -47 -55h-48v-325c0 -36 -19 -55 -55 -55h-63c-36 0 -55 19 -55 55v325h-191v-325c0 -36 -19 -55 -55 -55h-63c-36 0 -55 19 -55 55z" />
    <glyph glyph-name="fi" unicode="fi" horiz-adv-x="639" 
d="M86 55v325h-13c-36 0 -55 19 -55 55v25c0 36 19 55 55 55h13v16c0 164 162 188 216 188h17c36 0 55 -19 55 -55v-37c0 -36 -19 -52 -55 -55c-22 -2 -60 -6 -60 -50v-7h274c36 0 55 -19 55 -55v-405c0 -36 -19 -55 -55 -55h-63c-36 0 -55 19 -55 55v325h-156v-325
c0 -36 -19 -55 -55 -55h-63c-36 0 -55 19 -55 55zM472 580c-36 0 -55 19 -55 55v25c0 36 19 55 55 55h59c36 0 55 -19 55 -55v-25c0 -36 -19 -55 -55 -55h-59z" />
    <glyph glyph-name="fl" unicode="fl" horiz-adv-x="671" 
d="M86 55v316h-13c-36 0 -55 19 -55 55v25c0 36 19 55 55 55h13v25c0 164 162 188 216 188h17c36 0 55 -19 55 -55v-37c0 -36 -19 -52 -55 -55c-22 -2 -60 -6 -60 -50v-16h40c36 0 55 -19 55 -55v-25c0 -36 -19 -55 -55 -55h-40v-316c0 -36 -19 -55 -55 -55h-63
c-36 0 -55 19 -55 55zM413 190v470c0 36 19 55 55 55h63c36 0 55 -19 55 -55v-462c0 -39 13 -49 29 -51c24 -3 40 -17 40 -47v-49c0 -34 -16 -56 -56 -56c-89 0 -186 22 -186 195z" />
    <glyph glyph-name="f_f_i" unicode="ffi" horiz-adv-x="1003" 
d="M86 55l-5 325h-8c-36 0 -55 19 -55 55v25c0 36 19 55 55 55h8l5 16c0 164 162 188 216 188h17c36 0 55 -19 55 -55v-37c0 -36 -19 -52 -55 -55c-22 -2 -60 -6 -60 -50v-7h191v16c0 164 162 188 216 188h17c36 0 55 -19 55 -55v-37c0 -36 -19 -52 -55 -55
c-22 -2 -60 -6 -60 -50v-7h274c36 0 55 -19 55 -55v-405c0 -36 -19 -55 -55 -55h-63c-36 0 -55 19 -55 55v325h-156v-325c0 -36 -19 -55 -55 -55h-63c-36 0 -55 19 -55 55v325h-191v-325c0 -36 -19 -55 -55 -55h-63c-36 0 -55 19 -55 55zM781 635v25c0 36 19 55 55 55h59
c36 0 55 -19 55 -55v-25c0 -36 -19 -55 -55 -55h-59c-36 0 -55 19 -55 55z" />
    <glyph glyph-name="f_f_l" unicode="ffl" horiz-adv-x="1035" 
d="M86 55l-5 325h-8c-36 0 -55 19 -55 55v25c0 36 19 55 55 55h8l5 16c0 164 162 188 216 188h17c36 0 55 -19 55 -55v-37c0 -36 -19 -52 -55 -55c-22 -2 -60 -6 -60 -50v-7h191v16c0 164 162 188 216 188h17c36 0 55 -19 55 -55v-37c0 -36 -19 -52 -55 -55
c-22 -2 -60 -6 -60 -50v-7h40c36 0 55 -19 55 -55v-25c0 -36 -17 -55 -47 -55h-48v-325c0 -36 -19 -55 -55 -55h-63c-36 0 -55 19 -55 55v325h-191v-325c0 -36 -19 -55 -55 -55h-63c-36 0 -55 19 -55 55zM777 190v470c0 36 19 55 55 55h63c36 0 55 -19 55 -55v-462
c0 -39 13 -49 29 -51c24 -3 40 -17 40 -47v-49c0 -34 -16 -56 -56 -56c-89 0 -186 22 -186 195z" />
    <glyph glyph-name="f_j" unicode="fj" horiz-adv-x="642" 
d="M86 55v325h-13c-36 0 -55 19 -55 55v25c0 36 19 55 55 55h13v16c0 164 162 188 216 188h17c36 0 55 -19 55 -55v-37c0 -36 -19 -52 -55 -55c-22 -2 -60 -6 -60 -50v-7h276c36 0 55 -19 55 -55v-469c0 -167 -163 -199 -215 -199h-18c-36 0 -55 19 -55 55v38
c0 36 19 51 55 55c29 3 60 17 60 64v376h-158v-325c0 -36 -19 -55 -55 -55h-63c-36 0 -55 19 -55 55zM474 580c-36 0 -55 19 -55 55v25c0 36 19 55 55 55h59c36 0 55 -19 55 -55v-25c0 -36 -19 -55 -55 -55h-59z" />
    <glyph glyph-name=".notdef" horiz-adv-x="604" 
d="M52 55v590c0 36 19 55 55 55h390c36 0 55 -19 55 -55v-590c0 -36 -19 -55 -55 -55h-390c-36 0 -55 19 -55 55zM302 395l170 255h-340zM332 350l170 -255v510zM102 95l170 255l-170 255v-510zM132 50h340l-170 255z" />
    <glyph glyph-name="space" unicode=" " horiz-adv-x="250" 
 />
    <glyph glyph-name="exclam" unicode="!" horiz-adv-x="286" 
d="M123 221c-35 0 -55 19 -56 54l-12 384c-1 36 18 56 54 56h68c36 0 55 -20 54 -56l-12 -384c-1 -35 -21 -54 -56 -54h-40zM64 55v40c0 36 19 55 55 55h48c36 0 55 -19 55 -55v-40c0 -36 -19 -55 -55 -55h-48c-36 0 -55 19 -55 55z" />
    <glyph glyph-name="quotedbl" unicode="&#x22;" horiz-adv-x="393" 
d="M286 490c-36 0 -55 19 -55 55v130c0 36 19 55 55 55h12c36 0 55 -19 55 -55v-130c0 -36 -19 -55 -55 -55h-12zM95 490c-36 0 -55 19 -55 55v130c0 36 19 55 55 55h12c36 0 55 -19 55 -55v-130c0 -36 -19 -55 -55 -55h-12z" />
    <glyph glyph-name="numbersign" unicode="#" horiz-adv-x="687" 
d="M104 59l21 121h-41c-38 0 -56 22 -50 59l2 11c5 33 25 50 59 50h50l17 95h-39c-38 0 -56 22 -50 59l2 11c5 33 25 50 58 50h49l26 150c6 33 26 50 60 50h23c38 0 56 -22 50 -59l-25 -141h108l26 150c6 33 26 50 60 50h23c38 0 56 -22 50 -59l-25 -141h45
c38 0 56 -22 50 -59l-2 -11c-5 -33 -25 -50 -59 -50h-54l-17 -95h43c38 0 56 -22 50 -59l-2 -11c-5 -33 -25 -50 -59 -50h-52l-22 -130c-6 -33 -26 -50 -60 -50h-23c-38 0 -56 22 -50 59l21 121h-108l-22 -130c-6 -33 -26 -50 -60 -50h-23c-38 0 -56 22 -50 59zM279 300h108
l17 95h-108z" />
    <glyph glyph-name="dollar" unicode="$" horiz-adv-x="570" 
d="M65 57c-28 19 -30 48 -10 76l30 44c21 30 46 32 77 13c32 -20 78 -41 126 -41c36 0 75 14 75 57c0 80 -325 87 -325 302c0 112 80 192 191 213v39c0 36 16 55 52 55h6c35 0 51 -16 51 -45v-46c65 -7 113 -29 143 -48c29 -17 32 -45 17 -75l-24 -47
c-17 -33 -42 -37 -75 -19c-28 16 -68 31 -110 31c-36 0 -76 -16 -76 -56c0 -85 325 -79 325 -300c0 -106 -72 -198 -200 -218v-36c0 -36 -16 -55 -51 -55h-6c-36 0 -52 16 -52 45v46c-75 11 -130 41 -164 65z" />
    <glyph glyph-name="percent" unicode="%" horiz-adv-x="851" 
d="M212 382c-101 0 -181 76 -181 172c0 94 80 173 181 173c100 0 181 -79 181 -173c0 -96 -81 -172 -181 -172zM123 67l475 615c17 23 37 33 67 33h25c47 0 62 -30 33 -67l-475 -615c-17 -23 -37 -33 -67 -33h-25c-47 0 -62 30 -33 67zM212 502c30 0 55 23 55 53
c0 28 -25 52 -55 52s-55 -24 -55 -52c0 -30 25 -53 55 -53zM458 160c0 94 80 173 181 173c100 0 181 -79 181 -173c0 -96 -81 -172 -181 -172c-101 0 -181 76 -181 172zM584 161c0 -30 25 -53 55 -53s55 23 55 53c0 28 -25 52 -55 52s-55 -24 -55 -52z" />
    <glyph glyph-name="ampersand" unicode="&#x26;" horiz-adv-x="664" 
d="M30 207c0 74 46 143 114 171v2s-84 38 -84 154c0 139 117 193 236 193h36c36 0 55 -19 55 -55v-35c0 -36 -19 -55 -55 -55h-21c-53 0 -74 -38 -74 -74s25 -69 73 -69h87v33c0 36 19 55 55 55h62c36 0 55 -15 55 -44v-44h34c36 0 55 -19 55 -55v-40c0 -36 -19 -55 -55 -55
h-34v-69c0 -128 -98 -232 -273 -232c-163 0 -266 97 -266 219zM209 218c0 -39 38 -71 87 -71c66 0 101 36 101 83v59h-98c-46 0 -90 -17 -90 -71z" />
    <glyph glyph-name="quotesingle" unicode="'" horiz-adv-x="205" 
d="M95 490c-36 0 -55 19 -55 55v130c0 36 19 55 55 55h15c36 0 55 -19 55 -55v-130c0 -36 -19 -55 -55 -55h-15z" />
    <glyph glyph-name="parenleft" unicode="(" horiz-adv-x="301" 
d="M137 -62c-66 116 -105 256 -105 409c0 130 36 254 101 366c15 27 36 37 66 37h25c43 0 58 -26 39 -65c-51 -107 -78 -222 -78 -338c0 -127 28 -255 82 -377c17 -39 2 -65 -40 -65h-28c-30 0 -49 9 -62 33z" />
    <glyph glyph-name="parenright" unicode=")" horiz-adv-x="301" 
d="M35 -27c52 121 80 248 80 374c0 116 -27 231 -78 338c-19 39 -6 65 36 65h28c30 0 51 -10 66 -37c65 -112 101 -236 101 -366c0 -151 -38 -290 -102 -405c-15 -26 -35 -37 -65 -37h-27c-43 0 -57 27 -39 68z" />
    <glyph glyph-name="asterisk" unicode="*" horiz-adv-x="463" 
d="M128 343l-28 20c-30 22 -33 49 -9 76l37 41v2l-53 11c-36 8 -51 32 -39 67l10 33c12 35 36 47 69 33l51 -23l-5 54c-4 37 15 58 52 58h36c37 0 56 -20 52 -56l-6 -56l50 22c34 15 60 4 71 -31l11 -33c11 -35 -2 -59 -37 -66l-56 -12v-2l37 -40c25 -27 22 -55 -8 -77
l-28 -21c-30 -22 -57 -16 -75 15l-28 48h-2l-26 -46c-19 -33 -46 -39 -76 -17z" />
    <glyph glyph-name="plus" unicode="+" horiz-adv-x="630" 
d="M97 222c-36 0 -55 19 -55 55v20c0 36 19 55 55 55h150v168c0 36 19 55 55 55h26c36 0 55 -19 55 -55v-168h150c36 0 55 -19 55 -55v-20c0 -36 -19 -55 -55 -55h-150v-167c0 -36 -19 -55 -55 -55h-26c-36 0 -55 19 -55 55v167h-150z" />
    <glyph glyph-name="comma" unicode="," horiz-adv-x="256" 
d="M15 -49l45 168c9 32 29 47 62 47h47c41 0 59 -26 43 -64l-70 -170c-11 -30 -32 -43 -63 -43h-17c-40 0 -58 23 -47 62z" />
    <glyph glyph-name="hyphen" unicode="-" horiz-adv-x="412" 
d="M104 212c-36 0 -55 19 -55 55v40c0 36 19 55 55 55h204c36 0 55 -19 55 -55v-40c0 -36 -19 -55 -55 -55h-204z" />
    <glyph glyph-name="period" unicode="." horiz-adv-x="252" 
d="M44 55v54c0 36 19 55 55 55h54c36 0 55 -19 55 -55v-54c0 -36 -19 -55 -55 -55h-54c-36 0 -55 19 -55 55z" />
    <glyph glyph-name="slash" unicode="/" horiz-adv-x="422" 
d="M31 20l221 685c10 30 30 45 63 45h30c40 0 58 -24 46 -63l-221 -684c-10 -30 -30 -45 -63 -45h-30c-40 0 -58 24 -46 62z" />
    <glyph glyph-name="zero" unicode="0" horiz-adv-x="628" 
d="M314 -12c-203 0 -269 166 -269 371s66 368 269 368s269 -163 269 -368s-66 -371 -269 -371zM314 148c69 0 89 94 89 211c0 116 -20 208 -89 208s-89 -92 -89 -208c0 -117 20 -211 89 -211z" />
    <glyph glyph-name="one" unicode="1" horiz-adv-x="528" 
d="M40 55v40c0 36 19 55 55 55h97v298c0 27 1 55 1 55h-2s-10 -22 -22 -32l-9 -8c-26 -24 -53 -23 -77 3l-26 28c-25 26 -24 53 2 78l124 116c21 19 40 27 68 27h57c36 0 55 -19 55 -55v-510h98c36 0 55 -19 55 -55v-40c0 -36 -19 -55 -55 -55h-366c-36 0 -55 19 -55 55z
" />
    <glyph glyph-name="two" unicode="2" horiz-adv-x="580" 
d="M36 55v22c0 264 309 311 309 414c0 50 -40 71 -77 71c-32 0 -59 -17 -76 -35c-25 -24 -51 -34 -78 -12l-39 31c-28 22 -35 47 -14 74c35 46 104 107 223 107c117 0 244 -67 244 -219c0 -223 -289 -266 -298 -358h254c36 0 55 -19 55 -55v-40c0 -36 -19 -55 -55 -55h-389
c-34 0 -59 19 -59 55z" />
    <glyph glyph-name="three" unicode="3" horiz-adv-x="566" 
d="M54 49c-28 20 -30 47 -12 76l27 44c19 31 44 33 75 14c27 -15 62 -30 102 -30c65 0 102 32 102 71c0 56 -56 79 -133 79h-4c-32 0 -48 10 -62 38l-5 10c-12 23 -7 48 13 71l65 79c34 41 62 67 62 67v2s-23 -5 -68 -5h-116c-36 0 -55 19 -55 55v40c0 36 19 55 55 55h341
c36 0 55 -19 55 -54v-16c0 -28 -7 -47 -25 -68l-120 -138c106 -23 173 -107 173 -207c0 -122 -86 -244 -265 -244c-97 0 -165 34 -205 61z" />
    <glyph glyph-name="four" unicode="4" horiz-adv-x="623" 
d="M69 173c-36 0 -55 19 -55 55v14c0 27 5 46 20 68l233 369c16 25 36 36 66 36h116c36 0 55 -19 55 -55v-342h30c36 0 55 -19 55 -55v-35c0 -36 -15 -55 -42 -55h-43v-118c0 -36 -19 -55 -55 -55h-63c-36 0 -55 19 -55 55v118h-262zM192 318h139v160c0 39 6 80 6 80h-2
s-15 -44 -35 -74l-108 -164v-2z" />
    <glyph glyph-name="five" unicode="5" horiz-adv-x="570" 
d="M64 50c-28 19 -30 47 -12 75l27 44c19 31 44 33 75 14c26 -15 61 -30 100 -30c47 0 100 29 100 88c0 56 -49 89 -114 89c-23 0 -43 -4 -59 -9c-27 -8 -48 -11 -74 -1l-11 4c-30 12 -44 33 -41 65l21 273c3 35 22 53 57 53h292c36 0 55 -19 55 -55v-40
c0 -36 -19 -55 -55 -55h-193l-4 -66c0 -14 -4 -28 -4 -28h2s25 7 52 7c170 0 256 -106 256 -235c0 -148 -109 -255 -265 -255c-96 0 -165 34 -205 62z" />
    <glyph glyph-name="six" unicode="6" horiz-adv-x="610" 
d="M40 324c0 205 121 403 342 403c39 0 83 -6 107 -13c33 -10 45 -34 34 -69l-15 -47c-12 -38 -32 -42 -64 -37c-17 3 -29 6 -50 6c-89 0 -135 -56 -157 -128h2c14 13 51 35 113 35c141 0 222 -114 222 -232c0 -123 -88 -254 -244 -254c-144 0 -290 111 -290 336zM220 280
c0 -58 50 -132 111 -132c41 0 71 34 71 83c0 48 -28 102 -116 102c-38 0 -66 -10 -66 -53z" />
    <glyph glyph-name="seven" unicode="7" horiz-adv-x="546" 
d="M84 65l220 436c25 49 42 65 42 65v2s-6 -3 -42 -3h-228c-36 0 -55 19 -55 55v40c0 36 19 55 55 55h403c36 0 55 -19 55 -55v-31c0 -26 -4 -45 -16 -68l-264 -521c-14 -28 -34 -40 -65 -40h-65c-43 0 -59 27 -40 65z" />
    <glyph glyph-name="eight" unicode="8" horiz-adv-x="614" 
d="M39 204c0 93 76 157 103 178c-45 35 -75 78 -75 141c0 100 75 204 238 204c138 0 248 -75 248 -199c0 -83 -55 -148 -74 -169c54 -34 93 -85 93 -155c0 -106 -89 -216 -266 -216c-175 0 -267 109 -267 216zM358 419c12 19 26 46 26 86c0 47 -28 72 -77 72
s-69 -25 -69 -58c0 -49 48 -71 120 -100zM214 224c0 -50 37 -86 94 -86c49 0 85 28 85 72c0 46 -48 63 -138 102c-18 -19 -41 -47 -41 -88z" />
    <glyph glyph-name="nine" unicode="9" horiz-adv-x="610" 
d="M87 70l15 47c12 38 32 42 64 37c17 -3 29 -6 50 -6c89 0 135 56 157 128h-2c-17 -17 -63 -35 -116 -35c-134 0 -219 117 -219 238c0 123 89 248 243 248c145 0 291 -111 291 -336c0 -203 -119 -403 -342 -403c-39 0 -83 6 -107 13c-33 10 -45 34 -34 69zM324 382
c38 0 66 10 66 53c0 58 -50 132 -111 132c-41 0 -71 -34 -71 -83c0 -48 28 -102 116 -102z" />
    <glyph glyph-name="colon" unicode=":" horiz-adv-x="265" 
d="M106 351c-36 0 -55 19 -55 55v54c0 36 19 55 55 55h54c36 0 55 -19 55 -55v-54c0 -36 -19 -55 -55 -55h-54zM51 55v54c0 36 19 55 55 55h54c36 0 55 -19 55 -55v-54c0 -36 -19 -55 -55 -55h-54c-36 0 -55 19 -55 55z" />
    <glyph glyph-name="semicolon" unicode=";" horiz-adv-x="280" 
d="M130 351c-36 0 -55 19 -55 55v54c0 36 19 55 55 55h48c36 0 55 -19 55 -55v-54c0 -36 -19 -55 -55 -55h-48zM19 -50l40 168c7 32 27 48 60 48h49c41 0 59 -25 44 -63l-63 -170c-11 -30 -31 -44 -63 -44h-19c-38 0 -57 23 -48 61z" />
    <glyph glyph-name="less" unicode="&#x3c;" horiz-adv-x="630" 
d="M93 216c-29 12 -42 32 -42 64v15c0 32 13 52 42 64l398 176c38 17 64 0 64 -41v-29c0 -31 -14 -51 -43 -63l-287 -114v-2l287 -113c29 -12 43 -32 43 -63v-29c0 -42 -26 -58 -64 -42z" />
    <glyph glyph-name="equal" unicode="=" horiz-adv-x="630" 
d="M117 337c-36 0 -55 19 -55 55v20c0 36 19 55 55 55h396c36 0 55 -19 55 -55v-20c0 -36 -19 -55 -55 -55h-396zM117 107c-36 0 -55 19 -55 55v20c0 36 19 55 55 55h396c36 0 55 -19 55 -55v-20c0 -36 -19 -55 -55 -55h-396z" />
    <glyph glyph-name="greater" unicode="&#x3e;" horiz-adv-x="630" 
d="M75 81v29c0 31 14 51 43 63l287 113v2l-287 114c-29 12 -43 32 -43 63v29c0 42 26 58 64 42l398 -177c29 -12 42 -32 42 -64v-15c0 -32 -13 -52 -42 -64l-398 -176c-38 -17 -64 0 -64 41z" />
    <glyph glyph-name="question" unicode="?" horiz-adv-x="488" 
d="M171 221c-36 0 -55 19 -55 55v10c0 106 157 150 157 228c0 34 -33 59 -71 59c-18 0 -36 -6 -52 -14c-31 -15 -62 -15 -81 13l-24 36c-20 29 -21 54 9 73c35 23 91 49 166 49c112 0 233 -67 233 -196c0 -152 -151 -187 -170 -265l-3 -12c-7 -27 -21 -36 -52 -36h-57z
M120 55v40c0 36 19 55 55 55h48c36 0 55 -19 55 -55v-40c0 -36 -19 -55 -55 -55h-48c-36 0 -55 19 -55 55z" />
    <glyph glyph-name="at" unicode="@" horiz-adv-x="836" 
d="M38 239c0 211 168 376 393 376c221 0 298 -110 298 -240v-198h19c36 0 55 -19 55 -55v-9c0 -36 -19 -55 -55 -55h-228c-150 0 -227 91 -227 182c0 88 74 176 227 176h49c0 43 -73 64 -135 64c-130 0 -227 -120 -227 -241c0 -112 69 -213 199 -235c34 -6 53 -22 53 -57
v-21c0 -36 -20 -57 -57 -53c-228 22 -364 175 -364 366zM464 244c0 -37 22 -67 66 -67h39v134h-37c-46 0 -68 -31 -68 -67z" />
    <glyph glyph-name="A" unicode="A" horiz-adv-x="654" 
d="M13 63l207 607c10 31 30 45 62 45h90c32 0 52 -14 62 -45l207 -607c13 -38 -5 -63 -45 -63h-66c-32 0 -52 15 -62 46l-30 104h-223l-30 -104c-9 -31 -29 -46 -61 -46h-66c-40 0 -58 25 -45 63zM256 290h141l-40 139c-13 45 -29 123 -29 123h-2s-16 -78 -29 -123z" />
    <glyph glyph-name="B" unicode="B" horiz-adv-x="634" 
d="M69 55v605c0 36 19 55 55 55h208c143 0 243 -64 243 -187c0 -60 -29 -121 -83 -152v-2c82 -25 112 -98 112 -161c0 -156 -130 -213 -272 -213h-208c-36 0 -55 19 -55 55zM244 438h90c44 0 63 32 63 66c0 33 -19 61 -66 61h-87v-127zM244 150h105c51 0 76 35 76 75
s-24 73 -75 73h-106v-148z" />
    <glyph glyph-name="C" unicode="C" horiz-adv-x="699" 
d="M32 359c0 208 154 368 375 368c110 0 187 -39 229 -68c28 -20 30 -47 12 -76l-25 -41c-19 -31 -44 -34 -75 -15c-33 19 -80 40 -133 40c-143 0 -202 -101 -202 -204c0 -106 64 -215 202 -215c60 0 112 27 146 51c30 21 56 20 77 -10l28 -39c19 -28 18 -56 -9 -77
c-45 -35 -129 -85 -250 -85c-230 0 -375 159 -375 371z" />
    <glyph glyph-name="D" unicode="D" horiz-adv-x="726" 
d="M69 55v605c0 36 19 55 55 55h199c225 0 369 -131 369 -356s-144 -359 -369 -359h-199c-36 0 -55 19 -55 55zM244 150h72c121 0 195 72 195 209c0 136 -77 206 -195 206h-72v-415z" />
    <glyph glyph-name="E" unicode="E" horiz-adv-x="560" 
d="M69 55v605c0 36 19 55 55 55h338c36 0 55 -19 55 -55v-40c0 -36 -19 -55 -55 -55h-218v-130h163c36 0 55 -19 55 -55v-40c0 -36 -19 -55 -55 -55h-163v-135h232c36 0 55 -19 55 -55v-40c0 -36 -19 -55 -55 -55h-352c-36 0 -55 19 -55 55z" />
    <glyph glyph-name="F" unicode="F" horiz-adv-x="524" 
d="M69 55v605c0 36 19 55 55 55h328c36 0 55 -19 55 -55v-40c0 -36 -19 -55 -55 -55h-208v-150h163c36 0 55 -19 55 -55v-40c0 -36 -19 -55 -55 -55h-163v-210c0 -36 -19 -55 -55 -55h-65c-36 0 -55 19 -55 55z" />
    <glyph glyph-name="G" unicode="G" horiz-adv-x="759" 
d="M32 353c0 218 157 374 376 374c114 0 203 -42 232 -63c30 -22 33 -45 14 -76l-26 -41c-19 -30 -43 -32 -76 -15s-71 35 -133 35c-143 0 -206 -96 -206 -204c0 -132 94 -215 203 -215c102 0 147 58 147 58v49h-46c-36 0 -55 19 -55 55v39c0 36 19 55 55 55h146
c36 0 55 -19 55 -55v-294c0 -36 -19 -55 -55 -55h-33c-36 0 -55 19 -55 43v2c0 6 1 10 1 10h-2s-63 -67 -190 -67c-184 0 -352 140 -352 365z" />
    <glyph glyph-name="H" unicode="H" horiz-adv-x="748" 
d="M69 55v605c0 36 19 55 55 55h65c36 0 55 -19 55 -55v-231h260v231c0 36 19 55 55 55h65c36 0 55 -19 55 -55v-605c0 -36 -19 -55 -55 -55h-65c-36 0 -55 19 -55 55v225h-260v-225c0 -36 -19 -55 -55 -55h-65c-36 0 -55 19 -55 55z" />
    <glyph glyph-name="I" unicode="I" horiz-adv-x="313" 
d="M69 55v605c0 36 19 55 55 55h65c36 0 55 -19 55 -55v-605c0 -36 -19 -55 -55 -55h-65c-36 0 -55 19 -55 55z" />
    <glyph glyph-name="J" unicode="J" horiz-adv-x="555" 
d="M13 217c0 36 19 55 55 55h67c36 0 49 -15 53 -51c4 -37 23 -73 65 -73c38 0 64 24 64 76v341h-137c-36 0 -55 19 -55 55v40c0 36 19 55 55 55h257c36 0 55 -19 55 -55v-440c0 -157 -120 -232 -239 -232c-121 0 -240 79 -240 229z" />
    <glyph glyph-name="K" unicode="K" horiz-adv-x="664" 
d="M69 55v605c0 36 19 55 55 55h65c36 0 55 -19 55 -55v-221h72l127 237c15 27 35 39 65 39h68c44 0 60 -28 39 -66l-156 -276v-2l168 -305c21 -38 5 -66 -39 -66h-77c-30 0 -50 12 -65 39l-130 251h-72v-235c0 -36 -19 -55 -55 -55h-65c-36 0 -55 19 -55 55z" />
    <glyph glyph-name="L" unicode="L" horiz-adv-x="539" 
d="M69 55v605c0 36 19 55 55 55h65c36 0 55 -19 55 -55v-510h237c36 0 55 -19 55 -55v-40c0 -36 -19 -55 -55 -55h-357c-36 0 -55 19 -55 55z" />
    <glyph glyph-name="M" unicode="M" horiz-adv-x="865" 
d="M48 57l50 605c3 35 22 53 57 53h90c32 0 52 -14 62 -45l89 -257c16 -46 36 -118 36 -118h2s20 72 36 118l89 257c10 31 30 45 62 45h90c35 0 54 -18 57 -53l49 -605c3 -36 -16 -57 -52 -57h-65c-35 0 -54 18 -57 53l-18 269c-4 54 0 120 0 120h-2s-24 -75 -40 -120
l-59 -163c-11 -30 -31 -44 -63 -44h-56c-32 0 -52 14 -63 44l-59 163c-16 45 -40 120 -40 120h-2s4 -66 0 -120l-18 -269c-3 -35 -22 -53 -57 -53h-66c-36 0 -55 21 -52 57z" />
    <glyph glyph-name="N" unicode="N" horiz-adv-x="742" 
d="M69 55v605c0 36 19 55 55 55h78c31 0 51 -11 66 -37l176 -297c28 -47 60 -122 60 -122h2s-8 77 -8 122v279c0 36 19 55 55 55h65c36 0 55 -19 55 -55v-605c0 -36 -19 -55 -55 -55h-78c-30 0 -50 11 -65 37l-177 296c-28 47 -60 122 -60 122h-2s8 -77 8 -122v-278
c0 -36 -19 -55 -55 -55h-65c-36 0 -55 19 -55 55z" />
    <glyph glyph-name="O" unicode="O" horiz-adv-x="812" 
d="M32 362c0 205 152 365 374 365s374 -160 374 -365c0 -210 -152 -374 -374 -374s-374 164 -374 374zM213 362c0 -122 80 -214 193 -214s193 92 193 214c0 117 -80 205 -193 205s-193 -88 -193 -205z" />
    <glyph glyph-name="P" unicode="P" horiz-adv-x="616" 
d="M69 55v605c0 36 19 55 55 55h242c139 0 233 -102 233 -246s-94 -248 -233 -248h-122v-166c0 -36 -19 -55 -55 -55h-65c-36 0 -55 19 -55 55zM244 371h86c61 0 91 41 91 98s-30 96 -88 96h-89v-194z" />
    <glyph glyph-name="Q" unicode="Q" horiz-adv-x="811" 
d="M32 362c0 205 152 365 374 365c221 0 374 -160 374 -365c0 -82 -29 -152 -71 -212l31 -25c28 -23 31 -51 7 -78l-25 -28c-24 -26 -50 -29 -73 -6l-37 34c-58 -38 -128 -59 -206 -59c-222 0 -374 164 -374 374zM213 362c0 -122 80 -214 193 -214c26 0 56 5 78 16l-32 28
c-26 23 -28 50 -5 77l25 28c24 27 50 30 73 8l35 -35c12 28 19 59 19 92c0 117 -83 205 -193 205c-113 0 -193 -88 -193 -205z" />
    <glyph glyph-name="R" unicode="R" horiz-adv-x="640" 
d="M69 55v605c0 36 19 55 55 55h194c73 0 108 -5 139 -17c81 -31 132 -104 132 -208c0 -76 -36 -159 -107 -195v-2s10 -13 27 -43l102 -184c22 -38 5 -66 -38 -66h-76c-30 0 -50 12 -65 39l-106 202h-82v-186c0 -36 -19 -55 -55 -55h-65c-36 0 -55 19 -55 55zM244 391h76
c56 0 91 31 91 88c0 36 -9 63 -42 76c-16 7 -37 10 -66 10h-59v-174z" />
    <glyph glyph-name="S" unicode="S" horiz-adv-x="567" 
d="M56 59c-21 17 -36 39 -10 76l31 45c20 29 43 31 76 13c23 -12 68 -44 130 -44c52 0 76 22 76 50c0 101 -316 85 -316 309c0 132 110 219 255 219c83 0 159 -29 193 -53c29 -21 32 -46 17 -75l-24 -47c-20 -39 -47 -33 -75 -19c-33 16 -66 33 -113 33
c-55 0 -78 -22 -78 -50c0 -104 316 -79 316 -305c0 -120 -90 -223 -251 -223c-100 0 -189 41 -227 71z" />
    <glyph glyph-name="T" unicode="T" horiz-adv-x="621" 
d="M223 55v510h-162c-36 0 -55 19 -55 55v40c0 36 19 55 55 55h499c36 0 55 -19 55 -55v-40c0 -36 -19 -55 -55 -55h-162v-510c0 -36 -19 -55 -55 -55h-65c-36 0 -55 19 -55 55z" />
    <glyph glyph-name="U" unicode="U" horiz-adv-x="722" 
d="M62 263v397c0 36 19 55 55 55h65c36 0 55 -19 55 -55v-397c0 -75 49 -115 124 -115s124 40 124 115v397c0 36 19 55 55 55h65c36 0 55 -19 55 -55v-397c0 -161 -118 -275 -298 -275c-182 0 -300 114 -300 275z" />
    <glyph glyph-name="V" unicode="V" horiz-adv-x="660" 
d="M223 44l-215 608c-13 38 4 63 45 63h75c33 0 53 -15 62 -46l112 -361c14 -45 27 -115 27 -115h2s13 70 27 115l114 361c9 31 29 46 62 46h72c41 0 58 -25 45 -63l-214 -608c-11 -30 -31 -44 -63 -44h-88c-32 0 -52 14 -63 44z" />
    <glyph glyph-name="W" unicode="W" horiz-adv-x="983" 
d="M175 48l-147 606c-9 38 9 61 48 61h71c33 0 53 -16 60 -49l80 -398c9 -44 9 -75 9 -75h2s1 31 12 75l98 399c8 32 28 48 61 48h43c33 0 53 -16 60 -48l96 -399c11 -44 12 -75 12 -75h2s0 31 9 75l87 399c7 32 27 48 61 48h68c39 0 57 -23 48 -61l-154 -607
c-8 -32 -28 -47 -61 -47h-97c-33 0 -53 16 -61 48l-78 313c-11 46 -14 84 -14 84h-2s-3 -38 -14 -84l-78 -313c-8 -32 -28 -48 -61 -48h-99c-33 0 -53 16 -61 48z" />
    <glyph glyph-name="X" unicode="X" horiz-adv-x="640" 
d="M39 66l177 289l-178 294c-23 38 -7 66 37 66h78c30 0 50 -12 65 -39l57 -108c24 -45 44 -92 44 -92h2s19 46 44 92l58 108c15 27 35 39 65 39h78c44 0 60 -28 37 -66l-179 -294l177 -289c24 -38 8 -66 -37 -66h-73c-30 0 -50 12 -65 39l-61 111c-25 45 -44 89 -44 89h-2
s-19 -44 -44 -89l-61 -111c-15 -27 -35 -39 -65 -39h-72c-45 0 -61 28 -38 66z" />
    <glyph glyph-name="Y" unicode="Y" horiz-adv-x="601" 
d="M213 55v238l-199 356c-22 38 -5 66 38 66h79c31 0 51 -13 64 -41l62 -131c23 -49 43 -103 43 -103h2s20 54 43 103l61 131c13 28 33 41 64 41h79c43 0 60 -28 38 -66l-199 -356v-238c0 -36 -19 -55 -55 -55h-65c-36 0 -55 19 -55 55z" />
    <glyph glyph-name="Z" unicode="Z" horiz-adv-x="621" 
d="M30 55v17c0 27 6 47 22 69l254 360c31 44 55 65 55 65v2s-23 -3 -55 -3h-208c-36 0 -55 19 -55 55v40c0 36 19 55 55 55h430c36 0 55 -19 55 -54v-16c0 -27 -6 -47 -22 -69l-255 -362c-31 -44 -55 -65 -55 -65v-2s23 3 55 3h227c36 0 55 -19 55 -55v-40
c0 -36 -19 -55 -55 -55h-448c-36 0 -55 19 -55 55z" />
    <glyph glyph-name="bracketleft" unicode="[" horiz-adv-x="332" 
d="M61 -40v735c0 36 19 55 55 55h136c36 0 55 -19 55 -55v-10c0 -36 -18 -55 -51 -55h-51v-605h47c36 0 55 -19 55 -55v-10c0 -36 -19 -55 -55 -55h-136c-36 0 -55 19 -55 55z" />
    <glyph glyph-name="backslash" unicode="\" horiz-adv-x="422" 
d="M252 3l-221 684c-12 39 6 63 46 63h30c33 0 53 -15 63 -45l221 -685c12 -38 -6 -62 -46 -62h-30c-33 0 -53 15 -63 45z" />
    <glyph glyph-name="bracketright" unicode="]" horiz-adv-x="332" 
d="M25 -30c0 36 19 55 55 55h47v605h-47c-36 0 -55 19 -55 55v10c0 36 19 55 55 55h136c36 0 55 -19 55 -55v-735c0 -36 -19 -55 -55 -55h-136c-36 0 -55 19 -55 55v10z" />
    <glyph glyph-name="asciicircum" unicode="^" horiz-adv-x="630" 
d="M128 241c-42 0 -59 26 -43 64l158 368c12 29 32 42 64 42h15c32 0 52 -13 64 -42l158 -368c16 -38 -1 -64 -43 -64h-28c-32 0 -52 14 -63 44l-96 256l-95 -256c-11 -30 -31 -44 -63 -44h-28z" />
    <glyph glyph-name="underscore" unicode="_" horiz-adv-x="584" 
d="M-6 -55c0 36 19 55 55 55h486c36 0 55 -19 55 -55v-20c0 -36 -19 -55 -55 -55h-486c-36 0 -55 19 -55 55v20z" />
    <glyph glyph-name="grave" unicode="`" horiz-adv-x="484" 
d="M275 761c-29 0 -49 10 -67 33l-39 50c-29 36 -19 67 28 67h46c30 0 50 -12 65 -39l28 -51c16 -30 12 -60 -25 -60h-36z" />
    <glyph glyph-name="a" unicode="a" horiz-adv-x="538" 
d="M16 145c0 138 164 176 291 176h15v9c0 43 -35 57 -73 57c-33 0 -67 -11 -93 -23c-33 -14 -58 -8 -74 24l-12 25c-15 31 -9 58 22 74c39 18 99 40 173 40c142 0 230 -79 230 -210v-262c0 -36 -19 -55 -55 -55h-48c-36 0 -55 18 -55 56v4c0 6 1 10 1 10h-2
s-49 -82 -152 -82c-99 0 -168 68 -168 157zM187 161c0 -24 17 -44 49 -44c50 0 88 49 88 91v14h-16c-53 0 -121 -14 -121 -61z" />
    <glyph glyph-name="b" unicode="b" horiz-adv-x="620" 
d="M52 55v605c0 36 19 55 55 55h63c36 0 55 -19 55 -55v-154c0 -26 -2 -44 -2 -44h2s46 65 142 65c135 0 229 -110 229 -267c0 -166 -104 -272 -237 -272c-109 0 -147 72 -147 72h-2s1 -4 1 -10v-4c0 -27 -19 -46 -55 -46h-49c-36 0 -55 19 -55 55zM220 259
c0 -69 34 -128 99 -128c57 0 103 44 103 124c0 75 -41 126 -100 126c-53 0 -102 -40 -102 -122z" />
    <glyph glyph-name="c" unicode="c" horiz-adv-x="529" 
d="M22 258c0 138 102 269 287 269c78 0 133 -24 166 -46c28 -18 30 -46 12 -75l-17 -26c-19 -31 -42 -32 -74 -16c-20 10 -46 19 -76 19c-82 0 -123 -62 -123 -123s42 -128 129 -128c34 0 68 14 93 29c33 18 58 14 75 -19l13 -25c15 -30 12 -57 -15 -75
c-36 -24 -98 -54 -183 -54c-184 0 -287 128 -287 270z" />
    <glyph glyph-name="d" unicode="d" horiz-adv-x="620" 
d="M24 258c0 163 98 269 235 269c104 0 135 -51 135 -51h2s-1 10 -1 23v161c0 36 19 55 55 55h63c36 0 55 -19 55 -55v-605c0 -36 -19 -55 -55 -55h-52c-36 0 -55 17 -55 50v6c0 2 1 7 1 7h-2s-43 -75 -149 -75c-140 0 -232 110 -232 270zM198 258c0 -77 41 -127 101 -127
c52 0 101 38 101 127c0 62 -33 123 -101 123c-54 0 -101 -44 -101 -123z" />
    <glyph glyph-name="e" unicode="e" horiz-adv-x="548" 
d="M22 258c0 151 102 269 268 269c153 0 238 -108 238 -246c0 -27 -24 -57 -58 -57h-271c13 -63 65 -92 120 -92c35 0 68 11 94 24c33 15 57 11 74 -21l14 -26c16 -31 11 -58 -19 -75c-37 -21 -98 -46 -177 -46c-184 0 -283 133 -283 270zM203 323h154c0 42 -27 77 -71 77
c-50 0 -74 -36 -83 -77z" />
    <glyph glyph-name="f" unicode="f" horiz-adv-x="364" 
d="M86 55v316h-13c-36 0 -55 19 -55 55v25c0 36 19 55 55 55h13v25c0 164 162 188 216 188h17c36 0 55 -19 55 -55v-37c0 -36 -19 -52 -55 -55c-22 -2 -60 -6 -60 -50v-16h40c36 0 55 -19 55 -55v-25c0 -36 -19 -55 -55 -55h-40v-316c0 -36 -19 -55 -55 -55h-63
c-36 0 -55 19 -55 55z" />
    <glyph glyph-name="g" unicode="g" horiz-adv-x="612" 
d="M104 -84c13 34 33 44 70 32c25 -8 52 -14 92 -14c65 0 121 23 121 99v26c0 6 1 19 1 19h-2c-28 -41 -65 -63 -126 -63c-158 0 -235 127 -235 259c0 131 75 253 236 253c110 0 141 -67 141 -67h2s-1 4 -1 10v2c0 24 19 43 55 43h47c36 0 55 -19 55 -55v-413
c0 -188 -153 -257 -284 -257c-60 0 -122 12 -153 25c-34 14 -43 36 -30 71zM298 159c45 0 93 23 93 113c0 91 -48 111 -100 111c-61 0 -92 -44 -92 -103c0 -64 30 -121 99 -121z" />
    <glyph glyph-name="h" unicode="h" horiz-adv-x="611" 
d="M52 55v605c0 36 19 55 55 55h63c36 0 55 -19 55 -55v-171c0 -26 -2 -44 -2 -44h2c29 51 89 82 157 82c104 0 185 -48 185 -193v-279c0 -36 -19 -55 -55 -55h-63c-36 0 -55 19 -55 55v247c0 48 -19 68 -57 68c-75 0 -112 -59 -112 -138v-177c0 -36 -19 -55 -55 -55h-63
c-36 0 -55 19 -55 55z" />
    <glyph glyph-name="i" unicode="i" horiz-adv-x="275" 
d="M108 580c-36 0 -55 19 -55 55v25c0 36 19 55 55 55h59c36 0 55 -19 55 -55v-25c0 -36 -19 -55 -55 -55h-59zM51 55v405c0 36 19 55 55 55h63c36 0 55 -19 55 -55v-405c0 -36 -19 -55 -55 -55h-63c-36 0 -55 19 -55 55z" />
    <glyph glyph-name="j" unicode="j" horiz-adv-x="277" 
d="M109 580c-36 0 -55 19 -55 55v25c0 36 19 55 55 55h59c36 0 55 -19 55 -55v-25c0 -36 -19 -55 -55 -55h-59zM52 4v456c0 36 19 55 55 55h63c36 0 55 -19 55 -55v-469c0 -167 -163 -199 -215 -199h-18c-36 0 -55 19 -55 55v38c0 44 28 51 55 55s60 14 60 64z" />
    <glyph glyph-name="k" unicode="k" horiz-adv-x="570" 
d="M52 55v605c0 36 19 55 55 55h63c36 0 55 -19 55 -55v-315h49l80 133c15 26 35 37 65 37h66c45 0 60 -29 36 -66l-108 -168v-2l131 -213c23 -38 8 -66 -37 -66h-75c-30 0 -50 12 -65 39l-88 161h-54v-145c0 -36 -19 -55 -55 -55h-63c-36 0 -55 19 -55 55z" />
    <glyph glyph-name="l" unicode="l" horiz-adv-x="307" 
d="M49 190v470c0 36 19 55 55 55h63c36 0 55 -19 55 -55v-462c0 -39 13 -49 29 -51c24 -3 40 -17 40 -47v-49c0 -34 -16 -56 -56 -56c-89 0 -186 22 -186 195z" />
    <glyph glyph-name="m" unicode="m" horiz-adv-x="892" 
d="M51 55v405c0 36 19 55 55 55h56c36 0 54 -19 54 -55v-9c0 -5 -1 -13 -1 -13h2c24 36 72 89 153 89c65 0 117 -29 144 -87h2c27 43 88 87 165 87c94 0 167 -51 167 -193v-279c0 -36 -19 -55 -55 -55h-63c-36 0 -55 19 -55 55v250c0 38 -7 65 -40 65
c-75 0 -99 -75 -99 -152v-163c0 -36 -19 -55 -55 -55h-63c-36 0 -55 19 -55 55v250c0 38 -7 65 -40 65c-79 0 -99 -81 -99 -152v-163c0 -36 -19 -55 -55 -55h-63c-36 0 -55 19 -55 55z" />
    <glyph glyph-name="n" unicode="n" horiz-adv-x="610" 
d="M51 55v405c0 36 19 55 55 55h56c36 0 54 -19 54 -55v-9c0 -5 -1 -13 -1 -13h2c24 40 73 89 164 89c104 0 185 -48 185 -193v-279c0 -36 -19 -55 -55 -55h-63c-36 0 -55 19 -55 55v247c0 48 -19 68 -57 68c-77 0 -112 -64 -112 -137v-178c0 -36 -19 -55 -55 -55h-63
c-36 0 -55 19 -55 55z" />
    <glyph glyph-name="o" unicode="o" horiz-adv-x="628" 
d="M22 256c0 162 130 271 291 271c163 0 293 -109 293 -271c0 -161 -130 -268 -292 -268s-292 107 -292 268zM197 256c0 -77 54 -124 117 -124s117 47 117 124c0 78 -54 127 -117 127s-117 -49 -117 -127z" />
    <glyph glyph-name="p" unicode="p" horiz-adv-x="620" 
d="M52 -145v605c0 36 19 55 55 55h45c36 0 55 -19 55 -45v-11c0 -5 -1 -10 -1 -10h2s47 78 156 78c140 0 232 -110 232 -270c0 -163 -103 -269 -240 -269c-93 0 -131 59 -131 59h-2s2 -18 2 -44v-148c0 -36 -19 -55 -55 -55h-63c-36 0 -55 19 -55 55zM220 254
c0 -62 33 -123 101 -123c54 0 101 44 101 123c0 77 -41 127 -101 127c-52 0 -101 -38 -101 -127z" />
    <glyph glyph-name="q" unicode="q" horiz-adv-x="620" 
d="M24 258c0 163 99 269 238 269c112 0 148 -69 148 -69h2s-1 4 -1 10v4c0 24 19 43 55 43h47c36 0 55 -19 55 -55v-605c0 -36 -19 -55 -55 -55h-63c-36 0 -55 19 -55 55v156c0 26 2 44 2 44h-2s-36 -67 -144 -67c-132 0 -227 110 -227 270zM198 258c0 -77 41 -127 101 -127
c52 0 101 38 101 127c0 62 -33 123 -101 123c-54 0 -101 -44 -101 -123z" />
    <glyph glyph-name="r" unicode="r" horiz-adv-x="405" 
d="M51 55v405c0 36 19 55 55 55h56c36 0 55 -19 55 -55v-32c0 -17 -2 -32 -2 -32h2c17 53 72 124 137 124c35 0 47 -19 47 -55v-56c0 -36 -19 -55 -55 -55c-82 0 -122 -70 -122 -154v-145c0 -36 -19 -55 -55 -55h-63c-36 0 -55 19 -55 55z" />
    <glyph glyph-name="s" unicode="s" horiz-adv-x="460" 
d="M51 35c-30 17 -33 46 -14 76l15 23c20 29 42 32 76 16c25 -11 57 -27 98 -27c35 0 47 13 47 29c0 60 -241 31 -241 212c0 106 95 163 214 163c65 0 114 -18 146 -33c31 -15 35 -43 20 -74l-12 -24c-15 -32 -39 -37 -73 -24c-24 9 -54 20 -88 20c-37 0 -46 -13 -46 -27
c0 -59 241 -29 241 -208c0 -96 -80 -169 -212 -169c-77 0 -135 26 -171 47z" />
    <glyph glyph-name="t" unicode="t" horiz-adv-x="399" 
d="M86 183v188h-15c-35 0 -54 19 -54 55v25c0 36 19 55 55 55h19v93c0 36 19 55 55 55h58c36 0 55 -19 55 -55v-93h53c36 0 55 -19 55 -55v-25c0 -36 -19 -55 -54 -55h-54v-156c0 -44 29 -61 60 -65c40 -5 55 -17 55 -55v-45c0 -41 -25 -55 -71 -55c-76 0 -217 35 -217 188z
" />
    <glyph glyph-name="u" unicode="u" horiz-adv-x="606" 
d="M45 181v279c0 36 19 55 55 55h63c36 0 55 -19 55 -55v-247c0 -48 19 -68 55 -68c74 0 109 65 109 142v173c0 36 19 55 55 55h63c36 0 55 -19 55 -55v-405c0 -36 -19 -55 -55 -55h-56c-36 0 -54 19 -54 55v9c0 5 1 13 1 13h-2c-28 -55 -92 -89 -161 -89
c-102 0 -183 48 -183 193z" />
    <glyph glyph-name="v" unicode="v" horiz-adv-x="554" 
d="M157 45l-141 407c-13 38 4 63 45 63h67c32 0 52 -15 61 -46l67 -228c10 -33 19 -89 19 -89h2s9 55 19 89l66 228c9 31 29 46 61 46h69c40 0 58 -25 45 -63l-139 -407c-10 -31 -30 -45 -62 -45h-117c-32 0 -52 14 -62 45z" />
    <glyph glyph-name="w" unicode="w" horiz-adv-x="822" 
d="M135 47l-114 406c-10 38 8 62 47 62h68c34 0 53 -16 60 -49l54 -255c6 -28 6 -54 6 -54h2s2 26 9 54l60 256c7 32 27 48 60 48h50c33 0 53 -16 60 -48l60 -256c7 -28 8 -54 8 -54h2s1 26 7 54l54 255c7 33 26 49 60 49h66c39 0 57 -24 47 -62l-114 -406
c-9 -32 -29 -47 -61 -47h-96c-33 0 -53 16 -61 48l-46 190c-7 28 -10 55 -10 55h-2s-3 -27 -10 -55l-46 -190c-8 -32 -28 -48 -61 -48h-98c-32 0 -52 15 -61 47z" />
    <glyph glyph-name="x" unicode="x" horiz-adv-x="522" 
d="M39 66l120 189l-124 194c-24 37 -8 66 37 66h71c31 0 51 -13 65 -40l36 -75c7 -13 16 -34 16 -34h2s10 21 16 34l36 75c14 27 34 40 65 40h71c45 0 61 -29 37 -66l-123 -194l120 -189c24 -37 8 -66 -37 -66h-67c-30 0 -50 12 -65 39l-41 77c-5 9 -12 26 -12 26h-2
s-7 -17 -12 -26l-40 -77c-15 -27 -35 -39 -65 -39h-67c-45 0 -61 29 -37 66z" />
    <glyph glyph-name="y" unicode="y" horiz-adv-x="532" 
d="M30 -96c14 31 35 36 56 32c8 -2 18 -5 30 -5c31 0 59 25 71 55l10 24l-191 441c-17 38 0 64 42 64h78c33 0 53 -15 63 -45l61 -192c9 -28 19 -80 19 -80h2s10 49 17 77l52 193c9 32 29 47 62 47h73c40 0 58 -25 44 -63l-188 -507c-43 -115 -133 -155 -215 -155
c-27 0 -52 6 -72 13c-33 11 -41 40 -27 72z" />
    <glyph glyph-name="z" unicode="z" horiz-adv-x="524" 
d="M24 43v13c0 27 7 39 24 61l165 206c26 32 45 47 45 47v2s-13 -2 -45 -2h-126c-36 0 -55 19 -55 55v35c0 36 19 55 55 55h350c36 0 55 -15 55 -43v-13c0 -27 -7 -39 -24 -61l-164 -207c-25 -31 -46 -47 -46 -47v-2s13 3 46 3h138c36 0 55 -19 55 -55v-35
c0 -36 -19 -55 -55 -55h-363c-36 0 -55 15 -55 43z" />
    <glyph glyph-name="braceleft" unicode="{" horiz-adv-x="371" 
d="M104 62v98c0 46 -20 70 -40 83c-28 16 -45 28 -45 60v56c0 32 17 44 44 61c21 12 41 37 41 85v88c0 133 119 162 169 162h18c36 0 55 -19 55 -55v-20c0 -36 -19 -55 -55 -55c-19 0 -43 -7 -43 -53v-112c0 -102 -84 -127 -84 -127v-2s84 -21 84 -126v-122
c0 -46 24 -53 43 -53c36 0 55 -19 55 -55v-20c0 -36 -19 -55 -55 -55h-18c-50 0 -169 29 -169 162z" />
    <glyph glyph-name="bar" unicode="|" horiz-adv-x="264" 
d="M60 -110v857c0 36 19 55 55 55h34c36 0 55 -19 55 -55v-857c0 -36 -19 -55 -55 -55h-34c-36 0 -55 19 -55 55z" />
    <glyph glyph-name="braceright" unicode="}" horiz-adv-x="372" 
d="M25 -25c0 36 19 55 55 55c19 0 43 7 43 53v122c0 105 84 126 84 126v2s-84 25 -84 127v112c0 46 -24 53 -43 53c-36 0 -55 19 -55 55v20c0 36 19 55 55 55h18c50 0 169 -29 169 -162v-88c0 -48 20 -73 41 -85c27 -17 44 -29 44 -61v-56c0 -32 -17 -44 -45 -60
c-20 -13 -40 -37 -40 -83v-98c0 -133 -119 -162 -169 -162h-18c-36 0 -55 19 -55 55v20z" />
    <glyph glyph-name="asciitilde" unicode="~" 
d="M90 191c-37 0 -59 24 -51 66c17 90 73 137 168 137c93 0 120 -80 172 -80c19 0 35 9 45 27c16 31 26 49 59 49h27c37 0 59 -21 53 -58c-15 -96 -72 -145 -169 -145c-93 0 -120 80 -173 80c-19 0 -34 -9 -44 -27c-16 -31 -26 -49 -59 -49h-28z" />
    <glyph glyph-name="exclamdown" unicode="&#xa1;" horiz-adv-x="276" 
d="M158 294c35 0 55 -19 56 -54l12 -384c1 -36 -18 -56 -54 -56h-68c-36 0 -55 20 -54 56l12 384c1 35 21 54 56 54h40zM217 460v-40c0 -36 -19 -55 -55 -55h-48c-36 0 -55 19 -55 55v40c0 36 19 55 55 55h48c36 0 55 -19 55 -55z" />
    <glyph glyph-name="cent" unicode="&#xa2;" horiz-adv-x="570" 
d="M246 43v32c-118 27 -213 140 -213 283c0 142 95 256 213 283v30c0 36 16 55 52 55h6c36 0 52 -15 52 -42v-43c72 -14 146 -73 170 -121c16 -32 7 -57 -30 -71l-54 -21c-38 -15 -52 1 -72 25c-18 21 -39 31 -62 31c-50 0 -101 -47 -101 -130c0 -77 45 -122 100 -122
c26 0 45 10 63 31s35 40 72 26l54 -21c35 -14 46 -39 29 -72c-22 -43 -94 -113 -169 -121v-32c0 -36 -16 -55 -52 -55h-6c-36 0 -52 19 -52 55z" />
    <glyph glyph-name="sterling" unicode="&#xa3;" horiz-adv-x="611" 
d="M50 55v40c0 36 19 55 55 55h5v149h-10c-36 0 -50 17 -50 53v6c0 36 14 53 50 53h10v100c0 128 103 216 244 216c66 0 119 -26 153 -49c30 -19 29 -48 7 -76l-27 -35c-21 -28 -46 -27 -77 -11c-15 8 -33 14 -51 14c-38 0 -70 -25 -70 -64v-95h110c36 0 55 -17 55 -53v-6
c0 -36 -19 -53 -55 -53h-110v-149h235c36 0 55 -19 55 -55v-40c0 -36 -19 -55 -55 -55h-419c-36 0 -55 19 -55 55z" />
    <glyph glyph-name="yen" unicode="&#xa5;" horiz-adv-x="617" 
d="M111 167c-36 0 -55 14 -55 45v6c0 31 19 45 55 45h108v28l-24 49h-84c-36 0 -55 14 -55 45v6c0 31 16 45 46 45h46l-105 214c-19 38 -2 65 40 65h82c32 0 52 -14 63 -44l37 -99c24 -66 43 -133 43 -133h2s19 67 43 133l37 99c11 30 31 44 63 44h81c43 0 60 -27 41 -65
l-106 -214h38c36 0 55 -14 55 -45v-6c0 -31 -19 -45 -55 -45h-85l-24 -49v-28h109c36 0 55 -14 55 -45v-6c0 -31 -19 -45 -55 -45h-109v-112c0 -36 -19 -55 -55 -55h-69c-36 0 -55 19 -55 55v112h-108z" />
    <glyph glyph-name="section" unicode="&#xa7;" horiz-adv-x="512" 
d="M122 226l-63 226c-7 26 -10 51 -10 75c0 114 77 200 231 200c74 0 130 -24 165 -45c29 -18 32 -47 12 -76l-14 -20c-20 -29 -43 -31 -75 -16c-22 10 -52 19 -86 19c-55 0 -98 -17 -98 -83c0 -19 3 -41 10 -67l55 -198c10 -38 -7 -62 -47 -62h-19c-32 0 -52 15 -61 47z
M52 59l14 23c19 31 43 33 75 17c24 -13 56 -24 91 -24c53 0 98 23 98 94c0 21 -4 46 -13 77l-50 178c-11 38 7 62 46 62h18c33 0 53 -15 62 -47l61 -226c7 -26 10 -51 10 -75c0 -114 -77 -200 -231 -200c-75 0 -131 24 -166 46c-29 18 -32 46 -15 75z" />
    <glyph glyph-name="dieresis" unicode="&#xa8;" horiz-adv-x="485" 
d="M339 771c-36 0 -55 19 -55 55v30c0 36 19 55 55 55h16c36 0 55 -19 55 -55v-30c0 -36 -19 -55 -55 -55h-16zM130 771c-36 0 -55 19 -55 55v30c0 36 19 55 55 55h16c36 0 55 -19 55 -55v-30c0 -36 -19 -55 -55 -55h-16z" />
    <glyph glyph-name="copyright" unicode="&#xa9;" horiz-adv-x="796" 
d="M37 358c0 204 160 368 360 368s362 -164 362 -368s-162 -370 -362 -370s-360 166 -360 370zM150 358c0 -149 107 -267 247 -267s250 118 250 267c0 148 -109 265 -250 265s-247 -117 -247 -265zM226 355c0 106 78 187 176 187c64 0 111 -35 131 -64c17 -25 8 -45 -5 -56
l-19 -16c-19 -16 -46 -8 -63 12c-8 9 -18 19 -42 19c-32 0 -61 -30 -61 -85c0 -50 24 -79 61 -79c31 0 43 13 51 22c17 19 36 23 54 8l18 -15c24 -20 18 -41 5 -58c-19 -25 -64 -62 -130 -62c-98 0 -176 81 -176 187z" />
    <glyph glyph-name="ordfeminine" unicode="&#xaa;" horiz-adv-x="394" 
d="M148 383c-56 0 -107 39 -107 103c0 104 134 108 181 108h5v8c0 27 -21 36 -46 36c-12 0 -31 -4 -42 -8c-27 -10 -49 -5 -57 16l-4 10c-8 19 -3 40 33 54c18 7 51 15 89 15c95 0 145 -53 145 -135v-145c0 -36 -17 -55 -49 -55h-3c-32 0 -49 18 -49 50v4h-2
s-23 -61 -94 -61zM181 472c24 0 45 22 45 45v5h-10c-29 0 -58 -7 -58 -30c0 -14 11 -20 23 -20zM99 268c-36 0 -55 12 -55 40v6c0 27 19 39 55 39h195c36 0 55 -12 55 -39v-6c0 -28 -19 -40 -55 -40h-195z" />
    <glyph glyph-name="guillemotleft" unicode="&#xab;" horiz-adv-x="602" 
d="M309 243c-21 26 -21 52 0 78l107 135c18 22 38 32 67 32h31c47 0 62 -31 32 -67l-110 -139l110 -138c29 -36 18 -67 -25 -67h-38c-29 0 -49 10 -67 32zM156 109l-107 134c-21 26 -21 52 0 78l107 135c18 22 38 32 67 32h31c47 0 62 -31 32 -67l-110 -139l110 -138
c29 -36 18 -67 -25 -67h-38c-29 0 -49 10 -67 32z" />
    <glyph glyph-name="logicalnot" unicode="&#xac;" horiz-adv-x="602" 
d="M90 337c-36 0 -55 19 -55 55v20c0 36 19 55 55 55h396c36 0 55 -19 55 -55v-225c0 -36 -19 -55 -55 -55h-25c-36 0 -55 19 -55 55v150h-316z" />
    <glyph glyph-name="registered" unicode="&#xae;" horiz-adv-x="796" 
d="M37 358c0 204 161 368 359 368c202 0 363 -164 363 -368s-161 -370 -363 -370c-198 0 -359 166 -359 370zM150 358c0 -149 107 -267 246 -267c142 0 251 118 251 267c0 148 -109 265 -251 265c-139 0 -246 -117 -246 -265zM266 242v237c0 36 19 55 55 55h108
c75 0 122 -45 122 -115c0 -56 -41 -84 -58 -89v-2s5 -4 13 -20l29 -56c20 -38 9 -65 -25 -65h-13c-32 0 -52 13 -64 42l-31 76h-28v-63c0 -36 -16 -55 -51 -55h-6c-35 0 -51 19 -51 55zM374 377h27c26 0 40 15 40 42c0 28 -14 41 -38 41h-29v-83z" />
    <glyph glyph-name="macron" unicode="&#xaf;" horiz-adv-x="485" 
d="M160 782c-36 0 -55 16 -55 52v8c0 36 19 52 55 52h165c36 0 55 -16 55 -52v-8c0 -36 -19 -52 -55 -52h-165z" />
    <glyph glyph-name="degree" unicode="&#xb0;" horiz-adv-x="408" 
d="M204 385c-101 0 -181 76 -181 172c0 94 80 173 181 173c100 0 181 -79 181 -173c0 -96 -81 -172 -181 -172zM204 505c30 0 55 23 55 53c0 28 -25 52 -55 52s-55 -24 -55 -52c0 -30 25 -53 55 -53z" />
    <glyph glyph-name="plusminus" unicode="&#xb1;" horiz-adv-x="630" 
d="M97 222c-36 0 -55 19 -55 55v20c0 36 19 55 55 55h150v168c0 36 19 55 55 55h26c36 0 55 -19 55 -55v-168h150c36 0 55 -19 55 -55v-20c0 -36 -19 -55 -55 -55h-150v-167c0 -36 -19 -55 -55 -55h-26c-36 0 -55 19 -55 55v167h-150zM107 -70h416c36 0 55 -19 55 -55v-20
c0 -36 -19 -55 -55 -55h-416c-36 0 -55 19 -55 55v20c0 36 19 55 55 55z" />
    <glyph glyph-name="twosuperior" unicode="&#xb2;" horiz-adv-x="381" 
d="M77 423c-36 0 -55 19 -55 52c0 173 199 185 199 250c0 23 -22 34 -45 34c-12 0 -24 -4 -34 -10c-29 -18 -49 -25 -75 -3l-7 6c-27 23 -29 51 -3 74c27 23 69 48 128 48c76 0 163 -43 163 -143c0 -139 -175 -158 -185 -200h136c36 0 55 -16 55 -51v-6
c0 -35 -19 -51 -55 -51h-222z" />
    <glyph glyph-name="threesuperior" unicode="&#xb3;" horiz-adv-x="369" 
d="M167 413c-55 0 -95 17 -121 35c-29 18 -31 42 -13 70l5 8c19 30 40 29 71 14c14 -7 30 -12 50 -12c34 0 54 18 54 42c0 22 -27 36 -55 36h-7c-25 0 -41 9 -49 29c-8 19 -3 39 18 62l32 35c7 9 24 23 24 23v2s-21 -2 -34 -2h-55c-36 0 -55 16 -55 52v6c0 35 19 51 55 51
h184c36 0 55 -14 55 -39v-7c0 -26 -8 -41 -26 -62l-57 -62c68 -17 97 -66 97 -126c0 -77 -59 -155 -173 -155z" />
    <glyph glyph-name="acute" unicode="&#xb4;" horiz-adv-x="484" 
d="M180 761c-37 0 -51 28 -32 61l28 50c15 27 35 39 65 39h46c47 0 57 -31 28 -67l-39 -50c-18 -23 -38 -33 -67 -33h-29z" />
    <glyph glyph-name="mu" unicode="&#xb5;" horiz-adv-x="648" 
d="M66 -145v605c0 36 19 55 55 55h63c36 0 55 -19 55 -55v-247c0 -48 19 -68 55 -68c74 0 109 65 109 142v173c0 36 19 55 55 55h63c36 0 55 -19 55 -55v-405c0 -36 -19 -55 -55 -55h-56c-36 0 -54 19 -54 55v9c0 5 1 13 1 13h-2c-28 -55 -92 -89 -161 -89
c-25 0 -42 4 -42 4h-2s8 -48 8 -88v-49c0 -36 -19 -55 -55 -55h-37c-36 0 -55 19 -55 55z" />
    <glyph glyph-name="paragraph" unicode="&#xb6;" horiz-adv-x="664" 
d="M264 5v236c-129 0 -233 104 -233 238s104 236 233 236h302c36 0 55 -19 55 -55v-40c0 -36 -19 -55 -55 -55h-182v-560c0 -36 -19 -55 -55 -55h-10c-36 0 -55 19 -55 55zM446 5v455c0 36 19 55 55 55h10c36 0 55 -19 55 -55v-455c0 -36 -19 -55 -55 -55h-10
c-36 0 -55 19 -55 55z" />
    <glyph glyph-name="periodcentered" unicode="&#xb7;" horiz-adv-x="258" 
d="M105 213c-36 0 -55 19 -55 55v54c0 36 19 55 55 55h48c36 0 55 -19 55 -55v-54c0 -36 -19 -55 -55 -55h-48z" />
    <glyph glyph-name="cedilla" unicode="&#xb8;" horiz-adv-x="484" 
d="M176 -44l21 66h77l-13 -58c40 -4 75 -27 75 -80c0 -72 -60 -94 -117 -94c-27 0 -64 5 -64 41c0 30 13 43 24 43c10 0 18 -2 25 -2c17 0 27 9 27 24c0 17 -17 22 -41 24c-17 1 -21 14 -14 36z" />
    <glyph glyph-name="onesuperior" unicode="&#xb9;" horiz-adv-x="340" 
d="M82 423c-36 0 -55 16 -55 51v6c0 35 16 51 45 51h44v143c0 19 3 32 3 32h-2s-3 -6 -9 -11l-7 -6c-11 -9 -29 -8 -42 5l-16 16c-24 24 -19 51 7 75l55 52c21 19 40 27 68 27h14c36 0 55 -19 55 -55v-278h35c36 0 55 -16 55 -51v-6c0 -35 -19 -51 -55 -51h-195z" />
    <glyph glyph-name="ordmasculine" unicode="&#xba;" horiz-adv-x="438" 
d="M219 385c-100 0 -182 68 -182 170s82 170 181 170c102 0 184 -68 184 -170s-82 -170 -183 -170zM219 488c34 0 63 25 63 67c0 41 -29 68 -63 68s-63 -27 -63 -68c0 -42 29 -67 63 -67zM105 268c-36 0 -55 12 -55 40v6c0 27 19 39 55 39h228c36 0 55 -12 55 -39v-6
c0 -28 -19 -40 -55 -40h-228z" />
    <glyph glyph-name="guillemotright" unicode="&#xbb;" horiz-adv-x="602" 
d="M315 144l110 138l-110 139c-30 36 -18 67 25 67h38c29 0 49 -10 67 -32l107 -135c21 -26 21 -52 0 -78l-107 -134c-18 -22 -38 -32 -67 -32h-31c-47 0 -61 31 -32 67zM87 77c-47 0 -61 31 -32 67l110 138l-110 139c-30 36 -18 67 25 67h38c29 0 49 -10 67 -32l107 -135
c21 -26 21 -52 0 -78l-107 -134c-18 -22 -38 -32 -67 -32h-31z" />
    <glyph glyph-name="onequarter" unicode="&#xbc;" horiz-adv-x="1002" 
d="M845 0c-36 0 -55 19 -55 55v32h-142c-36 0 -55 15 -55 42v14c0 27 5 37 20 59l128 203c16 25 36 36 66 36h52c36 0 55 -19 55 -55v-192h12c34 0 46 -19 46 -50v-6c0 -32 -12 -51 -46 -51h-12v-32c0 -36 -19 -55 -55 -55h-14zM712 194h78v90c0 25 4 50 4 50h-2
s-9 -27 -21 -46l-59 -92v-2zM401 41c-13 -28 -33 -41 -64 -41h-17c-35 0 -45 26 -27 65l287 609c13 28 33 41 64 41h17c35 0 45 -26 27 -65zM96 274c-36 0 -55 16 -55 51v6c0 35 16 51 45 51h44v143c0 19 3 32 3 32h-2s-3 -6 -9 -11l-7 -6c-11 -9 -29 -8 -42 5l-16 16
c-24 24 -19 51 7 75l55 52c21 19 40 27 68 27h14c36 0 55 -19 55 -55v-278h35c36 0 55 -16 55 -51v-6c0 -35 -19 -51 -55 -51h-195z" />
    <glyph glyph-name="onehalf" unicode="&#xbd;" horiz-adv-x="985" 
d="M400 41c-13 -28 -33 -41 -64 -41h-17c-35 0 -45 26 -27 65l287 609c13 28 33 41 64 41h17c35 0 45 -26 27 -65zM91 274c-36 0 -55 16 -55 51v6c0 35 16 51 45 51h44v143c0 19 3 32 3 32h-2s-3 -6 -9 -11l-7 -6c-11 -9 -29 -8 -42 5l-16 16c-24 24 -19 51 7 75l55 52
c21 19 40 27 68 27h14c36 0 55 -19 55 -55v-278h35c36 0 55 -16 55 -51v-6c0 -35 -19 -51 -55 -51h-195zM675 0c-36 0 -55 19 -55 52c0 173 199 185 199 250c0 23 -22 34 -45 34c-12 0 -24 -4 -34 -10c-29 -18 -49 -25 -75 -3l-7 6c-27 23 -29 51 -3 74c27 23 69 48 128 48
c76 0 163 -43 163 -143c0 -139 -175 -158 -185 -200h136c36 0 55 -16 55 -51v-6c0 -35 -19 -51 -55 -51h-222z" />
    <glyph glyph-name="threequarters" unicode="&#xbe;" horiz-adv-x="1008" 
d="M182 264c-55 0 -95 17 -121 35c-29 18 -31 42 -13 70l5 8c19 30 40 29 71 14c14 -7 30 -12 50 -12c34 0 54 18 54 42c0 22 -27 36 -55 36h-7c-25 0 -41 9 -49 29c-8 19 -3 39 18 62l32 35c7 9 24 23 24 23v2s-21 -2 -34 -2h-55c-36 0 -55 16 -55 52v6c0 35 19 51 55 51
h184c36 0 55 -14 55 -39v-7c0 -26 -8 -41 -26 -62l-57 -62c68 -17 97 -66 97 -126c0 -77 -59 -155 -173 -155zM407 41c-13 -28 -33 -41 -64 -41h-17c-35 0 -45 26 -27 65l287 609c13 28 33 41 64 41h17c35 0 45 -26 27 -65zM851 0c-36 0 -55 19 -55 55v32h-142
c-36 0 -55 15 -55 42v14c0 27 5 37 20 59l128 203c16 25 36 36 66 36h52c36 0 55 -19 55 -55v-192h12c34 0 46 -19 46 -50v-6c0 -32 -12 -51 -46 -51h-12v-32c0 -36 -19 -55 -55 -55h-14zM718 194h78v90c0 25 4 50 4 50h-2s-9 -27 -21 -46l-59 -92v-2z" />
    <glyph glyph-name="questiondown" unicode="&#xbf;" horiz-adv-x="478" 
d="M310 294c36 0 55 -19 55 -55v-10c0 -106 -157 -150 -157 -228c0 -34 33 -59 71 -59c18 0 36 6 52 14c31 15 62 15 81 -13l24 -36c20 -29 21 -54 -9 -73c-35 -23 -91 -49 -166 -49c-112 0 -233 67 -233 196c0 152 151 187 170 265l3 12c7 27 21 36 52 36h57zM361 460v-40
c0 -36 -19 -55 -55 -55h-48c-36 0 -55 19 -55 55v40c0 36 19 55 55 55h48c36 0 55 -19 55 -55z" />
    <glyph glyph-name="Agrave" unicode="&#xc0;" horiz-adv-x="654" 
d="M13 63l207 607c10 31 30 45 62 45h90c32 0 52 -14 62 -45l207 -607c13 -38 -5 -63 -45 -63h-66c-32 0 -52 15 -62 46l-30 104h-223l-30 -104c-9 -31 -29 -46 -61 -46h-66c-40 0 -58 25 -45 63zM256 290h141l-40 139c-13 45 -29 123 -29 123h-2s-16 -78 -29 -123zM306 761
c-29 0 -49 10 -67 33l-39 50c-29 36 -19 67 28 67h46c30 0 50 -12 65 -39l28 -51c16 -30 12 -60 -25 -60h-36z" />
    <glyph glyph-name="Aacute" unicode="&#xc1;" horiz-adv-x="654" 
d="M13 63l207 607c10 31 30 45 62 45h90c32 0 52 -14 62 -45l207 -607c13 -38 -5 -63 -45 -63h-66c-32 0 -52 15 -62 46l-30 104h-223l-30 -104c-9 -31 -29 -46 -61 -46h-66c-40 0 -58 25 -45 63zM256 290h141l-40 139c-13 45 -29 123 -29 123h-2s-16 -78 -29 -123zM319 761
c-37 0 -51 28 -32 61l28 50c15 27 35 39 65 39h46c47 0 57 -31 28 -67l-39 -50c-18 -23 -38 -33 -67 -33h-29z" />
    <glyph glyph-name="Acircumflex" unicode="&#xc2;" horiz-adv-x="654" 
d="M13 63l207 607c10 31 30 45 62 45h90c32 0 52 -14 62 -45l207 -607c13 -38 -5 -63 -45 -63h-66c-32 0 -52 15 -62 46l-30 104h-223l-30 -104c-9 -31 -29 -46 -61 -46h-66c-40 0 -58 25 -45 63zM256 290h141l-40 139c-13 45 -29 123 -29 123h-2s-16 -78 -29 -123zM211 761
c-38 0 -48 29 -23 67l31 47c17 25 37 36 67 36h82c30 0 50 -11 67 -36l31 -47c25 -38 15 -67 -23 -67h-34c-31 0 -41 12 -56 38l-25 44h-2l-25 -44c-15 -26 -25 -38 -56 -38h-34z" />
    <glyph glyph-name="Atilde" unicode="&#xc3;" horiz-adv-x="654" 
d="M13 63l207 607c10 31 30 45 62 45h90c32 0 52 -14 62 -45l207 -607c13 -38 -5 -63 -45 -63h-66c-32 0 -52 15 -62 46l-30 104h-223l-30 -104c-9 -31 -29 -46 -61 -46h-66c-40 0 -58 25 -45 63zM256 290h141l-40 139c-13 45 -29 123 -29 123h-2s-16 -78 -29 -123zM179 761
c-30 0 -48 15 -48 46c0 56 46 107 112 107c79 0 103 -60 142 -60c19 0 30 9 33 30c2 16 19 27 46 27h12c32 0 48 -13 48 -43c0 -64 -45 -110 -111 -110c-80 0 -104 60 -143 60c-20 0 -33 -14 -36 -32c-3 -16 -19 -25 -43 -25h-12z" />
    <glyph glyph-name="Adieresis" unicode="&#xc4;" horiz-adv-x="654" 
d="M13 63l207 607c10 31 30 45 62 45h90c32 0 52 -14 62 -45l207 -607c13 -38 -5 -63 -45 -63h-66c-32 0 -52 15 -62 46l-30 104h-223l-30 -104c-9 -31 -29 -46 -61 -46h-66c-40 0 -58 25 -45 63zM256 290h141l-40 139c-13 45 -29 123 -29 123h-2s-16 -78 -29 -123zM424 771
c-36 0 -55 19 -55 55v30c0 36 19 55 55 55h16c36 0 55 -19 55 -55v-30c0 -36 -19 -55 -55 -55h-16zM215 771c-36 0 -55 19 -55 55v30c0 36 19 55 55 55h16c36 0 55 -19 55 -55v-30c0 -36 -19 -55 -55 -55h-16z" />
    <glyph glyph-name="Aring" unicode="&#xc5;" horiz-adv-x="654" 
d="M13 63l207 607c10 31 30 45 62 45h90c32 0 52 -14 62 -45l207 -607c13 -38 -5 -63 -45 -63h-66c-32 0 -52 15 -62 46l-30 104h-223l-30 -104c-9 -31 -29 -46 -61 -46h-66c-40 0 -58 25 -45 63zM256 290h141l-40 139c-13 45 -29 123 -29 123h-2s-16 -78 -29 -123zM327 747
c-53 0 -109 26 -109 85s56 86 109 86s110 -27 110 -86s-57 -85 -110 -85zM327 797c21 0 35 14 35 35c0 22 -14 36 -35 36c-20 0 -34 -14 -34 -36c0 -21 13 -35 34 -35z" />
    <glyph glyph-name="AE" unicode="&#xc6;" horiz-adv-x="929" 
d="M5 64l254 609c12 29 32 42 64 42h509c36 0 55 -19 55 -55v-40c0 -36 -19 -55 -55 -55h-218v-130h163c36 0 55 -19 55 -55v-40c0 -36 -19 -55 -55 -55h-163v-135h231c36 0 55 -19 55 -55v-40c0 -36 -19 -55 -55 -55h-351c-36 0 -55 19 -55 55v233h-168l-94 -245
c-12 -29 -32 -43 -63 -43h-67c-41 0 -58 26 -42 64zM325 428h114v137h-61z" />
    <glyph glyph-name="Ccedilla" unicode="&#xc7;" horiz-adv-x="701" 
d="M342 -44l11 35c-198 23 -320 173 -320 368c0 208 154 368 375 368c110 0 187 -39 229 -68c28 -20 30 -47 12 -76l-25 -41c-19 -31 -44 -34 -75 -15c-33 19 -80 40 -133 40c-143 0 -202 -101 -202 -204c0 -106 64 -215 202 -215c60 0 112 27 146 51c30 21 56 20 77 -10
l28 -39c19 -28 18 -56 -9 -77c-42 -33 -118 -78 -226 -84l-5 -25c40 -4 75 -27 75 -80c0 -72 -60 -94 -117 -94c-27 0 -64 5 -64 41c0 30 13 43 24 43c10 0 18 -2 25 -2c17 0 27 9 27 24c0 17 -17 22 -41 24c-17 1 -21 14 -14 36z" />
    <glyph glyph-name="Egrave" unicode="&#xc8;" horiz-adv-x="560" 
d="M69 55v605c0 36 19 55 55 55h338c36 0 55 -19 55 -55v-40c0 -36 -19 -55 -55 -55h-218v-130h163c36 0 55 -19 55 -55v-40c0 -36 -19 -55 -55 -55h-163v-135h232c36 0 55 -19 55 -55v-40c0 -36 -19 -55 -55 -55h-352c-36 0 -55 19 -55 55zM280 761c-29 0 -49 10 -67 33
l-39 50c-29 36 -19 67 28 67h46c30 0 50 -12 65 -39l28 -51c16 -30 12 -60 -25 -60h-36z" />
    <glyph glyph-name="Eacute" unicode="&#xc9;" horiz-adv-x="560" 
d="M69 55v605c0 36 19 55 55 55h338c36 0 55 -19 55 -55v-40c0 -36 -19 -55 -55 -55h-218v-130h163c36 0 55 -19 55 -55v-40c0 -36 -19 -55 -55 -55h-163v-135h232c36 0 55 -19 55 -55v-40c0 -36 -19 -55 -55 -55h-352c-36 0 -55 19 -55 55zM293 761c-37 0 -51 28 -32 61
l28 50c15 27 35 39 65 39h46c47 0 57 -31 28 -67l-39 -50c-18 -23 -38 -33 -67 -33h-29z" />
    <glyph glyph-name="Ecircumflex" unicode="&#xca;" horiz-adv-x="560" 
d="M69 55v605c0 36 19 55 55 55h338c36 0 55 -19 55 -55v-40c0 -36 -19 -55 -55 -55h-218v-130h163c36 0 55 -19 55 -55v-40c0 -36 -19 -55 -55 -55h-163v-135h232c36 0 55 -19 55 -55v-40c0 -36 -19 -55 -55 -55h-352c-36 0 -55 19 -55 55zM185 761c-38 0 -48 29 -23 67
l31 47c17 25 37 36 67 36h82c30 0 50 -11 67 -36l31 -47c25 -38 15 -67 -23 -67h-34c-31 0 -41 12 -56 38l-25 44h-2l-25 -44c-15 -26 -25 -38 -56 -38h-34z" />
    <glyph glyph-name="Edieresis" unicode="&#xcb;" horiz-adv-x="560" 
d="M69 55v605c0 36 19 55 55 55h338c36 0 55 -19 55 -55v-40c0 -36 -19 -55 -55 -55h-218v-130h163c36 0 55 -19 55 -55v-40c0 -36 -19 -55 -55 -55h-163v-135h232c36 0 55 -19 55 -55v-40c0 -36 -19 -55 -55 -55h-352c-36 0 -55 19 -55 55zM398 771c-36 0 -55 19 -55 55v30
c0 36 19 55 55 55h16c36 0 55 -19 55 -55v-30c0 -36 -19 -55 -55 -55h-16zM189 771c-36 0 -55 19 -55 55v30c0 36 19 55 55 55h16c36 0 55 -19 55 -55v-30c0 -36 -19 -55 -55 -55h-16z" />
    <glyph glyph-name="Igrave" unicode="&#xcc;" horiz-adv-x="313" 
d="M69 55v605c0 36 19 55 55 55h65c36 0 55 -19 55 -55v-605c0 -36 -19 -55 -55 -55h-65c-36 0 -55 19 -55 55zM136 761c-29 0 -49 10 -67 33l-39 50c-29 36 -19 67 28 67h46c30 0 50 -12 65 -39l28 -51c16 -30 12 -60 -25 -60h-36z" />
    <glyph glyph-name="Iacute" unicode="&#xcd;" horiz-adv-x="313" 
d="M69 55v605c0 36 19 55 55 55h65c36 0 55 -19 55 -55v-605c0 -36 -19 -55 -55 -55h-65c-36 0 -55 19 -55 55zM149 761c-37 0 -51 28 -32 61l28 50c15 27 35 39 65 39h46c47 0 57 -31 28 -67l-39 -50c-18 -23 -38 -33 -67 -33h-29z" />
    <glyph glyph-name="Icircumflex" unicode="&#xce;" horiz-adv-x="313" 
d="M69 55v605c0 36 19 55 55 55h65c36 0 55 -19 55 -55v-605c0 -36 -19 -55 -55 -55h-65c-36 0 -55 19 -55 55zM41 761c-38 0 -48 29 -23 67l31 47c17 25 37 36 67 36h82c30 0 50 -11 67 -36l31 -47c25 -38 15 -67 -23 -67h-34c-31 0 -41 12 -56 38l-25 44h-2l-25 -44
c-15 -26 -25 -38 -56 -38h-34z" />
    <glyph glyph-name="Idieresis" unicode="&#xcf;" horiz-adv-x="313" 
d="M69 55v605c0 36 19 55 55 55h65c36 0 55 -19 55 -55v-605c0 -36 -19 -55 -55 -55h-65c-36 0 -55 19 -55 55zM254 771c-36 0 -55 19 -55 55v30c0 36 19 55 55 55h16c36 0 55 -19 55 -55v-30c0 -36 -19 -55 -55 -55h-16zM45 771c-36 0 -55 19 -55 55v30c0 36 19 55 55 55
h16c36 0 55 -19 55 -55v-30c0 -36 -19 -55 -55 -55h-16z" />
    <glyph glyph-name="Eth" unicode="&#xd0;" horiz-adv-x="728" 
d="M71 55v229h-2c-36 0 -55 19 -55 55v30c0 36 10 55 29 55h28v236c0 36 19 55 55 55h199c225 0 369 -131 369 -356s-144 -359 -369 -359h-199c-36 0 -55 19 -55 55zM246 150h72c121 0 195 72 195 209c0 136 -77 206 -195 206h-72v-141h49c36 0 55 -19 55 -55v-30
c0 -36 -18 -55 -52 -55h-52v-134z" />
    <glyph glyph-name="Ntilde" unicode="&#xd1;" horiz-adv-x="742" 
d="M69 55v605c0 36 19 55 55 55h78c31 0 51 -11 66 -37l176 -297c28 -47 60 -122 60 -122h2s-8 77 -8 122v279c0 36 19 55 55 55h65c36 0 55 -19 55 -55v-605c0 -36 -19 -55 -55 -55h-78c-30 0 -50 11 -65 37l-177 296c-28 47 -60 122 -60 122h-2s8 -77 8 -122v-278
c0 -36 -19 -55 -55 -55h-65c-36 0 -55 19 -55 55zM223 761c-30 0 -48 15 -48 46c0 56 46 107 112 107c79 0 103 -60 142 -60c19 0 30 9 33 30c2 16 19 27 46 27h12c32 0 48 -13 48 -43c0 -64 -45 -110 -111 -110c-80 0 -104 60 -143 60c-20 0 -33 -14 -36 -32
c-3 -16 -19 -25 -43 -25h-12z" />
    <glyph glyph-name="Ograve" unicode="&#xd2;" horiz-adv-x="812" 
d="M32 362c0 205 152 365 374 365s374 -160 374 -365c0 -210 -152 -374 -374 -374s-374 164 -374 374zM213 362c0 -122 80 -214 193 -214s193 92 193 214c0 117 -80 205 -193 205s-193 -88 -193 -205zM385 761c-29 0 -49 10 -67 33l-39 50c-29 36 -19 67 28 67h46
c30 0 50 -12 65 -39l28 -51c16 -30 12 -60 -25 -60h-36z" />
    <glyph glyph-name="Oacute" unicode="&#xd3;" horiz-adv-x="812" 
d="M32 362c0 205 152 365 374 365s374 -160 374 -365c0 -210 -152 -374 -374 -374s-374 164 -374 374zM213 362c0 -122 80 -214 193 -214s193 92 193 214c0 117 -80 205 -193 205s-193 -88 -193 -205zM398 761c-37 0 -51 28 -32 61l28 50c15 27 35 39 65 39h46
c47 0 57 -31 28 -67l-39 -50c-18 -23 -38 -33 -67 -33h-29z" />
    <glyph glyph-name="Ocircumflex" unicode="&#xd4;" horiz-adv-x="812" 
d="M32 362c0 205 152 365 374 365s374 -160 374 -365c0 -210 -152 -374 -374 -374s-374 164 -374 374zM213 362c0 -122 80 -214 193 -214s193 92 193 214c0 117 -80 205 -193 205s-193 -88 -193 -205zM290 761c-38 0 -48 29 -23 67l31 47c17 25 37 36 67 36h82
c30 0 50 -11 67 -36l31 -47c25 -38 15 -67 -23 -67h-34c-31 0 -41 12 -56 38l-25 44h-2l-25 -44c-15 -26 -25 -38 -56 -38h-34z" />
    <glyph glyph-name="Otilde" unicode="&#xd5;" horiz-adv-x="812" 
d="M32 362c0 205 152 365 374 365s374 -160 374 -365c0 -210 -152 -374 -374 -374s-374 164 -374 374zM213 362c0 -122 80 -214 193 -214s193 92 193 214c0 117 -80 205 -193 205s-193 -88 -193 -205zM258 761c-30 0 -48 15 -48 46c0 56 46 107 112 107
c79 0 103 -60 142 -60c19 0 30 9 33 30c2 16 19 27 46 27h12c32 0 48 -13 48 -43c0 -64 -45 -110 -111 -110c-80 0 -104 60 -143 60c-20 0 -33 -14 -36 -32c-3 -16 -19 -25 -43 -25h-12z" />
    <glyph glyph-name="Odieresis" unicode="&#xd6;" horiz-adv-x="812" 
d="M32 362c0 205 152 365 374 365s374 -160 374 -365c0 -210 -152 -374 -374 -374s-374 164 -374 374zM213 362c0 -122 80 -214 193 -214s193 92 193 214c0 117 -80 205 -193 205s-193 -88 -193 -205zM503 771c-36 0 -55 19 -55 55v30c0 36 19 55 55 55h16
c36 0 55 -19 55 -55v-30c0 -36 -19 -55 -55 -55h-16zM294 771c-36 0 -55 19 -55 55v30c0 36 19 55 55 55h16c36 0 55 -19 55 -55v-30c0 -36 -19 -55 -55 -55h-16z" />
    <glyph glyph-name="multiply" unicode="&#xd7;" horiz-adv-x="630" 
d="M81 54c-25 25 -25 52 -1 78l145 155l-145 156c-24 26 -24 53 1 78l14 14c26 26 54 26 78 -1l141 -152l142 152c24 27 52 27 78 1l14 -14c25 -25 25 -52 1 -78l-146 -156l146 -155c24 -26 24 -53 -1 -78l-14 -14c-26 -26 -54 -26 -78 1l-142 151l-141 -151
c-24 -27 -52 -27 -78 -1z" />
    <glyph glyph-name="Oslash" unicode="&#xd8;" horiz-adv-x="811" 
d="M124 53l24 33c-73 68 -116 165 -116 276c0 205 158 365 374 365c65 0 125 -14 176 -40l9 13c21 28 44 35 67 20c23 -16 28 -34 15 -51l-20 -28c79 -67 127 -166 127 -279c0 -210 -158 -374 -374 -374c-71 0 -135 17 -190 48l-14 -20c-21 -29 -44 -36 -67 -20
s-27 36 -11 57zM252 230l232 320c-24 11 -50 17 -78 17c-107 0 -193 -86 -193 -205c0 -51 14 -97 39 -132zM314 172c27 -15 59 -24 92 -24c107 0 193 90 193 214c0 54 -18 102 -48 137z" />
    <glyph glyph-name="Ugrave" unicode="&#xd9;" horiz-adv-x="722" 
d="M62 263v397c0 36 19 55 55 55h65c36 0 55 -19 55 -55v-397c0 -75 49 -115 124 -115s124 40 124 115v397c0 36 19 55 55 55h65c36 0 55 -19 55 -55v-397c0 -161 -118 -275 -298 -275c-182 0 -300 114 -300 275zM340 761c-29 0 -49 10 -67 33l-39 50c-29 36 -19 67 28 67
h46c30 0 50 -12 65 -39l28 -51c16 -30 12 -60 -25 -60h-36z" />
    <glyph glyph-name="Uacute" unicode="&#xda;" horiz-adv-x="722" 
d="M62 263v397c0 36 19 55 55 55h65c36 0 55 -19 55 -55v-397c0 -75 49 -115 124 -115s124 40 124 115v397c0 36 19 55 55 55h65c36 0 55 -19 55 -55v-397c0 -161 -118 -275 -298 -275c-182 0 -300 114 -300 275zM353 761c-37 0 -51 28 -32 61l28 50c15 27 35 39 65 39h46
c47 0 57 -31 28 -67l-39 -50c-18 -23 -38 -33 -67 -33h-29z" />
    <glyph glyph-name="Ucircumflex" unicode="&#xdb;" horiz-adv-x="722" 
d="M62 263v397c0 36 19 55 55 55h65c36 0 55 -19 55 -55v-397c0 -75 49 -115 124 -115s124 40 124 115v397c0 36 19 55 55 55h65c36 0 55 -19 55 -55v-397c0 -161 -118 -275 -298 -275c-182 0 -300 114 -300 275zM245 761c-38 0 -48 29 -23 67l31 47c17 25 37 36 67 36h82
c30 0 50 -11 67 -36l31 -47c25 -38 15 -67 -23 -67h-34c-31 0 -41 12 -56 38l-25 44h-2l-25 -44c-15 -26 -25 -38 -56 -38h-34z" />
    <glyph glyph-name="Udieresis" unicode="&#xdc;" horiz-adv-x="722" 
d="M62 263v397c0 36 19 55 55 55h65c36 0 55 -19 55 -55v-397c0 -75 49 -115 124 -115s124 40 124 115v397c0 36 19 55 55 55h65c36 0 55 -19 55 -55v-397c0 -161 -118 -275 -298 -275c-182 0 -300 114 -300 275zM458 771c-36 0 -55 19 -55 55v30c0 36 19 55 55 55h16
c36 0 55 -19 55 -55v-30c0 -36 -19 -55 -55 -55h-16zM249 771c-36 0 -55 19 -55 55v30c0 36 19 55 55 55h16c36 0 55 -19 55 -55v-30c0 -36 -19 -55 -55 -55h-16z" />
    <glyph glyph-name="Yacute" unicode="&#xdd;" horiz-adv-x="601" 
d="M213 55v238l-199 356c-22 38 -5 66 38 66h79c31 0 51 -13 64 -41l62 -131c23 -49 43 -103 43 -103h2s20 54 43 103l61 131c13 28 33 41 64 41h79c43 0 60 -28 38 -66l-199 -356v-238c0 -36 -19 -55 -55 -55h-65c-36 0 -55 19 -55 55zM293 761c-37 0 -51 28 -32 61l28 50
c15 27 35 39 65 39h46c47 0 57 -31 28 -67l-39 -50c-18 -23 -38 -33 -67 -33h-29z" />
    <glyph glyph-name="Thorn" unicode="&#xde;" horiz-adv-x="617" 
d="M69 55v605c0 36 19 55 55 55h65c36 0 55 -19 55 -53v-53h122c139 0 233 -102 233 -246s-94 -248 -233 -248h-122v-60c0 -36 -19 -55 -55 -55h-65c-36 0 -55 19 -55 55zM244 265h86c61 0 91 41 91 98s-30 96 -88 96h-89v-194z" />
    <glyph glyph-name="germandbls" unicode="&#xdf;" horiz-adv-x="620" 
d="M52 55v472c0 132 125 200 255 200c121 0 231 -77 231 -193c0 -81 -72 -105 -72 -160c0 -49 134 -79 134 -206c0 -117 -92 -175 -194 -175c-34 0 -60 3 -79 7c-32 6 -45 29 -45 61v33c0 39 17 54 47 48c14 -3 31 -5 48 -5c26 0 50 9 50 42c0 46 -135 80 -135 191
c0 74 72 108 72 160c0 31 -23 53 -62 53c-41 0 -77 -16 -77 -68v-460c0 -36 -19 -55 -55 -55h-63c-36 0 -55 19 -55 55z" />
    <glyph glyph-name="agrave" unicode="&#xe0;" horiz-adv-x="538" 
d="M16 145c0 138 164 176 291 176h15v9c0 43 -35 57 -73 57c-33 0 -67 -11 -93 -23c-33 -14 -58 -8 -74 24l-12 25c-15 31 -9 58 22 74c39 18 99 40 173 40c142 0 230 -79 230 -210v-262c0 -36 -19 -55 -55 -55h-48c-36 0 -55 18 -55 56v4c0 6 1 10 1 10h-2
s-49 -82 -152 -82c-99 0 -168 68 -168 157zM187 161c0 -24 17 -44 49 -44c50 0 88 49 88 91v14h-16c-53 0 -121 -14 -121 -61zM250 565c-29 0 -49 10 -67 33l-39 50c-29 36 -19 67 28 67h46c30 0 50 -12 65 -39l28 -51c16 -30 12 -60 -25 -60h-36z" />
    <glyph glyph-name="aacute" unicode="&#xe1;" horiz-adv-x="538" 
d="M16 145c0 138 164 176 291 176h15v9c0 43 -35 57 -73 57c-33 0 -67 -11 -93 -23c-33 -14 -58 -8 -74 24l-12 25c-15 31 -9 58 22 74c39 18 99 40 173 40c142 0 230 -79 230 -210v-262c0 -36 -19 -55 -55 -55h-48c-36 0 -55 18 -55 56v4c0 6 1 10 1 10h-2
s-49 -82 -152 -82c-99 0 -168 68 -168 157zM187 161c0 -24 17 -44 49 -44c50 0 88 49 88 91v14h-16c-53 0 -121 -14 -121 -61zM262 565c-37 0 -51 28 -32 61l28 50c15 27 35 39 65 39h46c47 0 57 -31 28 -67l-39 -50c-18 -23 -38 -33 -67 -33h-29z" />
    <glyph glyph-name="acircumflex" unicode="&#xe2;" horiz-adv-x="538" 
d="M16 145c0 138 164 176 291 176h15v9c0 43 -35 57 -73 57c-33 0 -67 -11 -93 -23c-33 -14 -58 -8 -74 24l-12 25c-15 31 -9 58 22 74c39 18 99 40 173 40c142 0 230 -79 230 -210v-262c0 -36 -19 -55 -55 -55h-48c-36 0 -55 18 -55 56v4c0 6 1 10 1 10h-2
s-49 -82 -152 -82c-99 0 -168 68 -168 157zM187 161c0 -24 17 -44 49 -44c50 0 88 49 88 91v14h-16c-53 0 -121 -14 -121 -61zM154 565c-38 0 -48 29 -23 67l31 47c17 25 37 36 67 36h82c30 0 50 -11 67 -36l31 -47c25 -38 15 -67 -23 -67h-34c-31 0 -41 12 -56 38l-25 44
h-2l-25 -44c-15 -26 -25 -38 -56 -38h-34z" />
    <glyph glyph-name="atilde" unicode="&#xe3;" horiz-adv-x="538" 
d="M16 145c0 138 164 176 291 176h15v9c0 43 -35 57 -73 57c-33 0 -67 -11 -93 -23c-33 -14 -58 -8 -74 24l-12 25c-15 31 -9 58 22 74c39 18 99 40 173 40c142 0 230 -79 230 -210v-262c0 -36 -19 -55 -55 -55h-48c-36 0 -55 18 -55 56v4c0 6 1 10 1 10h-2
s-49 -82 -152 -82c-99 0 -168 68 -168 157zM187 161c0 -24 17 -44 49 -44c50 0 88 49 88 91v14h-16c-53 0 -121 -14 -121 -61zM122 565c-30 0 -48 15 -48 46c0 56 46 107 112 107c79 0 103 -60 142 -60c19 0 30 9 33 30c2 16 19 27 46 27h12c32 0 48 -13 48 -43
c0 -64 -45 -110 -111 -110c-80 0 -104 60 -143 60c-20 0 -33 -14 -36 -32c-3 -16 -19 -25 -43 -25h-12z" />
    <glyph glyph-name="adieresis" unicode="&#xe4;" horiz-adv-x="538" 
d="M16 145c0 138 164 176 291 176h15v9c0 43 -35 57 -73 57c-33 0 -67 -11 -93 -23c-33 -14 -58 -8 -74 24l-12 25c-15 31 -9 58 22 74c39 18 99 40 173 40c142 0 230 -79 230 -210v-262c0 -36 -19 -55 -55 -55h-48c-36 0 -55 18 -55 56v4c0 6 1 10 1 10h-2
s-49 -82 -152 -82c-99 0 -168 68 -168 157zM187 161c0 -24 17 -44 49 -44c50 0 88 49 88 91v14h-16c-53 0 -121 -14 -121 -61zM367 575c-36 0 -55 19 -55 55v30c0 36 19 55 55 55h16c36 0 55 -19 55 -55v-30c0 -36 -19 -55 -55 -55h-16zM158 575c-36 0 -55 19 -55 55v30
c0 36 19 55 55 55h16c36 0 55 -19 55 -55v-30c0 -36 -19 -55 -55 -55h-16z" />
    <glyph glyph-name="aring" unicode="&#xe5;" horiz-adv-x="538" 
d="M16 145c0 138 164 176 291 176h15v9c0 43 -35 57 -73 57c-33 0 -67 -11 -93 -23c-33 -14 -58 -8 -74 24l-12 25c-15 31 -9 58 22 74c39 18 99 40 173 40c142 0 230 -79 230 -210v-262c0 -36 -19 -55 -55 -55h-48c-36 0 -55 18 -55 56v4c0 6 1 10 1 10h-2
s-49 -82 -152 -82c-99 0 -168 68 -168 157zM187 161c0 -24 17 -44 49 -44c50 0 88 49 88 91v14h-16c-53 0 -121 -14 -121 -61zM270 551c-53 0 -109 26 -109 85s56 86 109 86s110 -27 110 -86s-57 -85 -110 -85zM270 601c21 0 35 14 35 35c0 22 -14 36 -35 36
c-20 0 -34 -14 -34 -36c0 -21 13 -35 34 -35z" />
    <glyph glyph-name="ae" unicode="&#xe6;" horiz-adv-x="838" 
d="M18 154c0 154 219 169 302 169h4v7c0 43 -33 57 -76 57c-31 0 -65 -11 -91 -23c-33 -15 -58 -8 -74 24l-12 24c-15 31 -9 59 22 74c37 19 96 41 168 41c80 0 127 -19 163 -51h2c39 32 88 51 154 51c153 0 238 -108 238 -246c0 -27 -24 -57 -58 -57h-271
c13 -65 65 -92 120 -92c35 0 68 11 94 23c33 15 57 11 74 -21l14 -25c16 -31 11 -58 -19 -75c-37 -21 -98 -46 -177 -46c-99 0 -162 35 -207 90h-2c-13 -23 -71 -89 -193 -89c-96 0 -175 64 -175 165zM493 323h151c0 37 -26 74 -64 74c-50 0 -76 -31 -87 -74zM192 163
c0 -24 15 -43 51 -43c47 0 84 50 84 92v12h-17c-55 0 -118 -20 -118 -61z" />
    <glyph glyph-name="ccedilla" unicode="&#xe7;" horiz-adv-x="532" 
d="M241 -44l11 37c-147 23 -229 138 -229 265c0 138 102 269 287 269c78 0 133 -24 166 -46c28 -18 30 -46 12 -75l-17 -26c-19 -31 -42 -32 -74 -16c-20 10 -46 19 -76 19c-82 0 -123 -62 -123 -123s42 -128 129 -128c34 0 68 14 93 29c33 18 58 14 75 -19l13 -25
c15 -30 12 -57 -15 -75c-33 -22 -88 -49 -162 -53l-5 -25c40 -4 75 -27 75 -80c0 -72 -60 -94 -117 -94c-27 0 -64 5 -64 41c0 30 13 43 24 43c10 0 18 -2 25 -2c17 0 27 9 27 24c0 17 -17 22 -41 24c-17 1 -21 14 -14 36z" />
    <glyph glyph-name="egrave" unicode="&#xe8;" horiz-adv-x="548" 
d="M22 258c0 151 102 269 268 269c153 0 238 -108 238 -246c0 -27 -24 -57 -58 -57h-271c13 -63 65 -92 120 -92c35 0 68 11 94 24c33 15 57 11 74 -21l14 -26c16 -31 11 -58 -19 -75c-37 -21 -98 -46 -177 -46c-184 0 -283 133 -283 270zM203 323h154c0 42 -27 77 -71 77
c-50 0 -74 -36 -83 -77zM266 565c-29 0 -49 10 -67 33l-39 50c-29 36 -19 67 28 67h46c30 0 50 -12 65 -39l28 -51c16 -30 12 -60 -25 -60h-36z" />
    <glyph glyph-name="eacute" unicode="&#xe9;" horiz-adv-x="548" 
d="M22 258c0 151 102 269 268 269c153 0 238 -108 238 -246c0 -27 -24 -57 -58 -57h-271c13 -63 65 -92 120 -92c35 0 68 11 94 24c33 15 57 11 74 -21l14 -26c16 -31 11 -58 -19 -75c-37 -21 -98 -46 -177 -46c-184 0 -283 133 -283 270zM203 323h154c0 42 -27 77 -71 77
c-50 0 -74 -36 -83 -77zM278 565c-37 0 -51 28 -32 61l28 50c15 27 35 39 65 39h46c47 0 57 -31 28 -67l-39 -50c-18 -23 -38 -33 -67 -33h-29z" />
    <glyph glyph-name="ecircumflex" unicode="&#xea;" horiz-adv-x="548" 
d="M22 258c0 151 102 269 268 269c153 0 238 -108 238 -246c0 -27 -24 -57 -58 -57h-271c13 -63 65 -92 120 -92c35 0 68 11 94 24c33 15 57 11 74 -21l14 -26c16 -31 11 -58 -19 -75c-37 -21 -98 -46 -177 -46c-184 0 -283 133 -283 270zM203 323h154c0 42 -27 77 -71 77
c-50 0 -74 -36 -83 -77zM170 565c-38 0 -48 29 -23 67l31 47c17 25 37 36 67 36h82c30 0 50 -11 67 -36l31 -47c25 -38 15 -67 -23 -67h-34c-31 0 -41 12 -56 38l-25 44h-2l-25 -44c-15 -26 -25 -38 -56 -38h-34z" />
    <glyph glyph-name="edieresis" unicode="&#xeb;" horiz-adv-x="548" 
d="M22 258c0 151 102 269 268 269c153 0 238 -108 238 -246c0 -27 -24 -57 -58 -57h-271c13 -63 65 -92 120 -92c35 0 68 11 94 24c33 15 57 11 74 -21l14 -26c16 -31 11 -58 -19 -75c-37 -21 -98 -46 -177 -46c-184 0 -283 133 -283 270zM203 323h154c0 42 -27 77 -71 77
c-50 0 -74 -36 -83 -77zM383 575c-36 0 -55 19 -55 55v30c0 36 19 55 55 55h16c36 0 55 -19 55 -55v-30c0 -36 -19 -55 -55 -55h-16zM174 575c-36 0 -55 19 -55 55v30c0 36 19 55 55 55h16c36 0 55 -19 55 -55v-30c0 -36 -19 -55 -55 -55h-16z" />
    <glyph glyph-name="igrave" unicode="&#xec;" horiz-adv-x="275" 
d="M51 55v405c0 36 19 55 55 55h63c36 0 55 -19 55 -55v-405c0 -36 -19 -55 -55 -55h-63c-36 0 -55 19 -55 55zM116 565c-29 0 -49 10 -67 33l-39 50c-29 36 -19 67 28 67h46c30 0 50 -12 65 -39l28 -51c16 -30 12 -60 -25 -60h-36z" />
    <glyph glyph-name="iacute" unicode="&#xed;" horiz-adv-x="275" 
d="M51 55v405c0 36 19 55 55 55h63c36 0 55 -19 55 -55v-405c0 -36 -19 -55 -55 -55h-63c-36 0 -55 19 -55 55zM129 565c-37 0 -51 28 -32 61l28 50c15 27 35 39 65 39h46c47 0 57 -31 28 -67l-39 -50c-18 -23 -38 -33 -67 -33h-29z" />
    <glyph glyph-name="icircumflex" unicode="&#xee;" horiz-adv-x="275" 
d="M51 55v405c0 36 19 55 55 55h63c36 0 55 -19 55 -55v-405c0 -36 -19 -55 -55 -55h-63c-36 0 -55 19 -55 55zM21 565c-38 0 -48 29 -23 67l31 47c17 25 37 36 67 36h82c30 0 50 -11 67 -36l31 -47c25 -38 15 -67 -23 -67h-34c-31 0 -41 12 -56 38l-25 44h-2l-25 -44
c-15 -26 -25 -38 -56 -38h-34z" />
    <glyph glyph-name="idieresis" unicode="&#xef;" horiz-adv-x="275" 
d="M51 55v405c0 36 19 55 55 55h63c36 0 55 -19 55 -55v-405c0 -36 -19 -55 -55 -55h-63c-36 0 -55 19 -55 55zM234 575c-36 0 -55 19 -55 55v30c0 36 19 55 55 55h16c36 0 55 -19 55 -55v-30c0 -36 -19 -55 -55 -55h-16zM25 575c-36 0 -55 19 -55 55v30c0 36 19 55 55 55
h16c36 0 55 -19 55 -55v-30c0 -36 -19 -55 -55 -55h-16z" />
    <glyph glyph-name="eth" unicode="&#xf0;" horiz-adv-x="579" 
d="M24 241c0 116 87 223 231 223c49 0 77 -19 77 -19h2c-14 25 -45 55 -78 73l-128 -53c-38 -15 -49 -12 -60 15l-6 14c-12 28 4 42 33 54l61 25c-13 6 -27 11 -40 15c-35 12 -48 34 -36 69l11 32c12 32 35 46 69 37c66 -18 127 -44 181 -77l97 40c38 16 48 8 58 -12l9 -19
c11 -22 -5 -37 -32 -49l-52 -22c79 -76 127 -177 127 -304c0 -138 -69 -295 -270 -295c-162 0 -254 123 -254 253zM198 236c0 -53 22 -104 83 -104c69 0 93 61 93 118c0 48 -30 82 -83 82c-63 0 -93 -45 -93 -96z" />
    <glyph glyph-name="ntilde" unicode="&#xf1;" horiz-adv-x="610" 
d="M51 55v405c0 36 19 55 55 55h56c36 0 54 -19 54 -55v-9c0 -5 -1 -13 -1 -13h2c24 40 73 89 164 89c104 0 185 -48 185 -193v-279c0 -36 -19 -55 -55 -55h-63c-36 0 -55 19 -55 55v247c0 48 -19 68 -57 68c-77 0 -112 -64 -112 -137v-178c0 -36 -19 -55 -55 -55h-63
c-36 0 -55 19 -55 55zM164 565c-30 0 -48 15 -48 46c0 56 46 107 112 107c79 0 103 -60 142 -60c19 0 30 9 33 30c2 16 19 27 46 27h12c32 0 48 -13 48 -43c0 -64 -45 -110 -111 -110c-80 0 -104 60 -143 60c-20 0 -33 -14 -36 -32c-3 -16 -19 -25 -43 -25h-12z" />
    <glyph glyph-name="ograve" unicode="&#xf2;" horiz-adv-x="628" 
d="M22 256c0 162 130 271 291 271c163 0 293 -109 293 -271c0 -161 -130 -268 -292 -268s-292 107 -292 268zM197 256c0 -77 54 -124 117 -124s117 47 117 124c0 78 -54 127 -117 127s-117 -49 -117 -127zM293 565c-29 0 -49 10 -67 33l-39 50c-29 36 -19 67 28 67h46
c30 0 50 -12 65 -39l28 -51c16 -30 12 -60 -25 -60h-36z" />
    <glyph glyph-name="oacute" unicode="&#xf3;" horiz-adv-x="628" 
d="M22 256c0 162 130 271 291 271c163 0 293 -109 293 -271c0 -161 -130 -268 -292 -268s-292 107 -292 268zM197 256c0 -77 54 -124 117 -124s117 47 117 124c0 78 -54 127 -117 127s-117 -49 -117 -127zM306 565c-37 0 -51 28 -32 61l28 50c15 27 35 39 65 39h46
c47 0 57 -31 28 -67l-39 -50c-18 -23 -38 -33 -67 -33h-29z" />
    <glyph glyph-name="ocircumflex" unicode="&#xf4;" horiz-adv-x="628" 
d="M22 256c0 162 130 271 291 271c163 0 293 -109 293 -271c0 -161 -130 -268 -292 -268s-292 107 -292 268zM197 256c0 -77 54 -124 117 -124s117 47 117 124c0 78 -54 127 -117 127s-117 -49 -117 -127zM198 565c-38 0 -48 29 -23 67l31 47c17 25 37 36 67 36h82
c30 0 50 -11 67 -36l31 -47c25 -38 15 -67 -23 -67h-34c-31 0 -41 12 -56 38l-25 44h-2l-25 -44c-15 -26 -25 -38 -56 -38h-34z" />
    <glyph glyph-name="otilde" unicode="&#xf5;" horiz-adv-x="628" 
d="M22 256c0 162 130 271 291 271c163 0 293 -109 293 -271c0 -161 -130 -268 -292 -268s-292 107 -292 268zM197 256c0 -77 54 -124 117 -124s117 47 117 124c0 78 -54 127 -117 127s-117 -49 -117 -127zM166 565c-30 0 -48 15 -48 46c0 56 46 107 112 107
c79 0 103 -60 142 -60c19 0 30 9 33 30c2 16 19 27 46 27h12c32 0 48 -13 48 -43c0 -64 -45 -110 -111 -110c-80 0 -104 60 -143 60c-20 0 -33 -14 -36 -32c-3 -16 -19 -25 -43 -25h-12z" />
    <glyph glyph-name="odieresis" unicode="&#xf6;" horiz-adv-x="628" 
d="M22 256c0 162 130 271 291 271c163 0 293 -109 293 -271c0 -161 -130 -268 -292 -268s-292 107 -292 268zM197 256c0 -77 54 -124 117 -124s117 47 117 124c0 78 -54 127 -117 127s-117 -49 -117 -127zM411 575c-36 0 -55 19 -55 55v30c0 36 19 55 55 55h16
c36 0 55 -19 55 -55v-30c0 -36 -19 -55 -55 -55h-16zM202 575c-36 0 -55 19 -55 55v30c0 36 19 55 55 55h16c36 0 55 -19 55 -55v-30c0 -36 -19 -55 -55 -55h-16z" />
    <glyph glyph-name="divide" unicode="&#xf7;" horiz-adv-x="630" 
d="M297 440c-36 0 -55 19 -55 55v25c0 36 19 55 55 55h36c36 0 55 -19 55 -55v-25c0 -36 -19 -55 -55 -55h-36zM97 222c-36 0 -55 19 -55 55v20c0 36 19 55 55 55h436c36 0 55 -19 55 -55v-20c0 -36 -19 -55 -55 -55h-436zM242 55v25c0 36 19 55 55 55h36
c36 0 55 -19 55 -55v-25c0 -36 -19 -55 -55 -55h-36c-36 0 -55 19 -55 55z" />
    <glyph glyph-name="oslash" unicode="&#xf8;" horiz-adv-x="629" 
d="M101 24l19 27c-60 47 -97 118 -97 205c0 162 130 271 291 271c47 0 91 -9 131 -26l10 14c21 29 43 36 65 22c21 -15 26 -33 13 -50l-20 -28c58 -48 94 -118 94 -203c0 -161 -130 -268 -292 -268c-45 0 -87 8 -124 23l-12 -17c-21 -29 -43 -36 -65 -21
c-21 15 -26 33 -13 51zM217 185l138 191c-13 4 -26 7 -40 7c-63 0 -117 -49 -117 -127c0 -28 7 -52 19 -71zM281 136c11 -3 22 -4 34 -4c63 0 117 47 117 124c0 26 -6 48 -16 67z" />
    <glyph glyph-name="ugrave" unicode="&#xf9;" horiz-adv-x="606" 
d="M45 181v279c0 36 19 55 55 55h63c36 0 55 -19 55 -55v-247c0 -48 19 -68 55 -68c74 0 109 65 109 142v173c0 36 19 55 55 55h63c36 0 55 -19 55 -55v-405c0 -36 -19 -55 -55 -55h-56c-36 0 -54 19 -54 55v9c0 5 1 13 1 13h-2c-28 -55 -92 -89 -161 -89
c-102 0 -183 48 -183 193zM279 565c-29 0 -49 10 -67 33l-39 50c-29 36 -19 67 28 67h46c30 0 50 -12 65 -39l28 -51c16 -30 12 -60 -25 -60h-36z" />
    <glyph glyph-name="uacute" unicode="&#xfa;" horiz-adv-x="606" 
d="M45 181v279c0 36 19 55 55 55h63c36 0 55 -19 55 -55v-247c0 -48 19 -68 55 -68c74 0 109 65 109 142v173c0 36 19 55 55 55h63c36 0 55 -19 55 -55v-405c0 -36 -19 -55 -55 -55h-56c-36 0 -54 19 -54 55v9c0 5 1 13 1 13h-2c-28 -55 -92 -89 -161 -89
c-102 0 -183 48 -183 193zM292 565c-37 0 -51 28 -32 61l28 50c15 27 35 39 65 39h46c47 0 57 -31 28 -67l-39 -50c-18 -23 -38 -33 -67 -33h-29z" />
    <glyph glyph-name="ucircumflex" unicode="&#xfb;" horiz-adv-x="606" 
d="M45 181v279c0 36 19 55 55 55h63c36 0 55 -19 55 -55v-247c0 -48 19 -68 55 -68c74 0 109 65 109 142v173c0 36 19 55 55 55h63c36 0 55 -19 55 -55v-405c0 -36 -19 -55 -55 -55h-56c-36 0 -54 19 -54 55v9c0 5 1 13 1 13h-2c-28 -55 -92 -89 -161 -89
c-102 0 -183 48 -183 193zM184 565c-38 0 -48 29 -23 67l31 47c17 25 37 36 67 36h82c30 0 50 -11 67 -36l31 -47c25 -38 15 -67 -23 -67h-34c-31 0 -41 12 -56 38l-25 44h-2l-25 -44c-15 -26 -25 -38 -56 -38h-34z" />
    <glyph glyph-name="udieresis" unicode="&#xfc;" horiz-adv-x="606" 
d="M45 181v279c0 36 19 55 55 55h63c36 0 55 -19 55 -55v-247c0 -48 19 -68 55 -68c74 0 109 65 109 142v173c0 36 19 55 55 55h63c36 0 55 -19 55 -55v-405c0 -36 -19 -55 -55 -55h-56c-36 0 -54 19 -54 55v9c0 5 1 13 1 13h-2c-28 -55 -92 -89 -161 -89
c-102 0 -183 48 -183 193zM397 575c-36 0 -55 19 -55 55v30c0 36 19 55 55 55h16c36 0 55 -19 55 -55v-30c0 -36 -19 -55 -55 -55h-16zM188 575c-36 0 -55 19 -55 55v30c0 36 19 55 55 55h16c36 0 55 -19 55 -55v-30c0 -36 -19 -55 -55 -55h-16z" />
    <glyph glyph-name="yacute" unicode="&#xfd;" horiz-adv-x="532" 
d="M30 -96c14 31 35 36 56 32c8 -2 18 -5 30 -5c31 0 59 25 71 55l10 24l-191 441c-17 38 0 64 42 64h78c33 0 53 -15 63 -45l61 -192c9 -28 19 -80 19 -80h2s10 49 17 77l52 193c9 32 29 47 62 47h73c40 0 58 -25 44 -63l-188 -507c-43 -115 -133 -155 -215 -155
c-27 0 -52 6 -72 13c-33 11 -41 40 -27 72zM262 564c-37 0 -51 28 -32 61l28 50c15 27 35 39 65 39h46c47 0 57 -31 28 -67l-39 -50c-18 -23 -38 -33 -67 -33h-29z" />
    <glyph glyph-name="thorn" unicode="&#xfe;" horiz-adv-x="620" 
d="M53 -145v805c0 36 19 55 55 55h63c36 0 55 -19 55 -55v-142c0 -26 -2 -44 -2 -44h2c31 34 72 53 134 53c142 0 236 -117 236 -269s-94 -270 -236 -270c-97 0 -134 48 -134 48h-2s2 -18 2 -44v-137c0 -36 -19 -55 -55 -55h-63c-36 0 -55 19 -55 55zM221 257
c0 -95 46 -125 104 -125c60 0 97 58 97 126s-37 125 -97 125c-58 0 -104 -31 -104 -126z" />
    <glyph glyph-name="ydieresis" unicode="&#xff;" horiz-adv-x="532" 
d="M30 -96c14 31 35 36 56 32c8 -2 18 -5 30 -5c31 0 59 25 71 55l10 24l-191 441c-17 38 0 64 42 64h78c33 0 53 -15 63 -45l61 -192c9 -28 19 -80 19 -80h2s10 49 17 77l52 193c9 32 29 47 62 47h73c40 0 58 -25 44 -63l-188 -507c-43 -115 -133 -155 -215 -155
c-27 0 -52 6 -72 13c-33 11 -41 40 -27 72zM367 574c-36 0 -55 19 -55 55v30c0 36 19 55 55 55h16c36 0 55 -19 55 -55v-30c0 -36 -19 -55 -55 -55h-16zM158 574c-36 0 -55 19 -55 55v30c0 36 19 55 55 55h16c36 0 55 -19 55 -55v-30c0 -36 -19 -55 -55 -55h-16z" />
    <glyph glyph-name="Amacron" unicode="&#x100;" horiz-adv-x="654" 
d="M13 63l207 607c10 31 30 45 62 45h90c32 0 52 -14 62 -45l207 -607c13 -38 -5 -63 -45 -63h-66c-32 0 -52 15 -62 46l-30 104h-223l-30 -104c-9 -31 -29 -46 -61 -46h-66c-40 0 -58 25 -45 63zM256 290h141l-40 139c-13 45 -29 123 -29 123h-2s-16 -78 -29 -123zM245 782
c-36 0 -55 16 -55 52v8c0 36 19 52 55 52h165c36 0 55 -16 55 -52v-8c0 -36 -19 -52 -55 -52h-165z" />
    <glyph glyph-name="amacron" unicode="&#x101;" horiz-adv-x="538" 
d="M16 145c0 138 164 176 291 176h15v9c0 43 -35 57 -73 57c-33 0 -67 -11 -93 -23c-33 -14 -58 -8 -74 24l-12 25c-15 31 -9 58 22 74c39 18 99 40 173 40c142 0 230 -79 230 -210v-262c0 -36 -19 -55 -55 -55h-48c-36 0 -55 18 -55 56v4c0 6 1 10 1 10h-2
s-49 -82 -152 -82c-99 0 -168 68 -168 157zM187 161c0 -24 17 -44 49 -44c50 0 88 49 88 91v14h-16c-53 0 -121 -14 -121 -61zM188 586c-36 0 -55 16 -55 52v8c0 36 19 52 55 52h165c36 0 55 -16 55 -52v-8c0 -36 -19 -52 -55 -52h-165z" />
    <glyph glyph-name="Abreve" unicode="&#x102;" horiz-adv-x="654" 
d="M13 63l207 607c10 31 30 45 62 45h90c32 0 52 -14 62 -45l207 -607c13 -38 -5 -63 -45 -63h-66c-32 0 -52 15 -62 46l-30 104h-223l-30 -104c-9 -31 -29 -46 -61 -46h-66c-40 0 -58 25 -45 63zM256 290h141l-40 139c-13 45 -29 123 -29 123h-2s-16 -78 -29 -123zM327 756
c-80 0 -172 49 -172 124c0 18 12 31 46 31h26c32 0 41 -21 46 -36c9 -25 30 -33 54 -33s45 8 54 33c5 15 14 36 46 36h26c34 0 46 -13 46 -31c0 -78 -91 -124 -172 -124z" />
    <glyph glyph-name="abreve" unicode="&#x103;" horiz-adv-x="538" 
d="M16 145c0 138 164 176 291 176h15v9c0 43 -35 57 -73 57c-33 0 -67 -11 -93 -23c-33 -14 -58 -8 -74 24l-12 25c-15 31 -9 58 22 74c39 18 99 40 173 40c142 0 230 -79 230 -210v-262c0 -36 -19 -55 -55 -55h-48c-36 0 -55 18 -55 56v4c0 6 1 10 1 10h-2
s-49 -82 -152 -82c-99 0 -168 68 -168 157zM187 161c0 -24 17 -44 49 -44c50 0 88 49 88 91v14h-16c-53 0 -121 -14 -121 -61zM270 560c-80 0 -172 49 -172 124c0 18 12 31 46 31h26c32 0 41 -21 46 -36c9 -25 30 -33 54 -33s45 8 54 33c5 15 14 36 46 36h26
c34 0 46 -13 46 -31c0 -78 -91 -124 -172 -124z" />
    <glyph glyph-name="Aogonek" unicode="&#x104;" horiz-adv-x="654" 
d="M13 63l207 607c10 31 30 45 62 45h90c32 0 52 -14 62 -45l207 -607c12 -37 9 -63 -6 -78c-20 -19 -42 -27 -42 -49c0 -14 13 -19 25 -25c16 -8 20 -25 17 -50l-4 -29c-3 -26 -25 -37 -49 -35c-50 5 -119 37 -119 97c0 43 33 82 59 106c0 0 -43 0 -54 46l-30 104h-223
l-30 -104c-9 -31 -29 -46 -61 -46h-66c-40 0 -58 25 -45 63zM256 290h141l-40 139c-13 45 -29 123 -29 123h-2s-16 -78 -29 -123z" />
    <glyph glyph-name="aogonek" unicode="&#x105;" horiz-adv-x="540" 
d="M16 145c0 138 164 176 291 176h15v9c0 43 -35 57 -73 57c-33 0 -67 -11 -93 -23c-33 -14 -58 -8 -74 24l-12 25c-15 31 -9 58 22 74c39 18 99 40 173 40c142 0 230 -79 230 -210v-262c0 -58 -62 -68 -62 -119c0 -14 13 -19 25 -25c16 -8 20 -25 17 -50l-4 -29
c-3 -26 -25 -37 -49 -35c-50 5 -119 37 -119 97c0 50 26 87 53 116c-12 7 -19 24 -19 46v4c0 6 1 10 1 10h-2s-49 -82 -152 -82c-99 0 -168 68 -168 157zM187 161c0 -24 17 -44 49 -44c50 0 88 49 88 91v14h-16c-53 0 -121 -14 -121 -61z" />
    <glyph glyph-name="Cacute" unicode="&#x106;" horiz-adv-x="699" 
d="M32 359c0 208 154 368 375 368c110 0 187 -39 229 -68c28 -20 30 -47 12 -76l-25 -41c-19 -31 -44 -34 -75 -15c-33 19 -80 40 -133 40c-143 0 -202 -101 -202 -204c0 -106 64 -215 202 -215c60 0 112 27 146 51c30 21 56 20 77 -10l28 -39c19 -28 18 -56 -9 -77
c-45 -35 -129 -85 -250 -85c-230 0 -375 159 -375 371zM389 761c-37 0 -51 28 -32 61l28 50c15 27 35 39 65 39h46c47 0 57 -31 28 -67l-39 -50c-18 -23 -38 -33 -67 -33h-29z" />
    <glyph glyph-name="cacute" unicode="&#x107;" horiz-adv-x="529" 
d="M22 258c0 138 102 269 287 269c78 0 133 -24 166 -46c28 -18 30 -46 12 -75l-17 -26c-19 -31 -42 -32 -74 -16c-20 10 -46 19 -76 19c-82 0 -123 -62 -123 -123s42 -128 129 -128c34 0 68 14 93 29c33 18 58 14 75 -19l13 -25c15 -30 12 -57 -15 -75
c-36 -24 -98 -54 -183 -54c-184 0 -287 128 -287 270zM281 565c-37 0 -51 28 -32 61l28 50c15 27 35 39 65 39h46c47 0 57 -31 28 -67l-39 -50c-18 -23 -38 -33 -67 -33h-29z" />
    <glyph glyph-name="Ccircumflex" unicode="&#x108;" horiz-adv-x="699" 
d="M32 359c0 208 154 368 375 368c110 0 187 -39 229 -68c28 -20 30 -47 12 -76l-25 -41c-19 -31 -44 -34 -75 -15c-33 19 -80 40 -133 40c-143 0 -202 -101 -202 -204c0 -106 64 -215 202 -215c60 0 112 27 146 51c30 21 56 20 77 -10l28 -39c19 -28 18 -56 -9 -77
c-45 -35 -129 -85 -250 -85c-230 0 -375 159 -375 371zM281 761c-38 0 -48 29 -23 67l31 47c17 25 37 36 67 36h82c30 0 50 -11 67 -36l31 -47c25 -38 15 -67 -23 -67h-34c-31 0 -41 12 -56 38l-25 44h-2l-25 -44c-15 -26 -25 -38 -56 -38h-34z" />
    <glyph glyph-name="ccircumflex" unicode="&#x109;" horiz-adv-x="529" 
d="M22 258c0 138 102 269 287 269c78 0 133 -24 166 -46c28 -18 30 -46 12 -75l-17 -26c-19 -31 -42 -32 -74 -16c-20 10 -46 19 -76 19c-82 0 -123 -62 -123 -123s42 -128 129 -128c34 0 68 14 93 29c33 18 58 14 75 -19l13 -25c15 -30 12 -57 -15 -75
c-36 -24 -98 -54 -183 -54c-184 0 -287 128 -287 270zM173 565c-38 0 -48 29 -23 67l31 47c17 25 37 36 67 36h82c30 0 50 -11 67 -36l31 -47c25 -38 15 -67 -23 -67h-34c-31 0 -41 12 -56 38l-25 44h-2l-25 -44c-15 -26 -25 -38 -56 -38h-34z" />
    <glyph glyph-name="Cdotaccent" unicode="&#x10a;" horiz-adv-x="699" 
d="M32 359c0 208 154 368 375 368c110 0 187 -39 229 -68c28 -20 30 -47 12 -76l-25 -41c-19 -31 -44 -34 -75 -15c-33 19 -80 40 -133 40c-143 0 -202 -101 -202 -204c0 -106 64 -215 202 -215c60 0 112 27 146 51c30 21 56 20 77 -10l28 -39c19 -28 18 -56 -9 -77
c-45 -35 -129 -85 -250 -85c-230 0 -375 159 -375 371zM381 779c-36 0 -55 19 -55 55v22c0 36 19 55 55 55h33c36 0 55 -19 55 -55v-22c0 -36 -19 -55 -55 -55h-33z" />
    <glyph glyph-name="cdotaccent" unicode="&#x10b;" horiz-adv-x="529" 
d="M22 258c0 138 102 269 287 269c78 0 133 -24 166 -46c28 -18 30 -46 12 -75l-17 -26c-19 -31 -42 -32 -74 -16c-20 10 -46 19 -76 19c-82 0 -123 -62 -123 -123s42 -128 129 -128c34 0 68 14 93 29c33 18 58 14 75 -19l13 -25c15 -30 12 -57 -15 -75
c-36 -24 -98 -54 -183 -54c-184 0 -287 128 -287 270zM273 583c-36 0 -55 19 -55 55v22c0 36 19 55 55 55h33c36 0 55 -19 55 -55v-22c0 -36 -19 -55 -55 -55h-33z" />
    <glyph glyph-name="Ccaron" unicode="&#x10c;" horiz-adv-x="699" 
d="M32 359c0 208 154 368 375 368c110 0 187 -39 229 -68c28 -20 30 -47 12 -76l-25 -41c-19 -31 -44 -34 -75 -15c-33 19 -80 40 -133 40c-143 0 -202 -101 -202 -204c0 -106 64 -215 202 -215c60 0 112 27 146 51c30 21 56 20 77 -10l28 -39c19 -28 18 -56 -9 -77
c-45 -35 -129 -85 -250 -85c-230 0 -375 159 -375 371zM356 761c-30 0 -50 11 -67 36l-31 47c-25 38 -15 67 23 67h34c31 0 41 -12 56 -38l25 -44h2l25 44c15 26 25 38 56 38h34c38 0 48 -29 23 -67l-31 -47c-17 -25 -37 -36 -67 -36h-82z" />
    <glyph glyph-name="ccaron" unicode="&#x10d;" horiz-adv-x="529" 
d="M22 258c0 138 102 269 287 269c78 0 133 -24 166 -46c28 -18 30 -46 12 -75l-17 -26c-19 -31 -42 -32 -74 -16c-20 10 -46 19 -76 19c-82 0 -123 -62 -123 -123s42 -128 129 -128c34 0 68 14 93 29c33 18 58 14 75 -19l13 -25c15 -30 12 -57 -15 -75
c-36 -24 -98 -54 -183 -54c-184 0 -287 128 -287 270zM248 565c-30 0 -50 11 -67 36l-31 47c-25 38 -15 67 23 67h34c31 0 41 -12 56 -38l25 -44h2l25 44c15 26 25 38 56 38h34c38 0 48 -29 23 -67l-31 -47c-17 -25 -37 -36 -67 -36h-82z" />
    <glyph glyph-name="Dcaron" unicode="&#x10e;" horiz-adv-x="726" 
d="M69 55v605c0 36 19 55 55 55h199c225 0 369 -131 369 -356s-144 -359 -369 -359h-199c-36 0 -55 19 -55 55zM244 150h72c121 0 195 72 195 209c0 136 -77 206 -195 206h-72v-415zM296 761c-30 0 -50 11 -67 36l-31 47c-25 38 -15 67 23 67h34c31 0 41 -12 56 -38l25 -44
h2l25 44c15 26 25 38 56 38h34c38 0 48 -29 23 -67l-31 -47c-17 -25 -37 -36 -67 -36h-82z" />
    <glyph glyph-name="dcaron" unicode="&#x10f;" horiz-adv-x="620" 
d="M24 258c0 163 98 269 235 269c104 0 135 -51 135 -51h2s-1 10 -1 23v161c0 36 19 55 55 55h63c36 0 55 -19 55 -55v-605c0 -36 -19 -55 -55 -55h-52c-36 0 -55 17 -55 50v6c0 2 1 7 1 7h-2s-43 -75 -149 -75c-140 0 -232 110 -232 270zM198 258c0 -77 41 -127 101 -127
c52 0 101 38 101 127c0 62 -33 123 -101 123c-54 0 -101 -44 -101 -123zM622 682c0 26 19 33 49 33h23c50 0 63 -31 63 -69c0 -71 -39 -112 -78 -112h-15c-31 0 -48 10 -48 30c0 22 11 38 11 67c0 17 -5 34 -5 51z" />
    <glyph glyph-name="Dcroat" unicode="&#x110;" horiz-adv-x="728" 
d="M71 55v229h-2c-36 0 -55 19 -55 55v30c0 36 10 55 29 55h28v236c0 36 19 55 55 55h199c225 0 369 -131 369 -356s-144 -359 -369 -359h-199c-36 0 -55 19 -55 55zM246 150h72c121 0 195 72 195 209c0 136 -77 206 -195 206h-72v-141h49c36 0 55 -19 55 -55v-30
c0 -36 -18 -55 -52 -55h-52v-134z" />
    <glyph glyph-name="dcroat" unicode="&#x111;" horiz-adv-x="620" 
d="M24 258c0 163 98 269 235 269c104 0 135 -51 135 -51h2s-1 10 -1 23v55h-71c-36 0 -55 14 -55 45v6c0 30 19 44 55 44h71v11c0 36 19 55 55 55h63c36 0 55 -19 55 -55v-11h11c36 0 55 -14 55 -44v-6c0 -31 -12 -45 -33 -45h-33v-499c0 -36 -19 -55 -55 -55h-52
c-36 0 -55 17 -55 50v6c0 2 1 7 1 7h-2s-43 -75 -149 -75c-140 0 -232 110 -232 270zM198 258c0 -77 41 -127 101 -127c52 0 101 38 101 127c0 62 -33 123 -101 123c-54 0 -101 -44 -101 -123z" />
    <glyph glyph-name="Emacron" unicode="&#x112;" horiz-adv-x="560" 
d="M69 55v605c0 36 19 55 55 55h338c36 0 55 -19 55 -55v-40c0 -36 -19 -55 -55 -55h-218v-130h163c36 0 55 -19 55 -55v-40c0 -36 -19 -55 -55 -55h-163v-135h232c36 0 55 -19 55 -55v-40c0 -36 -19 -55 -55 -55h-352c-36 0 -55 19 -55 55zM219 782c-36 0 -55 16 -55 52v8
c0 36 19 52 55 52h165c36 0 55 -16 55 -52v-8c0 -36 -19 -52 -55 -52h-165z" />
    <glyph glyph-name="emacron" unicode="&#x113;" horiz-adv-x="548" 
d="M22 258c0 151 102 269 268 269c153 0 238 -108 238 -246c0 -27 -24 -57 -58 -57h-271c13 -63 65 -92 120 -92c35 0 68 11 94 24c33 15 57 11 74 -21l14 -26c16 -31 11 -58 -19 -75c-37 -21 -98 -46 -177 -46c-184 0 -283 133 -283 270zM203 323h154c0 42 -27 77 -71 77
c-50 0 -74 -36 -83 -77zM204 586c-36 0 -55 16 -55 52v8c0 36 19 52 55 52h165c36 0 55 -16 55 -52v-8c0 -36 -19 -52 -55 -52h-165z" />
    <glyph glyph-name="Ebreve" unicode="&#x114;" horiz-adv-x="560" 
d="M69 55v605c0 36 19 55 55 55h338c36 0 55 -19 55 -55v-40c0 -36 -19 -55 -55 -55h-218v-130h163c36 0 55 -19 55 -55v-40c0 -36 -19 -55 -55 -55h-163v-135h232c36 0 55 -19 55 -55v-40c0 -36 -19 -55 -55 -55h-352c-36 0 -55 19 -55 55zM301 756c-80 0 -172 49 -172 124
c0 18 12 31 46 31h26c32 0 41 -21 46 -36c9 -25 30 -33 54 -33s45 8 54 33c5 15 14 36 46 36h26c34 0 46 -13 46 -31c0 -78 -91 -124 -172 -124z" />
    <glyph glyph-name="ebreve" unicode="&#x115;" horiz-adv-x="548" 
d="M22 258c0 151 102 269 268 269c153 0 238 -108 238 -246c0 -27 -24 -57 -58 -57h-271c13 -63 65 -92 120 -92c35 0 68 11 94 24c33 15 57 11 74 -21l14 -26c16 -31 11 -58 -19 -75c-37 -21 -98 -46 -177 -46c-184 0 -283 133 -283 270zM203 323h154c0 42 -27 77 -71 77
c-50 0 -74 -36 -83 -77zM286 560c-80 0 -172 49 -172 124c0 18 12 31 46 31h26c32 0 41 -21 46 -36c9 -25 30 -33 54 -33s45 8 54 33c5 15 14 36 46 36h26c34 0 46 -13 46 -31c0 -78 -91 -124 -172 -124z" />
    <glyph glyph-name="Edotaccent" unicode="&#x116;" horiz-adv-x="560" 
d="M69 55v605c0 36 19 55 55 55h338c36 0 55 -19 55 -55v-40c0 -36 -19 -55 -55 -55h-218v-130h163c36 0 55 -19 55 -55v-40c0 -36 -19 -55 -55 -55h-163v-135h232c36 0 55 -19 55 -55v-40c0 -36 -19 -55 -55 -55h-352c-36 0 -55 19 -55 55zM285 779c-36 0 -55 19 -55 55v22
c0 36 19 55 55 55h33c36 0 55 -19 55 -55v-22c0 -36 -19 -55 -55 -55h-33z" />
    <glyph glyph-name="edotaccent" unicode="&#x117;" horiz-adv-x="548" 
d="M22 258c0 151 102 269 268 269c153 0 238 -108 238 -246c0 -27 -24 -57 -58 -57h-271c13 -63 65 -92 120 -92c35 0 68 11 94 24c33 15 57 11 74 -21l14 -26c16 -31 11 -58 -19 -75c-37 -21 -98 -46 -177 -46c-184 0 -283 133 -283 270zM203 323h154c0 42 -27 77 -71 77
c-50 0 -74 -36 -83 -77zM270 583c-36 0 -55 19 -55 55v22c0 36 19 55 55 55h33c36 0 55 -19 55 -55v-22c0 -36 -19 -55 -55 -55h-33z" />
    <glyph glyph-name="Eogonek" unicode="&#x118;" horiz-adv-x="560" 
d="M69 55v605c0 36 19 55 55 55h338c36 0 55 -19 55 -55v-40c0 -36 -19 -55 -55 -55h-218v-130h163c36 0 55 -19 55 -55v-40c0 -36 -19 -55 -55 -55h-163v-135h232c36 0 55 -19 55 -55v-40c0 -56 -63 -69 -63 -119c0 -14 13 -19 25 -25c16 -8 20 -25 17 -50l-4 -29
c-3 -26 -25 -37 -49 -35c-50 5 -119 37 -119 97c0 40 25 78 51 106h-265c-36 0 -55 19 -55 55z" />
    <glyph glyph-name="eogonek" unicode="&#x119;" horiz-adv-x="550" 
d="M22 258c0 151 102 269 268 269c152 0 238 -106 238 -249c0 -26 -21 -54 -57 -54h-272c13 -63 65 -92 120 -92c35 0 68 11 94 24c33 15 57 10 74 -22l14 -26c15 -30 8 -52 -15 -76c-21 -22 -75 -68 -75 -96c0 -14 13 -19 25 -25c16 -8 20 -25 17 -50l-4 -29
c-3 -26 -25 -36 -49 -35c-49 3 -120 42 -120 92c0 44 27 76 57 103c-13 -2 -18 -4 -32 -4c-184 0 -283 133 -283 270zM203 323h151c0 39 -27 74 -68 74c-50 0 -74 -36 -83 -74z" />
    <glyph glyph-name="Ecaron" unicode="&#x11a;" horiz-adv-x="560" 
d="M69 55v605c0 36 19 55 55 55h338c36 0 55 -19 55 -55v-40c0 -36 -19 -55 -55 -55h-218v-130h163c36 0 55 -19 55 -55v-40c0 -36 -19 -55 -55 -55h-163v-135h232c36 0 55 -19 55 -55v-40c0 -36 -19 -55 -55 -55h-352c-36 0 -55 19 -55 55zM260 761c-30 0 -50 11 -67 36
l-31 47c-25 38 -15 67 23 67h34c31 0 41 -12 56 -38l25 -44h2l25 44c15 26 25 38 56 38h34c38 0 48 -29 23 -67l-31 -47c-17 -25 -37 -36 -67 -36h-82z" />
    <glyph glyph-name="ecaron" unicode="&#x11b;" horiz-adv-x="548" 
d="M22 258c0 151 102 269 268 269c153 0 238 -108 238 -246c0 -27 -24 -57 -58 -57h-271c13 -63 65 -92 120 -92c35 0 68 11 94 24c33 15 57 11 74 -21l14 -26c16 -31 11 -58 -19 -75c-37 -21 -98 -46 -177 -46c-184 0 -283 133 -283 270zM203 323h154c0 42 -27 77 -71 77
c-50 0 -74 -36 -83 -77zM245 565c-30 0 -50 11 -67 36l-31 47c-25 38 -15 67 23 67h34c31 0 41 -12 56 -38l25 -44h2l25 44c15 26 25 38 56 38h34c38 0 48 -29 23 -67l-31 -47c-17 -25 -37 -36 -67 -36h-82z" />
    <glyph glyph-name="Gcircumflex" unicode="&#x11c;" horiz-adv-x="759" 
d="M32 353c0 218 157 374 376 374c114 0 203 -42 232 -63c30 -22 33 -45 14 -76l-26 -41c-19 -30 -43 -32 -76 -15s-71 35 -133 35c-143 0 -206 -96 -206 -204c0 -132 94 -215 203 -215c102 0 147 58 147 58v49h-46c-36 0 -55 19 -55 55v39c0 36 19 55 55 55h146
c36 0 55 -19 55 -55v-294c0 -36 -19 -55 -55 -55h-33c-36 0 -55 19 -55 43v2c0 6 1 10 1 10h-2s-63 -67 -190 -67c-184 0 -352 140 -352 365zM281 761c-38 0 -48 29 -23 67l31 47c17 25 37 36 67 36h82c30 0 50 -11 67 -36l31 -47c25 -38 15 -67 -23 -67h-34
c-31 0 -41 12 -56 38l-25 44h-2l-25 -44c-15 -26 -25 -38 -56 -38h-34z" />
    <glyph glyph-name="gcircumflex" unicode="&#x11d;" horiz-adv-x="612" 
d="M104 -84c13 34 33 44 70 32c25 -8 52 -14 92 -14c65 0 121 23 121 99v26c0 6 1 19 1 19h-2c-28 -41 -65 -63 -126 -63c-158 0 -235 127 -235 259c0 131 75 253 236 253c110 0 141 -67 141 -67h2s-1 4 -1 10v2c0 24 19 43 55 43h47c36 0 55 -19 55 -55v-413
c0 -188 -153 -257 -284 -257c-60 0 -122 12 -153 25c-34 14 -43 36 -30 71zM298 159c45 0 93 23 93 113c0 91 -48 111 -100 111c-61 0 -92 -44 -92 -103c0 -64 30 -121 99 -121zM181 565c-38 0 -48 29 -23 67l31 47c17 25 37 36 67 36h82c30 0 50 -11 67 -36l31 -47
c25 -38 15 -67 -23 -67h-34c-31 0 -41 12 -56 38l-25 44h-2l-25 -44c-15 -26 -25 -38 -56 -38h-34z" />
    <glyph glyph-name="Gbreve" unicode="&#x11e;" horiz-adv-x="759" 
d="M32 353c0 218 157 374 376 374c114 0 203 -42 232 -63c30 -22 33 -45 14 -76l-26 -41c-19 -30 -43 -32 -76 -15s-71 35 -133 35c-143 0 -206 -96 -206 -204c0 -132 94 -215 203 -215c102 0 147 58 147 58v49h-46c-36 0 -55 19 -55 55v39c0 36 19 55 55 55h146
c36 0 55 -19 55 -55v-294c0 -36 -19 -55 -55 -55h-33c-36 0 -55 19 -55 43v2c0 6 1 10 1 10h-2s-63 -67 -190 -67c-184 0 -352 140 -352 365zM397 756c-80 0 -172 49 -172 124c0 18 12 31 46 31h26c32 0 41 -21 46 -36c9 -25 30 -33 54 -33s45 8 54 33c5 15 14 36 46 36h26
c34 0 46 -13 46 -31c0 -78 -91 -124 -172 -124z" />
    <glyph glyph-name="gbreve" unicode="&#x11f;" horiz-adv-x="612" 
d="M104 -84c13 34 33 44 70 32c25 -8 52 -14 92 -14c65 0 121 23 121 99v26c0 6 1 19 1 19h-2c-28 -41 -65 -63 -126 -63c-158 0 -235 127 -235 259c0 131 75 253 236 253c110 0 141 -67 141 -67h2s-1 4 -1 10v2c0 24 19 43 55 43h47c36 0 55 -19 55 -55v-413
c0 -188 -153 -257 -284 -257c-60 0 -122 12 -153 25c-34 14 -43 36 -30 71zM298 159c45 0 93 23 93 113c0 91 -48 111 -100 111c-61 0 -92 -44 -92 -103c0 -64 30 -121 99 -121zM297 560c-80 0 -172 49 -172 124c0 18 12 31 46 31h26c32 0 41 -21 46 -36
c9 -25 30 -33 54 -33s45 8 54 33c5 15 14 36 46 36h26c34 0 46 -13 46 -31c0 -78 -91 -124 -172 -124z" />
    <glyph glyph-name="Gdotaccent" unicode="&#x120;" horiz-adv-x="759" 
d="M32 353c0 218 157 374 376 374c114 0 203 -42 232 -63c30 -22 33 -45 14 -76l-26 -41c-19 -30 -43 -32 -76 -15s-71 35 -133 35c-143 0 -206 -96 -206 -204c0 -132 94 -215 203 -215c102 0 147 58 147 58v49h-46c-36 0 -55 19 -55 55v39c0 36 19 55 55 55h146
c36 0 55 -19 55 -55v-294c0 -36 -19 -55 -55 -55h-33c-36 0 -55 19 -55 43v2c0 6 1 10 1 10h-2s-63 -67 -190 -67c-184 0 -352 140 -352 365zM381 779c-36 0 -55 19 -55 55v22c0 36 19 55 55 55h33c36 0 55 -19 55 -55v-22c0 -36 -19 -55 -55 -55h-33z" />
    <glyph glyph-name="gdotaccent" unicode="&#x121;" horiz-adv-x="612" 
d="M104 -84c13 34 33 44 70 32c25 -8 52 -14 92 -14c65 0 121 23 121 99v26c0 6 1 19 1 19h-2c-28 -41 -65 -63 -126 -63c-158 0 -235 127 -235 259c0 131 75 253 236 253c110 0 141 -67 141 -67h2s-1 4 -1 10v2c0 24 19 43 55 43h47c36 0 55 -19 55 -55v-413
c0 -188 -153 -257 -284 -257c-60 0 -122 12 -153 25c-34 14 -43 36 -30 71zM298 159c45 0 93 23 93 113c0 91 -48 111 -100 111c-61 0 -92 -44 -92 -103c0 -64 30 -121 99 -121zM281 583c-36 0 -55 19 -55 55v22c0 36 19 55 55 55h33c36 0 55 -19 55 -55v-22
c0 -36 -19 -55 -55 -55h-33z" />
    <glyph glyph-name="Gcommaaccent" unicode="&#x122;" horiz-adv-x="759" 
d="M32 353c0 218 157 374 376 374c114 0 203 -42 232 -63c30 -22 33 -45 14 -76l-26 -41c-19 -30 -43 -32 -76 -15s-71 35 -133 35c-143 0 -206 -96 -206 -204c0 -132 94 -215 203 -215c102 0 147 58 147 58v49h-46c-36 0 -55 19 -55 55v39c0 36 19 55 55 55h146
c36 0 55 -19 55 -55v-294c0 -36 -19 -55 -55 -55h-33c-36 0 -55 19 -55 43v2c0 6 1 10 1 10h-2s-63 -67 -190 -67c-184 0 -352 140 -352 365zM320 -82c0 26 19 33 49 33h23c50 0 63 -31 63 -69c0 -71 -39 -112 -78 -112h-15c-31 0 -48 10 -48 30c0 22 11 38 11 67
c0 17 -5 34 -5 51z" />
    <glyph glyph-name="gcommaaccent" unicode="&#x123;" horiz-adv-x="612" 
d="M104 -84c13 34 33 44 70 32c25 -8 52 -14 92 -14c65 0 121 23 121 99v26c0 6 1 19 1 19h-2c-28 -41 -65 -63 -126 -63c-158 0 -235 127 -235 259c0 131 75 253 236 253c110 0 141 -67 141 -67h2s-1 4 -1 10v2c0 24 19 43 55 43h47c36 0 55 -19 55 -55v-413
c0 -188 -153 -257 -284 -257c-60 0 -122 12 -153 25c-34 14 -43 36 -30 71zM298 159c45 0 93 23 93 113c0 91 -48 111 -100 111c-61 0 -92 -44 -92 -103c0 -64 30 -121 99 -121zM361 602c0 -26 -19 -33 -49 -33h-23c-50 0 -63 31 -63 69c0 71 39 112 78 112h15
c31 0 48 -10 48 -30c0 -22 -11 -38 -11 -67c0 -17 5 -34 5 -51z" />
    <glyph glyph-name="Hcircumflex" unicode="&#x124;" horiz-adv-x="748" 
d="M69 55v605c0 36 19 55 55 55h65c36 0 55 -19 55 -55v-231h260v231c0 36 19 55 55 55h65c36 0 55 -19 55 -55v-605c0 -36 -19 -55 -55 -55h-65c-36 0 -55 19 -55 55v225h-260v-225c0 -36 -19 -55 -55 -55h-65c-36 0 -55 19 -55 55zM258 761c-38 0 -48 29 -23 67l31 47
c17 25 37 36 67 36h82c30 0 50 -11 67 -36l31 -47c25 -38 15 -67 -23 -67h-34c-31 0 -41 12 -56 38l-25 44h-2l-25 -44c-15 -26 -25 -38 -56 -38h-34z" />
    <glyph glyph-name="hcircumflex" unicode="&#x125;" horiz-adv-x="611" 
d="M52 55v605c0 36 19 55 55 55h63c36 0 55 -19 55 -55v-171c0 -26 -2 -44 -2 -44h2c29 51 89 82 157 82c104 0 185 -48 185 -193v-279c0 -36 -19 -55 -55 -55h-63c-36 0 -55 19 -55 55v247c0 48 -19 68 -57 68c-75 0 -112 -59 -112 -138v-177c0 -36 -19 -55 -55 -55h-63
c-36 0 -55 19 -55 55zM23 761c-38 0 -48 29 -23 67l31 47c17 25 37 36 67 36h82c30 0 50 -11 67 -36l31 -47c25 -38 15 -67 -23 -67h-34c-31 0 -41 12 -56 38l-25 44h-2l-25 -44c-15 -26 -25 -38 -56 -38h-34z" />
    <glyph glyph-name="Hbar" unicode="&#x126;" horiz-adv-x="745" 
d="M73 55v462h-11c-36 0 -55 16 -55 51v6c0 34 19 50 55 50h11v36c0 36 19 55 55 55h69c36 0 55 -16 55 -45v-46h242v36c0 36 19 55 55 55h69c36 0 55 -16 55 -45v-46h10c36 0 55 -16 55 -50v-6c0 -35 -19 -51 -55 -51h-10v-462c0 -36 -19 -55 -55 -55h-69
c-36 0 -55 19 -55 55v225h-242v-225c0 -36 -19 -55 -55 -55h-69c-36 0 -55 19 -55 55zM252 429h242v88h-242v-88z" />
    <glyph glyph-name="hbar" unicode="&#x127;" horiz-adv-x="611" 
d="M52 55v499h-3c-36 0 -55 14 -55 45v6c0 30 19 44 55 44h3v11c0 36 19 55 55 55h63c36 0 55 -12 55 -33v-33h79c36 0 55 -14 55 -44v-6c0 -31 -19 -45 -55 -45h-79v-65c0 -26 -2 -44 -2 -44h2c29 51 89 82 157 82c104 0 185 -48 185 -193v-279c0 -36 -19 -55 -55 -55h-63
c-36 0 -55 19 -55 55v247c0 48 -19 68 -57 68c-76 0 -112 -63 -112 -137v-178c0 -36 -19 -55 -55 -55h-63c-36 0 -55 19 -55 55z" />
    <glyph glyph-name="Itilde" unicode="&#x128;" horiz-adv-x="313" 
d="M69 55v605c0 36 19 55 55 55h65c36 0 55 -19 55 -55v-605c0 -36 -19 -55 -55 -55h-65c-36 0 -55 19 -55 55zM9 761c-30 0 -48 15 -48 46c0 56 46 107 112 107c79 0 103 -60 142 -60c19 0 30 9 33 30c2 16 19 27 46 27h12c32 0 48 -13 48 -43c0 -64 -45 -110 -111 -110
c-80 0 -104 60 -143 60c-20 0 -33 -14 -36 -32c-3 -16 -19 -25 -43 -25h-12z" />
    <glyph glyph-name="itilde" unicode="&#x129;" horiz-adv-x="275" 
d="M51 55v405c0 36 19 55 55 55h63c36 0 55 -19 55 -55v-405c0 -36 -19 -55 -55 -55h-63c-36 0 -55 19 -55 55zM-11 565c-30 0 -48 15 -48 46c0 56 46 107 112 107c79 0 103 -60 142 -60c19 0 30 9 33 30c2 16 19 27 46 27h12c32 0 48 -13 48 -43c0 -64 -45 -110 -111 -110
c-80 0 -104 60 -143 60c-20 0 -33 -14 -36 -32c-3 -16 -19 -25 -43 -25h-12z" />
    <glyph glyph-name="Imacron" unicode="&#x12a;" horiz-adv-x="313" 
d="M69 55v605c0 36 19 55 55 55h65c36 0 55 -19 55 -55v-605c0 -36 -19 -55 -55 -55h-65c-36 0 -55 19 -55 55zM75 782c-36 0 -55 16 -55 52v8c0 36 19 52 55 52h165c36 0 55 -16 55 -52v-8c0 -36 -19 -52 -55 -52h-165z" />
    <glyph glyph-name="imacron" unicode="&#x12b;" horiz-adv-x="275" 
d="M51 55v405c0 36 19 55 55 55h63c36 0 55 -19 55 -55v-405c0 -36 -19 -55 -55 -55h-63c-36 0 -55 19 -55 55zM55 586c-36 0 -55 16 -55 52v8c0 36 19 52 55 52h165c36 0 55 -16 55 -52v-8c0 -36 -19 -52 -55 -52h-165z" />
    <glyph glyph-name="Ibreve" unicode="&#x12c;" horiz-adv-x="313" 
d="M69 55v605c0 36 19 55 55 55h65c36 0 55 -19 55 -55v-605c0 -36 -19 -55 -55 -55h-65c-36 0 -55 19 -55 55zM157 756c-80 0 -172 49 -172 124c0 18 12 31 46 31h26c32 0 41 -21 46 -36c9 -25 30 -33 54 -33s45 8 54 33c5 15 14 36 46 36h26c34 0 46 -13 46 -31
c0 -78 -91 -124 -172 -124z" />
    <glyph glyph-name="ibreve" unicode="&#x12d;" horiz-adv-x="275" 
d="M51 55v405c0 36 19 55 55 55h63c36 0 55 -19 55 -55v-405c0 -36 -19 -55 -55 -55h-63c-36 0 -55 19 -55 55zM137 560c-80 0 -172 49 -172 124c0 18 12 31 46 31h26c32 0 41 -21 46 -36c9 -25 30 -33 54 -33s45 8 54 33c5 15 14 36 46 36h26c34 0 46 -13 46 -31
c0 -78 -91 -124 -172 -124z" />
    <glyph glyph-name="Iogonek" unicode="&#x12e;" horiz-adv-x="313" 
d="M69 55v605c0 36 19 55 55 55h65c36 0 55 -19 55 -55v-605c0 -50 -63 -69 -63 -119c0 -14 13 -19 25 -25c16 -8 20 -25 17 -50l-4 -29c-3 -26 -25 -37 -49 -35c-50 5 -119 37 -119 97c0 41 27 81 53 108c-24 7 -35 25 -35 53z" />
    <glyph glyph-name="iogonek" unicode="&#x12f;" horiz-adv-x="275" 
d="M108 580c-36 0 -55 19 -55 55v25c0 36 19 55 55 55h59c36 0 55 -19 55 -55v-25c0 -36 -19 -55 -55 -55h-59zM51 55v405c0 36 19 55 55 55h63c36 0 55 -19 55 -55v-405c0 -50 -63 -69 -63 -119c0 -14 13 -19 25 -25c16 -8 20 -25 17 -50l-4 -29c-3 -26 -25 -37 -49 -35
c-50 5 -119 37 -119 97c0 41 27 81 53 108c-22 7 -33 25 -33 53z" />
    <glyph glyph-name="Idotaccent" unicode="&#x130;" horiz-adv-x="313" 
d="M69 55v605c0 36 19 55 55 55h65c36 0 55 -19 55 -55v-605c0 -36 -19 -55 -55 -55h-65c-36 0 -55 19 -55 55zM141 779c-36 0 -55 19 -55 55v22c0 36 19 55 55 55h33c36 0 55 -19 55 -55v-22c0 -36 -19 -55 -55 -55h-33z" />
    <glyph glyph-name="dotlessi" unicode="&#x131;" horiz-adv-x="275" 
d="M51 55v405c0 36 19 55 55 55h63c36 0 55 -19 55 -55v-405c0 -36 -19 -55 -55 -55h-63c-36 0 -55 19 -55 55z" />
    <glyph glyph-name="IJ" unicode="&#x132;" horiz-adv-x="669" 
d="M312 52v52c0 34 17 47 48 59c35 14 68 45 68 107v390c0 36 19 55 55 55h69c36 0 55 -19 55 -55v-402c0 -196 -155 -259 -239 -259c-36 0 -56 17 -56 53zM69 55v605c0 36 19 55 55 55h65c36 0 55 -19 55 -55v-605c0 -36 -19 -55 -55 -55h-65c-36 0 -55 19 -55 55z" />
    <glyph glyph-name="ij" unicode="&#x133;" horiz-adv-x="577" 
d="M108 580c-36 0 -55 19 -55 55v25c0 36 19 55 55 55h59c36 0 55 -19 55 -55v-25c0 -36 -19 -55 -55 -55h-59zM51 55v405c0 36 19 55 55 55h63c36 0 55 -19 55 -55v-405c0 -36 -19 -55 -55 -55h-63c-36 0 -55 19 -55 55zM409 580c-36 0 -55 19 -55 55v25c0 36 19 55 55 55
h59c36 0 55 -19 55 -55v-25c0 -36 -19 -55 -55 -55h-59zM352 4v456c0 36 19 55 55 55h63c36 0 55 -19 55 -55v-469c0 -167 -163 -199 -215 -199h-18c-36 0 -55 19 -55 55v38c0 44 28 51 55 55s60 14 60 64z" />
    <glyph glyph-name="Jcircumflex" unicode="&#x134;" horiz-adv-x="555" 
d="M13 217c0 36 19 55 55 55h67c36 0 49 -15 53 -51c4 -37 23 -73 65 -73c38 0 64 24 64 76v341h-137c-36 0 -55 19 -55 55v40c0 36 19 55 55 55h257c36 0 55 -19 55 -55v-440c0 -157 -120 -232 -239 -232c-121 0 -240 79 -240 229zM188 761c-38 0 -48 29 -23 67l31 47
c17 25 37 36 67 36h82c30 0 50 -11 67 -36l31 -47c25 -38 15 -67 -23 -67h-34c-31 0 -41 12 -56 38l-25 44h-2l-25 -44c-15 -26 -25 -38 -56 -38h-34z" />
    <glyph glyph-name="jcircumflex" unicode="&#x135;" horiz-adv-x="277" 
d="M23 565c-38 0 -48 29 -23 67l31 47c17 25 37 36 67 36h82c30 0 50 -11 67 -36l31 -47c25 -38 15 -67 -23 -67h-34c-31 0 -41 12 -56 38l-25 44h-2l-25 -44c-15 -26 -25 -38 -56 -38h-34zM52 4v456c0 36 19 55 55 55h63c36 0 55 -19 55 -55v-469
c0 -167 -163 -199 -215 -199h-18c-36 0 -55 19 -55 55v38c0 36 19 51 55 55c29 3 60 17 60 64z" />
    <glyph glyph-name="Kcommaaccent" unicode="&#x136;" horiz-adv-x="663" 
d="M69 55v605c0 36 19 55 55 55h65c36 0 55 -19 55 -55v-221h72l127 237c15 27 35 39 65 39h68c44 0 60 -28 39 -66l-156 -276v-2l168 -305c21 -38 5 -66 -39 -66h-77c-30 0 -50 12 -65 39l-130 251h-72v-235c0 -36 -19 -55 -55 -55h-65c-36 0 -55 19 -55 55zM273 -82
c0 26 19 33 49 33h23c50 0 63 -31 63 -69c0 -71 -39 -112 -78 -112h-15c-31 0 -48 10 -48 30c0 22 11 38 11 67c0 17 -5 34 -5 51z" />
    <glyph glyph-name="kcommaaccent" unicode="&#x137;" horiz-adv-x="572" 
d="M52 55v605c0 36 19 55 55 55h63c36 0 55 -19 55 -55v-315h49l80 133c15 26 35 37 65 37h66c45 0 60 -29 36 -66l-108 -168v-2l131 -213c23 -38 8 -66 -37 -66h-75c-30 0 -50 12 -65 39l-88 161h-54v-145c0 -36 -19 -55 -55 -55h-63c-36 0 -55 19 -55 55zM235 -82
c0 26 19 33 49 33h23c50 0 63 -31 63 -69c0 -71 -39 -112 -78 -112h-15c-31 0 -48 10 -48 30c0 22 11 38 11 67c0 17 -5 34 -5 51z" />
    <glyph glyph-name="kgreenlandic" unicode="&#x138;" horiz-adv-x="568" 
d="M51 55v405c0 36 19 55 55 55h63c36 0 55 -19 55 -55v-125h49l83 142c15 26 35 38 66 38h66c44 0 60 -29 36 -66l-112 -178v-2l125 -203c23 -38 8 -66 -37 -66h-78c-30 0 -50 12 -65 39l-79 151h-54v-135c0 -36 -19 -55 -55 -55h-63c-36 0 -55 19 -55 55z" />
    <glyph glyph-name="Lacute" unicode="&#x139;" horiz-adv-x="539" 
d="M69 55v605c0 36 19 55 55 55h65c36 0 55 -19 55 -55v-510h237c36 0 55 -19 55 -55v-40c0 -36 -19 -55 -55 -55h-357c-36 0 -55 19 -55 55zM149 761c-37 0 -51 28 -32 61l28 50c15 27 35 39 65 39h46c47 0 57 -31 28 -67l-39 -50c-18 -23 -38 -33 -67 -33h-29z" />
    <glyph glyph-name="lacute" unicode="&#x13a;" horiz-adv-x="307" 
d="M49 190v470c0 36 19 55 55 55h63c36 0 55 -19 55 -55v-462c0 -39 13 -49 29 -51c24 -3 40 -17 40 -47v-49c0 -34 -16 -56 -56 -56c-89 0 -186 22 -186 195zM128 761c-37 0 -51 28 -32 61l28 50c15 27 35 39 65 39h46c47 0 57 -31 28 -67l-39 -50c-18 -23 -38 -33 -67 -33
h-29z" />
    <glyph glyph-name="Lcommaaccent" unicode="&#x13b;" horiz-adv-x="539" 
d="M69 55v605c0 36 19 55 55 55h65c36 0 55 -19 55 -55v-510h237c36 0 55 -19 55 -55v-40c0 -36 -19 -55 -55 -55h-357c-36 0 -55 19 -55 55zM244 -82c0 26 19 33 49 33h23c50 0 63 -31 63 -69c0 -71 -39 -112 -78 -112h-15c-31 0 -48 10 -48 30c0 22 11 38 11 67
c0 17 -5 34 -5 51z" />
    <glyph glyph-name="lcommaaccent" unicode="&#x13c;" horiz-adv-x="306" 
d="M48 190v470c0 36 19 55 55 55h63c36 0 55 -19 55 -55v-462c0 -39 13 -49 29 -51c24 -3 40 -17 40 -47v-49c0 -34 -16 -56 -56 -56c-89 0 -186 22 -186 195zM112 -82c0 26 19 33 49 33h23c50 0 63 -31 63 -69c0 -71 -39 -112 -78 -112h-15c-31 0 -48 10 -48 30
c0 22 11 38 11 67c0 17 -5 34 -5 51z" />
    <glyph glyph-name="Lcaron" unicode="&#x13d;" horiz-adv-x="540" 
d="M69 55v605c0 36 19 55 55 55h65c36 0 55 -19 55 -55v-510h237c36 0 55 -19 55 -55v-40c0 -36 -19 -55 -55 -55h-357c-36 0 -55 19 -55 55zM322 682c0 26 19 33 49 33h23c50 0 63 -31 63 -69c0 -71 -39 -112 -78 -112h-15c-31 0 -48 10 -48 30c0 22 11 38 11 67
c0 17 -5 34 -5 51z" />
    <glyph glyph-name="lcaron" unicode="&#x13e;" horiz-adv-x="307" 
d="M49 190v470c0 36 19 55 55 55h63c36 0 55 -19 55 -55v-462c0 -39 13 -49 29 -51c24 -3 40 -17 40 -47v-49c0 -34 -16 -56 -56 -56c-89 0 -186 22 -186 195zM277 682c0 26 19 33 49 33h23c50 0 63 -31 63 -69c0 -71 -39 -112 -78 -112h-15c-31 0 -48 10 -48 30
c0 22 11 38 11 67c0 17 -5 34 -5 51z" />
    <glyph glyph-name="Ldot" unicode="&#x13f;" horiz-adv-x="541" 
d="M69 55v605c0 36 19 55 55 55h65c36 0 55 -19 55 -55v-510h237c36 0 55 -19 55 -55v-40c0 -36 -19 -55 -55 -55h-357c-36 0 -55 19 -55 55zM392 315c-36 0 -55 19 -55 55v54c0 36 19 55 55 55h48c36 0 55 -19 55 -55v-54c0 -36 -19 -55 -55 -55h-48z" />
    <glyph glyph-name="ldot" unicode="&#x140;" horiz-adv-x="455" 
d="M49 190v470c0 36 19 55 55 55h63c36 0 55 -19 55 -55v-462c0 -39 13 -49 29 -51c24 -3 40 -17 40 -47v-49c0 -34 -16 -56 -56 -56c-89 0 -186 22 -186 195zM339 315c-36 0 -55 19 -55 55v54c0 36 19 55 55 55h48c36 0 55 -19 55 -55v-54c0 -36 -19 -55 -55 -55h-48z" />
    <glyph glyph-name="Lslash" unicode="&#x141;" horiz-adv-x="541" 
d="M71 55v150l-6 -3c-23 -11 -46 5 -46 49v46c0 31 8 49 26 59l26 15v289c0 36 19 55 55 55h65c36 0 55 -19 55 -55v-189l35 20c38 22 66 6 66 -38v-46c0 -31 -12 -51 -38 -66l-63 -36v-155h237c36 0 55 -19 55 -55v-40c0 -36 -19 -55 -55 -55h-357c-36 0 -55 19 -55 55z
" />
    <glyph glyph-name="lslash" unicode="&#x142;" horiz-adv-x="320" 
d="M60 190v34l-2 -1c-27 -15 -48 4 -48 48v46c0 31 7 49 25 59l25 14v270c0 36 19 55 55 55h63c36 0 55 -19 55 -55v-171l3 2c38 22 66 6 66 -38v-46c0 -31 -11 -50 -34 -64l-35 -20v-125c0 -39 13 -49 29 -51c24 -3 40 -17 40 -47v-49c0 -34 -16 -56 -56 -56
c-89 0 -186 22 -186 195z" />
    <glyph glyph-name="Nacute" unicode="&#x143;" horiz-adv-x="742" 
d="M69 55v605c0 36 19 55 55 55h78c31 0 51 -11 66 -37l176 -297c28 -47 60 -122 60 -122h2s-8 77 -8 122v279c0 36 19 55 55 55h65c36 0 55 -19 55 -55v-605c0 -36 -19 -55 -55 -55h-78c-30 0 -50 11 -65 37l-177 296c-28 47 -60 122 -60 122h-2s8 -77 8 -122v-278
c0 -36 -19 -55 -55 -55h-65c-36 0 -55 19 -55 55zM363 761c-37 0 -51 28 -32 61l28 50c15 27 35 39 65 39h46c47 0 57 -31 28 -67l-39 -50c-18 -23 -38 -33 -67 -33h-29z" />
    <glyph glyph-name="nacute" unicode="&#x144;" horiz-adv-x="610" 
d="M51 55v405c0 36 19 55 55 55h56c36 0 54 -19 54 -55v-9c0 -5 -1 -13 -1 -13h2c24 40 73 89 164 89c104 0 185 -48 185 -193v-279c0 -36 -19 -55 -55 -55h-63c-36 0 -55 19 -55 55v247c0 48 -19 68 -57 68c-77 0 -112 -64 -112 -137v-178c0 -36 -19 -55 -55 -55h-63
c-36 0 -55 19 -55 55zM304 565c-37 0 -51 28 -32 61l28 50c15 27 35 39 65 39h46c47 0 57 -31 28 -67l-39 -50c-18 -23 -38 -33 -67 -33h-29z" />
    <glyph glyph-name="Ncommaaccent" unicode="&#x145;" horiz-adv-x="742" 
d="M69 55v605c0 36 19 55 55 55h78c31 0 51 -11 66 -37l176 -297c28 -47 60 -122 60 -122h2s-8 77 -8 122v279c0 36 19 55 55 55h65c36 0 55 -19 55 -55v-605c0 -36 -19 -55 -55 -55h-78c-30 0 -50 11 -65 37l-177 296c-28 47 -60 122 -60 122h-2s8 -77 8 -122v-278
c0 -36 -19 -55 -55 -55h-65c-36 0 -55 19 -55 55zM308 -82c0 26 19 33 49 33h23c50 0 63 -31 63 -69c0 -71 -39 -112 -78 -112h-15c-31 0 -48 10 -48 30c0 22 11 38 11 67c0 17 -5 34 -5 51z" />
    <glyph glyph-name="ncommaaccent" unicode="&#x146;" horiz-adv-x="610" 
d="M51 55v405c0 36 19 55 55 55h56c36 0 54 -19 54 -55v-9c0 -5 -1 -13 -1 -13h2c24 40 73 89 164 89c104 0 185 -48 185 -193v-279c0 -36 -19 -55 -55 -55h-63c-36 0 -55 19 -55 55v247c0 48 -19 68 -57 68c-77 0 -112 -64 -112 -137v-178c0 -36 -19 -55 -55 -55h-63
c-36 0 -55 19 -55 55zM242 -82c0 26 19 33 49 33h23c50 0 63 -31 63 -69c0 -71 -39 -112 -78 -112h-15c-31 0 -48 10 -48 30c0 22 11 38 11 67c0 17 -5 34 -5 51z" />
    <glyph glyph-name="Ncaron" unicode="&#x147;" horiz-adv-x="742" 
d="M69 55v605c0 36 19 55 55 55h78c31 0 51 -11 66 -37l176 -297c28 -47 60 -122 60 -122h2s-8 77 -8 122v279c0 36 19 55 55 55h65c36 0 55 -19 55 -55v-605c0 -36 -19 -55 -55 -55h-78c-30 0 -50 11 -65 37l-177 296c-28 47 -60 122 -60 122h-2s8 -77 8 -122v-278
c0 -36 -19 -55 -55 -55h-65c-36 0 -55 19 -55 55zM330 761c-30 0 -50 11 -67 36l-31 47c-25 38 -15 67 23 67h34c31 0 41 -12 56 -38l25 -44h2l25 44c15 26 25 38 56 38h34c38 0 48 -29 23 -67l-31 -47c-17 -25 -37 -36 -67 -36h-82z" />
    <glyph glyph-name="ncaron" unicode="&#x148;" horiz-adv-x="610" 
d="M51 55v405c0 36 19 55 55 55h56c36 0 54 -19 54 -55v-9c0 -5 -1 -13 -1 -13h2c24 40 73 89 164 89c104 0 185 -48 185 -193v-279c0 -36 -19 -55 -55 -55h-63c-36 0 -55 19 -55 55v247c0 48 -19 68 -57 68c-77 0 -112 -64 -112 -137v-178c0 -36 -19 -55 -55 -55h-63
c-36 0 -55 19 -55 55zM271 565c-30 0 -50 11 -67 36l-31 47c-25 38 -15 67 23 67h34c31 0 41 -12 56 -38l25 -44h2l25 44c15 26 25 38 56 38h34c38 0 48 -29 23 -67l-31 -47c-17 -25 -37 -36 -67 -36h-82z" />
    <glyph glyph-name="napostrophe" unicode="&#x149;" horiz-adv-x="610" 
d="M51 55v405c0 36 19 55 55 55h56c36 0 54 -19 54 -55v-9c0 -5 -1 -13 -1 -13h2c24 40 73 89 164 89c104 0 185 -48 185 -193v-279c0 -36 -19 -55 -55 -55h-63c-36 0 -55 19 -55 55v247c0 48 -19 68 -57 68c-77 0 -112 -64 -112 -137v-178c0 -36 -19 -55 -55 -55h-63
c-36 0 -55 19 -55 55zM-35 682c0 26 19 33 49 33h23c50 0 63 -31 63 -69c0 -71 -39 -112 -78 -112h-15c-31 0 -48 10 -48 30c0 22 11 38 11 67c0 17 -5 34 -5 51z" />
    <glyph glyph-name="Eng" unicode="&#x14a;" horiz-adv-x="743" 
d="M69 55v605c0 36 19 55 55 55h78c31 0 51 -11 66 -37l176 -297c28 -47 60 -122 60 -122h2s-8 77 -8 122v279c0 36 19 55 55 55h65c36 0 55 -19 55 -55v-669c0 -167 -158 -199 -228 -199c-41 0 -60 19 -60 55v38c0 36 19 51 55 55c29 3 64 18 64 59l-206 334
c-29 47 -60 122 -60 122h-2s8 -77 8 -122v-278c0 -36 -19 -55 -55 -55h-65c-36 0 -55 19 -55 55z" />
    <glyph glyph-name="eng" unicode="&#x14b;" horiz-adv-x="615" 
d="M51 55v405c0 36 19 55 55 55h56c36 0 54 -19 54 -55v-9c0 -5 -1 -13 -1 -13h2c24 40 73 89 164 89c104 0 185 -48 185 -193v-343c0 -167 -163 -199 -215 -199h-18c-36 0 -55 19 -55 55v38c0 36 19 51 55 55c29 3 60 17 60 64v298c0 48 -19 68 -57 68
c-77 0 -112 -64 -112 -137v-178c0 -36 -19 -55 -55 -55h-63c-36 0 -55 19 -55 55z" />
    <glyph glyph-name="Omacron" unicode="&#x14c;" horiz-adv-x="812" 
d="M32 362c0 205 152 365 374 365s374 -160 374 -365c0 -210 -152 -374 -374 -374s-374 164 -374 374zM213 362c0 -122 80 -214 193 -214s193 92 193 214c0 117 -80 205 -193 205s-193 -88 -193 -205zM324 782c-36 0 -55 16 -55 52v8c0 36 19 52 55 52h165
c36 0 55 -16 55 -52v-8c0 -36 -19 -52 -55 -52h-165z" />
    <glyph glyph-name="omacron" unicode="&#x14d;" horiz-adv-x="628" 
d="M22 256c0 162 130 271 291 271c163 0 293 -109 293 -271c0 -161 -130 -268 -292 -268s-292 107 -292 268zM197 256c0 -77 54 -124 117 -124s117 47 117 124c0 78 -54 127 -117 127s-117 -49 -117 -127zM232 586c-36 0 -55 16 -55 52v8c0 36 19 52 55 52h165
c36 0 55 -16 55 -52v-8c0 -36 -19 -52 -55 -52h-165z" />
    <glyph glyph-name="Obreve" unicode="&#x14e;" horiz-adv-x="812" 
d="M32 362c0 205 152 365 374 365s374 -160 374 -365c0 -210 -152 -374 -374 -374s-374 164 -374 374zM213 362c0 -122 80 -214 193 -214s193 92 193 214c0 117 -80 205 -193 205s-193 -88 -193 -205zM406 756c-80 0 -172 49 -172 124c0 18 12 31 46 31h26
c32 0 41 -21 46 -36c9 -25 30 -33 54 -33s45 8 54 33c5 15 14 36 46 36h26c34 0 46 -13 46 -31c0 -78 -91 -124 -172 -124z" />
    <glyph glyph-name="obreve" unicode="&#x14f;" horiz-adv-x="628" 
d="M22 256c0 162 130 271 291 271c163 0 293 -109 293 -271c0 -161 -130 -268 -292 -268s-292 107 -292 268zM197 256c0 -77 54 -124 117 -124s117 47 117 124c0 78 -54 127 -117 127s-117 -49 -117 -127zM314 560c-80 0 -172 49 -172 124c0 18 12 31 46 31h26
c32 0 41 -21 46 -36c9 -25 30 -33 54 -33s45 8 54 33c5 15 14 36 46 36h26c34 0 46 -13 46 -31c0 -78 -91 -124 -172 -124z" />
    <glyph glyph-name="Ohungarumlaut" unicode="&#x150;" horiz-adv-x="812" 
d="M32 362c0 205 152 365 374 365s374 -160 374 -365c0 -210 -152 -374 -374 -374s-374 164 -374 374zM213 362c0 -122 80 -214 193 -214s193 92 193 214c0 117 -80 205 -193 205s-193 -88 -193 -205zM500 761c-43 0 -53 27 -33 66l25 45c15 27 35 39 65 39h38
c47 0 57 -31 28 -67l-39 -50c-18 -23 -38 -33 -67 -33h-17zM293 761c-43 0 -55 27 -36 65l23 45c14 28 34 40 65 40h25c43 0 55 -27 35 -65l-24 -46c-15 -27 -35 -39 -65 -39h-23z" />
    <glyph glyph-name="ohungarumlaut" unicode="&#x151;" horiz-adv-x="628" 
d="M22 256c0 162 130 271 291 271c163 0 293 -109 293 -271c0 -161 -130 -268 -292 -268s-292 107 -292 268zM197 256c0 -77 54 -124 117 -124s117 47 117 124c0 78 -54 127 -117 127s-117 -49 -117 -127zM408 565c-43 0 -53 27 -33 66l25 45c15 27 35 39 65 39h38
c47 0 57 -31 28 -67l-39 -50c-18 -23 -38 -33 -67 -33h-17zM201 565c-43 0 -55 27 -36 65l23 45c14 28 34 40 65 40h25c43 0 55 -27 35 -65l-24 -46c-15 -27 -35 -39 -65 -39h-23z" />
    <glyph glyph-name="OE" unicode="&#x152;" horiz-adv-x="976" 
d="M28 359c0 205 173 364 384 364c68 0 88 -8 132 -8h333c36 0 55 -19 55 -55v-40c0 -36 -19 -55 -55 -55h-218v-130h163c36 0 55 -19 55 -55v-40c0 -36 -19 -55 -55 -55h-163v-135h233c36 0 55 -19 55 -55v-40c0 -36 -19 -55 -55 -55h-348c-44 0 -64 -8 -132 -8
c-211 0 -384 162 -384 367zM209 359c0 -120 89 -218 203 -218c44 0 72 7 72 7v419s-28 7 -72 7c-114 0 -203 -96 -203 -215z" />
    <glyph glyph-name="oe" unicode="&#x153;" horiz-adv-x="956" 
d="M22 256c0 162 127 271 285 271c98 0 152 -34 199 -80h2c41 45 90 80 190 80c153 0 238 -108 238 -246c0 -27 -24 -57 -58 -57h-270c13 -60 64 -92 119 -92c35 0 68 11 94 24c33 15 57 11 74 -21l14 -26c16 -31 11 -58 -19 -75c-37 -21 -98 -46 -177 -46
c-107 0 -159 39 -201 85h-2c-47 -48 -102 -85 -202 -85c-159 0 -286 107 -286 268zM611 323h151c-1 36 -26 74 -66 74c-52 0 -76 -36 -85 -74zM196 256c0 -77 54 -124 117 -124s117 47 117 124c0 78 -54 127 -117 127s-117 -49 -117 -127z" />
    <glyph glyph-name="Racute" unicode="&#x154;" horiz-adv-x="640" 
d="M69 55v605c0 36 19 55 55 55h194c73 0 108 -5 139 -17c81 -31 132 -104 132 -208c0 -76 -36 -159 -107 -195v-2s10 -13 27 -43l102 -184c22 -38 5 -66 -38 -66h-76c-30 0 -50 12 -65 39l-106 202h-82v-186c0 -36 -19 -55 -55 -55h-65c-36 0 -55 19 -55 55zM244 391h76
c56 0 91 31 91 88c0 36 -9 63 -42 76c-16 7 -37 10 -66 10h-59v-174zM303 761c-37 0 -51 28 -32 61l28 50c15 27 35 39 65 39h46c47 0 57 -31 28 -67l-39 -50c-18 -23 -38 -33 -67 -33h-29z" />
    <glyph glyph-name="racute" unicode="&#x155;" horiz-adv-x="405" 
d="M51 55v405c0 36 19 55 55 55h56c36 0 55 -19 55 -55v-32c0 -17 -2 -32 -2 -32h2c17 53 72 124 137 124c35 0 47 -19 47 -55v-56c0 -36 -19 -55 -55 -55c-82 0 -122 -70 -122 -154v-145c0 -36 -19 -55 -55 -55h-63c-36 0 -55 19 -55 55zM235 564c-37 0 -51 28 -32 61
l28 50c15 27 35 39 65 39h46c47 0 57 -31 28 -67l-39 -50c-18 -23 -38 -33 -67 -33h-29z" />
    <glyph glyph-name="Rcommaaccent" unicode="&#x156;" horiz-adv-x="640" 
d="M69 55v605c0 36 19 55 55 55h194c73 0 108 -5 139 -17c81 -31 132 -104 132 -208c0 -76 -36 -159 -107 -195v-2s10 -13 27 -43l102 -184c22 -38 5 -66 -38 -66h-76c-30 0 -50 12 -65 39l-106 202h-82v-186c0 -36 -19 -55 -55 -55h-65c-36 0 -55 19 -55 55zM244 391h76
c56 0 91 31 91 88c0 36 -9 63 -42 76c-16 7 -37 10 -66 10h-59v-174zM269 -82c0 26 19 33 49 33h23c50 0 63 -31 63 -69c0 -71 -39 -112 -78 -112h-15c-31 0 -48 10 -48 30c0 22 11 38 11 67c0 17 -5 34 -5 51z" />
    <glyph glyph-name="rcommaaccent" unicode="&#x157;" horiz-adv-x="405" 
d="M51 55v405c0 36 19 55 55 55h56c36 0 55 -19 55 -55v-32c0 -17 -2 -32 -2 -32h2c17 53 72 124 137 124c35 0 47 -19 47 -55v-56c0 -36 -19 -55 -55 -55c-82 0 -122 -70 -122 -154v-145c0 -36 -19 -55 -55 -55h-63c-36 0 -55 19 -55 55zM75 -82c0 26 19 33 49 33h23
c50 0 63 -31 63 -69c0 -71 -39 -112 -78 -112h-15c-31 0 -48 10 -48 30c0 22 11 38 11 67c0 17 -5 34 -5 51z" />
    <glyph glyph-name="Rcaron" unicode="&#x158;" horiz-adv-x="640" 
d="M69 55v605c0 36 19 55 55 55h194c73 0 108 -5 139 -17c81 -31 132 -104 132 -208c0 -76 -36 -159 -107 -195v-2s10 -13 27 -43l102 -184c22 -38 5 -66 -38 -66h-76c-30 0 -50 12 -65 39l-106 202h-82v-186c0 -36 -19 -55 -55 -55h-65c-36 0 -55 19 -55 55zM244 391h76
c56 0 91 31 91 88c0 36 -9 63 -42 76c-16 7 -37 10 -66 10h-59v-174zM270 761c-30 0 -50 11 -67 36l-31 47c-25 38 -15 67 23 67h34c31 0 41 -12 56 -38l25 -44h2l25 44c15 26 25 38 56 38h34c38 0 48 -29 23 -67l-31 -47c-17 -25 -37 -36 -67 -36h-82z" />
    <glyph glyph-name="rcaron" unicode="&#x159;" horiz-adv-x="405" 
d="M51 55v405c0 36 19 55 55 55h56c36 0 55 -19 55 -55v-32c0 -17 -2 -32 -2 -32h2c17 53 72 124 137 124c35 0 47 -19 47 -55v-56c0 -36 -19 -55 -55 -55c-82 0 -122 -70 -122 -154v-145c0 -36 -19 -55 -55 -55h-63c-36 0 -55 19 -55 55zM202 564c-30 0 -50 11 -67 36
l-31 47c-25 38 -15 67 23 67h34c31 0 41 -12 56 -38l25 -44h2l25 44c15 26 25 38 56 38h34c38 0 48 -29 23 -67l-31 -47c-17 -25 -37 -36 -67 -36h-82z" />
    <glyph glyph-name="Sacute" unicode="&#x15a;" horiz-adv-x="567" 
d="M56 59c-21 17 -36 39 -10 76l31 45c20 29 43 31 76 13c23 -12 68 -44 130 -44c52 0 76 22 76 50c0 101 -316 85 -316 309c0 132 110 219 255 219c83 0 159 -29 193 -53c29 -21 32 -46 17 -75l-24 -47c-20 -39 -47 -33 -75 -19c-33 16 -66 33 -113 33
c-55 0 -78 -22 -78 -50c0 -104 316 -79 316 -305c0 -120 -90 -223 -251 -223c-100 0 -189 41 -227 71zM275 761c-37 0 -51 28 -32 61l28 50c15 27 35 39 65 39h46c47 0 57 -31 28 -67l-39 -50c-18 -23 -38 -33 -67 -33h-29z" />
    <glyph glyph-name="sacute" unicode="&#x15b;" horiz-adv-x="460" 
d="M51 35c-30 17 -33 46 -14 76l15 23c20 29 42 32 76 16c25 -11 57 -27 98 -27c35 0 47 13 47 29c0 60 -241 31 -241 212c0 106 95 163 214 163c65 0 114 -18 146 -33c31 -15 35 -43 20 -74l-12 -24c-15 -32 -39 -37 -73 -24c-24 9 -54 20 -88 20c-37 0 -46 -13 -46 -27
c0 -59 241 -29 241 -208c0 -96 -80 -169 -212 -169c-77 0 -135 26 -171 47zM214 565c-37 0 -51 28 -32 61l28 50c15 27 35 39 65 39h46c47 0 57 -31 28 -67l-39 -50c-18 -23 -38 -33 -67 -33h-29z" />
    <glyph glyph-name="Scircumflex" unicode="&#x15c;" horiz-adv-x="567" 
d="M56 59c-21 17 -36 39 -10 76l31 45c20 29 43 31 76 13c23 -12 68 -44 130 -44c52 0 76 22 76 50c0 101 -316 85 -316 309c0 132 110 219 255 219c83 0 159 -29 193 -53c29 -21 32 -46 17 -75l-24 -47c-20 -39 -47 -33 -75 -19c-33 16 -66 33 -113 33
c-55 0 -78 -22 -78 -50c0 -104 316 -79 316 -305c0 -120 -90 -223 -251 -223c-100 0 -189 41 -227 71zM167 761c-38 0 -48 29 -23 67l31 47c17 25 37 36 67 36h82c30 0 50 -11 67 -36l31 -47c25 -38 15 -67 -23 -67h-34c-31 0 -41 12 -56 38l-25 44h-2l-25 -44
c-15 -26 -25 -38 -56 -38h-34z" />
    <glyph glyph-name="scircumflex" unicode="&#x15d;" horiz-adv-x="460" 
d="M51 35c-30 17 -33 46 -14 76l15 23c20 29 42 32 76 16c25 -11 57 -27 98 -27c35 0 47 13 47 29c0 60 -241 31 -241 212c0 106 95 163 214 163c65 0 114 -18 146 -33c31 -15 35 -43 20 -74l-12 -24c-15 -32 -39 -37 -73 -24c-24 9 -54 20 -88 20c-37 0 -46 -13 -46 -27
c0 -59 241 -29 241 -208c0 -96 -80 -169 -212 -169c-77 0 -135 26 -171 47zM107 565c-38 0 -48 29 -23 67l31 47c17 25 37 36 67 36h82c30 0 50 -11 67 -36l31 -47c25 -38 15 -67 -23 -67h-34c-31 0 -41 12 -56 38l-25 44h-2l-25 -44c-15 -26 -25 -38 -56 -38h-34z" />
    <glyph glyph-name="Scedilla" unicode="&#x15e;" horiz-adv-x="567" 
d="M232 -44l11 34c-83 9 -154 43 -187 69c-21 17 -36 39 -10 76l31 45c20 29 43 31 76 13c23 -12 68 -44 130 -44c52 0 76 22 76 50c0 101 -316 85 -316 309c0 132 110 219 255 219c83 0 159 -29 193 -53c29 -21 32 -46 17 -75l-24 -47c-20 -39 -47 -33 -75 -19
c-33 16 -66 33 -113 33c-55 0 -78 -22 -78 -50c0 -104 316 -79 316 -305c0 -110 -75 -206 -211 -221l-6 -26c40 -4 75 -27 75 -80c0 -72 -60 -94 -117 -94c-27 0 -64 5 -64 41c0 30 13 43 24 43c10 0 18 -2 25 -2c17 0 27 9 27 24c0 17 -17 22 -41 24c-17 1 -21 14 -14 36z
" />
    <glyph glyph-name="scedilla" unicode="&#x15f;" horiz-adv-x="461" 
d="M163 -44l11 36c-54 8 -95 26 -123 43c-30 17 -33 46 -14 76l15 23c20 29 42 32 76 16c25 -11 57 -27 98 -27c35 0 47 13 47 29c0 60 -241 31 -241 212c0 106 95 163 214 163c65 0 114 -18 146 -33c31 -15 35 -43 20 -74l-12 -24c-15 -32 -39 -37 -73 -24
c-24 9 -54 20 -88 20c-37 0 -46 -13 -46 -27c0 -59 241 -29 241 -208c0 -88 -68 -157 -181 -167l-5 -26c40 -4 75 -27 75 -80c0 -72 -60 -94 -117 -94c-27 0 -64 5 -64 41c0 30 13 43 24 43c10 0 18 -2 25 -2c17 0 27 9 27 24c0 17 -17 22 -41 24c-17 1 -21 14 -14 36z" />
    <glyph glyph-name="Scaron" unicode="&#x160;" horiz-adv-x="567" 
d="M56 59c-21 17 -36 39 -10 76l31 45c20 29 43 31 76 13c23 -12 68 -44 130 -44c52 0 76 22 76 50c0 101 -316 85 -316 309c0 132 110 219 255 219c83 0 159 -29 193 -53c29 -21 32 -46 17 -75l-24 -47c-20 -39 -47 -33 -75 -19c-33 16 -66 33 -113 33
c-55 0 -78 -22 -78 -50c0 -104 316 -79 316 -305c0 -120 -90 -223 -251 -223c-100 0 -189 41 -227 71zM242 761c-30 0 -50 11 -67 36l-31 47c-25 38 -15 67 23 67h34c31 0 41 -12 56 -38l25 -44h2l25 44c15 26 25 38 56 38h34c38 0 48 -29 23 -67l-31 -47
c-17 -25 -37 -36 -67 -36h-82z" />
    <glyph glyph-name="scaron" unicode="&#x161;" horiz-adv-x="460" 
d="M51 35c-30 17 -33 46 -14 76l15 23c20 29 42 32 76 16c25 -11 57 -27 98 -27c35 0 47 13 47 29c0 60 -241 31 -241 212c0 106 95 163 214 163c65 0 114 -18 146 -33c31 -15 35 -43 20 -74l-12 -24c-15 -32 -39 -37 -73 -24c-24 9 -54 20 -88 20c-37 0 -46 -13 -46 -27
c0 -59 241 -29 241 -208c0 -96 -80 -169 -212 -169c-77 0 -135 26 -171 47zM182 565c-30 0 -50 11 -67 36l-31 47c-25 38 -15 67 23 67h34c31 0 41 -12 56 -38l25 -44h2l25 44c15 26 25 38 56 38h34c38 0 48 -29 23 -67l-31 -47c-17 -25 -37 -36 -67 -36h-82z" />
    <glyph glyph-name="Tcommaaccent" unicode="&#x162;" horiz-adv-x="621" 
d="M254 -44l14 44c-30 4 -45 22 -45 55v510h-162c-36 0 -55 19 -55 55v40c0 36 19 55 55 55h499c36 0 55 -19 55 -55v-40c0 -36 -19 -55 -55 -55h-162v-510c0 -35 -18 -54 -51 -55l-8 -36c40 -4 75 -27 75 -80c0 -72 -60 -94 -117 -94c-27 0 -64 5 -64 41c0 30 13 43 24 43
c10 0 18 -2 25 -2c17 0 27 9 27 24c0 17 -17 22 -41 24c-17 1 -21 14 -14 36z" />
    <glyph glyph-name="tcommaaccent" unicode="&#x163;" horiz-adv-x="401" 
d="M168 -44l20 64c-54 26 -100 75 -100 163v188h-15c-35 0 -54 19 -54 55v25c0 36 19 55 55 55h19v93c0 36 19 55 55 55h58c36 0 55 -19 55 -55v-93h53c36 0 55 -19 55 -55v-25c0 -36 -19 -55 -54 -55h-54v-156c0 -44 29 -61 60 -65c40 -5 55 -17 55 -55v-45
c0 -41 -25 -55 -71 -55c-13 0 -29 1 -45 4l-7 -35c40 -4 75 -27 75 -80c0 -72 -60 -94 -117 -94c-27 0 -64 5 -64 41c0 30 13 43 24 43c10 0 18 -2 25 -2c17 0 27 9 27 24c0 17 -17 22 -41 24c-17 1 -21 14 -14 36z" />
    <glyph glyph-name="Tcaron" unicode="&#x164;" horiz-adv-x="621" 
d="M223 55v510h-162c-36 0 -55 19 -55 55v40c0 36 19 55 55 55h499c36 0 55 -19 55 -55v-40c0 -36 -19 -55 -55 -55h-162v-510c0 -36 -19 -55 -55 -55h-65c-36 0 -55 19 -55 55zM269 761c-30 0 -50 11 -67 36l-31 47c-25 38 -15 67 23 67h34c31 0 41 -12 56 -38l25 -44h2
l25 44c15 26 25 38 56 38h34c38 0 48 -29 23 -67l-31 -47c-17 -25 -37 -36 -67 -36h-82z" />
    <glyph glyph-name="tcaron" unicode="&#x165;" horiz-adv-x="399" 
d="M86 183v188h-15c-35 0 -54 19 -54 55v25c0 36 19 55 55 55h19v93c0 36 19 55 55 55h58c36 0 55 -19 55 -55v-93h53c36 0 55 -19 55 -55v-25c0 -36 -19 -55 -54 -55h-54v-156c0 -44 29 -61 60 -65c40 -5 55 -17 55 -55v-45c0 -41 -25 -55 -71 -55c-76 0 -217 35 -217 188z
M309 679c0 26 19 33 49 33h23c50 0 63 -31 63 -69c0 -71 -39 -112 -78 -112h-15c-31 0 -48 10 -48 30c0 22 11 38 11 67c0 17 -5 34 -5 51z" />
    <glyph glyph-name="Tbar" unicode="&#x166;" horiz-adv-x="622" 
d="M223 55v217h-87c-36 0 -55 19 -55 55v17c0 36 19 55 55 55h87v166h-162c-36 0 -55 19 -55 55v40c0 36 19 55 55 55h499c36 0 55 -19 55 -55v-40c0 -36 -19 -55 -55 -55h-162v-166h93c36 0 55 -19 55 -55v-17c0 -36 -19 -55 -55 -55h-93v-217c0 -36 -19 -55 -55 -55h-65
c-36 0 -55 19 -55 55z" />
    <glyph glyph-name="tbar" unicode="&#x167;" horiz-adv-x="400" 
d="M87 183v31h-15c-35 0 -54 19 -54 55v15c0 36 19 55 55 55h14v42h-15c-35 0 -54 19 -54 55v15c0 36 19 55 55 55h19v93c0 36 19 55 55 55h58c36 0 55 -19 55 -55v-93h53c36 0 55 -19 55 -55v-15c0 -36 -19 -55 -54 -55h-54v-42h53c36 0 55 -19 55 -55v-15
c0 -36 -19 -55 -54 -55h-54v-9c0 -38 29 -51 60 -55c40 -5 55 -17 55 -55v-45c0 -41 -25 -55 -71 -55c-76 0 -217 35 -217 188z" />
    <glyph glyph-name="Utilde" unicode="&#x168;" horiz-adv-x="722" 
d="M62 263v397c0 36 19 55 55 55h65c36 0 55 -19 55 -55v-397c0 -75 49 -115 124 -115s124 40 124 115v397c0 36 19 55 55 55h65c36 0 55 -19 55 -55v-397c0 -161 -118 -275 -298 -275c-182 0 -300 114 -300 275zM213 761c-30 0 -48 15 -48 46c0 56 46 107 112 107
c79 0 103 -60 142 -60c19 0 30 9 33 30c2 16 19 27 46 27h12c32 0 48 -13 48 -43c0 -64 -45 -110 -111 -110c-80 0 -104 60 -143 60c-20 0 -33 -14 -36 -32c-3 -16 -19 -25 -43 -25h-12z" />
    <glyph glyph-name="utilde" unicode="&#x169;" horiz-adv-x="606" 
d="M45 181v279c0 36 19 55 55 55h63c36 0 55 -19 55 -55v-247c0 -48 19 -68 55 -68c74 0 109 65 109 142v173c0 36 19 55 55 55h63c36 0 55 -19 55 -55v-405c0 -36 -19 -55 -55 -55h-56c-36 0 -54 19 -54 55v9c0 5 1 13 1 13h-2c-28 -55 -92 -89 -161 -89
c-102 0 -183 48 -183 193zM152 565c-30 0 -48 15 -48 46c0 56 46 107 112 107c79 0 103 -60 142 -60c19 0 30 9 33 30c2 16 19 27 46 27h12c32 0 48 -13 48 -43c0 -64 -45 -110 -111 -110c-80 0 -104 60 -143 60c-20 0 -33 -14 -36 -32c-3 -16 -19 -25 -43 -25h-12z" />
    <glyph glyph-name="Umacron" unicode="&#x16a;" horiz-adv-x="722" 
d="M62 263v397c0 36 19 55 55 55h65c36 0 55 -19 55 -55v-397c0 -75 49 -115 124 -115s124 40 124 115v397c0 36 19 55 55 55h65c36 0 55 -19 55 -55v-397c0 -161 -118 -275 -298 -275c-182 0 -300 114 -300 275zM279 782c-36 0 -55 16 -55 52v8c0 36 19 52 55 52h165
c36 0 55 -16 55 -52v-8c0 -36 -19 -52 -55 -52h-165z" />
    <glyph glyph-name="umacron" unicode="&#x16b;" horiz-adv-x="606" 
d="M45 181v279c0 36 19 55 55 55h63c36 0 55 -19 55 -55v-247c0 -48 19 -68 55 -68c74 0 109 65 109 142v173c0 36 19 55 55 55h63c36 0 55 -19 55 -55v-405c0 -36 -19 -55 -55 -55h-56c-36 0 -54 19 -54 55v9c0 5 1 13 1 13h-2c-28 -55 -92 -89 -161 -89
c-102 0 -183 48 -183 193zM218 586c-36 0 -55 16 -55 52v8c0 36 19 52 55 52h165c36 0 55 -16 55 -52v-8c0 -36 -19 -52 -55 -52h-165z" />
    <glyph glyph-name="Ubreve" unicode="&#x16c;" horiz-adv-x="722" 
d="M62 263v397c0 36 19 55 55 55h65c36 0 55 -19 55 -55v-397c0 -75 49 -115 124 -115s124 40 124 115v397c0 36 19 55 55 55h65c36 0 55 -19 55 -55v-397c0 -161 -118 -275 -298 -275c-182 0 -300 114 -300 275zM361 756c-80 0 -172 49 -172 124c0 18 12 31 46 31h26
c32 0 41 -21 46 -36c9 -25 30 -33 54 -33s45 8 54 33c5 15 14 36 46 36h26c34 0 46 -13 46 -31c0 -78 -91 -124 -172 -124z" />
    <glyph glyph-name="ubreve" unicode="&#x16d;" horiz-adv-x="606" 
d="M45 181v279c0 36 19 55 55 55h63c36 0 55 -19 55 -55v-247c0 -48 19 -68 55 -68c74 0 109 65 109 142v173c0 36 19 55 55 55h63c36 0 55 -19 55 -55v-405c0 -36 -19 -55 -55 -55h-56c-36 0 -54 19 -54 55v9c0 5 1 13 1 13h-2c-28 -55 -92 -89 -161 -89
c-102 0 -183 48 -183 193zM300 560c-80 0 -172 49 -172 124c0 18 12 31 46 31h26c32 0 41 -21 46 -36c9 -25 30 -33 54 -33s45 8 54 33c5 15 14 36 46 36h26c34 0 46 -13 46 -31c0 -78 -91 -124 -172 -124z" />
    <glyph glyph-name="Uring" unicode="&#x16e;" horiz-adv-x="722" 
d="M62 263v397c0 36 19 55 55 55h65c36 0 55 -19 55 -55v-397c0 -75 49 -115 124 -115s124 40 124 115v397c0 36 19 55 55 55h65c36 0 55 -19 55 -55v-397c0 -161 -118 -275 -298 -275c-182 0 -300 114 -300 275zM361 747c-53 0 -109 26 -109 85s56 86 109 86
s110 -27 110 -86s-57 -85 -110 -85zM361 797c21 0 35 14 35 35c0 22 -14 36 -35 36c-20 0 -34 -14 -34 -36c0 -21 13 -35 34 -35z" />
    <glyph glyph-name="uring" unicode="&#x16f;" horiz-adv-x="606" 
d="M45 181v279c0 36 19 55 55 55h63c36 0 55 -19 55 -55v-247c0 -48 19 -68 55 -68c74 0 109 65 109 142v173c0 36 19 55 55 55h63c36 0 55 -19 55 -55v-405c0 -36 -19 -55 -55 -55h-56c-36 0 -54 19 -54 55v9c0 5 1 13 1 13h-2c-28 -55 -92 -89 -161 -89
c-102 0 -183 48 -183 193zM300 551c-53 0 -109 26 -109 85s56 86 109 86s110 -27 110 -86s-57 -85 -110 -85zM300 601c21 0 35 14 35 35c0 22 -14 36 -35 36c-20 0 -34 -14 -34 -36c0 -21 13 -35 34 -35z" />
    <glyph glyph-name="Uhungarumlaut" unicode="&#x170;" horiz-adv-x="722" 
d="M62 263v397c0 36 19 55 55 55h65c36 0 55 -19 55 -55v-397c0 -75 49 -115 124 -115s124 40 124 115v397c0 36 19 55 55 55h65c36 0 55 -19 55 -55v-397c0 -161 -118 -275 -298 -275c-182 0 -300 114 -300 275zM455 761c-43 0 -53 27 -33 66l25 45c15 27 35 39 65 39h38
c47 0 57 -31 28 -67l-39 -50c-18 -23 -38 -33 -67 -33h-17zM248 761c-43 0 -55 27 -36 65l23 45c14 28 34 40 65 40h25c43 0 55 -27 35 -65l-24 -46c-15 -27 -35 -39 -65 -39h-23z" />
    <glyph glyph-name="uhungarumlaut" unicode="&#x171;" horiz-adv-x="606" 
d="M45 181v279c0 36 19 55 55 55h63c36 0 55 -19 55 -55v-247c0 -48 19 -68 55 -68c74 0 109 65 109 142v173c0 36 19 55 55 55h63c36 0 55 -19 55 -55v-405c0 -36 -19 -55 -55 -55h-56c-36 0 -54 19 -54 55v9c0 5 1 13 1 13h-2c-28 -55 -92 -89 -161 -89
c-102 0 -183 48 -183 193zM394 565c-43 0 -53 27 -33 66l25 45c15 27 35 39 65 39h38c47 0 57 -31 28 -67l-39 -50c-18 -23 -38 -33 -67 -33h-17zM187 565c-43 0 -55 27 -36 65l23 45c14 28 34 40 65 40h25c43 0 55 -27 35 -65l-24 -46c-15 -27 -35 -39 -65 -39h-23z" />
    <glyph glyph-name="Uogonek" unicode="&#x172;" horiz-adv-x="722" 
d="M62 263v397c0 36 19 55 55 55h65c36 0 55 -19 55 -55v-397c0 -75 49 -115 124 -115s124 40 124 115v397c0 36 19 55 55 55h65c36 0 55 -19 55 -55v-397c0 -120 -56 -175 -120 -227c-20 -16 -103 -70 -103 -100c0 -14 13 -19 25 -25c16 -8 20 -25 17 -50l-4 -29
c-3 -26 -25 -37 -49 -35c-50 5 -119 37 -119 97c0 36 25 70 50 94c-179 2 -295 115 -295 275z" />
    <glyph glyph-name="uogonek" unicode="&#x173;" horiz-adv-x="606" 
d="M45 181v279c0 36 19 55 55 55h63c36 0 55 -19 55 -55v-247c0 -48 19 -68 55 -68c74 0 109 65 109 142v173c0 36 19 55 55 55h63c36 0 55 -19 55 -55v-405c0 -58 -62 -68 -62 -119c0 -14 13 -19 25 -25c16 -8 20 -25 17 -50l-4 -29c-3 -26 -25 -37 -49 -35
c-50 5 -119 37 -119 97c0 43 26 85 52 113c-15 8 -25 23 -25 48v9c0 5 1 13 1 13h-2c-28 -55 -92 -89 -161 -89c-102 0 -183 48 -183 193z" />
    <glyph glyph-name="Wcircumflex" unicode="&#x174;" horiz-adv-x="983" 
d="M175 48l-147 606c-9 38 9 61 48 61h71c33 0 53 -16 60 -49l80 -398c9 -44 9 -75 9 -75h2s1 31 12 75l98 399c8 32 28 48 61 48h43c33 0 53 -16 60 -48l96 -399c11 -44 12 -75 12 -75h2s0 31 9 75l87 399c7 32 27 48 61 48h68c39 0 57 -23 48 -61l-154 -607
c-8 -32 -28 -47 -61 -47h-97c-33 0 -53 16 -61 48l-78 313c-11 46 -14 84 -14 84h-2s-3 -38 -14 -84l-78 -313c-8 -32 -28 -48 -61 -48h-99c-33 0 -53 16 -61 48zM372 761c-38 0 -48 29 -23 67l31 47c17 25 37 36 67 36h82c30 0 50 -11 67 -36l31 -47c25 -38 15 -67 -23 -67
h-34c-31 0 -41 12 -56 38l-25 44h-2l-25 -44c-15 -26 -25 -38 -56 -38h-34z" />
    <glyph glyph-name="wcircumflex" unicode="&#x175;" horiz-adv-x="822" 
d="M135 47l-114 406c-10 38 8 62 47 62h68c34 0 53 -16 60 -49l54 -255c6 -28 6 -54 6 -54h2s2 26 9 54l60 256c7 32 27 48 60 48h50c33 0 53 -16 60 -48l60 -256c7 -28 8 -54 8 -54h2s1 26 7 54l54 255c7 33 26 49 60 49h66c39 0 57 -24 47 -62l-114 -406
c-9 -32 -29 -47 -61 -47h-96c-33 0 -53 16 -61 48l-46 190c-7 28 -10 55 -10 55h-2s-3 -27 -10 -55l-46 -190c-8 -32 -28 -48 -61 -48h-98c-32 0 -52 15 -61 47zM296 565c-38 0 -48 29 -23 67l31 47c17 25 37 36 67 36h82c30 0 50 -11 67 -36l31 -47c25 -38 15 -67 -23 -67
h-34c-31 0 -41 12 -56 38l-25 44h-2l-25 -44c-15 -26 -25 -38 -56 -38h-34z" />
    <glyph glyph-name="Ycircumflex" unicode="&#x176;" horiz-adv-x="601" 
d="M213 55v238l-199 356c-22 38 -5 66 38 66h79c31 0 51 -13 64 -41l62 -131c23 -49 43 -103 43 -103h2s20 54 43 103l61 131c13 28 33 41 64 41h79c43 0 60 -28 38 -66l-199 -356v-238c0 -36 -19 -55 -55 -55h-65c-36 0 -55 19 -55 55zM185 761c-38 0 -48 29 -23 67l31 47
c17 25 37 36 67 36h82c30 0 50 -11 67 -36l31 -47c25 -38 15 -67 -23 -67h-34c-31 0 -41 12 -56 38l-25 44h-2l-25 -44c-15 -26 -25 -38 -56 -38h-34z" />
    <glyph glyph-name="ycircumflex" unicode="&#x177;" horiz-adv-x="532" 
d="M30 -96c14 31 35 36 56 32c8 -2 18 -5 30 -5c31 0 59 25 71 55l10 24l-191 441c-17 38 0 64 42 64h78c33 0 53 -15 63 -45l61 -192c9 -28 19 -80 19 -80h2s10 49 17 77l52 193c9 32 29 47 62 47h73c40 0 58 -25 44 -63l-188 -507c-43 -115 -133 -155 -215 -155
c-27 0 -52 6 -72 13c-33 11 -41 40 -27 72zM154 564c-38 0 -48 29 -23 67l31 47c17 25 37 36 67 36h82c30 0 50 -11 67 -36l31 -47c25 -38 15 -67 -23 -67h-34c-31 0 -41 12 -56 38l-25 44h-2l-25 -44c-15 -26 -25 -38 -56 -38h-34z" />
    <glyph glyph-name="Ydieresis" unicode="&#x178;" horiz-adv-x="601" 
d="M213 55v238l-199 356c-22 38 -5 66 38 66h79c31 0 51 -13 64 -41l62 -131c23 -49 43 -103 43 -103h2s20 54 43 103l61 131c13 28 33 41 64 41h79c43 0 60 -28 38 -66l-199 -356v-238c0 -36 -19 -55 -55 -55h-65c-36 0 -55 19 -55 55zM398 771c-36 0 -55 19 -55 55v30
c0 36 19 55 55 55h16c36 0 55 -19 55 -55v-30c0 -36 -19 -55 -55 -55h-16zM189 771c-36 0 -55 19 -55 55v30c0 36 19 55 55 55h16c36 0 55 -19 55 -55v-30c0 -36 -19 -55 -55 -55h-16z" />
    <glyph glyph-name="Zacute" unicode="&#x179;" horiz-adv-x="621" 
d="M30 55v17c0 27 6 47 22 69l254 360c31 44 55 65 55 65v2s-23 -3 -55 -3h-208c-36 0 -55 19 -55 55v40c0 36 19 55 55 55h430c36 0 55 -19 55 -54v-16c0 -27 -6 -47 -22 -69l-255 -362c-31 -44 -55 -65 -55 -65v-2s23 3 55 3h227c36 0 55 -19 55 -55v-40
c0 -36 -19 -55 -55 -55h-448c-36 0 -55 19 -55 55zM313 761c-37 0 -51 28 -32 61l28 50c15 27 35 39 65 39h46c47 0 57 -31 28 -67l-39 -50c-18 -23 -38 -33 -67 -33h-29z" />
    <glyph glyph-name="zacute" unicode="&#x17a;" horiz-adv-x="524" 
d="M24 43v13c0 27 7 39 24 61l165 206c26 32 45 47 45 47v2s-13 -2 -45 -2h-126c-36 0 -55 19 -55 55v35c0 36 19 55 55 55h350c36 0 55 -15 55 -43v-13c0 -27 -7 -39 -24 -61l-164 -207c-25 -31 -46 -47 -46 -47v-2s13 3 46 3h138c36 0 55 -19 55 -55v-35
c0 -36 -19 -55 -55 -55h-363c-36 0 -55 15 -55 43zM248 565c-37 0 -51 28 -32 61l28 50c15 27 35 39 65 39h46c47 0 57 -31 28 -67l-39 -50c-18 -23 -38 -33 -67 -33h-29z" />
    <glyph glyph-name="Zdotaccent" unicode="&#x17b;" horiz-adv-x="621" 
d="M30 55v17c0 27 6 47 22 69l254 360c31 44 55 65 55 65v2s-23 -3 -55 -3h-208c-36 0 -55 19 -55 55v40c0 36 19 55 55 55h430c36 0 55 -19 55 -54v-16c0 -27 -6 -47 -22 -69l-255 -362c-31 -44 -55 -65 -55 -65v-2s23 3 55 3h227c36 0 55 -19 55 -55v-40
c0 -36 -19 -55 -55 -55h-448c-36 0 -55 19 -55 55zM305 779c-36 0 -55 19 -55 55v22c0 36 19 55 55 55h33c36 0 55 -19 55 -55v-22c0 -36 -19 -55 -55 -55h-33z" />
    <glyph glyph-name="zdotaccent" unicode="&#x17c;" horiz-adv-x="524" 
d="M24 43v13c0 27 7 39 24 61l165 206c26 32 45 47 45 47v2s-13 -2 -45 -2h-126c-36 0 -55 19 -55 55v35c0 36 19 55 55 55h350c36 0 55 -15 55 -43v-13c0 -27 -7 -39 -24 -61l-164 -207c-25 -31 -46 -47 -46 -47v-2s13 3 46 3h138c36 0 55 -19 55 -55v-35
c0 -36 -19 -55 -55 -55h-363c-36 0 -55 15 -55 43zM240 583c-36 0 -55 19 -55 55v22c0 36 19 55 55 55h33c36 0 55 -19 55 -55v-22c0 -36 -19 -55 -55 -55h-33z" />
    <glyph glyph-name="Zcaron" unicode="&#x17d;" horiz-adv-x="621" 
d="M30 55v17c0 27 6 47 22 69l254 360c31 44 55 65 55 65v2s-23 -3 -55 -3h-208c-36 0 -55 19 -55 55v40c0 36 19 55 55 55h430c36 0 55 -19 55 -54v-16c0 -27 -6 -47 -22 -69l-255 -362c-31 -44 -55 -65 -55 -65v-2s23 3 55 3h227c36 0 55 -19 55 -55v-40
c0 -36 -19 -55 -55 -55h-448c-36 0 -55 19 -55 55zM280 761c-30 0 -50 11 -67 36l-31 47c-25 38 -15 67 23 67h34c31 0 41 -12 56 -38l25 -44h2l25 44c15 26 25 38 56 38h34c38 0 48 -29 23 -67l-31 -47c-17 -25 -37 -36 -67 -36h-82z" />
    <glyph glyph-name="zcaron" unicode="&#x17e;" horiz-adv-x="524" 
d="M24 43v13c0 27 7 39 24 61l165 206c26 32 45 47 45 47v2s-13 -2 -45 -2h-126c-36 0 -55 19 -55 55v35c0 36 19 55 55 55h350c36 0 55 -15 55 -43v-13c0 -27 -7 -39 -24 -61l-164 -207c-25 -31 -46 -47 -46 -47v-2s13 3 46 3h138c36 0 55 -19 55 -55v-35
c0 -36 -19 -55 -55 -55h-363c-36 0 -55 15 -55 43zM215 565c-30 0 -50 11 -67 36l-31 47c-25 38 -15 67 23 67h34c31 0 41 -12 56 -38l25 -44h2l25 44c15 26 25 38 56 38h34c38 0 48 -29 23 -67l-31 -47c-17 -25 -37 -36 -67 -36h-82z" />
    <glyph glyph-name="longs" unicode="&#x17f;" horiz-adv-x="311" 
d="M86 55v316h-13c-36 0 -55 19 -55 55v25c0 36 19 55 55 55h13v25c0 164 162 188 216 188h17c36 0 55 -19 55 -55v-37c0 -36 -19 -52 -55 -55c-22 -2 -60 -6 -60 -50v-467c0 -36 -19 -55 -55 -55h-63c-36 0 -55 19 -55 55z" />
    <glyph glyph-name="florin" unicode="&#x192;" horiz-adv-x="445" 
d="M27 22c9 0 16 -1 21 -1c33 0 87 9 92 64l19 225h-7c-36 0 -55 19 -55 55v25c0 36 19 55 55 55h19l9 90c16 169 167 192 252 192c10 0 23 -1 36 -2c35 -3 52 -24 52 -58v-36c0 -37 -14 -56 -38 -54c-15 2 -31 3 -38 3c-34 0 -88 -9 -93 -64l-7 -71h40c36 0 55 -19 55 -55
v-25c0 -36 -19 -55 -53 -55h-54l-21 -244c-15 -169 -168 -192 -251 -192c-9 0 -20 1 -31 2c-34 3 -51 23 -51 58v36c0 37 18 55 49 52z" />
    <glyph glyph-name="Scommaaccent" unicode="&#x218;" horiz-adv-x="567" 
d="M56 59c-21 17 -36 39 -10 76l31 45c20 29 43 31 76 13c23 -12 68 -44 130 -44c52 0 76 22 76 50c0 101 -316 85 -316 309c0 132 110 219 255 219c83 0 159 -29 193 -53c29 -21 32 -46 17 -75l-24 -47c-20 -39 -47 -33 -75 -19c-33 16 -66 33 -113 33
c-55 0 -78 -22 -78 -50c0 -104 316 -79 316 -305c0 -120 -90 -223 -251 -223c-100 0 -189 41 -227 71zM211 -82c0 26 19 33 49 33h23c50 0 63 -31 63 -69c0 -71 -39 -112 -78 -112h-15c-31 0 -48 10 -48 30c0 22 11 38 11 67c0 17 -5 34 -5 51z" />
    <glyph glyph-name="scommaaccent" unicode="&#x219;" horiz-adv-x="460" 
d="M51 35c-30 17 -33 46 -14 76l15 23c20 29 42 32 76 16c25 -11 57 -27 98 -27c35 0 47 13 47 29c0 60 -241 31 -241 212c0 106 95 163 214 163c65 0 114 -18 146 -33c31 -15 35 -43 20 -74l-12 -24c-15 -32 -39 -37 -73 -24c-24 9 -54 20 -88 20c-37 0 -46 -13 -46 -27
c0 -59 241 -29 241 -208c0 -96 -80 -169 -212 -169c-77 0 -135 26 -171 47zM155 -82c0 26 19 33 49 33h23c50 0 63 -31 63 -69c0 -71 -39 -112 -78 -112h-15c-31 0 -48 10 -48 30c0 22 11 38 11 67c0 17 -5 34 -5 51z" />
    <glyph glyph-name="uni021A" unicode="&#x21a;" horiz-adv-x="621" 
d="M223 55v510h-162c-36 0 -55 19 -55 55v40c0 36 19 55 55 55h499c36 0 55 -19 55 -55v-40c0 -36 -19 -55 -55 -55h-162v-510c0 -36 -19 -55 -55 -55h-65c-36 0 -55 19 -55 55zM246 -82c0 26 19 33 49 33h23c50 0 63 -31 63 -69c0 -71 -39 -112 -78 -112h-15
c-31 0 -48 10 -48 30c0 22 11 38 11 67c0 17 -5 34 -5 51z" />
    <glyph glyph-name="uni021B" unicode="&#x21b;" horiz-adv-x="399" 
d="M86 183v188h-15c-35 0 -54 19 -54 55v25c0 36 19 55 55 55h19v93c0 36 19 55 55 55h58c36 0 55 -19 55 -55v-93h53c36 0 55 -19 55 -55v-25c0 -36 -19 -55 -54 -55h-54v-156c0 -44 29 -61 60 -65c40 -5 55 -17 55 -55v-45c0 -41 -25 -55 -71 -55c-76 0 -217 35 -217 188z
M154 -82c0 26 19 33 49 33h23c50 0 63 -31 63 -69c0 -71 -39 -112 -78 -112h-15c-31 0 -48 10 -48 30c0 22 11 38 11 67c0 17 -5 34 -5 51z" />
    <glyph glyph-name="circumflex" unicode="&#x2c6;" horiz-adv-x="486" 
d="M127 761c-38 0 -48 29 -23 67l31 47c17 25 37 36 67 36h82c30 0 50 -11 67 -36l31 -47c25 -38 15 -67 -23 -67h-34c-31 0 -41 12 -56 38l-25 44h-2l-25 -44c-15 -26 -25 -38 -56 -38h-34z" />
    <glyph glyph-name="caron" unicode="&#x2c7;" horiz-adv-x="486" 
d="M202 761c-30 0 -50 11 -67 36l-31 47c-25 38 -15 67 23 67h34c31 0 41 -12 56 -38l25 -44h2l25 44c15 26 25 38 56 38h34c38 0 48 -29 23 -67l-31 -47c-17 -25 -37 -36 -67 -36h-82z" />
    <glyph glyph-name="breve" unicode="&#x2d8;" horiz-adv-x="484" 
d="M242 756c-80 0 -172 49 -172 124c0 18 12 31 46 31h26c32 0 41 -21 46 -36c9 -25 30 -33 54 -33s45 8 54 33c5 15 14 36 46 36h26c34 0 46 -13 46 -31c0 -78 -91 -124 -172 -124z" />
    <glyph glyph-name="dotaccent" unicode="&#x2d9;" horiz-adv-x="485" 
d="M226 779c-36 0 -55 19 -55 55v22c0 36 19 55 55 55h33c36 0 55 -19 55 -55v-22c0 -36 -19 -55 -55 -55h-33z" />
    <glyph glyph-name="ring" unicode="&#x2da;" horiz-adv-x="485" 
d="M242 747c-53 0 -109 26 -109 85s56 86 109 86s110 -27 110 -86s-57 -85 -110 -85zM242 797c21 0 35 14 35 35c0 22 -14 36 -35 36c-20 0 -34 -14 -34 -36c0 -21 13 -35 34 -35z" />
    <glyph glyph-name="ogonek" unicode="&#x2db;" horiz-adv-x="486" 
d="M141 -106c0 50 49 96 79 117c19 14 42 22 71 16c31 -6 37 -22 17 -42c-18 -18 -37 -27 -37 -49c0 -14 13 -19 25 -25c16 -8 20 -25 17 -50l-4 -29c-3 -26 -25 -37 -49 -35c-50 5 -119 37 -119 97z" />
    <glyph glyph-name="tilde" unicode="&#x2dc;" horiz-adv-x="485" 
d="M94 761c-30 0 -48 15 -48 46c0 56 46 107 112 107c79 0 103 -60 142 -60c19 0 30 9 33 30c2 16 19 27 46 27h12c32 0 48 -13 48 -43c0 -64 -45 -110 -111 -110c-80 0 -104 60 -143 60c-20 0 -33 -14 -36 -32c-3 -16 -19 -25 -43 -25h-12z" />
    <glyph glyph-name="hungarumlaut" unicode="&#x2dd;" horiz-adv-x="485" 
d="M293 761c-43 0 -53 27 -33 66l25 45c15 27 35 39 65 39h38c47 0 57 -31 28 -67l-39 -50c-18 -23 -38 -33 -67 -33h-17zM86 761c-43 0 -55 27 -36 65l23 45c14 28 34 40 65 40h25c43 0 55 -27 35 -65l-24 -46c-15 -27 -35 -39 -65 -39h-23z" />
    <glyph glyph-name="uni1E9E" unicode="&#x1e9e;" horiz-adv-x="694" 
d="M62 55v425c0 141 96 235 241 235h271c36 0 55 -19 55 -55v-28c0 -27 -5 -46 -19 -68l-73 -117c-9 -15 -20 -29 -20 -29v-2l9 -2c89 -20 133 -115 133 -196c0 -124 -104 -218 -231 -218h-63c-36 0 -55 19 -55 55v40c0 36 18 55 53 55h52c44 0 64 34 64 68
c0 33 -19 66 -64 66h-25c-36 0 -55 19 -55 55v34c0 26 5 40 17 63l36 65c26 48 45 65 45 65v2s-9 -3 -45 -3h-84c-37 0 -63 -35 -63 -81v-429c0 -36 -19 -55 -55 -55h-69c-36 0 -55 19 -55 55z" />
    <glyph glyph-name="endash" unicode="&#x2013;" horiz-adv-x="696" 
d="M105 222c-36 0 -55 19 -55 55v20c0 36 19 55 55 55h486c36 0 55 -19 55 -55v-20c0 -36 -19 -55 -55 -55h-486z" />
    <glyph glyph-name="emdash" unicode="&#x2014;" horiz-adv-x="896" 
d="M105 222c-36 0 -55 19 -55 55v20c0 36 19 55 55 55h686c36 0 55 -19 55 -55v-20c0 -36 -19 -55 -55 -55h-686z" />
    <glyph glyph-name="quoteleft" unicode="&#x2018;" horiz-adv-x="229" 
d="M76 475c-41 0 -58 25 -45 63l51 148c11 30 31 44 63 44h13c39 0 52 -23 44 -60l-31 -146c-7 -33 -26 -49 -60 -49h-35z" />
    <glyph glyph-name="quoteright" unicode="&#x2019;" horiz-adv-x="227" 
d="M77 475c-39 0 -52 23 -44 60l31 146c7 33 26 49 60 49h35c41 0 58 -25 45 -63l-51 -148c-11 -30 -31 -44 -63 -44h-13z" />
    <glyph glyph-name="quotesinglbase" unicode="&#x201a;" horiz-adv-x="239" 
d="M25 -29l31 146c7 33 26 49 60 49h35c41 0 58 -25 45 -63l-51 -148c-11 -30 -31 -44 -63 -44h-13c-39 0 -52 23 -44 60z" />
    <glyph glyph-name="quotedblleft" unicode="&#x201c;" horiz-adv-x="428" 
d="M274 475c-41 0 -58 25 -45 63l51 148c11 30 31 44 63 44h14c39 0 52 -23 44 -60l-31 -146c-7 -33 -26 -49 -60 -49h-36zM76 475c-41 0 -58 25 -45 63l51 148c11 30 31 44 63 44h14c39 0 52 -23 44 -60l-31 -146c-7 -33 -26 -49 -60 -49h-36z" />
    <glyph glyph-name="quotedblright" unicode="&#x201d;" horiz-adv-x="426" 
d="M275 475c-39 0 -52 23 -44 60l31 146c7 33 26 49 60 49h36c41 0 58 -25 45 -63l-51 -148c-11 -30 -31 -44 -63 -44h-14zM77 475c-39 0 -52 23 -44 60l31 146c7 33 26 49 60 49h36c41 0 58 -25 45 -63l-51 -148c-11 -30 -31 -44 -63 -44h-14z" />
    <glyph glyph-name="quotedblbase" unicode="&#x201e;" horiz-adv-x="438" 
d="M223 -29l31 146c7 33 26 49 60 49h36c41 0 58 -25 45 -63l-51 -148c-11 -30 -31 -44 -63 -44h-14c-39 0 -52 23 -44 60zM25 -29l31 146c7 33 26 49 60 49h36c41 0 58 -25 45 -63l-51 -148c-11 -30 -31 -44 -63 -44h-14c-39 0 -52 23 -44 60z" />
    <glyph glyph-name="dagger" unicode="&#x2020;" horiz-adv-x="484" 
d="M159 5v380h-75c-36 0 -55 19 -55 55v20c0 36 19 55 55 55h75v145c0 36 19 55 55 55h55c36 0 55 -19 55 -55v-145h76c36 0 55 -19 55 -55v-20c0 -36 -19 -55 -55 -55h-76v-380c0 -36 -19 -55 -55 -55h-55c-36 0 -55 19 -55 55z" />
    <glyph glyph-name="daggerdbl" unicode="&#x2021;" horiz-adv-x="497" 
d="M166 5v145h-75c-36 0 -55 19 -55 55v20c0 36 19 55 55 55h75v105h-75c-36 0 -55 19 -55 55v20c0 36 19 55 55 55h75v145c0 36 19 55 55 55h55c36 0 55 -19 55 -55v-145h76c36 0 55 -19 55 -55v-20c0 -36 -19 -55 -55 -55h-76v-105h76c36 0 55 -19 55 -55v-20
c0 -36 -19 -55 -55 -55h-76v-145c0 -36 -19 -55 -55 -55h-55c-36 0 -55 19 -55 55z" />
    <glyph glyph-name="bullet" unicode="&#x2022;" horiz-adv-x="450" 
d="M225 105c-103 0 -186 83 -186 186s83 186 186 186s186 -83 186 -186s-83 -186 -186 -186z" />
    <glyph glyph-name="ellipsis" unicode="&#x2026;" horiz-adv-x="894" 
d="M692 55v54c0 36 19 55 55 55h48c36 0 55 -19 55 -55v-54c0 -36 -19 -55 -55 -55h-48c-36 0 -55 19 -55 55zM368 55v54c0 36 19 55 55 55h48c36 0 55 -19 55 -55v-54c0 -36 -19 -55 -55 -55h-48c-36 0 -55 19 -55 55zM44 55v54c0 36 19 55 55 55h48c36 0 55 -19 55 -55
v-54c0 -36 -19 -55 -55 -55h-48c-36 0 -55 19 -55 55z" />
    <glyph glyph-name="perthousand" unicode="&#x2030;" horiz-adv-x="1254" 
d="M215 382c-101 0 -181 76 -181 172c0 94 80 173 181 173c100 0 181 -79 181 -173c0 -96 -81 -172 -181 -172zM126 67l475 615c17 23 37 33 67 33h25c47 0 62 -30 33 -67l-475 -615c-17 -23 -37 -33 -67 -33h-25c-47 0 -62 30 -33 67zM215 502c30 0 55 23 55 53
c0 28 -25 52 -55 52s-55 -24 -55 -52c0 -30 25 -53 55 -53zM863 160c0 94 80 173 181 173c100 0 181 -79 181 -173c0 -96 -81 -172 -181 -172c-101 0 -181 76 -181 172zM461 160c0 94 80 173 181 173c100 0 181 -79 181 -173c0 -96 -81 -172 -181 -172
c-101 0 -181 76 -181 172zM989 161c0 -30 25 -53 55 -53s55 23 55 53c0 28 -25 52 -55 52s-55 -24 -55 -52zM587 161c0 -30 25 -53 55 -53s55 23 55 53c0 28 -25 52 -55 52s-55 -24 -55 -52z" />
    <glyph glyph-name="guilsinglleft" unicode="&#x2039;" horiz-adv-x="342" 
d="M156 109l-107 134c-21 26 -21 52 0 78l107 135c18 22 38 32 67 32h31c47 0 62 -31 32 -67l-110 -139l110 -138c29 -36 18 -67 -25 -67h-38c-29 0 -49 10 -67 32z" />
    <glyph glyph-name="guilsinglright" unicode="&#x203a;" horiz-adv-x="342" 
d="M87 77c-47 0 -61 31 -32 67l110 138l-110 139c-30 36 -18 67 25 67h38c29 0 49 -10 67 -32l107 -135c21 -26 21 -52 0 -78l-107 -134c-18 -22 -38 -32 -67 -32h-31z" />
    <glyph glyph-name="fraction" unicode="&#x2044;" horiz-adv-x="195" 
d="M8 41c-13 -28 -33 -41 -64 -41h-17c-35 0 -45 26 -27 65l287 609c13 28 33 41 64 41h17c35 0 45 -26 27 -65z" />
    <glyph glyph-name="Euro" unicode="&#x20ac;" horiz-adv-x="609" 
d="M82 237c-37 0 -50 17 -50 48s13 48 50 48h7c-2 15 -3 30 -1 48h-5c-36 0 -51 17 -51 48s14 48 51 48h22c46 147 182 250 347 250c21 0 42 -2 60 -4c37 -5 52 -30 42 -66l-14 -52c-9 -33 -27 -46 -53 -43c-12 2 -26 3 -40 3c-69 0 -124 -32 -154 -88h154
c44 0 58 -16 52 -48c-6 -34 -21 -48 -60 -48h-169c-2 -16 -1 -32 2 -48h145c44 0 58 -17 52 -48c-7 -35 -21 -48 -60 -48h-105c32 -53 89 -84 151 -84c14 0 28 1 41 3c35 5 58 -7 64 -43l10 -53c7 -34 -7 -59 -42 -65c-21 -4 -47 -7 -76 -7c-172 0 -299 101 -345 249h-25z
" />
    <glyph glyph-name="trademark" unicode="&#x2122;" horiz-adv-x="995" 
d="M468 325l27 337c3 35 22 53 57 53h19c32 0 52 -13 64 -42l55 -133c6 -15 13 -44 13 -44h2s7 29 13 44l55 133c12 29 32 42 64 42h19c35 0 54 -18 57 -53l25 -337c2 -37 -16 -57 -53 -57h-17c-35 0 -54 18 -56 53l-7 121c-1 15 1 32 1 32h-2l-34 -82
c-12 -30 -32 -43 -63 -43h-6c-31 0 -51 13 -63 43l-34 82h-2s2 -17 1 -32l-8 -121c-3 -35 -22 -53 -57 -53h-17c-36 0 -55 20 -53 57zM234 268c-36 0 -55 19 -55 55v283h-87c-36 0 -55 16 -55 52v6c0 35 19 51 55 51h298c36 0 55 -16 55 -51v-6c0 -36 -19 -52 -55 -52h-85
v-283c0 -36 -19 -55 -55 -55h-16z" />
    <glyph glyph-name="minus" unicode="&#x2212;" horiz-adv-x="630" 
d="M97 222c-36 0 -55 19 -55 55v20c0 36 19 55 55 55h436c36 0 55 -19 55 -55v-20c0 -36 -19 -55 -55 -55h-436z" />
    <glyph glyph-name="infinity" unicode="&#x221e;" horiz-adv-x="503" 
d="M252 143c-113 0 -206 93 -206 206c0 114 93 205 206 205c114 0 205 -91 205 -205c0 -113 -91 -206 -205 -206z" />
    <glyph glyph-name="approxequal" unicode="&#x2248;" horiz-adv-x="630" 
d="M81 370l-5 8c-18 29 -16 56 11 76c36 27 80 48 127 48c94 0 127 -70 198 -70c20 0 40 7 58 17c32 19 55 20 75 -11l5 -8c18 -29 16 -56 -11 -76c-36 -27 -80 -48 -127 -48c-94 0 -127 70 -198 70c-20 0 -40 -7 -58 -18c-31 -19 -55 -19 -75 12zM81 141l-5 8
c-18 29 -16 56 11 76c36 27 80 48 127 48c94 0 127 -70 198 -70c20 0 40 7 58 17c32 19 55 20 75 -11l5 -8c18 -29 16 -56 -11 -76c-36 -27 -80 -48 -127 -48c-94 0 -127 70 -198 70c-20 0 -40 -7 -58 -18c-31 -19 -55 -19 -75 12z" />
    <glyph glyph-name="notequal" unicode="&#x2260;" horiz-adv-x="630" 
d="M154 24c-25 15 -28 40 -9 70l8 13h-33c-36 0 -55 19 -55 55v20c0 36 19 55 55 55h116l64 100h-180c-36 0 -55 19 -55 55v20c0 36 19 55 55 55h264l39 62c20 30 43 37 68 22c25 -16 31 -35 19 -54l-19 -30h25c36 0 55 -19 55 -55v-20c0 -36 -19 -55 -55 -55h-108l-64 -100
h172c36 0 55 -19 55 -55v-20c0 -36 -19 -55 -55 -55h-255l-39 -61c-19 -30 -43 -38 -68 -22z" />
    <glyph glyph-name="lessequal" unicode="&#x2264;" horiz-adv-x="630" 
d="M93 216c-29 12 -42 32 -42 64v15c0 32 13 52 42 64l398 176c38 17 64 0 64 -41v-29c0 -31 -14 -51 -43 -63l-287 -114v-2l287 -113c29 -12 43 -32 43 -63v-29c0 -42 -26 -58 -64 -42zM109 -70h391c36 0 55 -19 55 -55v-20c0 -36 -19 -55 -55 -55h-391
c-36 0 -55 19 -55 55v20c0 36 19 55 55 55z" />
    <glyph glyph-name="greaterequal" unicode="&#x2265;" horiz-adv-x="630" 
d="M75 81v29c0 31 14 51 43 63l287 113v2l-287 114c-29 12 -43 32 -43 63v29c0 42 26 58 64 42l398 -177c29 -12 42 -32 42 -64v-15c0 -32 -13 -52 -42 -64l-398 -176c-38 -17 -64 0 -64 41zM131 -70h391c36 0 55 -19 55 -55v-20c0 -36 -19 -55 -55 -55h-391
c-36 0 -55 19 -55 55v20c0 36 19 55 55 55z" />
    <glyph glyph-name="commaaccent" unicode="&#xf6c3;" horiz-adv-x="335" 
d="M113 -82c0 26 19 33 49 33h23c50 0 63 -31 63 -69c0 -71 -39 -112 -78 -112h-15c-31 0 -48 10 -48 30c0 22 11 38 11 67c0 17 -5 34 -5 51z" />
    <glyph glyph-name="zero.tnum" 
d="M300 -12c-203 0 -269 166 -269 371s66 368 269 368s269 -163 269 -368s-66 -371 -269 -371zM300 148c69 0 89 94 89 211c0 116 -20 208 -89 208s-89 -92 -89 -208c0 -117 20 -211 89 -211z" />
    <glyph glyph-name="one.tnum" 
d="M76 55v40c0 36 19 55 55 55h97v298c0 27 1 55 1 55h-2s-10 -22 -22 -32l-9 -8c-26 -24 -53 -23 -77 3l-26 28c-25 26 -24 53 2 78l124 116c21 19 40 27 68 27h57c36 0 55 -19 55 -55v-510h98c36 0 55 -19 55 -55v-40c0 -36 -19 -55 -55 -55h-366c-36 0 -55 19 -55 55z
" />
    <glyph glyph-name="two.tnum" 
d="M46 55v22c0 264 309 311 309 414c0 50 -40 71 -77 71c-32 0 -59 -17 -76 -35c-25 -24 -51 -34 -78 -12l-39 31c-28 22 -35 47 -14 74c35 46 104 107 223 107c117 0 244 -67 244 -219c0 -223 -289 -266 -298 -358h254c36 0 55 -19 55 -55v-40c0 -36 -19 -55 -55 -55h-389
c-34 0 -59 19 -59 55z" />
    <glyph glyph-name="three.tnum" 
d="M71 49c-28 20 -30 47 -12 76l27 44c19 31 44 33 75 14c27 -15 62 -30 102 -30c65 0 102 32 102 71c0 56 -56 79 -133 79h-4c-32 0 -48 10 -62 38l-5 10c-12 23 -7 48 13 71l65 79c34 41 62 67 62 67v2s-23 -5 -68 -5h-116c-36 0 -55 19 -55 55v40c0 36 19 55 55 55h341
c36 0 55 -19 55 -54v-16c0 -28 -7 -47 -25 -68l-120 -138c106 -23 173 -107 173 -207c0 -122 -86 -244 -265 -244c-97 0 -165 34 -205 61z" />
    <glyph glyph-name="four.tnum" 
d="M57 173c-36 0 -55 19 -55 55v14c0 27 5 46 20 68l233 369c16 25 36 36 66 36h116c36 0 55 -19 55 -55v-342h30c36 0 55 -19 55 -55v-35c0 -36 -15 -55 -42 -55h-43v-118c0 -36 -19 -55 -55 -55h-63c-36 0 -55 19 -55 55v118h-262zM180 318h139v160c0 39 6 80 6 80h-2
s-15 -44 -35 -74l-108 -164v-2z" />
    <glyph glyph-name="five.tnum" 
d="M79 50c-28 19 -30 47 -12 75l27 44c19 31 44 33 75 14c26 -15 61 -30 100 -30c47 0 100 29 100 88c0 56 -49 89 -114 89c-23 0 -43 -4 -59 -9c-27 -8 -48 -11 -74 -1l-11 4c-30 12 -44 33 -41 65l21 273c3 35 22 53 57 53h292c36 0 55 -19 55 -55v-40
c0 -36 -19 -55 -55 -55h-193l-4 -66c0 -14 -4 -28 -4 -28h2s25 7 52 7c170 0 256 -106 256 -235c0 -148 -109 -255 -265 -255c-96 0 -165 34 -205 62z" />
    <glyph glyph-name="six.tnum" 
d="M35 324c0 205 121 403 342 403c39 0 83 -6 107 -13c33 -10 45 -34 34 -69l-15 -47c-12 -38 -32 -42 -64 -37c-17 3 -29 6 -50 6c-89 0 -135 -56 -157 -128h2c14 13 51 35 113 35c141 0 222 -114 222 -232c0 -123 -88 -254 -244 -254c-144 0 -290 111 -290 336zM215 280
c0 -58 50 -132 111 -132c41 0 71 34 71 83c0 48 -28 102 -116 102c-38 0 -66 -10 -66 -53z" />
    <glyph glyph-name="seven.tnum" 
d="M111 65l220 436c25 49 42 65 42 65v2s-6 -3 -42 -3h-228c-36 0 -55 19 -55 55v40c0 36 19 55 55 55h403c36 0 55 -19 55 -55v-31c0 -26 -4 -45 -16 -68l-264 -521c-14 -28 -34 -40 -65 -40h-65c-43 0 -59 27 -40 65z" />
    <glyph glyph-name="eight.tnum" 
d="M32 204c0 93 76 157 103 178c-45 35 -75 78 -75 141c0 100 75 204 238 204c138 0 248 -75 248 -199c0 -83 -55 -148 -74 -169c54 -34 93 -85 93 -155c0 -106 -89 -216 -266 -216c-175 0 -267 109 -267 216zM351 419c12 19 26 46 26 86c0 47 -28 72 -77 72
s-69 -25 -69 -58c0 -49 48 -71 120 -100zM207 224c0 -50 37 -86 94 -86c49 0 85 28 85 72c0 46 -48 63 -138 102c-18 -19 -41 -47 -41 -88z" />
    <glyph glyph-name="nine.tnum" 
d="M82 70l15 47c12 38 32 42 64 37c17 -3 29 -6 50 -6c89 0 135 56 157 128h-2c-17 -17 -63 -35 -116 -35c-134 0 -219 117 -219 238c0 123 89 248 243 248c145 0 291 -111 291 -336c0 -203 -119 -403 -342 -403c-39 0 -83 6 -107 13c-33 10 -45 34 -34 69zM319 382
c38 0 66 10 66 53c0 58 -50 132 -111 132c-41 0 -71 -34 -71 -83c0 -48 28 -102 116 -102z" />
    <glyph glyph-name="hyphen.case" horiz-adv-x="410" 
d="M103 272c-36 0 -55 19 -55 55v40c0 36 19 55 55 55h204c36 0 55 -19 55 -55v-40c0 -36 -19 -55 -55 -55h-204z" />
    <glyph glyph-name="parenleft.case" horiz-adv-x="301" 
d="M137 -32c-66 116 -105 256 -105 409c0 130 36 254 101 366c15 27 36 37 66 37h25c43 0 58 -26 39 -65c-51 -107 -78 -222 -78 -338c0 -127 28 -255 82 -377c17 -39 2 -65 -40 -65h-28c-30 0 -49 9 -62 33z" />
    <glyph glyph-name="parenright.case" horiz-adv-x="301" 
d="M35 3c52 121 80 248 80 374c0 116 -27 231 -78 338c-19 39 -6 65 36 65h28c30 0 51 -10 66 -37c65 -112 101 -236 101 -366c0 -151 -38 -290 -102 -405c-15 -26 -35 -37 -65 -37h-27c-43 0 -57 27 -39 68z" />
    <glyph glyph-name="bracketleft.case" horiz-adv-x="332" 
d="M61 -10v735c0 36 19 55 55 55h136c36 0 55 -19 55 -55v-10c0 -36 -18 -55 -51 -55h-51v-605h47c36 0 55 -19 55 -55v-10c0 -36 -19 -55 -55 -55h-136c-36 0 -55 19 -55 55z" />
    <glyph glyph-name="bracketright.case" horiz-adv-x="332" 
d="M25 0c0 36 19 55 55 55h47v605h-47c-36 0 -55 19 -55 55v10c0 36 19 55 55 55h136c36 0 55 -19 55 -55v-735c0 -36 -19 -55 -55 -55h-136c-36 0 -55 19 -55 55v10z" />
    <glyph glyph-name="braceleft.case" horiz-adv-x="371" 
d="M104 92v98c0 46 -20 70 -40 83c-28 16 -45 28 -45 60v56c0 32 17 44 44 61c21 12 41 37 41 85v88c0 133 119 162 169 162h18c36 0 55 -19 55 -55v-20c0 -36 -19 -55 -55 -55c-19 0 -43 -7 -43 -53v-112c0 -102 -84 -127 -84 -127v-2s84 -21 84 -126v-122
c0 -46 24 -53 43 -53c36 0 55 -19 55 -55v-20c0 -36 -19 -55 -55 -55h-18c-50 0 -169 29 -169 162z" />
    <glyph glyph-name="braceright.case" horiz-adv-x="372" 
d="M25 5c0 36 19 55 55 55c19 0 43 7 43 53v122c0 105 84 126 84 126v2s-84 25 -84 127v112c0 46 -24 53 -43 53c-36 0 -55 19 -55 55v20c0 36 19 55 55 55h18c50 0 169 -29 169 -162v-88c0 -48 20 -73 41 -85c27 -17 44 -29 44 -61v-56c0 -32 -17 -44 -45 -60
c-20 -13 -40 -37 -40 -83v-98c0 -133 -119 -162 -169 -162h-18c-36 0 -55 19 -55 55v20z" />
    <glyph glyph-name="at.case" horiz-adv-x="793" 
d="M21 355c0 211 168 376 393 376c221 0 298 -110 298 -240v-198h19c36 0 55 -19 55 -55v-9c0 -36 -19 -55 -55 -55h-228c-150 0 -227 91 -227 182c0 88 74 176 227 176h49c0 43 -73 64 -135 64c-130 0 -227 -120 -227 -241c0 -112 69 -213 199 -235c34 -6 53 -22 53 -57
v-21c0 -36 -20 -57 -57 -53c-228 22 -364 175 -364 366zM447 360c0 -37 22 -67 66 -67h39v134h-37c-46 0 -68 -31 -68 -67z" />
    <glyph glyph-name="guillemotleft.case" horiz-adv-x="601" 
d="M309 303c-21 26 -21 52 0 78l107 135c18 22 38 32 67 32h31c47 0 62 -31 32 -67l-110 -139l110 -138c29 -36 18 -67 -25 -67h-38c-29 0 -49 10 -67 32zM156 169l-107 134c-21 26 -21 52 0 78l107 135c18 22 38 32 67 32h31c47 0 62 -31 32 -67l-110 -139l110 -138
c29 -36 18 -67 -25 -67h-38c-29 0 -49 10 -67 32z" />
    <glyph glyph-name="guillemotright.case" horiz-adv-x="601" 
d="M314 204l110 138l-110 139c-30 36 -18 67 25 67h38c29 0 49 -10 67 -32l107 -135c21 -26 21 -52 0 -78l-107 -134c-18 -22 -38 -32 -67 -32h-31c-47 0 -61 31 -32 67zM86 137c-47 0 -61 31 -32 67l110 138l-110 139c-30 36 -18 67 25 67h38c29 0 49 -10 67 -32l107 -135
c21 -26 21 -52 0 -78l-107 -134c-18 -22 -38 -32 -67 -32h-31z" />
    <glyph glyph-name="guilsinglleft.case" horiz-adv-x="341" 
d="M156 169l-107 134c-21 26 -21 52 0 78l107 135c18 22 38 32 67 32h31c47 0 62 -31 32 -67l-110 -139l110 -138c29 -36 18 -67 -25 -67h-38c-29 0 -49 10 -67 32z" />
    <glyph glyph-name="guilsinglright.case" horiz-adv-x="341" 
d="M86 137c-47 0 -61 31 -32 67l110 138l-110 139c-30 36 -18 67 25 67h38c29 0 49 -10 67 -32l107 -135c21 -26 21 -52 0 -78l-107 -134c-18 -22 -38 -32 -67 -32h-31z" />
    <glyph glyph-name="endash.case" horiz-adv-x="691" 
d="M102 282c-36 0 -55 19 -55 55v20c0 36 19 55 55 55h486c36 0 55 -19 55 -55v-20c0 -36 -19 -55 -55 -55h-486z" />
    <glyph glyph-name="emdash.case" horiz-adv-x="891" 
d="M102 282c-36 0 -55 19 -55 55v20c0 36 19 55 55 55h686c36 0 55 -19 55 -55v-20c0 -36 -19 -55 -55 -55h-686z" />
    <glyph glyph-name="periodcentered.case" horiz-adv-x="255" 
d="M103 263c-36 0 -55 19 -55 55v54c0 36 19 55 55 55h48c36 0 55 -19 55 -55v-54c0 -36 -19 -55 -55 -55h-48z" />
    <glyph glyph-name="questiondown.case" horiz-adv-x="442" 
d="M293 494c36 0 55 -19 55 -55v-10c0 -106 -157 -150 -157 -228c0 -34 33 -59 71 -59c18 0 36 6 52 14c31 15 62 15 81 -13l24 -36c20 -29 21 -54 -9 -73c-35 -23 -91 -49 -166 -49c-112 0 -233 67 -233 196c0 152 151 187 170 265l3 12c7 27 21 36 52 36h57zM344 660v-40
c0 -36 -19 -55 -55 -55h-48c-36 0 -55 19 -55 55v40c0 36 19 55 55 55h48c36 0 55 -19 55 -55z" />
    <glyph glyph-name="exclamdown.case" horiz-adv-x="286" 
d="M163 494c35 0 55 -19 56 -54l12 -384c1 -36 -18 -56 -54 -56h-68c-36 0 -55 20 -54 56l12 384c1 35 21 54 56 54h40zM222 660v-40c0 -36 -19 -55 -55 -55h-48c-36 0 -55 19 -55 55v40c0 36 19 55 55 55h48c36 0 55 -19 55 -55z" />
    <glyph glyph-name="bullet.case" horiz-adv-x="450" 
d="M225 170c-103 0 -186 83 -186 186s83 186 186 186s186 -83 186 -186s-83 -186 -186 -186z" />
    <glyph glyph-name="zero.p_osf" horiz-adv-x="607" 
d="M48 278c0 144 73 289 256 289s255 -146 255 -291c0 -147 -72 -288 -255 -288s-256 145 -256 290zM222 278c0 -73 17 -146 82 -146s82 72 82 144c0 73 -18 147 -82 147c-65 0 -82 -73 -82 -145z" />
    <glyph glyph-name="one.p_osf" horiz-adv-x="509" 
d="M47 55v35c0 36 19 55 55 55h88v162c0 27 1 74 1 74h-2s-15 -18 -38 -32l-9 -5c-30 -17 -56 -11 -75 18l-19 27c-20 30 -14 57 17 76l114 71c22 14 41 19 68 19h55c36 0 55 -19 55 -55v-355h79c36 0 55 -19 55 -55v-35c0 -36 -19 -55 -55 -55h-334c-36 0 -55 19 -55 55z
" />
    <glyph glyph-name="two.p_osf" horiz-adv-x="565" 
d="M46 55v17c0 30 11 49 37 65c90 57 232 155 232 225c0 42 -36 57 -66 57c-34 0 -67 -17 -92 -34c-29 -21 -54 -21 -76 7l-21 27c-22 27 -22 55 6 77c40 31 110 71 207 71c100 0 217 -52 217 -181c0 -122 -108 -197 -197 -244v-2s23 5 68 5h100c36 0 55 -19 55 -55v-35
c0 -36 -19 -55 -55 -55h-360c-36 0 -55 19 -55 55z" />
    <glyph glyph-name="three.p_osf" horiz-adv-x="538" 
d="M49 32c19 31 44 33 76 15c26 -16 62 -31 101 -31c66 0 103 30 103 72c0 63 -74 85 -128 85h-14c-31 0 -51 12 -63 40c-13 27 -10 50 10 74l50 62c33 40 62 62 62 63v1s-23 -4 -68 -4h-83c-36 0 -55 19 -55 55v36c0 36 19 55 55 55h321c36 0 55 -17 55 -49v-10
c0 -28 -7 -47 -26 -68l-123 -137c103 -18 181 -94 181 -190c0 -119 -90 -229 -269 -229c-89 0 -153 30 -190 55c-29 19 -31 47 -13 76z" />
    <glyph glyph-name="four.p_osf" horiz-adv-x="611" 
d="M18 78v19c0 27 5 41 19 63l216 358c15 26 35 37 65 37h125c36 0 55 -19 55 -55v-332h30c36 0 55 -19 55 -55v-35c0 -36 -15 -55 -42 -55h-43v-84c0 -36 -19 -55 -55 -55h-63c-36 0 -55 19 -55 55v84h-252c-36 0 -55 19 -55 55zM196 168h129v156c0 39 6 80 6 80h-2
s-16 -43 -35 -74z" />
    <glyph glyph-name="five.p_osf" horiz-adv-x="547" 
d="M45 2l17 29c18 31 43 34 75 15c26 -15 61 -30 100 -30c49 0 107 26 107 84c0 59 -50 93 -112 93c-25 0 -47 -4 -64 -9c-27 -7 -48 -9 -74 1l-10 4c-29 12 -40 32 -37 63l21 250c3 35 22 53 57 53h277c36 0 55 -19 55 -55v-36c0 -36 -19 -55 -55 -55h-183l-4 -64
c-1 -15 -4 -27 -4 -27h2s25 7 52 7c167 0 253 -101 253 -216c0 -144 -111 -237 -267 -237c-88 0 -153 30 -192 55c-29 18 -32 46 -14 75z" />
    <glyph glyph-name="six.p_osf" horiz-adv-x="601" 
d="M42 301c0 191 111 382 331 382c45 0 90 -8 105 -12c36 -10 46 -33 34 -69l-11 -33c-12 -35 -35 -41 -65 -36c-15 2 -25 6 -49 6c-93 0 -137 -66 -156 -125h2c17 14 65 31 117 31c131 0 215 -107 215 -221c0 -115 -85 -236 -241 -236c-142 0 -282 99 -282 313zM218 261
c0 -54 44 -129 107 -129c43 0 68 35 68 82c0 48 -25 98 -111 98c-37 0 -64 -9 -64 -51z" />
    <glyph glyph-name="seven.p_osf" horiz-adv-x="536" 
d="M86 -51l205 401c24 47 38 61 38 61v2s-19 -3 -41 -3h-214c-36 0 -55 19 -55 55v35c0 36 19 55 55 55h392c36 0 55 -19 55 -55v-24c0 -26 -5 -45 -17 -68l-250 -484c-14 -28 -34 -40 -65 -40h-63c-43 0 -59 27 -40 65z" />
    <glyph glyph-name="eight.p_osf" horiz-adv-x="603" 
d="M40 197c0 78 74 138 104 162c-43 30 -72 73 -72 129c0 98 72 194 233 194c129 0 237 -70 237 -195c0 -73 -64 -146 -70 -154c52 -30 88 -75 88 -140c0 -102 -87 -205 -261 -205c-169 0 -259 102 -259 209zM352 392c7 12 25 44 25 83c0 38 -28 64 -74 64s-66 -25 -66 -54
c0 -44 52 -68 115 -93zM211 211c0 -43 38 -80 88 -80c54 0 87 26 87 70c0 39 -62 61 -132 92c-18 -17 -43 -46 -43 -82z" />
    <glyph glyph-name="nine.p_osf" horiz-adv-x="604" 
d="M100 -14c12 35 35 41 65 36c15 -2 25 -6 49 -6c93 0 137 66 156 125h-2c-17 -14 -65 -31 -117 -31c-131 0 -215 107 -215 221c0 115 85 236 241 236c142 0 282 -99 282 -313c0 -191 -111 -382 -331 -382c-45 0 -90 8 -105 12c-36 10 -46 33 -34 69zM319 243
c37 0 64 9 64 51c0 54 -44 129 -107 129c-43 0 -68 -35 -68 -82c0 -48 25 -98 111 -98z" />
    <glyph glyph-name="zero.t_osf" 
d="M44 278c0 144 73 289 256 289s255 -146 255 -291c0 -147 -72 -288 -255 -288s-256 145 -256 290zM218 278c0 -73 17 -146 82 -146s82 72 82 144c0 73 -18 147 -82 147c-65 0 -82 -73 -82 -145z" />
    <glyph glyph-name="one.t_osf" 
d="M91 55v35c0 36 19 55 55 55h88v162c0 27 1 74 1 74h-2s-15 -18 -38 -32l-9 -5c-30 -17 -56 -11 -75 18l-19 27c-20 30 -14 57 17 76l114 71c22 14 41 19 68 19h55c36 0 55 -19 55 -55v-355h79c36 0 55 -19 55 -55v-35c0 -36 -19 -55 -55 -55h-334c-36 0 -55 19 -55 55z
" />
    <glyph glyph-name="two.t_osf" 
d="M62 55v17c0 30 11 49 37 65c90 57 232 155 232 225c0 42 -36 57 -66 57c-34 0 -67 -17 -92 -34c-29 -21 -54 -21 -76 7l-21 27c-22 27 -22 55 6 77c40 31 110 71 207 71c100 0 217 -52 217 -181c0 -122 -108 -197 -197 -244v-2s23 5 68 5h100c36 0 55 -19 55 -55v-35
c0 -36 -19 -55 -55 -55h-360c-36 0 -55 19 -55 55z" />
    <glyph glyph-name="three.t_osf" 
d="M79 34c19 31 44 33 76 15c26 -16 62 -31 101 -31c66 0 103 30 103 72c0 63 -74 85 -128 85h-14c-31 0 -51 12 -63 40c-13 27 -10 50 10 74l50 62c33 40 62 62 62 63v1s-23 -4 -68 -4h-83c-36 0 -55 19 -55 55v36c0 36 19 55 55 55h321c36 0 55 -17 55 -49v-10
c0 -28 -7 -47 -26 -68l-123 -137c103 -18 181 -94 181 -190c0 -119 -90 -229 -269 -229c-89 0 -153 30 -190 55c-29 19 -31 47 -13 76z" />
    <glyph glyph-name="four.t_osf" 
d="M12 78v19c0 27 5 41 19 63l216 358c15 26 35 37 65 37h125c36 0 55 -19 55 -55v-332h30c36 0 55 -19 55 -55v-35c0 -36 -15 -55 -42 -55h-43v-84c0 -36 -19 -55 -55 -55h-63c-36 0 -55 19 -55 55v84h-252c-36 0 -55 19 -55 55zM190 168h129v156c0 39 6 80 6 80h-2
s-16 -43 -35 -74z" />
    <glyph glyph-name="five.t_osf" 
d="M71 2l17 29c18 31 43 34 75 15c26 -15 61 -30 100 -30c49 0 107 26 107 84c0 59 -50 93 -112 93c-25 0 -47 -4 -64 -9c-27 -7 -48 -9 -74 1l-10 4c-29 12 -40 32 -37 63l21 250c3 35 22 53 57 53h277c36 0 55 -19 55 -55v-36c0 -36 -19 -55 -55 -55h-183l-4 -64
c-1 -15 -4 -27 -4 -27h2s25 7 52 7c167 0 253 -101 253 -216c0 -144 -111 -237 -267 -237c-88 0 -153 30 -192 55c-29 18 -32 46 -14 75z" />
    <glyph glyph-name="six.t_osf" 
d="M43 301c0 191 111 382 331 382c45 0 90 -8 105 -12c36 -10 46 -33 34 -69l-11 -33c-12 -35 -35 -41 -65 -36c-15 2 -25 6 -49 6c-93 0 -137 -66 -156 -125h2c17 14 65 31 117 31c131 0 215 -107 215 -221c0 -115 -85 -236 -241 -236c-142 0 -282 99 -282 313zM219 261
c0 -54 44 -129 107 -129c43 0 68 35 68 82c0 48 -25 98 -111 98c-37 0 -64 -9 -64 -51z" />
    <glyph glyph-name="seven.t_osf" 
d="M117 -51l205 401c24 47 38 61 38 61v2s-19 -3 -41 -3h-214c-36 0 -55 19 -55 55v35c0 36 19 55 55 55h392c36 0 55 -19 55 -55v-24c0 -26 -5 -45 -17 -68l-250 -484c-14 -28 -34 -40 -65 -40h-63c-43 0 -59 27 -40 65z" />
    <glyph glyph-name="eight.t_osf" 
d="M38 197c0 78 74 138 104 162c-43 30 -72 73 -72 129c0 98 72 194 233 194c129 0 237 -70 237 -195c0 -73 -64 -146 -70 -154c52 -30 88 -75 88 -140c0 -102 -87 -205 -261 -205c-169 0 -259 102 -259 209zM350 392c7 12 25 44 25 83c0 38 -28 64 -74 64s-66 -25 -66 -54
c0 -44 52 -68 115 -93zM209 211c0 -43 38 -80 88 -80c54 0 87 26 87 70c0 39 -62 61 -132 92c-18 -17 -43 -46 -43 -82z" />
    <glyph glyph-name="nine.t_osf" 
d="M95 -14c12 35 35 41 65 36c15 -2 25 -6 49 -6c93 0 137 66 156 125h-2c-17 -14 -65 -31 -117 -31c-131 0 -215 107 -215 221c0 115 85 236 241 236c142 0 282 -99 282 -313c0 -191 -111 -382 -331 -382c-45 0 -90 8 -105 12c-36 10 -46 33 -34 69zM314 243
c37 0 64 9 64 51c0 54 -44 129 -107 129c-43 0 -68 -35 -68 -82c0 -48 25 -98 111 -98z" />
    <glyph glyph-name="dollar.osf" horiz-adv-x="528" 
d="M63 50c-28 20 -30 47 -13 76l22 36c19 32 44 34 75 14c28 -18 64 -36 101 -36c45 0 67 13 67 34c0 54 -276 64 -276 246c0 90 72 152 173 171v38c0 36 16 55 52 55h6c35 0 51 -16 51 -45v-45c53 -6 93 -22 120 -36c29 -16 34 -43 21 -74l-17 -38c-15 -35 -40 -39 -73 -22
c-23 11 -53 21 -84 21c-42 0 -69 -8 -69 -36c0 -49 276 -52 276 -237c0 -84 -64 -158 -174 -178v-39c0 -36 -16 -55 -51 -55h-6c-36 0 -52 16 -52 45v46c-67 9 -117 37 -149 59z" />
    <glyph glyph-name="cent.osf" horiz-adv-x="538" 
d="M231 25v29c-128 30 -197 134 -197 246c0 111 69 215 197 246v28c0 36 19 55 55 55h4c36 0 55 -13 55 -38v-38c55 -7 98 -28 127 -46c28 -19 31 -47 12 -76l-20 -32c-19 -31 -43 -32 -75 -14c-17 10 -39 18 -63 18c-84 0 -120 -54 -120 -101c0 -51 36 -105 120 -105
c24 0 46 8 63 18c32 18 56 17 75 -14l20 -32c19 -29 16 -57 -12 -76c-29 -19 -72 -40 -127 -46v-22c0 -36 -19 -55 -55 -55h-4c-36 0 -55 19 -55 55z" />
    <glyph glyph-name="sterling.osf" horiz-adv-x="603" 
d="M49 55v35c0 36 20 55 50 55h5v86h-5c-30 0 -45 16 -45 51v6c0 35 15 51 45 51h5v42c0 128 113 216 254 216c63 0 114 -17 148 -33c33 -15 38 -44 21 -74l-20 -34c-17 -30 -41 -35 -73 -24c-21 7 -46 13 -71 13c-42 0 -84 -25 -84 -64v-42h125c36 0 55 -16 55 -51v-6
c0 -35 -19 -51 -55 -51h-125v-86h234c36 0 55 -19 55 -55v-35c0 -36 -19 -55 -55 -55h-409c-35 0 -55 19 -55 55z" />
    <glyph glyph-name="yen.osf" horiz-adv-x="628" 
d="M118 118c-36 0 -55 14 -55 45v6c0 31 19 45 55 45h106v7l-41 71h-65c-36 0 -55 14 -55 45v6c0 31 19 45 55 45h10l-75 131c-21 38 -5 66 39 66h78c31 0 51 -13 64 -41l34 -77c22 -49 43 -110 43 -110h2s21 61 43 110l34 77c13 28 33 41 64 41h78c44 0 60 -28 38 -66
l-75 -131h19c36 0 55 -14 55 -45v-6c0 -31 -19 -45 -55 -45h-74l-41 -71v-7h115c36 0 55 -14 55 -45v-6c0 -31 -19 -45 -55 -45h-115v-63c0 -36 -19 -55 -55 -55h-65c-36 0 -55 19 -55 55v63h-106z" />
    <glyph glyph-name="florin.osf" horiz-adv-x="447" 
d="M32 21c9 0 16 -1 21 -1c33 0 88 9 93 64l16 182h-9c-36 0 -55 19 -55 55v25c0 36 19 55 55 55h20l9 90c16 169 166 192 251 192c10 0 23 -1 36 -2c35 -3 52 -24 52 -58v-36c0 -37 -14 -56 -38 -54c-15 2 -31 3 -38 3c-34 0 -89 -9 -94 -64l-7 -71h41c36 0 55 -19 55 -55
v-25c0 -36 -19 -55 -55 -55h-53l-17 -201c-15 -169 -167 -192 -250 -192c-9 0 -20 1 -31 2c-34 3 -51 23 -51 58v36c0 37 18 55 49 52z" />
    <glyph glyph-name="Euro.osf" horiz-adv-x="569" 
d="M89 184c-36 0 -55 10 -55 38v10c0 28 19 38 55 38h9c-1 8 -1 30 -1 45h-8c-36 0 -55 10 -55 38v10c0 28 19 38 55 38h24c39 108 142 196 310 196c17 0 32 -2 46 -3c37 -4 51 -29 42 -65l-8 -29c-9 -33 -26 -46 -49 -43c-10 1 -22 2 -35 2c-56 0 -98 -24 -123 -58h122
c39 0 57 -15 52 -42l-1 -5c-6 -29 -24 -39 -57 -39h-141c-2 -13 0 -35 2 -45h121c40 0 58 -15 53 -42l-1 -5c-6 -29 -24 -39 -57 -39h-82c26 -33 67 -55 119 -55c12 0 23 1 33 2c36 5 58 -7 64 -43l5 -30c6 -34 -7 -59 -42 -65c-17 -3 -39 -5 -63 -5
c-164 0 -267 87 -308 196h-26z" />
    <glyph glyph-name="zero.numerator" horiz-adv-x="400" 
d="M200 264c-129 0 -170 103 -170 231c0 129 41 230 170 230s170 -101 170 -230c0 -128 -41 -231 -170 -231zM200 379c34 0 43 52 43 116c0 63 -9 114 -43 114c-33 0 -43 -51 -43 -114c0 -64 10 -116 43 -116z" />
    <glyph glyph-name="one.numerator" horiz-adv-x="341" 
d="M82 274c-36 0 -55 16 -55 51v6c0 35 16 51 45 51h44v143c0 19 3 32 3 32h-2s-3 -6 -9 -11l-7 -6c-11 -9 -29 -8 -42 5l-16 16c-24 24 -19 51 7 75l55 52c21 19 40 27 68 27h14c36 0 55 -19 55 -55v-278h35c36 0 55 -16 55 -51v-6c0 -35 -19 -51 -55 -51h-195z" />
    <glyph glyph-name="two.numerator" horiz-adv-x="382" 
d="M78 274c-36 0 -55 19 -55 52c0 173 199 185 199 250c0 23 -22 34 -45 34c-12 0 -24 -4 -34 -10c-29 -18 -49 -25 -75 -3l-7 6c-27 23 -29 51 -3 74c27 23 69 48 128 48c76 0 163 -43 163 -143c0 -139 -175 -158 -185 -200h136c36 0 55 -16 55 -51v-6
c0 -35 -19 -51 -55 -51h-222z" />
    <glyph glyph-name="three.numerator" horiz-adv-x="369" 
d="M167 264c-55 0 -95 17 -121 35c-29 18 -31 42 -13 70l5 8c19 30 40 29 71 14c14 -7 30 -12 50 -12c34 0 54 18 54 42c0 22 -27 36 -55 36h-7c-25 0 -41 9 -49 29c-8 19 -3 39 18 62l32 35c7 9 24 23 24 23v2s-21 -2 -34 -2h-55c-36 0 -55 16 -55 52v6c0 35 19 51 55 51
h184c36 0 55 -14 55 -39v-7c0 -26 -8 -41 -26 -62l-57 -62c68 -17 97 -66 97 -126c0 -77 -59 -155 -173 -155z" />
    <glyph glyph-name="four.numerator" horiz-adv-x="411" 
d="M263 274c-36 0 -55 19 -55 55v32h-142c-36 0 -55 15 -55 42v14c0 27 5 37 20 59l128 203c16 25 36 36 66 36h52c36 0 55 -19 55 -55v-192h12c34 0 46 -19 46 -50v-6c0 -32 -12 -51 -46 -51h-12v-32c0 -36 -19 -55 -55 -55h-14zM130 468h78v90c0 25 4 50 4 50h-2
s-9 -27 -21 -46l-59 -92v-2z" />
    <glyph glyph-name="five.numerator" horiz-adv-x="371" 
d="M175 264c-52 0 -93 17 -121 33c-30 18 -30 45 -12 75l3 5c18 30 40 29 70 14c14 -7 31 -12 50 -12c27 0 57 16 57 46s-27 47 -61 47c-10 0 -20 -1 -28 -2c-27 -5 -48 -8 -69 1c-22 9 -32 28 -29 60l11 132c3 34 23 52 58 52h158c36 0 55 -16 55 -51v-4
c0 -34 -19 -52 -55 -52h-109l-2 -28c-1 -11 -3 -16 -3 -16l2 -1s17 4 43 4c95 0 156 -65 156 -143c0 -79 -59 -160 -174 -160z" />
    <glyph glyph-name="six.numerator" horiz-adv-x="388" 
d="M210 264c-92 0 -184 65 -184 208c0 124 70 253 220 253c30 0 44 -5 54 -8c36 -12 41 -39 30 -67l-2 -5c-14 -35 -20 -47 -47 -41c-7 1 -15 5 -33 5c-39 0 -65 -18 -77 -52h2c12 4 24 6 41 6c96 0 153 -67 153 -145s-57 -154 -157 -154zM208 379c22 0 34 18 34 41
s-13 56 -58 56c-15 0 -30 -4 -30 -27c0 -27 21 -70 54 -70z" />
    <glyph glyph-name="seven.numerator" horiz-adv-x="360" 
d="M92 274c-44 0 -60 28 -38 66l138 242c11 19 16 24 16 24v2s-17 -2 -30 -2h-106c-36 0 -55 16 -55 52v6c0 35 19 51 55 51h224c36 0 55 -15 55 -42v-10c0 -26 -5 -42 -18 -65l-159 -286c-14 -26 -34 -38 -65 -38h-17z" />
    <glyph glyph-name="eight.numerator" horiz-adv-x="400" 
d="M201 264c-87 0 -175 46 -175 139c0 49 41 88 64 106c-25 21 -43 48 -43 88c0 86 76 128 155 128c78 0 159 -44 159 -129c0 -44 -39 -89 -49 -100c33 -21 59 -51 59 -99c0 -88 -85 -133 -170 -133zM228 535c5 8 17 29 17 53c0 20 -23 31 -43 31c-19 0 -35 -8 -35 -28
c0 -26 27 -41 61 -56zM200 370c22 0 45 11 45 34c0 26 -35 41 -76 60c-10 -12 -22 -32 -22 -53c0 -27 26 -41 53 -41z" />
    <glyph glyph-name="nine.numerator" horiz-adv-x="388" 
d="M88 272c-36 12 -41 39 -30 67l2 5c14 35 20 47 47 41c7 -1 15 -5 33 -5c39 0 65 18 77 52h-2c-12 -4 -24 -6 -41 -6c-96 0 -153 67 -153 145s57 154 157 154c92 0 184 -65 184 -208c0 -124 -70 -253 -220 -253c-30 0 -44 5 -54 8zM204 513c15 0 30 4 30 27
c0 27 -21 70 -54 70c-22 0 -34 -18 -34 -41s13 -56 58 -56z" />
    <glyph glyph-name="zerosuperior" unicode="&#x2070;" horiz-adv-x="400" 
d="M200 413c-129 0 -170 103 -170 231c0 129 41 230 170 230s170 -101 170 -230c0 -128 -41 -231 -170 -231zM200 528c34 0 43 52 43 116c0 63 -9 114 -43 114c-33 0 -43 -51 -43 -114c0 -64 10 -116 43 -116z" />
    <glyph glyph-name="foursuperior" unicode="&#x2074;" horiz-adv-x="410" 
d="M263 423c-36 0 -55 19 -55 55v32h-142c-36 0 -55 15 -55 42v14c0 27 5 37 20 59l128 203c16 25 36 36 66 36h52c36 0 55 -19 55 -55v-192h12c34 0 46 -19 46 -50v-6c0 -32 -12 -51 -46 -51h-12v-32c0 -36 -19 -55 -55 -55h-14zM130 617h78v90c0 25 4 50 4 50h-2
s-9 -27 -21 -46l-59 -92v-2z" />
    <glyph glyph-name="fivesuperior" unicode="&#x2075;" horiz-adv-x="370" 
d="M174 413c-52 0 -93 17 -121 33c-30 18 -30 45 -12 75l3 5c18 30 40 29 70 14c14 -7 31 -12 50 -12c27 0 57 16 57 46s-27 47 -61 47c-10 0 -20 -1 -28 -2c-27 -5 -48 -8 -69 1c-22 9 -32 28 -29 60l11 132c3 34 23 52 58 52h158c36 0 55 -16 55 -51v-4
c0 -34 -19 -52 -55 -52h-109l-2 -28c-1 -11 -3 -16 -3 -16l2 -1s17 4 43 4c95 0 156 -65 156 -143c0 -79 -59 -160 -174 -160z" />
    <glyph glyph-name="sixsuperior" unicode="&#x2076;" horiz-adv-x="390" 
d="M211 413c-92 0 -184 65 -184 208c0 124 70 253 220 253c30 0 44 -5 54 -8c36 -12 41 -39 30 -67l-2 -5c-14 -35 -20 -47 -47 -41c-7 1 -15 5 -33 5c-39 0 -65 -18 -77 -52h2c12 4 24 6 41 6c96 0 153 -67 153 -145s-57 -154 -157 -154zM209 528c22 0 34 18 34 41
s-13 56 -58 56c-15 0 -30 -4 -30 -27c0 -27 21 -70 54 -70z" />
    <glyph glyph-name="sevensuperior" unicode="&#x2077;" horiz-adv-x="359" 
d="M91 423c-44 0 -60 28 -38 66l138 242c11 19 16 24 16 24v2s-17 -2 -30 -2h-106c-36 0 -55 16 -55 52v6c0 35 19 51 55 51h224c36 0 55 -15 55 -42v-10c0 -26 -5 -42 -18 -65l-159 -286c-14 -26 -34 -38 -65 -38h-17z" />
    <glyph glyph-name="eightsuperior" unicode="&#x2078;" horiz-adv-x="400" 
d="M201 413c-87 0 -175 46 -175 139c0 49 41 88 64 106c-25 21 -43 48 -43 88c0 86 76 128 155 128c78 0 159 -44 159 -129c0 -44 -39 -89 -49 -100c33 -21 59 -51 59 -99c0 -88 -85 -133 -170 -133zM228 684c5 8 17 29 17 53c0 20 -23 31 -43 31c-19 0 -35 -8 -35 -28
c0 -26 27 -41 61 -56zM200 519c22 0 45 11 45 34c0 26 -35 41 -76 60c-10 -12 -22 -32 -22 -53c0 -27 26 -41 53 -41z" />
    <glyph glyph-name="ninesuperior" unicode="&#x2079;" horiz-adv-x="390" 
d="M89 421c-36 12 -41 39 -30 67l2 5c14 35 20 47 47 41c7 -1 15 -5 33 -5c39 0 65 18 77 52h-2c-12 -4 -24 -6 -41 -6c-96 0 -153 67 -153 145s57 154 157 154c92 0 184 -65 184 -208c0 -124 -70 -253 -220 -253c-30 0 -44 5 -54 8zM205 662c15 0 30 4 30 27
c0 27 -21 70 -54 70c-22 0 -34 -18 -34 -41s13 -56 58 -56z" />
    <glyph glyph-name="zeroinferior" unicode="&#x2080;" horiz-adv-x="400" 
d="M200 -167c-129 0 -170 103 -170 231c0 129 41 230 170 230s170 -101 170 -230c0 -128 -41 -231 -170 -231zM200 -52c34 0 43 52 43 116c0 63 -9 114 -43 114c-33 0 -43 -51 -43 -114c0 -64 10 -116 43 -116z" />
    <glyph glyph-name="oneinferior" unicode="&#x2081;" horiz-adv-x="340" 
d="M82 -157c-36 0 -55 16 -55 51v6c0 35 16 51 45 51h44v143c0 19 3 32 3 32h-2s-3 -6 -9 -11l-7 -6c-11 -9 -29 -8 -42 5l-16 16c-24 24 -19 51 7 75l55 52c21 19 40 27 68 27h14c36 0 55 -19 55 -55v-278h35c36 0 55 -16 55 -51v-6c0 -35 -19 -51 -55 -51h-195z" />
    <glyph glyph-name="twoinferior" unicode="&#x2082;" horiz-adv-x="381" 
d="M77 -157c-36 0 -55 19 -55 52c0 173 199 185 199 250c0 23 -22 34 -45 34c-12 0 -24 -4 -34 -10c-29 -18 -49 -25 -75 -3l-7 6c-27 23 -29 51 -3 74c27 23 69 48 128 48c76 0 163 -43 163 -143c0 -139 -175 -158 -185 -200h136c36 0 55 -16 55 -51v-6
c0 -35 -19 -51 -55 -51h-222z" />
    <glyph glyph-name="threeinferior" unicode="&#x2083;" horiz-adv-x="369" 
d="M167 -167c-55 0 -95 17 -121 35c-29 18 -31 42 -13 70l5 8c19 30 40 29 71 14c14 -7 30 -12 50 -12c34 0 54 18 54 42c0 22 -27 36 -55 36h-7c-25 0 -41 9 -49 29c-8 19 -3 39 18 62l32 35c7 9 24 23 24 23v2s-21 -2 -34 -2h-55c-36 0 -55 16 -55 52v6c0 35 19 51 55 51
h184c36 0 55 -14 55 -39v-7c0 -26 -8 -41 -26 -62l-57 -62c68 -17 97 -66 97 -126c0 -77 -59 -155 -173 -155z" />
    <glyph glyph-name="fourinferior" unicode="&#x2084;" horiz-adv-x="410" 
d="M263 -157c-36 0 -55 19 -55 55v32h-142c-36 0 -55 15 -55 42v14c0 27 5 37 20 59l128 203c16 25 36 36 66 36h52c36 0 55 -19 55 -55v-192h12c34 0 46 -19 46 -50v-6c0 -32 -12 -51 -46 -51h-12v-32c0 -36 -19 -55 -55 -55h-14zM130 37h78v90c0 25 4 50 4 50h-2
s-9 -27 -21 -46l-59 -92v-2z" />
    <glyph glyph-name="fiveinferior" unicode="&#x2085;" horiz-adv-x="370" 
d="M174 -167c-52 0 -93 17 -121 33c-30 18 -30 45 -12 75l3 5c18 30 40 29 70 14c14 -7 31 -12 50 -12c27 0 57 16 57 46s-27 47 -61 47c-10 0 -20 -1 -28 -2c-27 -5 -48 -8 -69 1c-22 9 -32 28 -29 60l11 132c3 34 23 52 58 52h158c36 0 55 -16 55 -51v-4
c0 -34 -19 -52 -55 -52h-109l-2 -28c-1 -11 -3 -16 -3 -16l2 -1s17 4 43 4c95 0 156 -65 156 -143c0 -79 -59 -160 -174 -160z" />
    <glyph glyph-name="sixinferior" unicode="&#x2086;" horiz-adv-x="390" 
d="M211 -167c-92 0 -184 65 -184 208c0 124 70 253 220 253c30 0 44 -5 54 -8c36 -12 41 -39 30 -67l-2 -5c-14 -35 -20 -47 -47 -41c-7 1 -15 5 -33 5c-39 0 -65 -18 -77 -52h2c12 4 24 6 41 6c96 0 153 -67 153 -145s-57 -154 -157 -154zM209 -52c22 0 34 18 34 41
s-13 56 -58 56c-15 0 -30 -4 -30 -27c0 -27 21 -70 54 -70z" />
    <glyph glyph-name="seveninferior" unicode="&#x2087;" horiz-adv-x="359" 
d="M91 -157c-44 0 -60 28 -38 66l138 242c11 19 16 24 16 24v2s-17 -2 -30 -2h-106c-36 0 -55 16 -55 52v6c0 35 19 51 55 51h224c36 0 55 -15 55 -42v-10c0 -26 -5 -42 -18 -65l-159 -286c-14 -26 -34 -38 -65 -38h-17z" />
    <glyph glyph-name="eightinferior" unicode="&#x2088;" horiz-adv-x="400" 
d="M201 -167c-87 0 -175 46 -175 139c0 49 41 88 64 106c-25 21 -43 48 -43 88c0 86 76 128 155 128c78 0 159 -44 159 -129c0 -44 -39 -89 -49 -100c33 -21 59 -51 59 -99c0 -88 -85 -133 -170 -133zM228 104c5 8 17 29 17 53c0 20 -23 31 -43 31c-19 0 -35 -8 -35 -28
c0 -26 27 -41 61 -56zM200 -61c22 0 45 11 45 34c0 26 -35 41 -76 60c-10 -12 -22 -32 -22 -53c0 -27 26 -41 53 -41z" />
    <glyph glyph-name="nineinferior" unicode="&#x2089;" horiz-adv-x="390" 
d="M89 -159c-36 12 -41 39 -30 67l2 5c14 35 20 47 47 41c7 -1 15 -5 33 -5c39 0 65 18 77 52h-2c-12 -4 -24 -6 -41 -6c-96 0 -153 67 -153 145s57 154 157 154c92 0 184 -65 184 -208c0 -124 -70 -253 -220 -253c-30 0 -44 5 -54 8zM205 82c15 0 30 4 30 27
c0 27 -21 70 -54 70c-22 0 -34 -18 -34 -41s13 -56 58 -56z" />
    <glyph glyph-name="zero.denominator" horiz-adv-x="400" 
d="M200 -10c-129 0 -170 103 -170 231c0 129 41 230 170 230s170 -101 170 -230c0 -128 -41 -231 -170 -231zM200 105c34 0 43 52 43 116c0 63 -9 114 -43 114c-33 0 -43 -51 -43 -114c0 -64 10 -116 43 -116z" />
    <glyph glyph-name="one.denominator" horiz-adv-x="340" 
d="M82 0c-36 0 -55 16 -55 51v6c0 35 16 51 45 51h44v143c0 19 3 32 3 32h-2s-3 -6 -9 -11l-7 -6c-11 -9 -29 -8 -42 5l-16 16c-24 24 -19 51 7 75l55 52c21 19 40 27 68 27h14c36 0 55 -19 55 -55v-278h35c36 0 55 -16 55 -51v-6c0 -35 -19 -51 -55 -51h-195z" />
    <glyph glyph-name="two.denominator" horiz-adv-x="381" 
d="M77 0c-36 0 -55 19 -55 52c0 173 199 185 199 250c0 23 -22 34 -45 34c-12 0 -24 -4 -34 -10c-29 -18 -49 -25 -75 -3l-7 6c-27 23 -29 51 -3 74c27 23 69 48 128 48c76 0 163 -43 163 -143c0 -139 -175 -158 -185 -200h136c36 0 55 -16 55 -51v-6c0 -35 -19 -51 -55 -51
h-222z" />
    <glyph glyph-name="three.denominator" horiz-adv-x="369" 
d="M167 -10c-55 0 -95 17 -121 35c-29 18 -31 42 -13 70l5 8c19 30 40 29 71 14c14 -7 30 -12 50 -12c34 0 54 18 54 42c0 22 -27 36 -55 36h-7c-25 0 -41 9 -49 29c-8 19 -3 39 18 62l32 35c7 9 24 23 24 23v2s-21 -2 -34 -2h-55c-36 0 -55 16 -55 52v6c0 35 19 51 55 51
h184c36 0 55 -14 55 -39v-7c0 -26 -8 -41 -26 -62l-57 -62c68 -17 97 -66 97 -126c0 -77 -59 -155 -173 -155z" />
    <glyph glyph-name="four.denominator" horiz-adv-x="410" 
d="M263 0c-36 0 -55 19 -55 55v32h-142c-36 0 -55 15 -55 42v14c0 27 5 37 20 59l128 203c16 25 36 36 66 36h52c36 0 55 -19 55 -55v-192h12c34 0 46 -19 46 -50v-6c0 -32 -12 -51 -46 -51h-12v-32c0 -36 -19 -55 -55 -55h-14zM130 194h78v90c0 25 4 50 4 50h-2
s-9 -27 -21 -46l-59 -92v-2z" />
    <glyph glyph-name="five.denominator" horiz-adv-x="370" 
d="M174 -10c-52 0 -93 17 -121 33c-30 18 -30 45 -12 75l3 5c18 30 40 29 70 14c14 -7 31 -12 50 -12c27 0 57 16 57 46s-27 47 -61 47c-10 0 -20 -1 -28 -2c-27 -5 -48 -8 -69 1c-22 9 -32 28 -29 60l11 132c3 34 23 52 58 52h158c36 0 55 -16 55 -51v-4
c0 -34 -19 -52 -55 -52h-109l-2 -28c-1 -11 -3 -16 -3 -16l2 -1s17 4 43 4c95 0 156 -65 156 -143c0 -79 -59 -160 -174 -160z" />
    <glyph glyph-name="six.denominator" horiz-adv-x="390" 
d="M211 -10c-92 0 -184 65 -184 208c0 124 70 253 220 253c30 0 44 -5 54 -8c36 -12 41 -39 30 -67l-2 -5c-14 -35 -20 -47 -47 -41c-7 1 -15 5 -33 5c-39 0 -65 -18 -77 -52h2c12 4 24 6 41 6c96 0 153 -67 153 -145s-57 -154 -157 -154zM209 105c22 0 34 18 34 41
s-13 56 -58 56c-15 0 -30 -4 -30 -27c0 -27 21 -70 54 -70z" />
    <glyph glyph-name="seven.denominator" horiz-adv-x="359" 
d="M91 0c-44 0 -60 28 -38 66l138 242c11 19 16 24 16 24v2s-17 -2 -30 -2h-106c-36 0 -55 16 -55 52v6c0 35 19 51 55 51h224c36 0 55 -15 55 -42v-10c0 -26 -5 -42 -18 -65l-159 -286c-14 -26 -34 -38 -65 -38h-17z" />
    <glyph glyph-name="eight.denominator" horiz-adv-x="400" 
d="M201 -10c-87 0 -175 46 -175 139c0 49 41 88 64 106c-25 21 -43 48 -43 88c0 86 76 128 155 128c78 0 159 -44 159 -129c0 -44 -39 -89 -49 -100c33 -21 59 -51 59 -99c0 -88 -85 -133 -170 -133zM228 261c5 8 17 29 17 53c0 20 -23 31 -43 31c-19 0 -35 -8 -35 -28
c0 -26 27 -41 61 -56zM200 96c22 0 45 11 45 34c0 26 -35 41 -76 60c-10 -12 -22 -32 -22 -53c0 -27 26 -41 53 -41z" />
    <glyph glyph-name="nine.denominator" horiz-adv-x="390" 
d="M89 -2c-36 12 -41 39 -30 67l2 5c14 35 20 47 47 41c7 -1 15 -5 33 -5c39 0 65 18 77 52h-2c-12 -4 -24 -6 -41 -6c-96 0 -153 67 -153 145s57 154 157 154c92 0 184 -65 184 -208c0 -124 -70 -253 -220 -253c-30 0 -44 5 -54 8zM205 239c15 0 30 4 30 27
c0 27 -21 70 -54 70c-22 0 -34 -18 -34 -41s13 -56 58 -56z" />
    <glyph glyph-name="thinspace" unicode="&#x2009;" horiz-adv-x="20" 
 />
    <glyph glyph-name="uni00A0" unicode="&#xa0;" horiz-adv-x="250" 
 />
    <glyph glyph-name="uni00AD" unicode="&#xad;" horiz-adv-x="412" 
d="M104 212c-36 0 -55 19 -55 55v40c0 36 19 55 55 55h204c36 0 55 -19 55 -55v-40c0 -36 -19 -55 -55 -55h-204z" />
    <glyph glyph-name="apple" unicode="&#xf8ff;" horiz-adv-x="1130" 
d="M168 -5v152l-126 72v278l126 71v151l265 142l134 -71l132 71l265 -142v-151l124 -71v-278l-124 -72v-152l-265 -141l-132 71l-134 -71zM208 30l238 -126l121 66l118 -66l238 126v139l114 64v249l-114 66v136l-238 126l-118 -64l-121 64l-238 -126v-136l-114 -66v-249
l114 -64v-139zM242 64v121l-99 60v225l99 58v123l215 114l110 -59l107 59l214 -114v-123l100 -58v-225l-100 -60v-121l-214 -114l-107 58l-110 -58zM426 91h129v171h176v108h-176v128h85c15 0 16 -7 16 -21v-21h115v102c0 33 -10 48 -47 48h-346v-108h48v-407z" />
    </font>
</defs>
</svg>
