<?xml version="1.0" standalone="no"?>
<!DOCTYPE svg PUBLIC "-//W3C//DTD SVG 1.1//EN" "http://www.w3.org/Graphics/SVG/1.1/DTD/svg11.dtd" >
<svg xmlns="http://www.w3.org/2000/svg" width="100%" height="100%">
<metadata>
Created by FontXChange 20110222 at Fri Aug 21 17:01:56 2015
 By Nguyen Can
Spaced and kerned with iKern.
</metadata>
<defs>
<font id="MuseoSansRounded-1000" horiz-adv-x="612" >
  <font-face 
    font-family="Museo Sans Rounded 1000"
    font-weight="900"
    font-stretch="normal"
    units-per-em="1000"
    panose-1="2 0 0 0 0 0 0 0 0 0"
    ascent="750"
    descent="-250"
    x-height="519"
    cap-height="719"
    bbox="-120.408 -238 1298 930"
    underline-thickness="50"
    underline-position="-50"
    stemh="180"
    stemv="209"
    unicode-range="U+0020-FB04"
  />
<missing-glyph horiz-adv-x="510" 
d="M5 65v570c0 42 23 65 65 65h370c42 0 65 -23 65 -65v-570c0 -42 -23 -65 -65 -65h-370c-42 0 -65 23 -65 65zM255 395l170 255h-340zM285 350l170 -255v510zM55 95l170 255l-170 255v-510zM85 50h340l-170 255z" />
    <glyph glyph-name="f_f" unicode="ff" horiz-adv-x="772" 
d="M82 65v293h-4c-43 0 -65 22 -65 65v31c0 43 22 65 65 65h4v15c0 166 177 189 232 189h19c43 0 65 -23 65 -66v-45c0 -42 -22 -61 -64 -65c-15 -2 -43 -4 -43 -25v-3h177v15c0 166 177 189 232 189h19c43 0 65 -23 65 -66v-45c0 -42 -22 -61 -64 -65
c-15 -2 -43 -4 -43 -25v-3h18c43 0 65 -22 65 -65v-31c0 -43 -20 -65 -55 -65h-28v-293c0 -42 -23 -65 -66 -65h-78c-43 0 -65 23 -65 65v293h-177v-293c0 -42 -23 -65 -66 -65h-78c-42 0 -65 23 -65 65z" />
    <glyph glyph-name="fi" unicode="fi" horiz-adv-x="667" 
d="M82 65v293h-4c-43 0 -65 22 -65 65v31c0 43 22 65 65 65h4v15c0 166 177 189 232 189h19c43 0 65 -23 65 -66v-45c0 -42 -22 -61 -64 -65c-15 -2 -43 -4 -43 -25v-3h272c43 0 66 -22 66 -65v-389c0 -42 -23 -65 -66 -65h-78c-43 0 -65 23 -65 65v293h-129v-293
c0 -42 -23 -65 -66 -65h-78c-42 0 -65 23 -65 65zM489 567c-43 0 -65 23 -65 66v21c0 43 22 65 65 65h71c42 0 65 -22 65 -65v-21c0 -43 -23 -66 -65 -66h-71z" />
    <glyph glyph-name="fl" unicode="fl" horiz-adv-x="708" 
d="M82 65v282h-4c-43 0 -65 23 -65 65v31c0 43 22 65 65 65h4v26c0 166 177 189 232 189h19c43 0 65 -23 65 -66v-45c0 -42 -22 -60 -64 -65c-17 -2 -43 -4 -43 -25v-14h18c43 0 65 -22 65 -65v-31c0 -42 -22 -65 -65 -65h-18v-282c0 -42 -23 -65 -66 -65h-78
c-42 0 -65 23 -65 65zM424 214v440c0 43 23 65 66 65h78c42 0 65 -22 65 -65v-433c0 -31 7 -42 21 -44c28 -3 46 -20 46 -55v-61c0 -40 -19 -66 -66 -66c-105 0 -210 25 -210 219z" />
    <glyph glyph-name="f_f_i" unicode="ffi" horiz-adv-x="1053" 
d="M82 65v293c-43 0 -69 22 -69 65v31c0 43 28 65 69 65v15c0 166 177 189 232 189h19c43 0 65 -23 65 -66v-45c0 -42 -22 -60 -64 -65c-15 -2 -43 -4 -43 -25v-3h177v15c0 166 177 189 232 189h19c43 0 65 -23 65 -66v-45c0 -42 -22 -60 -64 -65c-15 -2 -43 -4 -43 -25v-3
h273c43 0 65 -22 65 -65v-389c0 -42 -22 -65 -65 -65h-78c-43 0 -65 23 -65 65v293h-130v-293c0 -42 -23 -65 -66 -65h-78c-43 0 -65 23 -65 65v293h-177v-293c0 -42 -23 -65 -66 -65h-78c-42 0 -65 23 -65 65zM810 633v21c0 43 23 65 66 65h70c43 0 66 -22 66 -65v-21
c0 -43 -23 -66 -66 -66h-70c-43 0 -66 23 -66 66z" />
    <glyph glyph-name="f_f_l" unicode="ffl" horiz-adv-x="1094" 
d="M82 65v293c-41 0 -69 22 -69 65v31c0 43 28 65 69 65v15c0 166 177 189 232 189h19c43 0 65 -23 65 -66v-45c0 -42 -22 -60 -64 -65c-15 -2 -43 -4 -43 -25v-3h177v15c0 166 177 189 232 189h19c43 0 65 -23 65 -66v-45c0 -42 -22 -62 -64 -65c-15 -2 -43 -4 -43 -25v-3
h18c43 0 65 -22 65 -65v-31c0 -43 -20 -65 -55 -65h-28v-293c0 -42 -23 -65 -66 -65h-78c-43 0 -65 23 -65 65v293h-177v-293c0 -42 -23 -65 -66 -65h-78c-42 0 -65 23 -65 65zM809 214v440c0 43 22 65 65 65h78c43 0 66 -22 66 -65v-433c0 -31 7 -42 21 -44
c28 -3 46 -20 46 -55v-61c0 -40 -19 -66 -66 -66c-105 0 -210 25 -210 219z" />
    <glyph glyph-name="f_j" unicode="fj" horiz-adv-x="671" 
d="M82 65v293h-4c-43 0 -65 22 -65 65v31c0 43 22 65 65 65h4v15c0 166 177 189 232 189h19c43 0 65 -23 65 -66v-45c0 -42 -22 -61 -64 -65c-15 -2 -43 -4 -43 -25v-3h275c43 0 65 -22 65 -65v-460c0 -168 -177 -203 -230 -203h-21c-43 0 -65 23 -65 66v42
c0 43 22 60 65 65c24 3 42 17 42 42v352h-131v-293c0 -42 -23 -65 -66 -65h-78c-42 0 -65 23 -65 65zM491 567c-42 0 -65 23 -65 66v21c0 43 23 65 65 65h71c43 0 65 -22 65 -65v-21c0 -43 -22 -66 -65 -66h-71z" />
    <glyph glyph-name=".notdef" horiz-adv-x="510" 
d="M5 65v570c0 42 23 65 65 65h370c42 0 65 -23 65 -65v-570c0 -42 -23 -65 -65 -65h-370c-42 0 -65 23 -65 65zM255 395l170 255h-340zM285 350l170 -255v510zM55 95l170 255l-170 255v-510zM85 50h340l-170 255z" />
    <glyph glyph-name="space" unicode=" " horiz-adv-x="250" 
 />
    <glyph glyph-name="exclam" unicode="!" horiz-adv-x="288" 
d="M120 234c-41 0 -64 22 -66 64l-16 354c-2 38 21 67 64 67h84c38 0 66 -23 64 -67l-15 -354c-2 -42 -25 -64 -66 -64h-49zM52 65v44c0 43 22 65 65 65h54c43 0 66 -22 66 -65v-44c0 -42 -23 -65 -66 -65h-54c-43 0 -65 23 -65 65z" />
    <glyph glyph-name="quotedbl" unicode="&#x22;" horiz-adv-x="419" 
d="M310 482c-42 0 -65 23 -65 66v122c0 43 23 66 65 66h13c43 0 66 -23 66 -66v-122c0 -43 -23 -66 -66 -66h-13zM96 482c-43 0 -66 23 -66 66v122c0 43 23 66 66 66h13c42 0 65 -23 65 -66v-122c0 -43 -23 -66 -65 -66h-13z" />
    <glyph glyph-name="numbersign" unicode="#" horiz-adv-x="676" 
d="M86 70l18 105h-16c-45 0 -66 26 -59 70l2 12c6 39 30 60 70 60h27l11 60h-14c-45 0 -66 26 -59 70l2 13c6 39 30 59 69 59h25l25 141c7 39 31 59 71 59h27c45 0 67 -26 59 -70l-23 -130h86l24 141c7 39 31 59 72 59h27c45 0 67 -26 59 -70l-23 -130h22
c45 0 66 -26 59 -70l-2 -12c-6 -39 -30 -60 -70 -60h-33l-11 -60h20c45 0 66 -26 59 -71l-2 -12c-6 -39 -30 -59 -70 -59h-30l-20 -115c-7 -40 -30 -60 -71 -60h-27c-45 0 -67 26 -59 70l18 105h-86l-19 -115c-7 -40 -31 -60 -71 -60h-28c-45 0 -66 26 -59 70zM287 317h85
l12 60h-86z" />
    <glyph glyph-name="dollar" unicode="$" horiz-adv-x="582" 
d="M65 55c-34 25 -37 56 -13 91l36 53c33 48 70 29 92 17c36 -19 70 -35 110 -35c33 0 56 11 56 32c0 77 -315 64 -315 290c0 110 74 196 193 221v28c0 43 19 66 62 66h5c41 0 60 -19 60 -53v-37c65 -9 119 -33 141 -47c33 -21 40 -53 21 -89l-30 -57
c-27 -52 -60 -37 -88 -24c-33 15 -60 27 -99 27c-33 0 -55 -9 -55 -30c0 -79 315 -62 315 -287c0 -105 -69 -204 -205 -228v-25c0 -43 -19 -66 -60 -66h-5c-43 0 -62 19 -62 53v38c-68 11 -133 43 -159 62z" />
    <glyph glyph-name="percent" unicode="%" horiz-adv-x="896" 
d="M220 363c-109 0 -195 81 -195 184c0 100 86 184 195 184c107 0 194 -84 194 -184c0 -103 -87 -184 -194 -184zM138 80l466 600c21 27 44 39 80 39h28c56 0 73 -35 39 -79l-466 -601c-21 -27 -44 -39 -80 -39h-28c-56 0 -73 36 -39 80zM220 505c24 0 46 18 46 43
c0 22 -22 41 -46 41c-25 0 -47 -19 -47 -41c0 -25 22 -43 47 -43zM482 171c0 100 86 185 195 185c107 0 194 -85 194 -185c0 -102 -87 -183 -194 -183c-109 0 -195 81 -195 183zM631 173c0 -25 21 -43 46 -43c24 0 46 18 46 43c0 22 -22 41 -46 41c-25 0 -46 -19 -46 -41z
" />
    <glyph glyph-name="ampersand" unicode="&#x26;" horiz-adv-x="675" 
d="M23 211c0 72 46 138 109 167v2s-79 40 -79 153c0 150 128 198 244 198h32c43 0 65 -22 65 -65v-43c0 -43 -22 -65 -65 -65h-12c-43 0 -51 -35 -51 -58c0 -33 26 -50 46 -50h66v19c0 43 23 65 66 65h76c43 0 65 -17 65 -51v-33h22c43 0 65 -22 65 -65v-49
c0 -43 -22 -66 -65 -66h-22v-57c0 -114 -100 -225 -286 -225c-171 0 -276 100 -276 223zM238 225c0 -25 30 -46 61 -46c55 0 79 29 79 67v24h-81c-20 0 -59 -3 -59 -45z" />
    <glyph glyph-name="quotesingle" unicode="'" horiz-adv-x="207" 
d="M95 472c-43 0 -65 22 -65 65v133c0 43 22 66 65 66h17c43 0 65 -23 65 -66v-133c0 -43 -22 -65 -65 -65h-17z" />
    <glyph glyph-name="parenleft" unicode="(" horiz-adv-x="314" 
d="M130 -56c-66 116 -105 253 -105 406c0 128 36 251 100 363c18 32 43 44 79 44h29c52 0 69 -31 47 -77c-47 -105 -72 -218 -72 -329c0 -124 27 -248 77 -369c20 -46 2 -77 -48 -77h-33c-36 0 -58 11 -74 39z" />
    <glyph glyph-name="parenright" unicode=")" horiz-adv-x="313" 
d="M31 -14c47 119 74 243 74 365c0 111 -24 224 -72 329c-22 46 -7 77 43 77h33c36 0 61 -12 79 -44c65 -112 100 -235 100 -363c0 -151 -37 -287 -101 -401c-18 -31 -42 -44 -77 -44h-33c-51 0 -67 32 -46 81z" />
    <glyph glyph-name="asterisk" unicode="*" horiz-adv-x="459" 
d="M126 340l-33 24c-36 26 -40 58 -11 90l23 21v2l-29 2c-43 10 -61 38 -47 80l12 39c15 42 43 56 82 39l27 -16l-5 29c-5 44 18 69 62 69h42c44 0 67 -24 62 -67l-7 -31l26 15c40 18 71 6 84 -36l14 -40c13 -42 -3 -70 -44 -78l-34 -4v-2l24 -19c30 -32 26 -65 -10 -92
l-33 -25c-36 -26 -68 -19 -89 18l-13 29h-2l-11 -26c-22 -40 -54 -47 -90 -21z" />
    <glyph glyph-name="plus" unicode="+" horiz-adv-x="638" 
d="M107 211c-42 0 -65 22 -65 65v24c0 43 23 65 65 65h131v147c0 43 23 65 66 65h30c43 0 66 -22 66 -65v-147h131c43 0 65 -22 65 -65v-24c0 -43 -22 -65 -65 -65h-131v-146c0 -42 -23 -65 -66 -65h-30c-43 0 -66 23 -66 65v146h-131z" />
    <glyph glyph-name="comma" unicode="," horiz-adv-x="262" 
d="M9 -31l42 170c9 38 34 56 74 56h54c49 0 70 -31 51 -76l-70 -173c-14 -35 -38 -51 -75 -51h-20c-47 0 -69 27 -56 74z" />
    <glyph glyph-name="hyphen" unicode="-" horiz-adv-x="396" 
d="M101 198c-43 0 -65 23 -65 65v50c0 43 22 65 65 65h194c43 0 65 -22 65 -65v-50c0 -42 -22 -65 -65 -65h-194z" />
    <glyph glyph-name="period" unicode="." horiz-adv-x="258" 
d="M33 65v61c0 43 22 65 65 65h61c43 0 66 -22 66 -65v-61c0 -42 -23 -65 -66 -65h-61c-43 0 -65 23 -65 65z" />
    <glyph glyph-name="slash" unicode="/" horiz-adv-x="434" 
d="M27 32l215 667c12 36 36 54 75 54h36c47 0 69 -29 54 -75l-215 -667c-11 -35 -35 -53 -75 -53h-35c-48 0 -69 28 -55 74z" />
    <glyph glyph-name="zero" unicode="0" horiz-adv-x="618" 
d="M309 -12c-209 0 -278 168 -278 373c0 206 69 370 278 370c210 0 278 -164 278 -370c0 -205 -68 -373 -278 -373zM309 180c48 0 62 82 62 181s-14 178 -62 178c-47 0 -61 -79 -61 -178s14 -181 61 -181z" />
    <glyph glyph-name="one" unicode="1" horiz-adv-x="543" 
d="M32 65v50c0 42 22 65 65 65h85v224c0 29 3 59 3 59h-2s-10 -15 -16 -21c-25 -24 -59 -25 -88 6l-31 35c-30 30 -28 63 3 92l122 112c25 23 47 32 81 32h68c43 0 66 -22 66 -65v-474h87c43 0 65 -23 65 -65v-50c0 -42 -22 -65 -65 -65h-378c-43 0 -65 23 -65 65z" />
    <glyph glyph-name="two" unicode="2" horiz-adv-x="583" 
d="M28 65v23c0 270 291 322 291 395c0 41 -34 50 -53 50c-18 0 -37 -6 -54 -22c-29 -28 -60 -40 -92 -14l-49 39c-33 26 -41 56 -16 88c38 50 109 107 231 107c111 0 254 -60 254 -226c0 -219 -267 -265 -278 -325h223c43 0 66 -23 66 -65v-50c0 -42 -23 -65 -66 -65h-388
c-40 0 -69 23 -69 65z" />
    <glyph glyph-name="three" unicode="3" horiz-adv-x="558" 
d="M49 42c-33 24 -36 56 -15 91l32 53c22 38 52 40 89 18c28 -12 55 -18 82 -18c58 0 82 20 82 47c0 38 -32 52 -91 52h-27c-34 0 -53 12 -70 45l-6 11c-14 27 -7 56 16 85l32 40c39 48 70 77 70 77v2s-24 -6 -72 -6h-74c-43 0 -65 23 -65 65v50c0 43 22 65 65 65h334
c43 0 65 -23 65 -65v-19c0 -33 -8 -56 -29 -81l-100 -115c112 -29 164 -117 164 -199c0 -122 -82 -252 -277 -252c-95 0 -161 27 -205 54z" />
    <glyph glyph-name="four" unicode="4" horiz-adv-x="619" 
d="M68 166c-43 0 -65 22 -65 65v18c0 31 7 53 23 80l202 347c18 31 42 43 78 43h145c43 0 65 -22 65 -65v-315h15c43 0 65 -22 65 -65v-43c0 -43 -22 -65 -64 -65h-16v-101c0 -42 -22 -65 -65 -65h-78c-43 0 -65 23 -65 65v101h-240zM213 339h95v115c0 42 7 84 7 84h-2
s-17 -48 -35 -81l-65 -116v-2z" />
    <glyph glyph-name="five" unicode="5" horiz-adv-x="569" 
d="M61 43c-34 22 -37 55 -17 89l33 54c21 38 51 41 89 19c27 -12 59 -19 85 -19c30 0 75 16 75 63c0 42 -38 65 -91 65c-14 0 -28 -1 -42 -4c-33 -8 -57 -13 -88 -1l-13 5c-35 14 -52 39 -49 77l17 265c3 42 26 63 68 63h292c43 0 65 -22 65 -65v-50c0 -42 -22 -65 -65 -65
h-172l-2 -32c-1 -11 -3 -27 -3 -27h2s21 3 36 3c180 0 262 -105 262 -232c0 -154 -110 -263 -273 -263c-93 0 -165 27 -209 55z" />
    <glyph glyph-name="six" unicode="6" horiz-adv-x="606" 
d="M27 327c0 214 130 404 356 404c33 0 80 -4 105 -11c41 -12 53 -43 41 -82l-18 -57c-15 -47 -37 -49 -75 -45c-17 2 -24 3 -38 3c-71 0 -109 -27 -135 -81h2s36 19 92 19c146 0 224 -118 224 -228c0 -117 -84 -261 -252 -261c-141 0 -302 101 -302 339zM243 277
c0 -57 40 -102 81 -102c30 0 51 24 51 62c0 25 -9 77 -91 77c-26 0 -41 -5 -41 -37z" />
    <glyph glyph-name="seven" unicode="7" horiz-adv-x="546" 
d="M71 77l203 398c27 53 43 65 43 65v2s-12 -3 -38 -3h-202c-43 0 -66 23 -66 65v50c0 43 23 65 66 65h401c43 0 65 -23 65 -66v-38c0 -31 -5 -53 -19 -81l-248 -486c-17 -34 -41 -48 -77 -48h-81c-51 0 -70 32 -47 77z" />
    <glyph glyph-name="eight" unicode="8" horiz-adv-x="607" 
d="M26 204c0 87 71 150 103 174c-46 36 -75 78 -75 140c0 103 77 213 246 213c141 0 260 -76 260 -203c0 -76 -46 -132 -75 -163c56 -35 95 -87 95 -156c0 -105 -86 -221 -276 -221c-192 0 -278 118 -278 216zM339 438c13 17 23 34 23 59c0 37 -18 59 -58 59
c-38 0 -50 -20 -50 -43c0 -34 26 -53 85 -75zM232 234c0 -40 23 -71 73 -71c42 0 64 23 64 54c0 27 -19 43 -110 80c-21 -21 -27 -44 -27 -63z" />
    <glyph glyph-name="nine" unicode="9" horiz-adv-x="606" 
d="M25 470c0 117 84 261 252 261c141 0 302 -101 302 -339c0 -214 -130 -404 -356 -404c-33 0 -80 4 -105 11c-41 12 -53 43 -41 82l18 57c15 47 37 50 75 45c17 -2 24 -3 38 -3c71 0 109 27 135 81h-2s-36 -19 -92 -19c-146 0 -224 118 -224 228zM231 482
c0 -25 9 -77 91 -77c26 0 41 5 41 37c0 57 -40 102 -81 102c-30 0 -51 -24 -51 -62z" />
    <glyph glyph-name="colon" unicode=":" horiz-adv-x="285" 
d="M112 327c-43 0 -66 22 -66 65v62c0 43 23 65 66 65h62c43 0 65 -22 65 -65v-62c0 -43 -22 -65 -65 -65h-62zM46 65v62c0 43 23 66 66 66h62c43 0 65 -23 65 -66v-62c0 -42 -22 -65 -65 -65h-62c-43 0 -66 23 -66 65z" />
    <glyph glyph-name="semicolon" unicode=";" horiz-adv-x="298" 
d="M150 328c-43 0 -66 22 -66 65v61c0 43 23 65 66 65h53c43 0 66 -22 66 -65v-61c0 -43 -23 -65 -66 -65h-53zM25 -32l38 169c9 38 32 58 71 58h58c48 0 69 -30 52 -75l-64 -172c-14 -36 -37 -53 -75 -53h-22c-45 0 -68 27 -58 73z" />
    <glyph glyph-name="less" unicode="&#x3c;" horiz-adv-x="638" 
d="M99 204c-34 14 -50 38 -50 76v17c0 38 16 61 50 76l396 175c45 20 76 0 76 -49v-34c0 -36 -17 -61 -51 -74l-266 -102v-2l266 -100c34 -13 51 -38 51 -75v-33c0 -50 -31 -70 -76 -50z" />
    <glyph glyph-name="equal" unicode="=" horiz-adv-x="638" 
d="M125 335c-43 0 -66 23 -66 66v24c0 42 23 65 66 65h389c42 0 65 -23 65 -65v-24c0 -43 -23 -66 -65 -66h-389zM125 86c-43 0 -66 23 -66 66v23c0 43 23 66 66 66h389c42 0 65 -23 65 -66v-23c0 -43 -23 -66 -65 -66h-389z" />
    <glyph glyph-name="greater" unicode="&#x3e;" horiz-adv-x="638" 
d="M67 79v33c0 37 17 62 51 75l266 100v2l-266 102c-34 13 -51 38 -51 74v34c0 50 31 70 76 50l396 -176c34 -15 50 -38 50 -76v-17c0 -38 -16 -61 -50 -76l-396 -174c-45 -20 -76 0 -76 49z" />
    <glyph glyph-name="question" unicode="?" horiz-adv-x="497" 
d="M168 234c-43 0 -65 22 -65 65v5c0 90 151 143 151 203c0 27 -22 40 -47 40c-9 0 -25 -3 -39 -9c-37 -18 -75 -18 -97 15l-30 44c-23 35 -24 63 11 86c39 25 96 52 174 52c111 0 244 -65 244 -203c0 -148 -142 -189 -167 -249l-3 -8c-9 -32 -25 -41 -62 -41h-70zM110 65
v44c0 43 22 65 65 65h55c42 0 65 -22 65 -65v-44c0 -42 -23 -65 -65 -65h-55c-43 0 -65 23 -65 65z" />
    <glyph glyph-name="at" unicode="@" horiz-adv-x="856" 
d="M32 238c0 213 163 379 420 379c214 0 302 -116 302 -257v-159h10c43 0 65 -22 65 -65v-10c0 -42 -22 -65 -65 -65h-223c-161 0 -236 92 -236 178c0 84 71 171 236 171h22c0 36 -72 51 -108 51c-147 0 -230 -120 -230 -229c0 -95 62 -175 184 -205c29 -7 63 -16 63 -68
v-25c0 -51 -28 -63 -68 -62c-124 3 -372 104 -372 366zM505 244c0 -23 15 -43 48 -43h10v87h-8c-35 0 -50 -21 -50 -44z" />
    <glyph glyph-name="A" unicode="A" horiz-adv-x="671" 
d="M12 75l195 591c12 36 35 53 74 53h109c38 0 62 -17 74 -53l195 -591c16 -45 -6 -75 -53 -75h-81c-39 0 -62 18 -74 55l-15 70h-203l-15 -70c-10 -37 -34 -55 -72 -55h-81c-47 0 -69 30 -53 75zM281 292h107l-22 100c-13 49 -30 133 -30 133h-2s-16 -84 -29 -133z" />
    <glyph glyph-name="B" unicode="B" horiz-adv-x="635" 
d="M55 65v589c0 43 23 65 66 65h205c154 0 261 -63 261 -190c0 -56 -27 -120 -81 -152v-2c85 -27 110 -101 110 -157c0 -166 -143 -218 -293 -218h-202c-43 0 -66 23 -66 65zM266 452h63c34 0 48 29 48 49c0 24 -14 48 -52 48h-59v-97zM266 170h75c42 0 64 30 64 58
c0 26 -20 56 -63 56h-76v-114z" />
    <glyph glyph-name="C" unicode="C" horiz-adv-x="693" 
d="M24 360c0 209 157 371 383 371c105 0 181 -35 227 -65c33 -24 36 -56 14 -91l-30 -50c-22 -37 -52 -41 -89 -19c-34 19 -74 33 -112 33c-133 0 -175 -92 -175 -174c0 -85 48 -185 174 -185c45 0 90 19 125 43c36 24 67 23 91 -13l35 -48c22 -33 21 -67 -12 -91
c-49 -38 -132 -83 -249 -83c-235 0 -382 158 -382 372z" />
    <glyph glyph-name="D" unicode="D" horiz-adv-x="719" 
d="M55 65v589c0 43 23 65 66 65h197c230 0 375 -132 375 -358c0 -225 -145 -361 -375 -361h-197c-43 0 -66 23 -66 65zM266 180h45c104 0 164 62 164 181s-64 178 -164 178h-45v-359z" />
    <glyph glyph-name="E" unicode="E" horiz-adv-x="556" 
d="M55 65v589c0 43 23 65 66 65h335c42 0 65 -22 65 -65v-50c0 -42 -23 -65 -65 -65h-190v-87h136c43 0 66 -23 66 -65v-50c0 -43 -23 -65 -66 -65h-136v-92h202c43 0 66 -23 66 -65v-50c0 -42 -23 -65 -66 -65h-347c-43 0 -66 23 -66 65z" />
    <glyph glyph-name="F" unicode="F" horiz-adv-x="527" 
d="M55 65v589c0 43 23 65 66 65h330c43 0 65 -22 65 -65v-50c0 -42 -22 -65 -65 -65h-185v-111h139c43 0 66 -23 66 -66v-49c0 -43 -23 -65 -66 -65h-139v-183c0 -42 -22 -65 -65 -65h-80c-43 0 -66 23 -66 65z" />
    <glyph glyph-name="G" unicode="G" horiz-adv-x="760" 
d="M24 354c0 222 159 377 384 377c112 0 203 -41 232 -62c36 -26 40 -52 17 -90l-31 -50c-23 -36 -51 -38 -91 -18c-34 16 -62 28 -113 28c-134 0 -180 -84 -180 -172c0 -119 86 -187 178 -187c89 0 121 43 121 43v25h-29c-43 0 -65 23 -65 66v48c0 43 22 65 65 65h149
c43 0 66 -22 66 -65v-297c0 -42 -23 -65 -66 -65h-39c-43 0 -65 23 -65 50v-9c0 3 1 4 1 4h-2s-58 -57 -177 -57c-181 0 -355 135 -355 366z" />
    <glyph glyph-name="H" unicode="H" horiz-adv-x="742" 
d="M55 65v589c0 43 23 65 66 65h80c43 0 65 -22 65 -65v-209h210v209c0 43 23 65 65 65h81c42 0 65 -22 65 -65v-589c0 -42 -23 -65 -65 -65h-81c-42 0 -65 23 -65 65v201h-210v-201c0 -42 -22 -65 -65 -65h-80c-43 0 -66 23 -66 65z" />
    <glyph glyph-name="I" unicode="I" horiz-adv-x="321" 
d="M55 65v589c0 43 23 65 66 65h80c43 0 65 -22 65 -65v-589c0 -42 -22 -65 -65 -65h-80c-43 0 -66 23 -66 65z" />
    <glyph glyph-name="J" unicode="J" horiz-adv-x="563" 
d="M6 214c0 51 18 74 65 74h82c51 0 54 -22 61 -60c5 -25 20 -48 48 -48c26 0 40 20 40 53v306h-133c-43 0 -65 23 -65 65v50c0 43 22 65 65 65h279c43 0 65 -22 65 -65v-426c0 -159 -127 -240 -251 -240c-131 0 -256 90 -256 226z" />
    <glyph glyph-name="K" unicode="K" horiz-adv-x="680" 
d="M55 65v589c0 43 23 65 66 65h80c43 0 65 -22 65 -65v-201h56l109 219c18 33 42 47 78 47h82c52 0 71 -33 47 -78l-144 -267v-2l155 -293c25 -46 6 -79 -46 -79h-94c-36 0 -60 14 -78 47l-109 227h-56v-209c0 -42 -22 -65 -65 -65h-80c-43 0 -66 23 -66 65z" />
    <glyph glyph-name="L" unicode="L" horiz-adv-x="551" 
d="M55 65v589c0 43 23 65 66 65h80c43 0 65 -22 65 -65v-474h215c43 0 66 -23 66 -65v-50c0 -42 -23 -65 -66 -65h-360c-43 0 -66 23 -66 65z" />
    <glyph glyph-name="M" unicode="M" horiz-adv-x="867" 
d="M36 68l48 588c4 42 27 63 68 63h115c38 0 63 -17 73 -54l56 -210c14 -51 37 -147 37 -147h2s22 97 36 147l56 210c10 37 35 54 73 54h115c42 0 65 -21 68 -63l48 -588c4 -43 -19 -68 -62 -68h-77c-42 0 -66 21 -68 63l-11 201c-3 60 1 163 1 163h-2s-29 -114 -41 -163
l-26 -102c-13 -36 -37 -52 -75 -52h-73c-38 0 -61 16 -74 52l-26 102c-13 50 -41 162 -41 162h-2s5 -102 1 -162l-12 -201c-3 -42 -26 -63 -67 -63h-79c-42 0 -65 25 -61 68z" />
    <glyph glyph-name="N" unicode="N" horiz-adv-x="733" 
d="M55 65v589c0 43 23 65 66 65h96c37 0 61 -13 78 -44l118 -231c29 -52 61 -132 61 -132h2s-9 84 -9 132v210c0 43 22 65 65 65h80c43 0 66 -22 66 -65v-589c0 -42 -23 -65 -66 -65h-96c-36 0 -60 13 -77 44l-119 230c-29 51 -61 131 -61 131h-2s9 -83 9 -131v-209
c0 -42 -22 -65 -65 -65h-80c-43 0 -66 23 -66 65z" />
    <glyph glyph-name="O" unicode="O" horiz-adv-x="807" 
d="M24 364c0 206 151 367 379 367s380 -161 380 -367c0 -211 -152 -376 -380 -376s-379 165 -379 376zM242 364c0 -105 66 -184 161 -184c96 0 162 79 162 184c0 100 -66 175 -162 175c-95 0 -161 -75 -161 -175z" />
    <glyph glyph-name="P" unicode="P" horiz-adv-x="620" 
d="M55 65v589c0 43 23 65 66 65h249c144 0 239 -109 239 -257c0 -149 -95 -260 -239 -260h-104v-137c0 -42 -22 -65 -65 -65h-80c-43 0 -66 23 -66 65zM266 382h59c50 0 70 36 70 80s-20 77 -66 77h-63v-157z" />
    <glyph glyph-name="Q" unicode="Q" horiz-adv-x="807" 
d="M24 362c0 208 152 369 379 369s380 -162 380 -363c0 -84 -27 -145 -64 -204l17 -13c34 -26 38 -59 9 -91l-31 -35c-32 -36 -60 -31 -86 -8l-26 22c-57 -33 -123 -51 -198 -51c-227 0 -380 165 -380 374zM242 363c0 -103 68 -186 175 -186c12 0 25 2 33 5l-16 13
c-27 22 -41 59 -13 90l31 34c27 30 53 30 84 4l25 -21c3 19 5 45 5 58c0 107 -70 179 -163 179c-95 0 -161 -75 -161 -176z" />
    <glyph glyph-name="R" unicode="R" horiz-adv-x="643" 
d="M55 65v589c0 43 23 65 66 65h195c66 0 111 -4 143 -15c81 -27 141 -110 141 -216c0 -73 -30 -158 -100 -201v-2s16 -18 32 -46l90 -160c28 -50 3 -79 -45 -79h-93c-31 0 -59 12 -77 46l-91 176h-50v-157c0 -42 -22 -65 -65 -65h-80c-43 0 -66 23 -66 65zM266 402h45
c50 0 75 22 75 76c0 19 -3 41 -32 53c-16 7 -33 8 -56 8h-32v-137z" />
    <glyph glyph-name="S" unicode="S" horiz-adv-x="578" 
d="M54 58c-25 19 -44 45 -13 90l38 55c24 35 51 37 90 16c23 -9 63 -41 119 -41c41 0 53 15 53 32c0 76 -304 61 -304 291c0 138 114 230 267 230c83 0 163 -27 200 -52c35 -25 38 -55 21 -90l-29 -57c-24 -47 -56 -39 -89 -23c-36 16 -63 32 -106 32c-40 0 -54 -14 -54 -33
c0 -82 305 -56 305 -287c0 -124 -94 -233 -264 -233c-99 0 -193 38 -234 70z" />
    <glyph glyph-name="T" unicode="T" horiz-adv-x="631" 
d="M210 65v474h-140c-42 0 -65 23 -65 65v50c0 43 23 65 65 65h491c42 0 65 -22 65 -65v-50c0 -42 -23 -65 -65 -65h-140v-474c0 -42 -23 -65 -65 -65h-81c-42 0 -65 23 -65 65z" />
    <glyph glyph-name="U" unicode="U" horiz-adv-x="716" 
d="M49 269v385c0 43 23 65 65 65h81c42 0 65 -22 65 -65v-385c0 -60 39 -89 98 -89c60 0 99 29 99 88v386c0 43 22 65 65 65h80c43 0 65 -22 65 -65v-385c0 -163 -121 -281 -308 -281c-189 0 -310 118 -310 281z" />
    <glyph glyph-name="V" unicode="V" horiz-adv-x="681" 
d="M212 52l-205 592c-16 45 5 75 53 75h93c39 0 63 -18 73 -55l87 -309c14 -48 27 -123 27 -123h2s12 75 27 123l88 309c11 37 35 55 74 55h89c48 0 69 -30 53 -75l-204 -592c-13 -35 -37 -52 -75 -52h-107c-38 0 -62 17 -75 52z" />
    <glyph glyph-name="W" unicode="W" horiz-adv-x="999" 
d="M161 57l-139 590c-11 45 11 72 57 72h87c40 0 63 -19 72 -58l62 -355c6 -37 7 -75 7 -75h2s1 38 10 75l82 356c10 38 33 57 73 57h50c39 0 63 -19 71 -57l79 -356c8 -38 10 -75 10 -75h2s0 38 7 75l70 356c8 38 32 57 73 57h84c46 0 67 -27 57 -72l-147 -591
c-10 -38 -34 -56 -73 -56h-117c-39 0 -63 19 -72 57l-60 259c-8 36 -11 76 -11 76h-1s-1 -40 -10 -76l-61 -259c-9 -38 -33 -57 -72 -57h-119c-40 0 -63 19 -73 57z" />
    <glyph glyph-name="X" unicode="X" horiz-adv-x="661" 
d="M39 79l167 272l-175 290c-27 45 -8 78 44 78h95c36 0 60 -14 78 -47l38 -79c25 -48 43 -96 43 -96h2s18 46 44 96l39 79c18 33 42 47 77 47h96c52 0 71 -33 44 -78l-176 -290l167 -272c28 -46 9 -79 -44 -79h-90c-35 0 -59 14 -77 47l-35 71c-26 48 -44 93 -44 93h-2
s-18 -45 -44 -92l-36 -72c-18 -33 -42 -47 -78 -47h-87c-54 0 -73 33 -46 79z" />
    <glyph glyph-name="Y" unicode="Y" horiz-adv-x="619" 
d="M204 65v225l-192 351c-26 45 -6 78 45 78h98c37 0 60 -15 76 -49l39 -95c22 -54 39 -118 39 -118h2s17 64 39 118l39 95c15 34 38 49 75 49h98c51 0 71 -33 45 -78l-192 -351v-225c0 -42 -23 -65 -65 -65h-81c-43 0 -65 23 -65 65z" />
    <glyph glyph-name="Z" unicode="Z" horiz-adv-x="626" 
d="M23 65v21c0 32 7 55 26 81l220 308c33 46 57 65 57 65v2s-25 -3 -56 -3h-171c-43 0 -65 23 -65 65v50c0 43 22 65 65 65h430c43 0 65 -22 65 -64v-19c0 -32 -7 -56 -26 -82l-221 -310c-33 -46 -57 -65 -57 -65v-2s25 3 56 3h189c42 0 65 -23 65 -65v-50
c0 -42 -23 -65 -65 -65h-447c-43 0 -65 23 -65 65z" />
    <glyph glyph-name="bracketleft" unicode="[" horiz-adv-x="348" 
d="M48 -30v721c0 43 23 66 66 66h153c42 0 65 -23 65 -66v-11c0 -42 -21 -65 -60 -65h-52v-568h47c42 0 65 -23 65 -66v-11c0 -42 -23 -65 -65 -65h-153c-43 0 -66 23 -66 65z" />
    <glyph glyph-name="backslash" unicode="\" horiz-adv-x="435" 
d="M242 11l-215 667c-15 46 7 75 55 75h36c39 0 63 -18 74 -54l216 -667c15 -46 -7 -74 -55 -74h-36c-39 0 -63 18 -75 53z" />
    <glyph glyph-name="bracketright" unicode="]" horiz-adv-x="348" 
d="M16 -19c0 43 23 66 66 66h46v568h-46c-43 0 -66 23 -66 65v11c0 43 23 66 66 66h152c43 0 66 -23 66 -66v-721c0 -42 -23 -65 -66 -65h-152c-43 0 -66 23 -66 65v11z" />
    <glyph glyph-name="asciicircum" unicode="^" horiz-adv-x="638" 
d="M136 238c-50 0 -70 31 -51 76l151 355c15 35 38 50 76 50h18c38 0 61 -15 76 -50l152 -355c19 -45 -2 -76 -52 -76h-32c-38 0 -63 17 -75 52l-78 224l-78 -224c-12 -35 -36 -52 -74 -52h-33z" />
    <glyph glyph-name="underscore" unicode="_" horiz-adv-x="611" 
d="M-6 -65c0 42 23 65 66 65h492c43 0 65 -23 65 -65v-24c0 -43 -22 -65 -65 -65h-492c-43 0 -66 22 -66 65v24z" />
    <glyph glyph-name="grave" unicode="`" horiz-adv-x="477" 
d="M272 764c-34 0 -57 13 -79 39l-35 42c-35 42 -23 80 33 80h54c36 0 59 -15 77 -47l23 -43c18 -35 14 -71 -29 -71h-44z" />
    <glyph glyph-name="a" unicode="a" horiz-adv-x="547" 
d="M11 148c0 122 148 167 286 167h10v17c0 25 -29 32 -56 32c-25 0 -56 -8 -83 -19c-40 -17 -69 -9 -88 30l-14 30c-17 37 -10 70 27 87c44 20 105 39 178 39c149 0 244 -83 244 -216v-250c0 -42 -22 -65 -65 -65h-59c-41 0 -62 24 -65 69h-2c-28 -43 -69 -81 -146 -81
c-104 0 -167 74 -167 160zM200 166c0 -15 11 -34 41 -34c38 0 68 29 68 68v10h-11c-57 0 -98 -16 -98 -44z" />
    <glyph glyph-name="b" unicode="b" horiz-adv-x="630" 
d="M40 65v589c0 43 23 65 66 65h78c42 0 65 -22 65 -65v-130c0 -33 -2 -55 -2 -55h2s38 62 132 62c135 0 232 -111 232 -268c0 -168 -107 -275 -240 -275c-49 0 -113 14 -140 71h-2c-3 -35 -25 -59 -65 -59h-60c-43 0 -66 23 -66 65zM243 262c0 -58 28 -103 78 -103
c46 0 83 34 83 97c0 59 -33 101 -80 101c-42 0 -81 -34 -81 -95z" />
    <glyph glyph-name="c" unicode="c" horiz-adv-x="529" 
d="M15 260c0 133 97 271 295 271c75 0 130 -20 165 -42c34 -21 36 -55 15 -89l-20 -31c-23 -36 -49 -38 -88 -20c-19 8 -39 10 -58 10c-73 0 -98 -55 -98 -96s27 -103 105 -103c22 0 51 8 77 21c40 21 69 16 89 -23l15 -30c18 -36 14 -69 -18 -90c-39 -24 -102 -50 -184 -50
c-196 0 -295 135 -295 272z" />
    <glyph glyph-name="d" unicode="d" horiz-adv-x="630" 
d="M17 261c0 157 91 270 244 270c96 0 119 -44 119 -44h2s-1 12 -1 28v139c0 43 23 65 66 65h78c43 0 65 -22 65 -65v-589c0 -42 -22 -65 -65 -65h-64c-41 0 -63 22 -66 63h-1c-28 -53 -84 -75 -145 -75c-136 0 -232 111 -232 273zM226 259c0 -60 33 -100 81 -100
c42 0 80 32 80 98c0 57 -29 100 -79 100c-45 0 -82 -34 -82 -98z" />
    <glyph glyph-name="e" unicode="e" horiz-adv-x="554" 
d="M16 260c0 147 98 271 275 271c159 0 247 -110 247 -243c0 -31 -28 -68 -69 -68h-242c17 -45 58 -60 97 -60c25 0 54 5 81 17c39 17 68 12 88 -26l16 -31c19 -38 13 -70 -23 -90c-41 -21 -102 -42 -180 -42c-196 0 -290 141 -290 272zM229 325h108c3 32 -14 65 -48 65
c-45 0 -58 -34 -60 -65z" />
    <glyph glyph-name="f" unicode="f" horiz-adv-x="386" 
d="M82 65v282h-4c-43 0 -65 23 -65 65v31c0 43 22 65 65 65h4v26c0 166 177 189 232 189h19c43 0 65 -23 65 -66v-45c0 -42 -22 -60 -64 -65c-17 -2 -43 -4 -43 -25v-14h18c43 0 65 -22 65 -65v-31c0 -42 -22 -65 -65 -65h-18v-282c0 -42 -23 -65 -66 -65h-78
c-42 0 -65 23 -65 65z" />
    <glyph glyph-name="g" unicode="g" horiz-adv-x="621" 
d="M103 -67c18 47 39 49 83 39c30 -7 39 -11 74 -11c65 0 113 14 113 80v40h-2c-22 -41 -58 -62 -120 -62c-158 0 -233 134 -233 259s75 253 236 253c117 0 138 -68 138 -68h1c2 32 25 56 66 56h57c43 0 65 -22 65 -65v-395c0 -198 -162 -269 -302 -269
c-57 0 -125 12 -153 23c-43 16 -49 48 -36 84zM305 191c32 0 73 14 73 85c0 70 -40 83 -75 83c-57 0 -76 -35 -76 -77c0 -40 18 -91 78 -91z" />
    <glyph glyph-name="h" unicode="h" horiz-adv-x="614" 
d="M373 65v229c0 37 -17 49 -46 49c-65 0 -78 -60 -78 -114v-164c0 -42 -23 -65 -65 -65h-78c-43 0 -66 23 -66 65v589c0 43 23 65 66 65h78c42 0 65 -22 65 -65v-149c0 -27 -2 -45 -2 -45h2c33 51 89 71 144 71c94 0 189 -40 189 -192v-274c0 -42 -23 -65 -65 -65h-78
c-43 0 -66 23 -66 65z" />
    <glyph glyph-name="i" unicode="i" horiz-adv-x="285" 
d="M107 567c-43 0 -65 23 -65 66v21c0 43 22 65 65 65h71c42 0 65 -22 65 -65v-21c0 -43 -23 -66 -65 -66h-71zM38 65v389c0 43 23 65 65 65h78c43 0 66 -22 66 -65v-389c0 -42 -23 -65 -66 -65h-78c-42 0 -65 23 -65 65z" />
    <glyph glyph-name="j" unicode="j" horiz-adv-x="289" 
d="M109 567c-43 0 -65 23 -65 66v21c0 43 22 65 65 65h71c43 0 65 -22 65 -65v-21c0 -43 -22 -66 -65 -66h-71zM40 11v443c0 43 23 65 66 65h78c42 0 65 -22 65 -65v-460c0 -168 -177 -203 -230 -203h-21c-43 0 -65 23 -65 66v42c0 53 34 60 65 65c24 4 42 18 42 47z" />
    <glyph glyph-name="k" unicode="k" horiz-adv-x="594" 
d="M40 65v589c0 43 23 65 66 65h78c42 0 65 -22 65 -65v-298h38l60 119c17 31 41 44 77 44h80c53 0 71 -34 43 -78l-93 -161v-2l117 -200c27 -45 9 -78 -44 -78h-92c-35 0 -59 14 -77 47l-65 136h-44v-118c0 -42 -23 -65 -65 -65h-78c-43 0 -66 23 -66 65z" />
    <glyph glyph-name="l" unicode="l" horiz-adv-x="322" 
d="M38 214v440c0 43 23 65 66 65h78c42 0 65 -22 65 -65v-433c0 -31 7 -42 21 -44c28 -3 46 -20 46 -55v-61c0 -40 -19 -66 -66 -66c-105 0 -210 25 -210 219z" />
    <glyph glyph-name="m" unicode="m" horiz-adv-x="879" 
d="M639 65v241c0 25 -13 36 -31 36c-59 0 -61 -72 -61 -132v-145c0 -42 -22 -65 -65 -65h-78c-43 0 -65 23 -65 65v241c0 25 -13 36 -31 36c-59 0 -61 -72 -61 -132v-145c0 -42 -23 -65 -66 -65h-78c-42 0 -65 23 -65 65v389c0 43 23 65 65 65h69c36 0 64 -23 64 -73h2
c24 39 61 85 143 85c55 0 114 -23 140 -84h2c22 45 84 84 158 84c85 0 167 -44 167 -192v-274c0 -42 -22 -65 -65 -65h-78c-43 0 -66 23 -66 65z" />
    <glyph glyph-name="n" unicode="n" 
d="M38 65v389c0 43 23 65 65 65h69c43 0 64 -26 64 -73h2c28 52 70 85 154 85c93 0 188 -40 188 -192v-274c0 -42 -23 -65 -66 -65h-78c-42 0 -65 23 -65 65v229c0 37 -17 49 -46 49c-65 0 -78 -60 -78 -114v-164c0 -42 -23 -65 -66 -65h-78c-42 0 -65 23 -65 65z" />
    <glyph glyph-name="o" unicode="o" horiz-adv-x="632" 
d="M15 257c0 166 134 274 300 274c168 0 302 -108 302 -274c0 -164 -134 -269 -301 -269s-301 105 -301 269zM226 257c0 -64 42 -97 90 -97s91 33 91 97c0 65 -43 102 -91 102s-90 -37 -90 -102z" />
    <glyph glyph-name="p" unicode="p" horiz-adv-x="630" 
d="M40 -135v589c0 43 23 65 66 65h55c43 0 65 -22 65 -53v-14h2s38 79 149 79c142 0 236 -111 236 -272c0 -164 -105 -271 -244 -271c-92 0 -120 54 -120 54h-2s2 -22 2 -54v-123c0 -42 -23 -65 -65 -65h-78c-43 0 -66 23 -66 65zM243 255c0 -48 25 -96 81 -96
c42 0 80 34 80 96c0 61 -33 102 -81 102c-41 0 -80 -31 -80 -102z" />
    <glyph glyph-name="q" unicode="q" horiz-adv-x="630" 
d="M17 260c0 164 101 271 242 271c115 0 142 -72 142 -72h2v16c0 21 21 44 64 44h58c43 0 65 -22 65 -65v-589c0 -42 -22 -65 -65 -65h-78c-43 0 -66 23 -66 65v133c0 32 2 54 2 54h-2s-24 -64 -134 -64c-132 0 -230 111 -230 272zM226 260c0 -61 33 -101 81 -101
c42 0 80 30 80 101c0 49 -26 97 -81 97c-42 0 -80 -34 -80 -97z" />
    <glyph glyph-name="r" unicode="r" horiz-adv-x="423" 
d="M38 65v389c0 43 23 65 65 65h69c43 0 66 -22 66 -65v-20c0 -15 -2 -29 -2 -29h2c15 46 69 120 129 120c41 0 54 -23 54 -66v-68c0 -43 -22 -66 -64 -66c-74 0 -110 -53 -110 -129v-131c0 -42 -23 -65 -66 -65h-78c-42 0 -65 23 -65 65z" />
    <glyph glyph-name="s" unicode="s" horiz-adv-x="467" 
d="M51 31c-37 23 -40 55 -17 91l17 27c22 34 48 37 90 21c10 -4 47 -22 85 -22c22 0 30 9 30 20c0 44 -232 6 -232 188c0 116 101 175 225 175c64 0 125 -16 153 -30c36 -18 42 -52 24 -88l-14 -28c-9 -19 -24 -51 -85 -31c-26 8 -53 18 -82 18c-20 0 -28 -7 -28 -19
c0 -42 232 -4 232 -183c0 -104 -83 -182 -222 -182c-80 0 -149 26 -176 43z" />
    <glyph glyph-name="t" unicode="t" horiz-adv-x="418" 
d="M83 184v163h-6c-41 0 -64 23 -64 65v31c0 43 23 65 64 65h13v85c0 43 22 65 65 65h71c43 0 66 -22 66 -65v-85h36c43 0 66 -22 66 -65v-31c0 -42 -23 -65 -64 -65h-38v-124c0 -27 15 -43 43 -47c47 -7 64 -15 64 -60v-56c0 -49 -30 -65 -85 -65c-65 0 -231 24 -231 189z
" />
    <glyph glyph-name="u" unicode="u" horiz-adv-x="608" 
d="M242 454v-228c0 -37 17 -49 46 -49c61 0 73 60 73 114v163c0 43 23 65 66 65h78c42 0 65 -22 65 -65v-389c0 -42 -23 -65 -65 -65h-69c-43 0 -64 23 -64 57v16h-2c-29 -66 -88 -85 -150 -85c-94 0 -187 43 -187 192v274c0 43 23 65 66 65h78c42 0 65 -22 65 -65z" />
    <glyph glyph-name="v" unicode="v" horiz-adv-x="579" 
d="M144 54l-129 390c-16 45 5 75 53 75h83c38 0 62 -18 72 -55l45 -187c9 -35 20 -98 20 -98h2s10 61 19 98l43 187c11 37 35 55 73 55h85c48 0 69 -30 54 -75l-127 -390c-12 -37 -36 -54 -74 -54h-145c-39 0 -62 17 -74 54z" />
    <glyph glyph-name="w" unicode="w" horiz-adv-x="823" 
d="M117 56l-101 389c-11 46 10 74 56 74h84c41 0 63 -19 71 -58l33 -222c4 -24 3 -54 3 -54h2s3 30 7 54l40 223c8 38 32 58 71 58h59c40 0 63 -20 71 -58l41 -223c4 -24 5 -54 5 -54h2s0 30 4 54l33 222c9 39 31 58 71 58h82c46 0 67 -28 56 -74l-101 -389
c-10 -38 -34 -56 -72 -56h-118c-39 0 -63 19 -72 57l-22 140c-4 24 -8 55 -8 55h-2s-4 -31 -8 -55l-23 -140c-9 -38 -32 -57 -72 -57h-120c-38 0 -62 18 -72 56z" />
    <glyph glyph-name="x" unicode="x" horiz-adv-x="539" 
d="M35 78l112 185l-118 178c-28 44 -9 78 44 78h87c40 0 64 -18 76 -48l19 -49c8 -20 13 -40 13 -40h2s6 19 14 40l18 48c14 36 40 49 76 49h87c53 0 72 -34 44 -78l-117 -178l113 -185c28 -44 9 -78 -44 -78h-82c-43 0 -63 19 -74 47l-21 54c-6 15 -14 45 -14 45h-2
s-7 -30 -13 -45l-21 -54c-11 -28 -31 -47 -74 -47h-81c-54 0 -73 34 -44 78z" />
    <glyph glyph-name="y" unicode="y" horiz-adv-x="547" 
d="M34 -78c17 37 41 43 65 39c7 -1 15 -3 27 -3c27 0 53 21 62 46l3 8l-189 431c-20 45 0 76 50 76h97c39 0 66 -17 75 -54l36 -143c8 -29 16 -99 16 -99h2s11 71 16 100l25 140c7 39 34 56 73 56h90c48 0 69 -30 53 -75l-172 -483c-47 -133 -151 -171 -239 -171
c-26 0 -51 5 -73 11c-39 13 -49 47 -32 86z" />
    <glyph glyph-name="z" unicode="z" horiz-adv-x="536" 
d="M22 50v15c0 32 8 46 28 72l130 161c28 34 46 47 46 47v2s-11 -2 -43 -2h-89c-43 0 -66 23 -66 66v43c0 43 23 65 66 65h349c43 0 66 -17 66 -50v-15c0 -32 -9 -46 -29 -72l-128 -162c-27 -33 -48 -47 -48 -47v-2s12 3 45 3h98c42 0 65 -23 65 -65v-44
c0 -42 -23 -65 -65 -65h-360c-43 0 -65 17 -65 50z" />
    <glyph glyph-name="braceleft" unicode="{" horiz-adv-x="391" 
d="M100 55v99c0 37 -13 60 -31 74c-34 20 -54 33 -54 71v69c0 38 20 52 52 72c20 13 33 38 33 77v90c0 124 126 156 182 156h21c43 0 66 -22 66 -65v-24c0 -43 -23 -65 -66 -65c-18 0 -31 -6 -31 -29v-117c0 -103 -86 -127 -86 -127v-2s86 -20 86 -126v-126
c0 -22 13 -29 31 -29c43 0 66 -22 66 -65v-24c0 -43 -23 -65 -66 -65h-21c-56 0 -182 32 -182 156z" />
    <glyph glyph-name="bar" unicode="|" horiz-adv-x="266" 
d="M47 -102v843c0 43 23 66 66 66h40c43 0 66 -23 66 -66v-843c0 -43 -23 -66 -66 -66h-40c-43 0 -66 23 -66 66z" />
    <glyph glyph-name="braceright" unicode="}" horiz-adv-x="390" 
d="M22 -12c0 43 22 65 65 65c19 0 32 7 32 29v126c0 106 85 126 85 126v2s-85 24 -85 127v117c0 23 -13 29 -32 29c-43 0 -65 22 -65 65v24c0 43 22 65 65 65h22c56 0 181 -32 181 -156v-90c0 -39 13 -64 33 -77c32 -20 52 -34 52 -72v-69c0 -38 -21 -50 -53 -71
c-20 -13 -32 -37 -32 -74v-99c0 -124 -125 -156 -181 -156h-22c-43 0 -65 22 -65 65v24z" />
    <glyph glyph-name="asciitilde" unicode="~" horiz-adv-x="599" 
d="M87 185c-41 0 -62 20 -62 59c0 90 77 160 172 160c104 0 124 -72 177 -72c25 0 37 14 43 24c19 31 26 44 62 44h33c42 0 63 -19 63 -58c0 -89 -76 -161 -172 -161c-105 0 -124 72 -178 72c-23 0 -34 -11 -40 -21c-20 -34 -29 -47 -64 -47h-34z" />
    <glyph glyph-name="exclamdown" unicode="&#xa1;" horiz-adv-x="278" 
d="M163 285c41 0 64 -22 66 -64l16 -354c2 -38 -21 -67 -64 -67h-84c-38 0 -66 23 -64 67l15 354c2 42 25 64 66 64h49zM231 454v-44c0 -43 -22 -65 -65 -65h-54c-43 0 -66 22 -66 65v44c0 42 23 65 66 65h54c43 0 65 -23 65 -65z" />
    <glyph glyph-name="cent" unicode="&#xa2;" horiz-adv-x="575" 
d="M240 54v22c-111 31 -214 142 -214 284c0 141 103 253 214 284v20c0 43 19 66 62 66h5c43 0 62 -18 62 -49v-37c69 -16 147 -77 168 -119c19 -38 8 -68 -36 -84l-66 -26c-48 -19 -57 3 -74 22c-10 11 -23 19 -48 19c-28 0 -78 -31 -78 -101c0 -62 43 -91 76 -91
c30 0 44 12 56 26c15 18 29 32 68 17l66 -26c41 -16 55 -46 34 -85c-17 -36 -93 -112 -166 -120v-22c0 -43 -19 -66 -62 -66h-5c-43 0 -62 23 -62 66z" />
    <glyph glyph-name="sterling" unicode="&#xa3;" horiz-adv-x="617" 
d="M43 65v50c0 42 22 65 58 65v110h-5c-43 0 -59 20 -59 63v6c0 42 16 62 59 62h5v83c0 136 109 227 257 227c67 0 122 -26 159 -51c35 -23 34 -57 8 -91l-33 -42c-25 -33 -54 -32 -91 -13c-14 7 -26 9 -36 9c-21 0 -48 -14 -48 -44v-78h91c43 0 65 -20 65 -62v-6
c0 -43 -22 -63 -65 -63h-91v-110h208c43 0 66 -23 66 -65v-50c0 -42 -23 -65 -66 -65h-417c-43 0 -65 23 -65 65z" />
    <glyph glyph-name="yen" unicode="&#xa5;" horiz-adv-x="623" 
d="M105 152c-43 0 -65 16 -65 53v6c0 36 22 52 65 52h98v24l-23 50h-75c-43 0 -65 16 -65 52v6c0 37 18 53 54 53h33l-87 194c-21 46 -3 77 48 77h101c41 0 64 -17 72 -53l13 -53c15 -61 37 -163 37 -163h2s24 100 38 163l12 53c5 36 31 53 71 53h100c50 0 71 -30 49 -77
l-88 -194h24c42 0 65 -16 65 -53v-6c0 -36 -23 -52 -65 -52h-77l-23 -50v-24h100c42 0 65 -16 65 -52v-6c0 -37 -23 -53 -65 -53h-100v-87c0 -42 -23 -65 -66 -65h-85c-43 0 -65 23 -65 65v87h-98z" />
    <glyph glyph-name="section" unicode="&#xa7;" horiz-adv-x="538" 
d="M42 79l17 28c22 37 50 40 89 21c29 -14 57 -27 99 -27c66 0 97 32 97 94c0 40 -11 70 -64 189c-19 42 6 74 54 74h21c42 0 56 -17 74 -55c16 -34 72 -159 72 -253c0 -112 -80 -212 -247 -212c-91 0 -163 30 -194 52c-32 23 -39 49 -18 89zM498 590l-17 -28
c-22 -37 -50 -40 -89 -21c-29 14 -57 27 -99 27c-66 0 -97 -32 -97 -94c0 -40 11 -70 64 -189c19 -42 -6 -74 -54 -74h-21c-42 0 -56 17 -74 55c-16 34 -72 159 -72 253c0 112 80 212 247 212c91 0 163 -30 194 -52c32 -23 39 -49 18 -89z" />
    <glyph glyph-name="dieresis" unicode="&#xa8;" horiz-adv-x="478" 
d="M345 766c-43 0 -65 23 -65 66v27c0 43 22 66 65 66h17c43 0 65 -23 65 -66v-27c0 -43 -22 -66 -65 -66h-17zM116 766c-42 0 -65 23 -65 66v27c0 43 23 66 65 66h17c43 0 66 -23 66 -66v-27c0 -43 -23 -66 -66 -66h-17z" />
    <glyph glyph-name="copyright" unicode="&#xa9;" horiz-adv-x="784" 
d="M29 360c0 205 162 370 363 370c200 0 363 -165 363 -370c0 -204 -162 -372 -363 -372c-202 0 -363 168 -363 372zM161 360c0 -140 100 -252 231 -252c130 0 233 112 233 252c0 139 -102 250 -234 250s-230 -111 -230 -250zM229 357c0 106 79 180 168 180
c57 0 103 -31 123 -61c19 -30 8 -53 -6 -65l-22 -18c-9 -7 -19 -10 -27 -10c-28 0 -36 32 -63 32c-23 0 -41 -23 -41 -63c0 -42 20 -55 41 -55c34 0 37 32 64 32c8 0 17 -3 26 -10l21 -18c28 -24 20 -47 5 -67c-20 -26 -62 -58 -121 -58c-89 0 -168 74 -168 181z" />
    <glyph glyph-name="ordfeminine" unicode="&#xaa;" horiz-adv-x="386" 
d="M129 386c-56 0 -100 39 -100 96c0 101 133 109 177 109h3v14c0 19 -16 24 -35 24c-13 0 -28 -3 -37 -5c-38 -9 -57 -8 -67 22l-4 12c-7 20 -4 44 42 59c18 6 52 12 86 12c103 0 154 -56 154 -139v-134c0 -43 -20 -65 -57 -65h-3c-37 0 -57 20 -57 64h-2s-25 -69 -100 -69
zM169 480c21 0 39 22 39 40v14h-10c-44 0 -56 -15 -56 -32c0 -13 9 -22 27 -22zM99 269c-43 0 -65 14 -65 47v6c0 32 22 45 65 45h188c43 0 66 -13 66 -45v-6c0 -33 -23 -47 -66 -47h-188z" />
    <glyph glyph-name="guillemotleft" unicode="&#xab;" horiz-adv-x="636" 
d="M335 236c-25 31 -25 61 0 92l96 122c21 27 45 38 80 38h36c55 0 73 -37 38 -80l-100 -126l100 -125c34 -43 21 -80 -30 -80h-44c-35 0 -59 11 -80 38zM144 115l-96 121c-25 31 -25 61 0 92l96 122c21 26 45 38 80 38h36c55 0 73 -37 38 -80l-100 -126l100 -125
c34 -43 21 -80 -30 -80h-44c-35 0 -59 12 -80 38z" />
    <glyph glyph-name="logicalnot" unicode="&#xac;" horiz-adv-x="608" 
d="M91 335c-43 0 -65 23 -65 66v24c0 42 22 65 65 65h389c43 0 65 -23 65 -65v-236c0 -43 -22 -66 -65 -66h-30c-43 0 -65 23 -65 66v146h-294z" />
    <glyph glyph-name="registered" unicode="&#xae;" horiz-adv-x="784" 
d="M29 360c0 205 163 370 361 370c203 0 365 -165 365 -370c0 -204 -162 -372 -365 -372c-198 0 -361 168 -361 372zM161 360c0 -140 100 -252 229 -252c133 0 235 112 235 252c0 139 -102 250 -235 250c-129 0 -229 -111 -229 -250zM257 262v202c0 43 22 66 65 66h106
c74 0 118 -45 118 -110c0 -55 -38 -86 -47 -89v-2s7 -8 13 -20l18 -35c23 -45 11 -77 -29 -77h-18c-38 0 -60 15 -71 50l-18 55h-12v-40c0 -42 -19 -65 -60 -65h-5c-42 0 -60 23 -60 65zM382 383h11c21 0 36 11 36 32c0 22 -15 31 -33 31h-14v-63z" />
    <glyph glyph-name="macron" unicode="&#xaf;" horiz-adv-x="478" 
d="M162 781c-43 0 -65 19 -65 61v9c0 43 22 62 65 62h154c43 0 66 -19 66 -62v-9c0 -42 -23 -61 -66 -61h-154z" />
    <glyph glyph-name="degree" unicode="&#xb0;" horiz-adv-x="420" 
d="M210 368c-109 0 -195 80 -195 183c0 100 86 184 195 184c108 0 195 -84 195 -184c0 -103 -87 -183 -195 -183zM210 509c25 0 46 19 46 43c0 22 -21 42 -46 42c-24 0 -46 -20 -46 -42c0 -24 22 -43 46 -43z" />
    <glyph glyph-name="plusminus" unicode="&#xb1;" horiz-adv-x="638" 
d="M107 211c-42 0 -65 22 -65 65v24c0 43 23 65 65 65h131v147c0 43 23 65 66 65h30c43 0 66 -22 66 -65v-147h131c43 0 65 -22 65 -65v-24c0 -43 -22 -65 -65 -65h-131v-146c0 -42 -23 -65 -66 -65h-30c-43 0 -66 23 -66 65v146h-131zM115 -58h409c42 0 65 -23 65 -66v-23
c0 -43 -23 -66 -65 -66h-409c-43 0 -66 23 -66 66v23c0 43 23 66 66 66z" />
    <glyph glyph-name="twosuperior" unicode="&#xb2;" horiz-adv-x="390" 
d="M82 423c-48 0 -65 24 -65 70c0 155 193 179 193 232c0 13 -12 20 -27 20c-9 0 -18 -3 -27 -8c-36 -20 -66 -30 -91 -2l-8 9c-27 31 -33 57 -2 84c25 21 72 48 132 48c74 0 174 -39 174 -142c0 -132 -163 -157 -176 -183h116c43 0 65 -19 65 -61v-7c0 -41 -22 -60 -65 -60
h-219z" />
    <glyph glyph-name="threesuperior" unicode="&#xb3;" horiz-adv-x="370" 
d="M166 413c-51 0 -91 13 -119 30c-21 12 -30 27 -30 44c0 12 4 25 13 39l5 9c13 21 26 30 43 30c26 0 34 -17 78 -17c30 0 40 13 40 27c0 19 -19 25 -41 25h-4c-29 0 -44 5 -56 26c-3 6 -5 16 -5 22c0 17 13 33 31 52l13 14c8 9 30 24 30 24v2s-27 -3 -38 -3h-35
c-43 0 -65 19 -65 62v7c0 41 22 60 65 60h174c43 0 65 -17 65 -46v-8c0 -31 -7 -51 -31 -74l-54 -50c75 -21 102 -65 102 -115c0 -77 -57 -160 -181 -160z" />
    <glyph glyph-name="acute" unicode="&#xb4;" horiz-adv-x="477" 
d="M169 764c-43 0 -60 33 -38 72l23 42c18 32 42 47 77 47h54c56 0 68 -37 33 -80l-35 -42c-22 -26 -45 -39 -79 -39h-35z" />
    <glyph glyph-name="mu" unicode="&#xb5;" horiz-adv-x="638" 
d="M48 -135v589c0 43 23 65 66 65h78c42 0 65 -22 65 -65v-237c0 -38 21 -40 37 -40c59 0 82 52 82 118v159c0 43 23 65 66 65h78c42 0 65 -22 65 -65v-389c0 -42 -23 -65 -65 -65h-69c-41 0 -67 30 -64 74h-2c-25 -51 -70 -82 -131 -82c-12 0 -26 1 -39 4h-2
s11 -62 11 -109v-22c0 -42 -23 -65 -65 -65h-45c-43 0 -66 23 -66 65z" />
    <glyph glyph-name="paragraph" unicode="&#xb6;" horiz-adv-x="691" 
d="M256 15v226c-129 0 -231 105 -231 240c0 136 103 238 232 238h331c43 0 66 -22 66 -65v-50c0 -42 -23 -65 -66 -65h-190v-524c0 -42 -23 -65 -66 -65h-10c-43 0 -66 23 -66 65zM460 15v412c0 43 22 66 65 66h10c43 0 66 -23 66 -66v-412c0 -42 -23 -65 -66 -65h-10
c-43 0 -65 23 -65 65z" />
    <glyph glyph-name="periodcentered" unicode="&#xb7;" horiz-adv-x="257" 
d="M102 202c-43 0 -66 22 -66 65v61c0 43 23 65 66 65h53c43 0 66 -22 66 -65v-61c0 -43 -23 -65 -66 -65h-53z" />
    <glyph glyph-name="cedilla" unicode="&#xb8;" horiz-adv-x="477" 
d="M166 -37l21 61h89l-13 -53c40 -4 77 -26 77 -84c0 -76 -65 -99 -124 -99c-31 0 -70 7 -70 47c0 36 16 49 27 49s20 -1 24 -1c15 0 20 9 20 20c0 15 -16 19 -38 20c-19 1 -21 16 -13 40z" />
    <glyph glyph-name="onesuperior" unicode="&#xb9;" horiz-adv-x="354" 
d="M88 423c-43 0 -65 19 -65 60v7c0 42 18 61 52 61h35v93c0 21 3 35 3 35h-2s-3 -4 -5 -6c-11 -11 -33 -8 -47 6l-20 20c-28 28 -22 60 9 89l50 46c25 23 48 32 81 32h15c43 0 66 -23 66 -65v-250h24c42 0 65 -19 65 -61v-7c0 -41 -23 -60 -65 -60h-196z" />
    <glyph glyph-name="ordmasculine" unicode="&#xba;" horiz-adv-x="428" 
d="M213 386c-102 0 -187 66 -187 171s85 172 186 172c105 0 190 -67 190 -172s-85 -171 -189 -171zM213 507c25 0 47 16 47 50c0 32 -22 52 -47 52c-24 0 -46 -20 -46 -52c0 -34 22 -50 46 -50zM103 269c-43 0 -65 14 -65 47v6c0 32 22 45 65 45h220c42 0 65 -13 65 -45v-6
c0 -33 -23 -47 -65 -47h-220z" />
    <glyph glyph-name="guillemotright" unicode="&#xbb;" horiz-adv-x="637" 
d="M339 157l100 125l-100 126c-35 44 -22 80 29 80h45c34 0 58 -12 79 -38l97 -122c25 -31 25 -61 0 -92l-97 -121c-21 -26 -45 -38 -79 -38h-36c-56 0 -72 37 -38 80zM90 77c-56 0 -73 37 -38 80l100 125l-100 126c-35 44 -22 80 29 80h45c34 0 58 -12 79 -38l97 -122
c24 -31 24 -61 0 -92l-97 -121c-21 -26 -45 -38 -79 -38h-36z" />
    <glyph glyph-name="onequarter" unicode="&#xbc;" horiz-adv-x="1024" 
d="M862 0c-43 0 -65 23 -65 65v13h-127c-43 0 -65 17 -65 50v16c0 31 7 43 23 71l107 185c18 31 42 43 78 43h66c43 0 65 -23 65 -65v-184c42 0 56 -19 56 -53v-7c0 -35 -14 -56 -56 -56v-13c0 -42 -22 -65 -65 -65h-17zM735 194h62v85c0 16 4 45 4 45h-2s-9 -29 -17 -44
l-47 -84v-2zM428 49c-16 -34 -39 -49 -76 -49h-20c-41 0 -52 31 -31 77l278 593c16 34 40 49 76 49h20c41 0 52 -31 31 -77zM100 277c-43 0 -65 19 -65 60v7c0 42 18 61 52 61h35v93c0 21 3 35 3 35h-2s-3 -4 -5 -6c-11 -11 -33 -8 -47 6l-20 20c-28 28 -22 60 9 89l50 46
c25 23 48 32 81 32h15c43 0 66 -23 66 -65v-250h24c42 0 65 -19 65 -61v-7c0 -41 -23 -60 -65 -60h-196z" />
    <glyph glyph-name="onehalf" unicode="&#xbd;" horiz-adv-x="1009" 
d="M698 0c-48 0 -65 24 -65 70c0 155 193 179 193 232c0 13 -12 20 -27 20c-9 0 -18 -3 -27 -8c-36 -20 -66 -30 -91 -2l-8 9c-27 31 -33 57 -2 84c25 21 72 48 132 48c74 0 174 -39 174 -142c0 -132 -163 -157 -176 -183h116c43 0 65 -19 65 -61v-7c0 -41 -22 -60 -65 -60
h-219zM428 49c-16 -34 -39 -49 -76 -49h-20c-41 0 -52 31 -31 77l278 593c16 34 40 49 76 49h20c41 0 52 -31 31 -77zM95 277c-43 0 -65 19 -65 60v7c0 42 18 61 52 61h35v93c0 21 3 35 3 35h-2s-3 -4 -5 -6c-11 -11 -33 -8 -47 6l-20 20c-28 28 -22 60 9 89l50 46
c25 23 48 32 81 32h15c43 0 66 -23 66 -65v-250h24c42 0 65 -19 65 -61v-7c0 -41 -23 -60 -65 -60h-196z" />
    <glyph glyph-name="threequarters" unicode="&#xbe;" horiz-adv-x="1026" 
d="M864 0c-43 0 -65 23 -65 65v13h-127c-43 0 -65 17 -65 50v16c0 31 7 43 23 71l107 185c18 31 42 43 78 43h66c43 0 65 -23 65 -65v-184c42 0 56 -19 56 -53v-7c0 -35 -14 -56 -56 -56v-13c0 -42 -22 -65 -65 -65h-17zM737 194h62v85c0 16 4 45 4 45h-2s-9 -29 -17 -44
l-47 -84v-2zM180 267c-51 0 -91 13 -119 30c-21 12 -30 27 -30 44c0 12 4 25 13 39l5 9c13 21 26 30 43 30c26 0 34 -17 78 -17c30 0 40 13 40 27c0 19 -19 25 -41 25h-4c-29 0 -44 5 -56 26c-3 6 -5 16 -5 22c0 17 13 33 31 52l13 14c8 9 30 24 30 24v2s-27 -3 -38 -3h-35
c-43 0 -65 19 -65 62v7c0 41 22 60 65 60h174c43 0 65 -17 65 -46v-8c0 -31 -7 -51 -31 -74l-54 -50c75 -21 102 -65 102 -115c0 -77 -57 -160 -181 -160zM429 49c-16 -34 -39 -49 -76 -49h-20c-41 0 -52 31 -31 77l278 593c16 34 40 49 76 49h20c41 0 52 -31 31 -77z" />
    <glyph glyph-name="questiondown" unicode="&#xbf;" horiz-adv-x="492" 
d="M324 285c43 0 65 -22 65 -65v-5c0 -90 -151 -143 -151 -203c0 -27 22 -40 47 -40c9 0 25 3 39 9c37 18 75 18 97 -15l30 -44c23 -35 24 -63 -11 -86c-39 -25 -96 -52 -174 -52c-111 0 -244 65 -244 203c0 148 142 189 167 249l3 8c9 32 25 41 62 41h70zM382 454v-44
c0 -43 -22 -65 -65 -65h-55c-42 0 -65 22 -65 65v44c0 42 23 65 65 65h55c43 0 65 -23 65 -65z" />
    <glyph glyph-name="Agrave" unicode="&#xc0;" horiz-adv-x="671" 
d="M12 75l195 591c12 36 35 53 74 53h109c38 0 62 -17 74 -53l195 -591c16 -45 -6 -75 -53 -75h-81c-39 0 -62 18 -74 55l-15 70h-203l-15 -70c-10 -37 -34 -55 -72 -55h-81c-47 0 -69 30 -53 75zM281 292h107l-22 100c-13 49 -30 133 -30 133h-2s-16 -84 -29 -133zM310 764
c-34 0 -57 13 -79 39l-35 42c-35 42 -23 80 33 80h54c36 0 59 -15 77 -47l23 -43c18 -35 14 -71 -29 -71h-44z" />
    <glyph glyph-name="Aacute" unicode="&#xc1;" horiz-adv-x="671" 
d="M12 75l195 591c12 36 35 53 74 53h109c38 0 62 -17 74 -53l195 -591c16 -45 -6 -75 -53 -75h-81c-39 0 -62 18 -74 55l-15 70h-203l-15 -70c-10 -37 -34 -55 -72 -55h-81c-47 0 -69 30 -53 75zM281 292h107l-22 100c-13 49 -30 133 -30 133h-2s-16 -84 -29 -133zM324 764
c-43 0 -60 33 -38 72l23 42c18 32 42 47 77 47h54c56 0 68 -37 33 -80l-35 -42c-22 -26 -45 -39 -79 -39h-35z" />
    <glyph glyph-name="Acircumflex" unicode="&#xc2;" horiz-adv-x="671" 
d="M12 75l195 591c12 36 35 53 74 53h109c38 0 62 -17 74 -53l195 -591c16 -45 -6 -75 -53 -75h-81c-39 0 -62 18 -74 55l-15 70h-203l-15 -70c-10 -37 -34 -55 -72 -55h-81c-47 0 -69 30 -53 75zM281 292h107l-22 100c-13 49 -30 133 -30 133h-2s-16 -84 -29 -133zM209 764
c-44 0 -56 33 -26 80l24 38c18 28 45 43 79 43h98c34 0 61 -15 79 -43l24 -38c30 -47 18 -80 -27 -80h-40c-39 0 -50 16 -65 45l-19 38h-2l-19 -38c-15 -29 -26 -45 -65 -45h-41z" />
    <glyph glyph-name="Atilde" unicode="&#xc3;" horiz-adv-x="671" 
d="M12 75l195 591c12 36 35 53 74 53h109c38 0 62 -17 74 -53l195 -591c16 -45 -6 -75 -53 -75h-81c-39 0 -62 18 -74 55l-15 70h-203l-15 -70c-10 -37 -34 -55 -72 -55h-81c-47 0 -69 30 -53 75zM281 292h107l-22 100c-13 49 -30 133 -30 133h-2s-16 -84 -29 -133zM181 763
c-35 0 -57 17 -57 53c0 57 50 112 120 112c83 0 110 -56 147 -56c16 0 27 4 31 23c2 18 22 30 54 30h13c38 0 57 -14 57 -49c0 -67 -48 -116 -119 -116c-83 0 -111 56 -147 56c-18 0 -31 -10 -35 -25c-4 -18 -23 -28 -50 -28h-14z" />
    <glyph glyph-name="Adieresis" unicode="&#xc4;" horiz-adv-x="671" 
d="M12 75l195 591c12 36 35 53 74 53h109c38 0 62 -17 74 -53l195 -591c16 -45 -6 -75 -53 -75h-81c-39 0 -62 18 -74 55l-15 70h-203l-15 -70c-10 -37 -34 -55 -72 -55h-81c-47 0 -69 30 -53 75zM281 292h107l-22 100c-13 49 -30 133 -30 133h-2s-16 -84 -29 -133zM441 766
c-43 0 -65 23 -65 66v27c0 43 22 66 65 66h17c43 0 65 -23 65 -66v-27c0 -43 -22 -66 -65 -66h-17zM212 766c-42 0 -65 23 -65 66v27c0 43 23 66 65 66h17c43 0 66 -23 66 -66v-27c0 -43 -23 -66 -66 -66h-17z" />
    <glyph glyph-name="Aring" unicode="&#xc5;" horiz-adv-x="671" 
d="M12 75l195 591c12 36 35 53 74 53h109c38 0 62 -17 74 -53l195 -591c16 -45 -6 -75 -53 -75h-81c-39 0 -62 18 -74 55l-15 70h-203l-15 -70c-10 -37 -34 -55 -72 -55h-81c-47 0 -69 30 -53 75zM281 292h107l-22 100c-13 49 -30 133 -30 133h-2s-16 -84 -29 -133zM334 749
c-57 0 -120 25 -120 90s63 91 120 91c58 0 122 -26 122 -91s-64 -90 -122 -90zM334 803c22 0 36 14 36 36s-14 37 -36 37c-20 0 -34 -15 -34 -37s13 -36 34 -36z" />
    <glyph glyph-name="AE" unicode="&#xc6;" horiz-adv-x="960" 
d="M1 76l249 593c14 35 38 50 76 50h534c43 0 65 -22 65 -65v-50c0 -42 -22 -65 -65 -65h-189v-87h136c42 0 65 -23 65 -65v-50c0 -43 -23 -65 -65 -65h-136v-92h200c43 0 66 -23 66 -65v-50c0 -42 -23 -65 -66 -65h-346c-43 0 -65 23 -65 65v211h-168l-83 -225
c-15 -34 -39 -51 -75 -51h-83c-49 0 -69 31 -50 76zM357 443h103v96h-68z" />
    <glyph glyph-name="Ccedilla" unicode="&#xc7;" horiz-adv-x="693" 
d="M333 -37l10 29c-198 25 -319 174 -319 368c0 209 157 371 383 371c105 0 181 -35 227 -65c33 -24 36 -56 14 -91l-30 -50c-22 -37 -52 -41 -89 -19c-34 19 -74 33 -112 33c-133 0 -175 -92 -175 -174c0 -85 48 -185 174 -185c45 0 90 19 125 43c36 24 67 23 91 -13
l35 -48c22 -33 21 -67 -12 -91c-45 -35 -119 -76 -221 -82l-4 -18c40 -4 77 -26 77 -84c0 -76 -65 -99 -124 -99c-31 0 -70 7 -70 47c0 36 16 49 27 49s20 -1 24 -1c15 0 20 9 20 20c0 15 -16 19 -38 20c-19 1 -21 16 -13 40z" />
    <glyph glyph-name="Egrave" unicode="&#xc8;" horiz-adv-x="556" 
d="M55 65v589c0 43 23 65 66 65h335c42 0 65 -22 65 -65v-50c0 -42 -23 -65 -65 -65h-190v-87h136c43 0 66 -23 66 -65v-50c0 -43 -23 -65 -66 -65h-136v-92h202c43 0 66 -23 66 -65v-50c0 -42 -23 -65 -66 -65h-347c-43 0 -66 23 -66 65zM270 764c-34 0 -57 13 -79 39
l-35 42c-35 42 -23 80 33 80h54c36 0 59 -15 77 -47l23 -43c18 -35 14 -71 -29 -71h-44z" />
    <glyph glyph-name="Eacute" unicode="&#xc9;" horiz-adv-x="556" 
d="M284 764c-43 0 -60 33 -38 72l23 42c18 32 42 47 77 47h54c56 0 68 -37 33 -80l-35 -42c-22 -26 -45 -39 -79 -39h-35zM55 65v589c0 43 23 65 66 65h335c42 0 65 -22 65 -65v-50c0 -42 -23 -65 -65 -65h-190v-87h136c43 0 66 -23 66 -65v-50c0 -43 -23 -65 -66 -65h-136
v-92h202c43 0 66 -23 66 -65v-50c0 -42 -23 -65 -66 -65h-347c-43 0 -66 23 -66 65z" />
    <glyph glyph-name="Ecircumflex" unicode="&#xca;" horiz-adv-x="556" 
d="M168 764c-44 0 -56 33 -26 80l24 38c18 28 45 43 79 43h98c34 0 61 -15 79 -43l24 -38c30 -47 18 -80 -27 -80h-40c-39 0 -50 16 -65 45l-19 38h-2l-19 -38c-15 -29 -26 -45 -65 -45h-41zM55 65v589c0 43 23 65 66 65h335c42 0 65 -22 65 -65v-50c0 -42 -23 -65 -65 -65
h-190v-87h136c43 0 66 -23 66 -65v-50c0 -43 -23 -65 -66 -65h-136v-92h202c43 0 66 -23 66 -65v-50c0 -42 -23 -65 -66 -65h-347c-43 0 -66 23 -66 65z" />
    <glyph glyph-name="Edieresis" unicode="&#xcb;" horiz-adv-x="556" 
d="M401 766c-43 0 -65 23 -65 66v27c0 43 22 66 65 66h17c43 0 65 -23 65 -66v-27c0 -43 -22 -66 -65 -66h-17zM172 766c-42 0 -65 23 -65 66v27c0 43 23 66 65 66h17c43 0 66 -23 66 -66v-27c0 -43 -23 -66 -66 -66h-17zM55 65v589c0 43 23 65 66 65h335
c42 0 65 -22 65 -65v-50c0 -42 -23 -65 -65 -65h-190v-87h136c43 0 66 -23 66 -65v-50c0 -43 -23 -65 -66 -65h-136v-92h202c43 0 66 -23 66 -65v-50c0 -42 -23 -65 -66 -65h-347c-43 0 -66 23 -66 65z" />
    <glyph glyph-name="Igrave" unicode="&#xcc;" horiz-adv-x="321" 
d="M55 65v589c0 43 23 65 66 65h80c43 0 65 -22 65 -65v-589c0 -42 -22 -65 -65 -65h-80c-43 0 -66 23 -66 65zM137 764c-34 0 -57 13 -79 39l-35 42c-35 42 -23 80 33 80h54c36 0 59 -15 77 -47l23 -43c18 -35 14 -71 -29 -71h-44z" />
    <glyph glyph-name="Iacute" unicode="&#xcd;" horiz-adv-x="321" 
d="M55 65v589c0 43 23 65 66 65h80c43 0 65 -22 65 -65v-589c0 -42 -22 -65 -65 -65h-80c-43 0 -66 23 -66 65zM151 764c-43 0 -60 33 -38 72l23 42c18 32 42 47 77 47h54c56 0 68 -37 33 -80l-35 -42c-22 -26 -45 -39 -79 -39h-35z" />
    <glyph glyph-name="Icircumflex" unicode="&#xce;" horiz-adv-x="321" 
d="M55 65v589c0 43 23 65 66 65h80c43 0 65 -22 65 -65v-589c0 -42 -22 -65 -65 -65h-80c-43 0 -66 23 -66 65zM36 764c-44 0 -56 33 -26 80l24 38c18 28 45 43 79 43h98c34 0 61 -15 79 -43l24 -38c30 -47 18 -80 -27 -80h-40c-39 0 -50 16 -65 45l-19 38h-2l-19 -38
c-15 -29 -26 -45 -65 -45h-41z" />
    <glyph glyph-name="Idieresis" unicode="&#xcf;" horiz-adv-x="321" 
d="M55 65v589c0 43 23 65 66 65h80c43 0 65 -22 65 -65v-589c0 -42 -22 -65 -65 -65h-80c-43 0 -66 23 -66 65zM258 766c-43 0 -65 23 -65 66v27c0 43 22 66 65 66h17c43 0 65 -23 65 -66v-27c0 -43 -22 -66 -65 -66h-17zM49 766c-42 0 -65 23 -65 66v27c0 43 23 66 65 66
h17c43 0 66 -23 66 -66v-27c0 -43 -23 -66 -66 -66h-17z" />
    <glyph glyph-name="Eth" unicode="&#xd0;" horiz-adv-x="723" 
d="M60 65v206c-29 0 -56 22 -56 65v37c0 42 27 65 56 65v216c0 43 22 65 65 65h198c230 0 374 -132 374 -358c0 -225 -144 -361 -374 -361h-198c-43 0 -65 23 -65 65zM271 180h45c103 0 163 62 163 181s-63 178 -163 178h-45v-101h19c42 0 63 -23 63 -65v-37
c0 -43 -21 -65 -63 -65h-19v-91z" />
    <glyph glyph-name="Ntilde" unicode="&#xd1;" horiz-adv-x="733" 
d="M55 65v589c0 43 23 65 66 65h96c37 0 61 -13 78 -44l118 -231c29 -52 61 -132 61 -132h2s-9 84 -9 132v210c0 43 22 65 65 65h80c43 0 66 -22 66 -65v-589c0 -42 -23 -65 -66 -65h-96c-36 0 -60 13 -77 44l-119 230c-29 51 -61 131 -61 131h-2s9 -83 9 -131v-209
c0 -42 -22 -65 -65 -65h-80c-43 0 -66 23 -66 65zM212 763c-35 0 -57 17 -57 53c0 57 50 112 120 112c83 0 110 -56 147 -56c16 0 27 4 31 23c2 18 22 30 54 30h13c38 0 57 -14 57 -49c0 -67 -48 -116 -119 -116c-83 0 -111 56 -147 56c-18 0 -31 -10 -35 -25
c-4 -18 -23 -28 -50 -28h-14z" />
    <glyph glyph-name="Ograve" unicode="&#xd2;" horiz-adv-x="807" 
d="M24 364c0 206 151 367 379 367s380 -161 380 -367c0 -211 -152 -376 -380 -376s-379 165 -379 376zM242 364c0 -105 66 -184 161 -184c96 0 162 79 162 184c0 100 -66 175 -162 175c-95 0 -161 -75 -161 -175zM378 764c-34 0 -57 13 -79 39l-35 42c-35 42 -23 80 33 80
h54c36 0 59 -15 77 -47l23 -43c18 -35 14 -71 -29 -71h-44z" />
    <glyph glyph-name="Oacute" unicode="&#xd3;" horiz-adv-x="807" 
d="M392 764c-43 0 -60 33 -38 72l23 42c18 32 42 47 77 47h54c56 0 68 -37 33 -80l-35 -42c-22 -26 -45 -39 -79 -39h-35zM24 364c0 206 151 367 379 367s380 -161 380 -367c0 -211 -152 -376 -380 -376s-379 165 -379 376zM242 364c0 -105 66 -184 161 -184
c96 0 162 79 162 184c0 100 -66 175 -162 175c-95 0 -161 -75 -161 -175z" />
    <glyph glyph-name="Ocircumflex" unicode="&#xd4;" horiz-adv-x="807" 
d="M277 764c-44 0 -56 33 -26 80l24 38c18 28 45 43 79 43h98c34 0 61 -15 79 -43l24 -38c30 -47 18 -80 -27 -80h-40c-39 0 -50 16 -65 45l-19 38h-2l-19 -38c-15 -29 -26 -45 -65 -45h-41zM24 364c0 206 151 367 379 367s380 -161 380 -367c0 -211 -152 -376 -380 -376
s-379 165 -379 376zM242 364c0 -105 66 -184 161 -184c96 0 162 79 162 184c0 100 -66 175 -162 175c-95 0 -161 -75 -161 -175z" />
    <glyph glyph-name="Otilde" unicode="&#xd5;" horiz-adv-x="807" 
d="M24 364c0 206 151 367 379 367s380 -161 380 -367c0 -211 -152 -376 -380 -376s-379 165 -379 376zM242 364c0 -105 66 -184 161 -184c96 0 162 79 162 184c0 100 -66 175 -162 175c-95 0 -161 -75 -161 -175zM249 763c-35 0 -57 17 -57 53c0 57 50 112 120 112
c83 0 110 -56 147 -56c16 0 27 4 31 23c2 18 22 30 54 30h13c38 0 57 -14 57 -49c0 -67 -48 -116 -119 -116c-83 0 -111 56 -147 56c-18 0 -31 -10 -35 -25c-4 -18 -23 -28 -50 -28h-14z" />
    <glyph glyph-name="Odieresis" unicode="&#xd6;" horiz-adv-x="807" 
d="M509 766c-43 0 -65 23 -65 66v27c0 43 22 66 65 66h17c43 0 65 -23 65 -66v-27c0 -43 -22 -66 -65 -66h-17zM280 766c-42 0 -65 23 -65 66v27c0 43 23 66 65 66h17c43 0 66 -23 66 -66v-27c0 -43 -23 -66 -66 -66h-17zM24 364c0 206 151 367 379 367s380 -161 380 -367
c0 -211 -152 -376 -380 -376s-379 165 -379 376zM242 364c0 -105 66 -184 161 -184c96 0 162 79 162 184c0 100 -66 175 -162 175c-95 0 -161 -75 -161 -175z" />
    <glyph glyph-name="multiply" unicode="&#xd7;" horiz-adv-x="638" 
d="M87 64c-30 30 -30 62 -1 93l126 131l-126 133c-29 30 -29 62 1 92l16 17c31 31 64 31 93 -1l122 -128l123 128c29 32 62 32 93 1l16 -17c30 -30 30 -62 1 -92l-127 -133l127 -131c29 -31 29 -63 -1 -93l-16 -16c-31 -31 -64 -32 -93 1l-123 127l-122 -127
c-29 -33 -62 -32 -93 -1z" />
    <glyph glyph-name="Oslash" unicode="&#xd8;" horiz-adv-x="806" 
d="M126 76l10 14c-71 68 -112 164 -112 274c0 206 157 367 379 367c64 0 122 -12 172 -35l12 15c20 24 44 26 66 11c27 -17 28 -44 14 -63l-11 -15c79 -68 127 -167 127 -280c0 -211 -158 -376 -380 -376c-71 0 -135 16 -189 45l-7 -10c-25 -35 -54 -43 -79 -24
c-27 20 -30 40 -2 77zM262 264l195 267c-17 5 -35 8 -54 8c-89 0 -161 -72 -161 -175c0 -37 6 -71 20 -100zM332 197c21 -10 46 -17 71 -17c90 0 162 76 162 184c0 42 -12 80 -32 109z" />
    <glyph glyph-name="Ugrave" unicode="&#xd9;" horiz-adv-x="716" 
d="M49 269v385c0 43 23 65 65 65h81c42 0 65 -22 65 -65v-385c0 -60 39 -89 98 -89c60 0 99 29 99 88v386c0 43 22 65 65 65h80c43 0 65 -22 65 -65v-385c0 -163 -121 -281 -308 -281c-189 0 -310 118 -310 281zM333 764c-34 0 -57 13 -79 39l-35 42c-35 42 -23 80 33 80h54
c36 0 59 -15 77 -47l23 -43c18 -35 14 -71 -29 -71h-44z" />
    <glyph glyph-name="Uacute" unicode="&#xda;" horiz-adv-x="716" 
d="M347 764c-43 0 -60 33 -38 72l23 42c18 32 42 47 77 47h54c56 0 68 -37 33 -80l-35 -42c-22 -26 -45 -39 -79 -39h-35zM49 269v385c0 43 23 65 65 65h81c42 0 65 -22 65 -65v-385c0 -60 39 -89 98 -89c60 0 99 29 99 88v386c0 43 22 65 65 65h80c43 0 65 -22 65 -65v-385
c0 -163 -121 -281 -308 -281c-189 0 -310 118 -310 281z" />
    <glyph glyph-name="Ucircumflex" unicode="&#xdb;" horiz-adv-x="716" 
d="M232 764c-44 0 -56 33 -26 80l24 38c18 28 45 43 79 43h98c34 0 61 -15 79 -43l24 -38c30 -47 18 -80 -27 -80h-40c-39 0 -50 16 -65 45l-19 38h-2l-19 -38c-15 -29 -26 -45 -65 -45h-41zM49 269v385c0 43 23 65 65 65h81c42 0 65 -22 65 -65v-385c0 -60 39 -89 98 -89
c60 0 99 29 99 88v386c0 43 22 65 65 65h80c43 0 65 -22 65 -65v-385c0 -163 -121 -281 -308 -281c-189 0 -310 118 -310 281z" />
    <glyph glyph-name="Udieresis" unicode="&#xdc;" horiz-adv-x="716" 
d="M464 766c-43 0 -65 23 -65 66v27c0 43 22 66 65 66h17c43 0 65 -23 65 -66v-27c0 -43 -22 -66 -65 -66h-17zM235 766c-42 0 -65 23 -65 66v27c0 43 23 66 65 66h17c43 0 66 -23 66 -66v-27c0 -43 -23 -66 -66 -66h-17zM49 269v385c0 43 23 65 65 65h81
c42 0 65 -22 65 -65v-385c0 -60 39 -89 98 -89c60 0 99 29 99 88v386c0 43 22 65 65 65h80c43 0 65 -22 65 -65v-385c0 -163 -121 -281 -308 -281c-189 0 -310 118 -310 281z" />
    <glyph glyph-name="Yacute" unicode="&#xdd;" horiz-adv-x="619" 
d="M204 65v225l-192 351c-26 45 -6 78 45 78h98c37 0 60 -15 76 -49l39 -95c22 -54 39 -118 39 -118h2s17 64 39 118l39 95c15 34 38 49 75 49h98c51 0 71 -33 45 -78l-192 -351v-225c0 -42 -23 -65 -65 -65h-81c-43 0 -65 23 -65 65zM299 764c-43 0 -60 33 -38 72l23 42
c18 32 42 47 77 47h54c56 0 68 -37 33 -80l-35 -42c-22 -26 -45 -39 -79 -39h-35z" />
    <glyph glyph-name="Thorn" unicode="&#xde;" horiz-adv-x="620" 
d="M55 65v589c0 43 23 65 66 65h80c43 0 65 -22 65 -63v-36h104c144 0 239 -109 239 -258c0 -148 -95 -259 -238 -259h-105v-38c0 -42 -22 -65 -65 -65h-80c-43 0 -66 23 -66 65zM266 283h59c50 0 70 35 70 79s-20 78 -66 78h-63v-157z" />
    <glyph glyph-name="germandbls" unicode="&#xdf;" horiz-adv-x="633" 
d="M362 169c23 1 48 3 48 28c0 52 -114 65 -114 171c0 76 58 106 58 150c0 21 -13 46 -49 46c-28 0 -56 -15 -56 -53v-446c0 -42 -23 -65 -65 -65h-78c-43 0 -66 23 -66 65v461c0 136 137 205 267 205c139 0 257 -79 257 -200c0 -85 -59 -102 -59 -154
c0 -73 113 -66 113 -195c0 -120 -99 -182 -217 -182h-39c-42 0 -65 23 -65 65v38c0 60 42 65 65 66z" />
    <glyph glyph-name="agrave" unicode="&#xe0;" horiz-adv-x="547" 
d="M11 148c0 122 148 167 286 167h10v17c0 25 -29 32 -56 32c-25 0 -56 -8 -83 -19c-40 -17 -69 -9 -88 30l-14 30c-17 37 -10 70 27 87c44 20 105 39 178 39c149 0 244 -83 244 -216v-250c0 -42 -22 -65 -65 -65h-59c-41 0 -62 24 -65 69h-2c-28 -43 -69 -81 -146 -81
c-104 0 -167 74 -167 160zM200 166c0 -15 11 -34 41 -34c38 0 68 29 68 68v10h-11c-57 0 -98 -16 -98 -44zM254 559c-34 0 -57 13 -79 39l-35 42c-35 42 -23 80 33 80h54c36 0 59 -15 77 -47l23 -43c18 -35 14 -71 -29 -71h-44z" />
    <glyph glyph-name="aacute" unicode="&#xe1;" horiz-adv-x="547" 
d="M11 148c0 122 148 167 286 167h10v17c0 25 -29 32 -56 32c-25 0 -56 -8 -83 -19c-40 -17 -69 -9 -88 30l-14 30c-17 37 -10 70 27 87c44 20 105 39 178 39c149 0 244 -83 244 -216v-250c0 -42 -22 -65 -65 -65h-59c-41 0 -62 24 -65 69h-2c-28 -43 -69 -81 -146 -81
c-104 0 -167 74 -167 160zM200 166c0 -15 11 -34 41 -34c38 0 68 29 68 68v10h-11c-57 0 -98 -16 -98 -44zM267 559c-43 0 -60 33 -38 72l23 42c18 32 42 47 77 47h54c56 0 68 -37 33 -80l-35 -42c-22 -26 -45 -39 -79 -39h-35z" />
    <glyph glyph-name="acircumflex" unicode="&#xe2;" horiz-adv-x="547" 
d="M11 148c0 122 148 167 286 167h10v17c0 25 -29 32 -56 32c-25 0 -56 -8 -83 -19c-40 -17 -69 -9 -88 30l-14 30c-17 37 -10 70 27 87c44 20 105 39 178 39c149 0 244 -83 244 -216v-250c0 -42 -22 -65 -65 -65h-59c-41 0 -62 24 -65 69h-2c-28 -43 -69 -81 -146 -81
c-104 0 -167 74 -167 160zM200 166c0 -15 11 -34 41 -34c38 0 68 29 68 68v10h-11c-57 0 -98 -16 -98 -44zM151 559c-44 0 -56 33 -26 80l24 38c18 28 45 43 79 43h98c34 0 61 -15 79 -43l24 -38c30 -47 18 -80 -27 -80h-40c-39 0 -50 16 -65 45l-19 38h-2l-19 -38
c-15 -29 -26 -45 -65 -45h-41z" />
    <glyph glyph-name="atilde" unicode="&#xe3;" horiz-adv-x="547" 
d="M11 148c0 122 148 167 286 167h10v17c0 25 -29 32 -56 32c-25 0 -56 -8 -83 -19c-40 -17 -69 -9 -88 30l-14 30c-17 37 -10 70 27 87c44 20 105 39 178 39c149 0 244 -83 244 -216v-250c0 -42 -22 -65 -65 -65h-59c-41 0 -62 24 -65 69h-2c-28 -43 -69 -81 -146 -81
c-104 0 -167 74 -167 160zM200 166c0 -15 11 -34 41 -34c38 0 68 29 68 68v10h-11c-57 0 -98 -16 -98 -44zM123 558c-35 0 -57 17 -57 53c0 57 50 112 120 112c83 0 110 -56 147 -56c16 0 27 4 31 23c2 18 22 30 54 30h13c38 0 57 -14 57 -49c0 -67 -48 -116 -119 -116
c-83 0 -111 56 -147 56c-18 0 -31 -10 -35 -25c-4 -18 -23 -28 -50 -28h-14z" />
    <glyph glyph-name="adieresis" unicode="&#xe4;" horiz-adv-x="547" 
d="M11 148c0 122 148 167 286 167h10v17c0 25 -29 32 -56 32c-25 0 -56 -8 -83 -19c-40 -17 -69 -9 -88 30l-14 30c-17 37 -10 70 27 87c44 20 105 39 178 39c149 0 244 -83 244 -216v-250c0 -42 -22 -65 -65 -65h-59c-41 0 -62 24 -65 69h-2c-28 -43 -69 -81 -146 -81
c-104 0 -167 74 -167 160zM200 166c0 -15 11 -34 41 -34c38 0 68 29 68 68v10h-11c-57 0 -98 -16 -98 -44zM383 561c-43 0 -65 23 -65 66v27c0 43 22 66 65 66h17c43 0 65 -23 65 -66v-27c0 -43 -22 -66 -65 -66h-17zM154 561c-42 0 -65 23 -65 66v27c0 43 23 66 65 66h17
c43 0 66 -23 66 -66v-27c0 -43 -23 -66 -66 -66h-17z" />
    <glyph glyph-name="aring" unicode="&#xe5;" horiz-adv-x="547" 
d="M11 148c0 122 148 167 286 167h10v17c0 25 -29 32 -56 32c-25 0 -56 -8 -83 -19c-40 -17 -69 -9 -88 30l-14 30c-17 37 -10 70 27 87c44 20 105 39 178 39c149 0 244 -83 244 -216v-250c0 -42 -22 -65 -65 -65h-59c-41 0 -62 24 -65 69h-2c-28 -43 -69 -81 -146 -81
c-104 0 -167 74 -167 160zM200 166c0 -15 11 -34 41 -34c38 0 68 29 68 68v10h-11c-57 0 -98 -16 -98 -44zM276 544c-57 0 -120 25 -120 90s63 91 120 91c58 0 122 -26 122 -91s-64 -90 -122 -90zM276 598c22 0 36 14 36 36s-14 37 -36 37c-20 0 -34 -15 -34 -37
s13 -36 34 -36z" />
    <glyph glyph-name="ae" unicode="&#xe6;" horiz-adv-x="835" 
d="M13 160c0 145 227 158 301 158v14c0 25 -29 37 -64 37c-23 0 -54 -7 -82 -19c-39 -17 -68 -14 -86 25l-14 29c-18 37 -10 70 27 87c40 20 101 40 172 40c73 0 119 -13 160 -40h2c39 25 82 40 142 40c160 0 248 -112 248 -250c0 -30 -28 -63 -69 -63h-247
c17 -45 62 -63 102 -63c26 0 54 4 81 15c41 17 68 18 88 -20l16 -30c19 -37 13 -70 -23 -90c-41 -21 -102 -42 -180 -42c-100 0 -159 35 -207 88h-2c-15 -28 -74 -87 -189 -87c-98 0 -176 68 -176 171zM204 168c0 -22 10 -35 41 -35c37 0 70 29 70 67v12h-11
c-60 0 -100 -18 -100 -44zM504 324h113c3 32 -14 66 -48 66c-49 0 -63 -35 -65 -66z" />
    <glyph glyph-name="ccedilla" unicode="&#xe7;" horiz-adv-x="531" 
d="M235 -37l10 31c-152 26 -229 145 -229 266c0 133 97 271 295 271c75 0 130 -20 165 -42c34 -21 36 -55 15 -89l-20 -31c-23 -36 -49 -38 -88 -20c-19 8 -39 10 -58 10c-73 0 -98 -55 -98 -96s27 -103 105 -103c22 0 51 8 77 21c40 21 69 16 89 -23l15 -30
c18 -36 14 -69 -18 -90c-35 -22 -89 -45 -159 -49l-4 -18c40 -4 77 -26 77 -84c0 -76 -65 -99 -124 -99c-31 0 -70 7 -70 47c0 36 16 49 27 49s20 -1 24 -1c15 0 20 9 20 20c0 15 -16 19 -38 20c-19 1 -21 16 -13 40z" />
    <glyph glyph-name="egrave" unicode="&#xe8;" horiz-adv-x="554" 
d="M16 260c0 147 98 271 275 271c159 0 247 -110 247 -243c0 -31 -28 -68 -69 -68h-242c17 -45 58 -60 97 -60c25 0 54 5 81 17c39 17 68 12 88 -26l16 -31c19 -38 13 -70 -23 -90c-41 -21 -102 -42 -180 -42c-196 0 -290 141 -290 272zM229 325h108c3 32 -14 65 -48 65
c-45 0 -58 -34 -60 -65zM262 559c-34 0 -57 13 -79 39l-35 42c-35 42 -23 80 33 80h54c36 0 59 -15 77 -47l23 -43c18 -35 14 -71 -29 -71h-44z" />
    <glyph glyph-name="eacute" unicode="&#xe9;" horiz-adv-x="554" 
d="M274 559c-43 0 -60 33 -38 72l23 42c18 32 42 47 77 47h54c56 0 68 -37 33 -80l-35 -42c-22 -26 -45 -39 -79 -39h-35zM16 260c0 147 98 271 275 271c159 0 247 -110 247 -243c0 -31 -28 -68 -69 -68h-242c17 -45 58 -60 97 -60c25 0 54 5 81 17c39 17 68 12 88 -26
l16 -31c19 -38 13 -70 -23 -90c-41 -21 -102 -42 -180 -42c-196 0 -290 141 -290 272zM229 325h108c3 32 -14 65 -48 65c-45 0 -58 -34 -60 -65z" />
    <glyph glyph-name="ecircumflex" unicode="&#xea;" horiz-adv-x="554" 
d="M159 559c-44 0 -56 33 -26 80l24 38c18 28 45 43 79 43h98c34 0 61 -15 79 -43l24 -38c30 -47 18 -80 -27 -80h-40c-39 0 -50 16 -65 45l-19 38h-2l-19 -38c-15 -29 -26 -45 -65 -45h-41zM16 260c0 147 98 271 275 271c159 0 247 -110 247 -243c0 -31 -28 -68 -69 -68
h-242c17 -45 58 -60 97 -60c25 0 54 5 81 17c39 17 68 12 88 -26l16 -31c19 -38 13 -70 -23 -90c-41 -21 -102 -42 -180 -42c-196 0 -290 141 -290 272zM229 325h108c3 32 -14 65 -48 65c-45 0 -58 -34 -60 -65z" />
    <glyph glyph-name="edieresis" unicode="&#xeb;" horiz-adv-x="554" 
d="M391 561c-43 0 -65 23 -65 66v27c0 43 22 66 65 66h17c43 0 65 -23 65 -66v-27c0 -43 -22 -66 -65 -66h-17zM162 561c-42 0 -65 23 -65 66v27c0 43 23 66 65 66h17c43 0 66 -23 66 -66v-27c0 -43 -23 -66 -66 -66h-17zM16 260c0 147 98 271 275 271
c159 0 247 -110 247 -243c0 -31 -28 -68 -69 -68h-242c17 -45 58 -60 97 -60c25 0 54 5 81 17c39 17 68 12 88 -26l16 -31c19 -38 13 -70 -23 -90c-41 -21 -102 -42 -180 -42c-196 0 -290 141 -290 272zM229 325h108c3 32 -14 65 -48 65c-45 0 -58 -34 -60 -65z" />
    <glyph glyph-name="igrave" unicode="&#xec;" horiz-adv-x="285" 
d="M38 65v389c0 43 23 65 65 65h78c43 0 66 -22 66 -65v-389c0 -42 -23 -65 -66 -65h-78c-42 0 -65 23 -65 65zM117 559c-34 0 -57 13 -79 39l-35 42c-35 42 -23 80 33 80h54c36 0 59 -15 77 -47l23 -43c18 -35 14 -71 -29 -71h-44z" />
    <glyph glyph-name="iacute" unicode="&#xed;" horiz-adv-x="285" 
d="M132 559c-43 0 -60 33 -38 72l23 42c18 32 42 47 77 47h54c56 0 68 -37 33 -80l-35 -42c-22 -26 -45 -39 -79 -39h-35zM38 65v389c0 43 23 65 65 65h78c43 0 66 -22 66 -65v-389c0 -42 -23 -65 -66 -65h-78c-42 0 -65 23 -65 65z" />
    <glyph glyph-name="icircumflex" unicode="&#xee;" horiz-adv-x="285" 
d="M16 559c-44 0 -56 33 -26 80l24 38c18 28 45 43 79 43h98c34 0 61 -15 79 -43l24 -38c30 -47 18 -80 -27 -80h-40c-39 0 -50 16 -65 45l-19 38h-2l-19 -38c-15 -29 -26 -45 -65 -45h-41zM38 65v389c0 43 23 65 65 65h78c43 0 66 -22 66 -65v-389c0 -42 -23 -65 -66 -65
h-78c-42 0 -65 23 -65 65z" />
    <glyph glyph-name="idieresis" unicode="&#xef;" horiz-adv-x="285" 
d="M233 561c-43 0 -65 23 -65 66v27c0 43 22 66 65 66h17c43 0 65 -23 65 -66v-27c0 -43 -22 -66 -65 -66h-17zM34 561c-42 0 -65 23 -65 66v27c0 43 23 66 65 66h17c43 0 66 -23 66 -66v-27c0 -43 -23 -66 -66 -66h-17zM38 65v389c0 43 23 65 65 65h78c43 0 66 -22 66 -65
v-389c0 -42 -23 -65 -66 -65h-78c-42 0 -65 23 -65 65z" />
    <glyph glyph-name="eth" unicode="&#xf0;" horiz-adv-x="578" 
d="M18 237c0 119 89 216 226 216c46 0 71 -11 71 -11h2c-11 12 -50 44 -77 58l-120 -48c-48 -19 -57 -14 -70 17l-7 16c-12 27 1 49 40 63l42 15c-56 20 -73 43 -57 87l14 39c14 39 40 53 82 44c37 -8 127 -43 183 -79l94 37c48 19 56 10 68 -13l10 -22
c13 -28 -8 -45 -38 -57l-43 -17c77 -78 119 -179 119 -291c0 -144 -70 -303 -269 -303c-179 0 -270 128 -270 249zM227 232c0 -32 10 -72 57 -72c50 0 64 45 64 82c0 42 -18 64 -56 64c-43 0 -65 -27 -65 -74z" />
    <glyph glyph-name="ntilde" unicode="&#xf1;" 
d="M38 65v389c0 43 23 65 65 65h69c43 0 64 -26 64 -73h2c28 52 70 85 154 85c93 0 188 -40 188 -192v-274c0 -42 -23 -65 -66 -65h-78c-42 0 -65 23 -65 65v229c0 37 -17 49 -46 49c-65 0 -78 -60 -78 -114v-164c0 -42 -23 -65 -66 -65h-78c-42 0 -65 23 -65 65zM156 558
c-35 0 -57 17 -57 53c0 57 50 112 120 112c83 0 110 -56 147 -56c16 0 27 4 31 23c2 18 22 30 54 30h13c38 0 57 -14 57 -49c0 -67 -48 -116 -119 -116c-83 0 -111 56 -147 56c-18 0 -31 -10 -35 -25c-4 -18 -23 -28 -50 -28h-14z" />
    <glyph glyph-name="ograve" unicode="&#xf2;" horiz-adv-x="632" 
d="M15 257c0 166 134 274 300 274c168 0 302 -108 302 -274c0 -164 -134 -269 -301 -269s-301 105 -301 269zM226 257c0 -64 42 -97 90 -97s91 33 91 97c0 65 -43 102 -91 102s-90 -37 -90 -102zM291 559c-34 0 -57 13 -79 39l-35 42c-35 42 -23 80 33 80h54
c36 0 59 -15 77 -47l23 -43c18 -35 14 -71 -29 -71h-44z" />
    <glyph glyph-name="oacute" unicode="&#xf3;" horiz-adv-x="632" 
d="M305 559c-43 0 -60 33 -38 72l23 42c18 32 42 47 77 47h54c56 0 68 -37 33 -80l-35 -42c-22 -26 -45 -39 -79 -39h-35zM15 257c0 166 134 274 300 274c168 0 302 -108 302 -274c0 -164 -134 -269 -301 -269s-301 105 -301 269zM226 257c0 -64 42 -97 90 -97s91 33 91 97
c0 65 -43 102 -91 102s-90 -37 -90 -102z" />
    <glyph glyph-name="ocircumflex" unicode="&#xf4;" horiz-adv-x="632" 
d="M190 559c-44 0 -56 33 -26 80l24 38c18 28 45 43 79 43h98c34 0 61 -15 79 -43l24 -38c30 -47 18 -80 -27 -80h-40c-39 0 -50 16 -65 45l-19 38h-2l-19 -38c-15 -29 -26 -45 -65 -45h-41zM15 257c0 166 134 274 300 274c168 0 302 -108 302 -274
c0 -164 -134 -269 -301 -269s-301 105 -301 269zM226 257c0 -64 42 -97 90 -97s91 33 91 97c0 65 -43 102 -91 102s-90 -37 -90 -102z" />
    <glyph glyph-name="otilde" unicode="&#xf5;" horiz-adv-x="632" 
d="M15 257c0 166 134 274 300 274c168 0 302 -108 302 -274c0 -164 -134 -269 -301 -269s-301 105 -301 269zM226 257c0 -64 42 -97 90 -97s91 33 91 97c0 65 -43 102 -91 102s-90 -37 -90 -102zM162 558c-35 0 -57 17 -57 53c0 57 50 112 120 112c83 0 110 -56 147 -56
c16 0 27 4 31 23c2 18 22 30 54 30h13c38 0 57 -14 57 -49c0 -67 -48 -116 -119 -116c-83 0 -111 56 -147 56c-18 0 -31 -10 -35 -25c-4 -18 -23 -28 -50 -28h-14z" />
    <glyph glyph-name="odieresis" unicode="&#xf6;" horiz-adv-x="632" 
d="M422 561c-43 0 -65 23 -65 66v27c0 43 22 66 65 66h17c43 0 65 -23 65 -66v-27c0 -43 -22 -66 -65 -66h-17zM193 561c-42 0 -65 23 -65 66v27c0 43 23 66 65 66h17c43 0 66 -23 66 -66v-27c0 -43 -23 -66 -66 -66h-17zM15 257c0 166 134 274 300 274
c168 0 302 -108 302 -274c0 -164 -134 -269 -301 -269s-301 105 -301 269zM226 257c0 -64 42 -97 90 -97s91 33 91 97c0 65 -43 102 -91 102s-90 -37 -90 -102z" />
    <glyph glyph-name="divide" unicode="&#xf7;" horiz-adv-x="638" 
d="M298 442c-42 0 -65 23 -65 66v25c0 43 23 65 65 65h40c43 0 65 -22 65 -65v-25c0 -43 -22 -66 -65 -66h-40zM101 211c-43 0 -65 22 -65 65v24c0 43 22 65 65 65h434c43 0 66 -22 66 -65v-24c0 -43 -23 -65 -66 -65h-434zM233 45v25c0 42 23 65 65 65h40
c43 0 65 -23 65 -65v-25c0 -43 -22 -66 -65 -66h-40c-42 0 -65 23 -65 66z" />
    <glyph glyph-name="oslash" unicode="&#xf8;" horiz-adv-x="631" 
d="M15 257c0 166 134 274 300 274c47 0 92 -9 132 -25l7 9c25 34 46 45 70 29s24 -35 1 -68l-8 -11c61 -48 100 -120 100 -208c0 -164 -134 -269 -301 -269c-45 0 -88 8 -126 22l-9 -13c-25 -34 -46 -44 -70 -27c-24 16 -24 38 -3 67l9 12c-63 47 -102 119 -102 208z
M226 257c0 -19 3 -34 9 -47l106 145c-8 3 -17 4 -25 4c-48 0 -90 -37 -90 -102zM407 257c0 17 -4 33 -9 46l-102 -141c7 -2 13 -2 20 -2c48 0 91 33 91 97z" />
    <glyph glyph-name="ugrave" unicode="&#xf9;" horiz-adv-x="609" 
d="M243 454v-228c0 -37 17 -49 46 -49c61 0 73 60 73 114v163c0 43 23 65 66 65h78c42 0 65 -22 65 -65v-389c0 -42 -23 -65 -65 -65h-69c-43 0 -64 23 -64 57v16h-2c-29 -66 -88 -85 -150 -85c-94 0 -187 43 -187 192v274c0 43 23 65 66 65h78c42 0 65 -22 65 -65zM277 559
c-34 0 -57 13 -79 39l-35 42c-35 42 -23 80 33 80h54c36 0 59 -15 77 -47l23 -43c18 -35 14 -71 -29 -71h-44z" />
    <glyph glyph-name="uacute" unicode="&#xfa;" horiz-adv-x="609" 
d="M292 559c-43 0 -60 33 -38 72l23 42c18 32 42 47 77 47h54c56 0 68 -37 33 -80l-35 -42c-22 -26 -45 -39 -79 -39h-35zM243 454v-228c0 -37 17 -49 46 -49c61 0 73 60 73 114v163c0 43 23 65 66 65h78c42 0 65 -22 65 -65v-389c0 -42 -23 -65 -65 -65h-69
c-43 0 -64 23 -64 57v16h-2c-29 -66 -88 -85 -150 -85c-94 0 -187 43 -187 192v274c0 43 23 65 66 65h78c42 0 65 -22 65 -65z" />
    <glyph glyph-name="ucircumflex" unicode="&#xfb;" horiz-adv-x="609" 
d="M176 559c-44 0 -56 33 -26 80l24 38c18 28 45 43 79 43h98c34 0 61 -15 79 -43l24 -38c30 -47 18 -80 -27 -80h-40c-39 0 -50 16 -65 45l-19 38h-2l-19 -38c-15 -29 -26 -45 -65 -45h-41zM243 454v-228c0 -37 17 -49 46 -49c61 0 73 60 73 114v163c0 43 23 65 66 65h78
c42 0 65 -22 65 -65v-389c0 -42 -23 -65 -65 -65h-69c-43 0 -64 23 -64 57v16h-2c-29 -66 -88 -85 -150 -85c-94 0 -187 43 -187 192v274c0 43 23 65 66 65h78c42 0 65 -22 65 -65z" />
    <glyph glyph-name="udieresis" unicode="&#xfc;" horiz-adv-x="609" 
d="M408 561c-43 0 -65 23 -65 66v27c0 43 22 66 65 66h17c43 0 65 -23 65 -66v-27c0 -43 -22 -66 -65 -66h-17zM179 561c-42 0 -65 23 -65 66v27c0 43 23 66 65 66h17c43 0 66 -23 66 -66v-27c0 -43 -23 -66 -66 -66h-17zM243 454v-228c0 -37 17 -49 46 -49
c61 0 73 60 73 114v163c0 43 23 65 66 65h78c42 0 65 -22 65 -65v-389c0 -42 -23 -65 -65 -65h-69c-43 0 -64 23 -64 57v16h-2c-29 -66 -88 -85 -150 -85c-94 0 -187 43 -187 192v274c0 43 23 65 66 65h78c42 0 65 -22 65 -65z" />
    <glyph glyph-name="yacute" unicode="&#xfd;" horiz-adv-x="547" 
d="M34 -78c17 37 41 43 65 39c7 -1 15 -3 27 -3c27 0 53 21 62 46l3 8l-189 431c-20 45 0 76 50 76h97c39 0 66 -17 75 -54l36 -143c8 -29 16 -99 16 -99h2s11 71 16 100l25 140c7 39 34 56 73 56h90c48 0 69 -30 53 -75l-172 -483c-47 -133 -151 -171 -239 -171
c-26 0 -51 5 -73 11c-39 13 -49 47 -32 86zM267 558c-43 0 -60 33 -38 72l23 42c18 32 42 47 77 47h54c56 0 68 -37 33 -80l-35 -42c-22 -26 -45 -39 -79 -39h-35z" />
    <glyph glyph-name="thorn" unicode="&#xfe;" horiz-adv-x="630" 
d="M41 -135v789c0 43 23 65 66 65h78c42 0 65 -22 65 -65v-116c0 -27 -2 -45 -2 -45h2c33 28 71 38 116 38c154 0 247 -120 247 -271c0 -150 -91 -272 -245 -272c-79 0 -118 32 -118 32h-2s2 -18 2 -44v-111c0 -42 -23 -65 -65 -65h-78c-43 0 -66 23 -66 65zM244 258
c0 -84 41 -98 75 -98c64 0 85 51 85 99c0 46 -20 100 -83 100c-40 0 -77 -22 -77 -101z" />
    <glyph glyph-name="ydieresis" unicode="&#xff;" horiz-adv-x="547" 
d="M34 -78c17 37 41 43 65 39c7 -1 15 -3 27 -3c27 0 53 21 62 46l3 8l-189 431c-20 45 0 76 50 76h97c39 0 66 -17 75 -54l36 -143c8 -29 16 -99 16 -99h2s11 71 16 100l25 140c7 39 34 56 73 56h90c48 0 69 -30 53 -75l-172 -483c-47 -133 -151 -171 -239 -171
c-26 0 -51 5 -73 11c-39 13 -49 47 -32 86zM384 560c-43 0 -65 23 -65 66v27c0 43 22 66 65 66h17c43 0 65 -23 65 -66v-27c0 -43 -22 -66 -65 -66h-17zM155 560c-42 0 -65 23 -65 66v27c0 43 23 66 65 66h17c43 0 66 -23 66 -66v-27c0 -43 -23 -66 -66 -66h-17z" />
    <glyph glyph-name="Amacron" unicode="&#x100;" horiz-adv-x="671" 
d="M12 75l195 591c12 36 35 53 74 53h109c38 0 62 -17 74 -53l195 -591c16 -45 -6 -75 -53 -75h-81c-39 0 -62 18 -74 55l-15 70h-203l-15 -70c-10 -37 -34 -55 -72 -55h-81c-47 0 -69 30 -53 75zM281 292h107l-22 100c-13 49 -30 133 -30 133h-2s-16 -84 -29 -133zM258 781
c-43 0 -65 19 -65 61v9c0 43 22 62 65 62h154c43 0 66 -19 66 -62v-9c0 -42 -23 -61 -66 -61h-154z" />
    <glyph glyph-name="amacron" unicode="&#x101;" horiz-adv-x="547" 
d="M11 148c0 122 148 167 286 167h10v17c0 25 -29 32 -56 32c-25 0 -56 -8 -83 -19c-40 -17 -69 -9 -88 30l-14 30c-17 37 -10 70 27 87c44 20 105 39 178 39c149 0 244 -83 244 -216v-250c0 -42 -22 -65 -65 -65h-59c-41 0 -62 24 -65 69h-2c-28 -43 -69 -81 -146 -81
c-104 0 -167 74 -167 160zM200 166c0 -15 11 -34 41 -34c38 0 68 29 68 68v10h-11c-57 0 -98 -16 -98 -44zM200 576c-43 0 -65 19 -65 61v9c0 43 22 62 65 62h154c43 0 66 -19 66 -62v-9c0 -42 -23 -61 -66 -61h-154z" />
    <glyph glyph-name="Abreve" unicode="&#x102;" horiz-adv-x="671" 
d="M12 75l195 591c12 36 35 53 74 53h109c38 0 62 -17 74 -53l195 -591c16 -45 -6 -75 -53 -75h-81c-39 0 -62 18 -74 55l-15 70h-203l-15 -70c-10 -37 -34 -55 -72 -55h-81c-47 0 -69 30 -53 75zM281 292h107l-22 100c-13 49 -30 133 -30 133h-2s-16 -84 -29 -133zM335 758
c-80 0 -193 42 -193 130c0 19 10 28 38 32l42 5c37 4 46 -19 53 -37c7 -17 24 -33 59 -33s52 16 59 33c7 18 16 41 53 37l42 -5c28 -4 38 -13 38 -32c0 -88 -111 -130 -191 -130z" />
    <glyph glyph-name="abreve" unicode="&#x103;" horiz-adv-x="547" 
d="M11 148c0 122 148 167 286 167h10v17c0 25 -29 32 -56 32c-25 0 -56 -8 -83 -19c-40 -17 -69 -9 -88 30l-14 30c-17 37 -10 70 27 87c44 20 105 39 178 39c149 0 244 -83 244 -216v-250c0 -42 -22 -65 -65 -65h-59c-41 0 -62 24 -65 69h-2c-28 -43 -69 -81 -146 -81
c-104 0 -167 74 -167 160zM200 166c0 -15 11 -34 41 -34c38 0 68 29 68 68v10h-11c-57 0 -98 -16 -98 -44zM277 553c-80 0 -193 42 -193 130c0 19 10 28 38 32l42 5c37 4 46 -19 53 -37c7 -17 24 -33 59 -33s52 16 59 33c7 18 16 41 53 37l42 -5c28 -4 38 -13 38 -32
c0 -88 -111 -130 -191 -130z" />
    <glyph glyph-name="Aogonek" unicode="&#x104;" horiz-adv-x="672" 
d="M12 75l195 591c11 34 32 53 74 53h109c38 0 62 -17 74 -53l195 -591c6 -19 9 -34 9 -47c0 -21 -7 -36 -16 -45c-14 -15 -34 -18 -34 -34c0 -11 11 -13 18 -18c15 -10 22 -26 18 -58l-5 -36c-4 -30 -25 -40 -57 -40c-49 0 -127 37 -127 100c0 37 27 75 53 100
c0 0 -54 -1 -66 54l-16 74h-203l-16 -70c-9 -37 -31 -55 -71 -55h-81c-47 0 -69 30 -53 75zM281 292h107l-23 100c-4 18 -29 133 -29 133h-2s-9 -52 -29 -133z" />
    <glyph glyph-name="aogonek" unicode="&#x105;" horiz-adv-x="547" 
d="M11 148c0 122 148 167 286 167h10v17c0 25 -29 32 -56 32c-25 0 -56 -8 -83 -19c-40 -17 -69 -9 -88 30l-14 30c-17 37 -10 70 27 87c44 20 105 39 178 39c149 0 244 -83 244 -216v-250c0 -64 -57 -69 -57 -117c0 -8 8 -11 18 -17c18 -10 21 -29 18 -58l-5 -36
c-3 -30 -29 -42 -56 -40c-56 4 -128 40 -128 99c0 49 19 84 45 116c-14 11 -22 31 -24 57h-2c-28 -43 -69 -81 -146 -81c-104 0 -167 74 -167 160zM200 166c0 -15 11 -34 41 -34c38 0 68 29 68 68v10h-11c-57 0 -98 -16 -98 -44z" />
    <glyph glyph-name="Cacute" unicode="&#x106;" horiz-adv-x="693" 
d="M385 764c-43 0 -60 33 -38 72l23 42c18 32 42 47 77 47h54c56 0 68 -37 33 -80l-35 -42c-22 -26 -45 -39 -79 -39h-35zM24 360c0 209 157 371 383 371c105 0 181 -35 227 -65c33 -24 36 -56 14 -91l-30 -50c-22 -37 -52 -41 -89 -19c-34 19 -74 33 -112 33
c-133 0 -175 -92 -175 -174c0 -85 48 -185 174 -185c45 0 90 19 125 43c36 24 67 23 91 -13l35 -48c22 -33 21 -67 -12 -91c-49 -38 -132 -83 -249 -83c-235 0 -382 158 -382 372z" />
    <glyph glyph-name="cacute" unicode="&#x107;" horiz-adv-x="529" 
d="M278 559c-43 0 -60 33 -38 72l23 42c18 32 42 47 77 47h54c56 0 68 -37 33 -80l-35 -42c-22 -26 -45 -39 -79 -39h-35zM15 260c0 133 97 271 295 271c75 0 130 -20 165 -42c34 -21 36 -55 15 -89l-20 -31c-23 -36 -49 -38 -88 -20c-19 8 -39 10 -58 10
c-73 0 -98 -55 -98 -96s27 -103 105 -103c22 0 51 8 77 21c40 21 69 16 89 -23l15 -30c18 -36 14 -69 -18 -90c-39 -24 -102 -50 -184 -50c-196 0 -295 135 -295 272z" />
    <glyph glyph-name="Ccircumflex" unicode="&#x108;" horiz-adv-x="693" 
d="M269 764c-44 0 -56 33 -26 80l24 38c18 28 45 43 79 43h98c34 0 61 -15 79 -43l24 -38c30 -47 18 -80 -27 -80h-40c-39 0 -50 16 -65 45l-19 38h-2l-19 -38c-15 -29 -26 -45 -65 -45h-41zM24 360c0 209 157 371 383 371c105 0 181 -35 227 -65c33 -24 36 -56 14 -91
l-30 -50c-22 -37 -52 -41 -89 -19c-34 19 -74 33 -112 33c-133 0 -175 -92 -175 -174c0 -85 48 -185 174 -185c45 0 90 19 125 43c36 24 67 23 91 -13l35 -48c22 -33 21 -67 -12 -91c-49 -38 -132 -83 -249 -83c-235 0 -382 158 -382 372z" />
    <glyph glyph-name="ccircumflex" unicode="&#x109;" horiz-adv-x="529" 
d="M163 559c-44 0 -56 33 -26 80l24 38c18 28 45 43 79 43h98c34 0 61 -15 79 -43l24 -38c30 -47 18 -80 -27 -80h-40c-39 0 -50 16 -65 45l-19 38h-2l-19 -38c-15 -29 -26 -45 -65 -45h-41zM15 260c0 133 97 271 295 271c75 0 130 -20 165 -42c34 -21 36 -55 15 -89
l-20 -31c-23 -36 -49 -38 -88 -20c-19 8 -39 10 -58 10c-73 0 -98 -55 -98 -96s27 -103 105 -103c22 0 51 8 77 21c40 21 69 16 89 -23l15 -30c18 -36 14 -69 -18 -90c-39 -24 -102 -50 -184 -50c-196 0 -295 135 -295 272z" />
    <glyph glyph-name="Cdotaccent" unicode="&#x10a;" horiz-adv-x="693" 
d="M24 360c0 209 157 371 383 371c105 0 181 -35 227 -65c33 -24 36 -56 14 -91l-30 -50c-22 -37 -52 -41 -89 -19c-34 19 -74 33 -112 33c-133 0 -175 -92 -175 -174c0 -85 48 -185 174 -185c45 0 90 19 125 43c36 24 67 23 91 -13l35 -48c22 -33 21 -67 -12 -91
c-49 -38 -132 -83 -249 -83c-235 0 -382 158 -382 372zM377 777c-43 0 -66 22 -66 65v17c0 43 23 66 66 66h38c43 0 66 -23 66 -66v-17c0 -43 -23 -65 -66 -65h-38z" />
    <glyph glyph-name="cdotaccent" unicode="&#x10b;" horiz-adv-x="529" 
d="M15 260c0 133 97 271 295 271c75 0 130 -20 165 -42c34 -21 36 -55 15 -89l-20 -31c-23 -36 -49 -38 -88 -20c-19 8 -39 10 -58 10c-73 0 -98 -55 -98 -96s27 -103 105 -103c22 0 51 8 77 21c40 21 69 16 89 -23l15 -30c18 -36 14 -69 -18 -90c-39 -24 -102 -50 -184 -50
c-196 0 -295 135 -295 272zM270 572c-43 0 -66 22 -66 65v17c0 43 23 66 66 66h38c43 0 66 -23 66 -66v-17c0 -43 -23 -65 -66 -65h-38z" />
    <glyph glyph-name="Ccaron" unicode="&#x10c;" horiz-adv-x="693" 
d="M346 764c-35 0 -59 13 -79 43l-24 38c-30 45 -18 80 26 80h41c37 0 48 -15 66 -46l18 -37h2l18 37c18 31 29 46 66 46h41c44 0 56 -35 26 -80l-24 -38c-20 -30 -44 -43 -79 -43h-98zM24 360c0 209 157 371 383 371c105 0 181 -35 227 -65c33 -24 36 -56 14 -91l-30 -50
c-22 -37 -52 -41 -89 -19c-34 19 -74 33 -112 33c-133 0 -175 -92 -175 -174c0 -85 48 -185 174 -185c45 0 90 19 125 43c36 24 67 23 91 -13l35 -48c22 -33 21 -67 -12 -91c-49 -38 -132 -83 -249 -83c-235 0 -382 158 -382 372z" />
    <glyph glyph-name="ccaron" unicode="&#x10d;" horiz-adv-x="529" 
d="M240 559c-35 0 -59 13 -79 43l-24 38c-30 45 -18 80 26 80h41c37 0 48 -15 66 -46l18 -37h2l18 37c18 31 29 46 66 46h41c44 0 56 -35 26 -80l-24 -38c-20 -30 -44 -43 -79 -43h-98zM15 260c0 133 97 271 295 271c75 0 130 -20 165 -42c34 -21 36 -55 15 -89l-20 -31
c-23 -36 -49 -38 -88 -20c-19 8 -39 10 -58 10c-73 0 -98 -55 -98 -96s27 -103 105 -103c22 0 51 8 77 21c40 21 69 16 89 -23l15 -30c18 -36 14 -69 -18 -90c-39 -24 -102 -50 -184 -50c-196 0 -295 135 -295 272z" />
    <glyph glyph-name="Dcaron" unicode="&#x10e;" horiz-adv-x="719" 
d="M283 764c-35 0 -59 13 -79 43l-24 38c-30 45 -18 80 26 80h41c37 0 48 -15 66 -46l18 -37h2l18 37c18 31 29 46 66 46h41c44 0 56 -35 26 -80l-24 -38c-20 -30 -44 -43 -79 -43h-98zM55 65v589c0 43 23 65 66 65h197c230 0 375 -132 375 -358c0 -225 -145 -361 -375 -361
h-197c-43 0 -66 23 -66 65zM266 180h45c104 0 164 62 164 181s-64 178 -164 178h-45v-359z" />
    <glyph glyph-name="dcaron" unicode="&#x10f;" horiz-adv-x="630" 
d="M640 680c0 31 23 39 58 39h26c58 0 75 -32 75 -75c0 -84 -48 -119 -90 -119h-18c-37 0 -57 11 -57 35c0 25 11 43 11 68c0 12 -5 36 -5 52zM17 261c0 157 91 270 244 270c96 0 119 -44 119 -44h2s-1 12 -1 28v139c0 43 23 65 66 65h78c43 0 65 -22 65 -65v-589
c0 -42 -22 -65 -65 -65h-64c-41 0 -63 22 -66 63h-1c-28 -53 -84 -75 -145 -75c-136 0 -232 111 -232 273zM226 259c0 -60 33 -100 81 -100c42 0 80 32 80 98c0 57 -29 100 -79 100c-45 0 -82 -34 -82 -98z" />
    <glyph glyph-name="Dcroat" unicode="&#x110;" horiz-adv-x="723" 
d="M60 65v206c-29 0 -56 22 -56 65v37c0 42 27 65 56 65v216c0 43 22 65 65 65h198c230 0 374 -132 374 -358c0 -225 -144 -361 -374 -361h-198c-43 0 -65 23 -65 65zM271 180h45c103 0 163 62 163 181s-63 178 -163 178h-45v-101h19c42 0 63 -23 63 -65v-37
c0 -43 -21 -65 -63 -65h-19v-91z" />
    <glyph glyph-name="dcroat" unicode="&#x111;" horiz-adv-x="630" 
d="M17 261c0 157 91 270 244 270c96 0 119 -44 119 -44h2s-1 12 -1 28v35h-58c-43 0 -66 16 -66 53v6c0 35 23 51 66 51h58c2 39 25 59 66 59h78c41 0 63 -20 65 -59c40 0 61 -16 61 -51v-6c0 -37 -21 -53 -61 -53v-485c0 -42 -22 -65 -65 -65h-64c-41 0 -63 22 -66 63h-1
c-28 -53 -84 -75 -145 -75c-136 0 -232 111 -232 273zM226 259c0 -60 33 -100 81 -100c42 0 80 32 80 98c0 57 -29 100 -79 100c-45 0 -82 -34 -82 -98z" />
    <glyph glyph-name="Emacron" unicode="&#x112;" horiz-adv-x="556" 
d="M55 65v589c0 43 23 65 66 65h335c42 0 65 -22 65 -65v-50c0 -42 -23 -65 -65 -65h-190v-87h136c43 0 66 -23 66 -65v-50c0 -43 -23 -65 -66 -65h-136v-92h202c43 0 66 -23 66 -65v-50c0 -42 -23 -65 -66 -65h-347c-43 0 -66 23 -66 65zM218 781c-43 0 -65 19 -65 61v9
c0 43 22 62 65 62h154c43 0 66 -19 66 -62v-9c0 -42 -23 -61 -66 -61h-154z" />
    <glyph glyph-name="emacron" unicode="&#x113;" horiz-adv-x="554" 
d="M16 260c0 147 98 271 275 271c159 0 247 -110 247 -243c0 -31 -28 -68 -69 -68h-242c17 -45 58 -60 97 -60c25 0 54 5 81 17c39 17 68 12 88 -26l16 -31c19 -38 13 -70 -23 -90c-41 -21 -102 -42 -180 -42c-196 0 -290 141 -290 272zM229 325h108c3 32 -14 65 -48 65
c-45 0 -58 -34 -60 -65zM208 576c-43 0 -65 19 -65 61v9c0 43 22 62 65 62h154c43 0 66 -19 66 -62v-9c0 -42 -23 -61 -66 -61h-154z" />
    <glyph glyph-name="Ebreve" unicode="&#x114;" horiz-adv-x="556" 
d="M55 65v589c0 43 23 65 66 65h335c42 0 65 -22 65 -65v-50c0 -42 -23 -65 -65 -65h-190v-87h136c43 0 66 -23 66 -65v-50c0 -43 -23 -65 -66 -65h-136v-92h202c43 0 66 -23 66 -65v-50c0 -42 -23 -65 -66 -65h-347c-43 0 -66 23 -66 65zM295 758c-80 0 -193 42 -193 130
c0 19 10 28 38 32l42 5c37 4 46 -19 53 -37c7 -17 24 -33 59 -33s52 16 59 33c7 18 16 41 53 37l42 -5c28 -4 38 -13 38 -32c0 -88 -111 -130 -191 -130z" />
    <glyph glyph-name="ebreve" unicode="&#x115;" horiz-adv-x="554" 
d="M16 260c0 147 98 271 275 271c159 0 247 -110 247 -243c0 -31 -28 -68 -69 -68h-242c17 -45 58 -60 97 -60c25 0 54 5 81 17c39 17 68 12 88 -26l16 -31c19 -38 13 -70 -23 -90c-41 -21 -102 -42 -180 -42c-196 0 -290 141 -290 272zM229 325h108c3 32 -14 65 -48 65
c-45 0 -58 -34 -60 -65zM285 553c-80 0 -193 42 -193 130c0 19 10 28 38 32l42 5c37 4 46 -19 53 -37c7 -17 24 -33 59 -33s52 16 59 33c7 18 16 41 53 37l42 -5c28 -4 38 -13 38 -32c0 -88 -111 -130 -191 -130z" />
    <glyph glyph-name="Edotaccent" unicode="&#x116;" horiz-adv-x="556" 
d="M55 65v589c0 43 23 65 66 65h335c42 0 65 -22 65 -65v-50c0 -42 -23 -65 -65 -65h-190v-87h136c43 0 66 -23 66 -65v-50c0 -43 -23 -65 -66 -65h-136v-92h202c43 0 66 -23 66 -65v-50c0 -42 -23 -65 -66 -65h-347c-43 0 -66 23 -66 65zM276 777c-43 0 -66 22 -66 65v17
c0 43 23 66 66 66h38c43 0 66 -23 66 -66v-17c0 -43 -23 -65 -66 -65h-38z" />
    <glyph glyph-name="edotaccent" unicode="&#x117;" horiz-adv-x="554" 
d="M16 260c0 147 98 271 275 271c159 0 247 -110 247 -243c0 -31 -28 -68 -69 -68h-242c17 -45 58 -60 97 -60c25 0 54 5 81 17c39 17 68 12 88 -26l16 -31c19 -38 13 -70 -23 -90c-41 -21 -102 -42 -180 -42c-196 0 -290 141 -290 272zM229 325h108c3 32 -14 65 -48 65
c-45 0 -58 -34 -60 -65zM266 572c-43 0 -66 22 -66 65v17c0 43 23 66 66 66h38c43 0 66 -23 66 -66v-17c0 -43 -23 -65 -66 -65h-38z" />
    <glyph glyph-name="Eogonek" unicode="&#x118;" horiz-adv-x="556" 
d="M55 65v589c0 43 23 65 66 65h335c42 0 65 -22 65 -65v-50c0 -42 -23 -65 -65 -65h-190v-87h136c43 0 66 -23 66 -65v-50c0 -43 -23 -65 -66 -65h-136v-92h202c43 0 66 -23 66 -65v-49c0 -64 -58 -71 -58 -118c0 -8 8 -11 18 -17c18 -10 22 -29 18 -58l-5 -36
c-3 -30 -29 -42 -56 -40c-56 4 -128 40 -128 99c0 37 21 74 46 104h-248c-43 0 -66 23 -66 65z" />
    <glyph glyph-name="eogonek" unicode="&#x119;" horiz-adv-x="554" 
d="M229 325h108c3 32 -14 65 -48 65c-45 0 -58 -34 -60 -65zM306 -12c-196 0 -290 141 -290 272c0 147 98 271 275 271c159 0 247 -110 247 -243c0 -31 -28 -68 -69 -68h-242c17 -45 58 -60 97 -60c25 0 54 5 81 17c39 17 69 13 88 -26l16 -33c17 -35 9 -61 -18 -90
c-14 -17 -57 -63 -57 -80c0 -8 8 -11 18 -17c17 -10 21 -29 18 -58l-5 -36c-3 -30 -29 -41 -57 -40c-54 2 -128 46 -128 93c0 44 26 75 57 102c-12 -3 -17 -4 -31 -4z" />
    <glyph glyph-name="Ecaron" unicode="&#x11a;" horiz-adv-x="556" 
d="M245 764c-35 0 -59 13 -79 43l-24 38c-30 45 -18 80 26 80h41c37 0 48 -15 66 -46l18 -37h2l18 37c18 31 29 46 66 46h41c44 0 56 -35 26 -80l-24 -38c-20 -30 -44 -43 -79 -43h-98zM55 65v589c0 43 23 65 66 65h335c42 0 65 -22 65 -65v-50c0 -42 -23 -65 -65 -65h-190
v-87h136c43 0 66 -23 66 -65v-50c0 -43 -23 -65 -66 -65h-136v-92h202c43 0 66 -23 66 -65v-50c0 -42 -23 -65 -66 -65h-347c-43 0 -66 23 -66 65z" />
    <glyph glyph-name="ecaron" unicode="&#x11b;" horiz-adv-x="554" 
d="M236 559c-35 0 -59 13 -79 43l-24 38c-30 45 -18 80 26 80h41c37 0 48 -15 66 -46l18 -37h2l18 37c18 31 29 46 66 46h41c44 0 56 -35 26 -80l-24 -38c-20 -30 -44 -43 -79 -43h-98zM16 260c0 147 98 271 275 271c159 0 247 -110 247 -243c0 -31 -28 -68 -69 -68h-242
c17 -45 58 -60 97 -60c25 0 54 5 81 17c39 17 68 12 88 -26l16 -31c19 -38 13 -70 -23 -90c-41 -21 -102 -42 -180 -42c-196 0 -290 141 -290 272zM229 325h108c3 32 -14 65 -48 65c-45 0 -58 -34 -60 -65z" />
    <glyph glyph-name="Gcircumflex" unicode="&#x11c;" horiz-adv-x="760" 
d="M270 764c-44 0 -56 33 -26 80l24 38c18 28 45 43 79 43h98c34 0 61 -15 79 -43l24 -38c30 -47 18 -80 -27 -80h-40c-39 0 -50 16 -65 45l-19 38h-2l-19 -38c-15 -29 -26 -45 -65 -45h-41zM24 354c0 222 159 377 384 377c112 0 203 -41 232 -62c36 -26 40 -52 17 -90
l-31 -50c-23 -36 -51 -38 -91 -18c-34 16 -62 28 -113 28c-134 0 -180 -84 -180 -172c0 -119 86 -187 178 -187c89 0 121 43 121 43v25h-29c-43 0 -65 23 -65 66v48c0 43 22 65 65 65h149c43 0 66 -22 66 -65v-297c0 -42 -23 -65 -66 -65h-39c-43 0 -65 23 -65 50v-9
c0 3 1 4 1 4h-2s-58 -57 -177 -57c-181 0 -355 135 -355 366z" />
    <glyph glyph-name="gcircumflex" unicode="&#x11d;" horiz-adv-x="621" 
d="M176 559c-44 0 -56 33 -26 80l24 38c18 28 45 43 79 43h98c34 0 61 -15 79 -43l24 -38c30 -47 18 -80 -27 -80h-40c-39 0 -50 16 -65 45l-19 38h-2l-19 -38c-15 -29 -26 -45 -65 -45h-41zM103 -67c18 47 39 49 83 39c30 -7 39 -11 74 -11c65 0 113 14 113 80v40h-2
c-22 -41 -58 -62 -120 -62c-158 0 -233 134 -233 259s75 253 236 253c117 0 138 -68 138 -68h1c2 32 25 56 66 56h57c43 0 65 -22 65 -65v-395c0 -198 -162 -269 -302 -269c-57 0 -125 12 -153 23c-43 16 -49 48 -36 84zM305 191c32 0 73 14 73 85c0 70 -40 83 -75 83
c-57 0 -76 -35 -76 -77c0 -40 18 -91 78 -91z" />
    <glyph glyph-name="Gbreve" unicode="&#x11e;" horiz-adv-x="760" 
d="M24 354c0 222 159 377 384 377c112 0 203 -41 232 -62c36 -26 40 -52 17 -90l-31 -50c-23 -36 -51 -38 -91 -18c-34 16 -62 28 -113 28c-134 0 -180 -84 -180 -172c0 -119 86 -187 178 -187c89 0 121 43 121 43v25h-29c-43 0 -65 23 -65 66v48c0 43 22 65 65 65h149
c43 0 66 -22 66 -65v-297c0 -42 -23 -65 -66 -65h-39c-43 0 -65 23 -65 50v-9c0 3 1 4 1 4h-2s-58 -57 -177 -57c-181 0 -355 135 -355 366zM397 758c-80 0 -193 42 -193 130c0 19 10 28 38 32l42 5c37 4 46 -19 53 -37c7 -17 24 -33 59 -33s52 16 59 33c7 18 16 41 53 37
l42 -5c28 -4 38 -13 38 -32c0 -88 -111 -130 -191 -130z" />
    <glyph glyph-name="gbreve" unicode="&#x11f;" horiz-adv-x="621" 
d="M103 -67c18 47 39 49 83 39c30 -7 39 -11 74 -11c65 0 113 14 113 80v40h-2c-22 -41 -58 -62 -120 -62c-158 0 -233 134 -233 259s75 253 236 253c117 0 138 -68 138 -68h1c2 32 25 56 66 56h57c43 0 65 -22 65 -65v-395c0 -198 -162 -269 -302 -269
c-57 0 -125 12 -153 23c-43 16 -49 48 -36 84zM305 191c32 0 73 14 73 85c0 70 -40 83 -75 83c-57 0 -76 -35 -76 -77c0 -40 18 -91 78 -91zM303 553c-80 0 -193 42 -193 130c0 19 10 28 38 32l42 5c37 4 46 -19 53 -37c7 -17 24 -33 59 -33s52 16 59 33c7 18 16 41 53 37
l42 -5c28 -4 38 -13 38 -32c0 -88 -111 -130 -191 -130z" />
    <glyph glyph-name="Gdotaccent" unicode="&#x120;" horiz-adv-x="760" 
d="M24 354c0 222 159 377 384 377c112 0 203 -41 232 -62c36 -26 40 -52 17 -90l-31 -50c-23 -36 -51 -38 -91 -18c-34 16 -62 28 -113 28c-134 0 -180 -84 -180 -172c0 -119 86 -187 178 -187c89 0 121 43 121 43v25h-29c-43 0 -65 23 -65 66v48c0 43 22 65 65 65h149
c43 0 66 -22 66 -65v-297c0 -42 -23 -65 -66 -65h-39c-43 0 -65 23 -65 50v-9c0 3 1 4 1 4h-2s-58 -57 -177 -57c-181 0 -355 135 -355 366zM378 777c-43 0 -66 22 -66 65v17c0 43 23 66 66 66h38c43 0 66 -23 66 -66v-17c0 -43 -23 -65 -66 -65h-38z" />
    <glyph glyph-name="gdotaccent" unicode="&#x121;" horiz-adv-x="621" 
d="M103 -67c18 47 39 49 83 39c30 -7 39 -11 74 -11c65 0 113 14 113 80v40h-2c-22 -41 -58 -62 -120 -62c-158 0 -233 134 -233 259s75 253 236 253c117 0 138 -68 138 -68h1c2 32 25 56 66 56h57c43 0 65 -22 65 -65v-395c0 -198 -162 -269 -302 -269
c-57 0 -125 12 -153 23c-43 16 -49 48 -36 84zM305 191c32 0 73 14 73 85c0 70 -40 83 -75 83c-57 0 -76 -35 -76 -77c0 -40 18 -91 78 -91zM284 572c-43 0 -66 22 -66 65v17c0 43 23 66 66 66h38c43 0 66 -23 66 -66v-17c0 -43 -23 -65 -66 -65h-38z" />
    <glyph glyph-name="Gcommaaccent" unicode="&#x122;" horiz-adv-x="760" 
d="M303 -83c0 31 23 39 58 39h26c58 0 75 -32 75 -75c0 -84 -48 -119 -90 -119h-18c-37 0 -57 11 -57 35c0 25 11 43 11 68c0 12 -5 36 -5 52zM24 354c0 222 159 377 384 377c112 0 203 -41 232 -62c36 -26 40 -52 17 -90l-31 -50c-23 -36 -51 -38 -91 -18
c-34 16 -62 28 -113 28c-134 0 -180 -84 -180 -172c0 -119 86 -187 178 -187c89 0 121 43 121 43v25h-29c-43 0 -65 23 -65 66v48c0 43 22 65 65 65h149c43 0 66 -22 66 -65v-297c0 -42 -23 -65 -66 -65h-39c-43 0 -65 23 -65 50v-9c0 3 1 4 1 4h-2s-58 -57 -177 -57
c-181 0 -355 135 -355 366z" />
    <glyph glyph-name="gcommaaccent" unicode="&#x123;" horiz-adv-x="621" 
d="M377 608c0 -31 -23 -39 -58 -39h-26c-58 0 -75 32 -75 75c0 84 48 119 90 119h18c37 0 57 -11 57 -35c0 -25 -11 -43 -11 -68c0 -12 5 -36 5 -52zM103 -67c18 47 39 49 83 39c30 -7 39 -11 74 -11c65 0 113 14 113 80v40h-2c-22 -41 -58 -62 -120 -62
c-158 0 -233 134 -233 259s75 253 236 253c117 0 138 -68 138 -68h1c2 32 25 56 66 56h57c43 0 65 -22 65 -65v-395c0 -198 -162 -269 -302 -269c-57 0 -125 12 -153 23c-43 16 -49 48 -36 84zM305 191c32 0 73 14 73 85c0 70 -40 83 -75 83c-57 0 -76 -35 -76 -77
c0 -40 18 -91 78 -91z" />
    <glyph glyph-name="Hcircumflex" unicode="&#x124;" horiz-adv-x="742" 
d="M245 764c-44 0 -56 33 -26 80l24 38c18 28 45 43 79 43h98c34 0 61 -15 79 -43l24 -38c30 -47 18 -80 -27 -80h-40c-39 0 -50 16 -65 45l-19 38h-2l-19 -38c-15 -29 -26 -45 -65 -45h-41zM55 65v589c0 43 23 65 66 65h80c43 0 65 -22 65 -65v-209h210v209
c0 43 23 65 65 65h81c42 0 65 -22 65 -65v-589c0 -42 -23 -65 -65 -65h-81c-42 0 -65 23 -65 65v201h-210v-201c0 -42 -22 -65 -65 -65h-80c-43 0 -66 23 -66 65z" />
    <glyph glyph-name="hcircumflex" unicode="&#x125;" horiz-adv-x="614" 
d="M19 764c-44 0 -56 33 -26 80l24 38c18 28 45 43 79 43h98c34 0 61 -15 79 -43l24 -38c30 -47 18 -80 -27 -80h-40c-39 0 -50 16 -65 45l-19 38h-2l-19 -38c-15 -29 -26 -45 -65 -45h-41zM373 65v229c0 37 -17 49 -46 49c-65 0 -78 -60 -78 -114v-164
c0 -42 -23 -65 -65 -65h-78c-43 0 -66 23 -66 65v589c0 43 23 65 66 65h78c42 0 65 -22 65 -65v-149c0 -27 -2 -45 -2 -45h2c33 51 89 71 144 71c94 0 189 -40 189 -192v-274c0 -42 -23 -65 -65 -65h-78c-43 0 -66 23 -66 65z" />
    <glyph glyph-name="Hbar" unicode="&#x126;" horiz-adv-x="746" 
d="M64 65v454c-42 0 -66 18 -66 60v6c0 40 24 59 66 59v10c0 43 23 65 66 65h85c43 0 65 -19 65 -53v-22h187v10c0 43 23 65 66 65h85c43 0 65 -19 65 -53v-22c43 0 65 -19 65 -59v-6c0 -42 -22 -60 -65 -60v-454c0 -42 -22 -65 -65 -65h-85c-43 0 -66 23 -66 65v201h-187
v-201c0 -42 -22 -65 -65 -65h-85c-43 0 -66 23 -66 65zM280 445h187v74h-187v-74z" />
    <glyph glyph-name="hbar" unicode="&#x127;" horiz-adv-x="614" 
d="M40 65v485c-35 3 -51 20 -51 53v6c0 31 17 47 51 51c2 39 25 59 66 59h78c42 0 65 -14 65 -37v-22h69c43 0 65 -16 65 -51v-6c0 -37 -22 -53 -65 -53h-69v-41c0 -33 -2 -55 -2 -55h2c32 59 86 77 147 77c90 0 186 -40 186 -192v-274c0 -42 -23 -65 -65 -65h-78
c-43 0 -66 23 -66 65v232c0 38 -22 46 -46 46c-62 0 -78 -55 -78 -114v-164c0 -42 -23 -65 -65 -65h-78c-43 0 -66 23 -66 65z" />
    <glyph glyph-name="Itilde" unicode="&#x128;" horiz-adv-x="321" 
d="M55 65v589c0 43 23 65 66 65h80c43 0 65 -22 65 -65v-589c0 -42 -22 -65 -65 -65h-80c-43 0 -66 23 -66 65zM8 763c-35 0 -57 17 -57 53c0 57 50 112 120 112c83 0 110 -56 147 -56c16 0 27 4 31 23c2 18 22 30 54 30h13c38 0 57 -14 57 -49c0 -67 -48 -116 -119 -116
c-83 0 -111 56 -147 56c-18 0 -31 -10 -35 -25c-4 -18 -23 -28 -50 -28h-14z" />
    <glyph glyph-name="itilde" unicode="&#x129;" horiz-adv-x="285" 
d="M38 65v389c0 43 23 65 65 65h78c43 0 66 -22 66 -65v-389c0 -42 -23 -65 -66 -65h-78c-42 0 -65 23 -65 65zM-12 558c-35 0 -57 17 -57 53c0 57 50 112 120 112c83 0 110 -56 147 -56c16 0 27 4 31 23c2 18 22 30 54 30h13c38 0 57 -14 57 -49c0 -67 -48 -116 -119 -116
c-83 0 -111 56 -147 56c-18 0 -31 -10 -35 -25c-4 -18 -23 -28 -50 -28h-14z" />
    <glyph glyph-name="Imacron" unicode="&#x12a;" horiz-adv-x="321" 
d="M55 65v589c0 43 23 65 66 65h80c43 0 65 -22 65 -65v-589c0 -42 -22 -65 -65 -65h-80c-43 0 -66 23 -66 65zM85 781c-43 0 -65 19 -65 61v9c0 43 22 62 65 62h154c43 0 66 -19 66 -62v-9c0 -42 -23 -61 -66 -61h-154z" />
    <glyph glyph-name="imacron" unicode="&#x12b;" horiz-adv-x="285" 
d="M38 65v389c0 43 23 65 65 65h78c43 0 66 -22 66 -65v-389c0 -42 -23 -65 -66 -65h-78c-42 0 -65 23 -65 65zM65 576c-43 0 -65 19 -65 61v9c0 43 22 62 65 62h154c43 0 66 -19 66 -62v-9c0 -42 -23 -61 -66 -61h-154z" />
    <glyph glyph-name="Ibreve" unicode="&#x12c;" horiz-adv-x="321" 
d="M55 65v589c0 43 23 65 66 65h80c43 0 65 -22 65 -65v-589c0 -42 -22 -65 -65 -65h-80c-43 0 -66 23 -66 65zM162 758c-80 0 -193 42 -193 130c0 19 10 28 38 32l42 5c37 4 46 -19 53 -37c7 -17 24 -33 59 -33s52 16 59 33c7 18 16 41 53 37l42 -5c28 -4 38 -13 38 -32
c0 -88 -111 -130 -191 -130z" />
    <glyph glyph-name="ibreve" unicode="&#x12d;" horiz-adv-x="285" 
d="M38 65v389c0 43 23 65 65 65h78c43 0 66 -22 66 -65v-389c0 -42 -23 -65 -66 -65h-78c-42 0 -65 23 -65 65zM142 553c-80 0 -193 42 -193 130c0 19 10 28 38 32l42 5c37 4 46 -19 53 -37c7 -17 24 -33 59 -33s52 16 59 33c7 18 16 41 53 37l42 -5c28 -4 38 -13 38 -32
c0 -88 -111 -130 -191 -130z" />
    <glyph glyph-name="Iogonek" unicode="&#x12e;" horiz-adv-x="321" 
d="M55 65v589c0 43 23 65 66 65h80c43 0 65 -22 65 -65v-589c0 -54 -58 -70 -58 -117c0 -8 8 -11 18 -17c17 -10 21 -29 18 -58l-5 -36c-3 -30 -29 -40 -57 -40c-54 0 -127 40 -127 99c0 37 19 75 44 105c-30 8 -44 30 -44 64z" />
    <glyph glyph-name="iogonek" unicode="&#x12f;" horiz-adv-x="286" 
d="M108 567c-43 0 -66 23 -66 66v21c0 43 23 65 66 65h70c43 0 66 -22 66 -65v-21c0 -43 -23 -66 -66 -66h-70zM39 65v389c0 43 22 65 65 65h78c43 0 65 -22 65 -65v-389c0 -54 -58 -70 -58 -117c0 -8 8 -11 18 -17c17 -10 21 -29 18 -58l-5 -36c-3 -30 -29 -40 -57 -40
c-54 0 -127 40 -127 99c0 37 19 75 44 105c-27 8 -41 30 -41 64z" />
    <glyph glyph-name="Idotaccent" unicode="&#x130;" horiz-adv-x="321" 
d="M55 65v589c0 43 23 65 66 65h80c43 0 65 -22 65 -65v-589c0 -42 -22 -65 -65 -65h-80c-43 0 -66 23 -66 65zM143 777c-43 0 -66 22 -66 65v17c0 43 23 66 66 66h38c43 0 66 -23 66 -66v-17c0 -43 -23 -65 -66 -65h-38z" />
    <glyph glyph-name="dotlessi" unicode="&#x131;" horiz-adv-x="285" 
d="M38 65v389c0 43 23 65 65 65h78c43 0 66 -22 66 -65v-389c0 -42 -23 -65 -66 -65h-78c-42 0 -65 23 -65 65z" />
    <glyph glyph-name="IJ" unicode="&#x132;" horiz-adv-x="695" 
d="M323 63v64c0 40 20 55 56 70c27 17 50 48 50 87v370c0 43 22 65 65 65h85c43 0 66 -22 66 -65v-385c0 -202 -172 -269 -255 -269c-43 0 -67 20 -67 63zM55 65v589c0 43 23 65 66 65h80c43 0 65 -22 65 -65v-589c0 -42 -22 -65 -65 -65h-80c-43 0 -66 23 -66 65z" />
    <glyph glyph-name="ij" unicode="&#x133;" horiz-adv-x="611" 
d="M107 567c-43 0 -65 23 -65 66v21c0 43 22 65 65 65h71c42 0 65 -22 65 -65v-21c0 -43 -23 -66 -65 -66h-71zM38 65v389c0 43 23 65 65 65h78c43 0 66 -22 66 -65v-389c0 -42 -23 -65 -66 -65h-78c-42 0 -65 23 -65 65zM431 567c-43 0 -65 23 -65 66v21c0 43 22 65 65 65
h71c43 0 65 -22 65 -65v-21c0 -43 -22 -66 -65 -66h-71zM362 11v443c0 43 23 65 66 65h78c42 0 65 -22 65 -65v-460c0 -168 -177 -203 -230 -203h-21c-43 0 -65 23 -65 66v42c0 53 34 60 65 65c24 4 42 18 42 47z" />
    <glyph glyph-name="Jcircumflex" unicode="&#x134;" horiz-adv-x="563" 
d="M176 764c-44 0 -56 33 -26 80l24 38c18 28 45 43 79 43h98c34 0 61 -15 79 -43l24 -38c30 -47 18 -80 -27 -80h-40c-39 0 -50 16 -65 45l-19 38h-2l-19 -38c-15 -29 -26 -45 -65 -45h-41zM6 214c0 51 18 74 65 74h82c51 0 54 -22 61 -60c5 -25 20 -48 48 -48
c26 0 40 20 40 53v306h-133c-43 0 -65 23 -65 65v50c0 43 22 65 65 65h279c43 0 65 -22 65 -65v-426c0 -159 -127 -240 -251 -240c-131 0 -256 90 -256 226z" />
    <glyph glyph-name="jcircumflex" unicode="&#x135;" horiz-adv-x="289" 
d="M21 558c-48 0 -54 38 -27 80l24 38c20 31 46 43 80 43h97c37 0 61 -15 79 -43l24 -38c30 -47 18 -80 -26 -80h-40c-30 0 -47 10 -66 46l-19 37h-2l-18 -37c-20 -39 -40 -46 -66 -46h-40zM40 6v448c0 43 23 65 66 65h78c42 0 65 -22 65 -65v-460
c0 -168 -177 -203 -230 -203h-21c-43 0 -65 23 -65 66v42c0 53 32 59 65 65c26 5 42 16 42 42z" />
    <glyph glyph-name="Kcommaaccent" unicode="&#x136;" horiz-adv-x="680" 
d="M268 -83c0 31 23 39 58 39h26c58 0 75 -32 75 -75c0 -84 -48 -119 -90 -119h-18c-37 0 -57 11 -57 35c0 25 11 43 11 68c0 12 -5 36 -5 52zM55 65v589c0 43 23 65 66 65h80c43 0 65 -22 65 -65v-201h56l109 219c18 33 42 47 78 47h82c52 0 71 -33 47 -78l-144 -267v-2
l155 -293c25 -46 6 -79 -46 -79h-94c-36 0 -60 14 -78 47l-109 227h-56v-209c0 -42 -22 -65 -65 -65h-80c-43 0 -66 23 -66 65z" />
    <glyph glyph-name="kcommaaccent" unicode="&#x137;" horiz-adv-x="594" 
d="M235 -83c0 31 23 39 58 39h26c58 0 75 -32 75 -75c0 -84 -48 -119 -90 -119h-18c-37 0 -57 11 -57 35c0 25 11 43 11 68c0 12 -5 36 -5 52zM40 65v589c0 43 23 65 66 65h78c42 0 65 -22 65 -65v-298h38l60 119c17 31 41 44 77 44h80c53 0 71 -34 43 -78l-93 -161v-2
l117 -200c27 -45 9 -78 -44 -78h-92c-35 0 -59 14 -77 47l-65 136h-44v-118c0 -42 -23 -65 -65 -65h-78c-43 0 -66 23 -66 65z" />
    <glyph glyph-name="kgreenlandic" unicode="&#x138;" horiz-adv-x="589" 
d="M38 65v389c0 43 23 65 65 65h78c43 0 66 -22 66 -65v-106h39l61 125c17 34 43 46 78 46h79c61 0 64 -44 45 -78l-97 -170v-2l111 -191c29 -50 7 -78 -44 -78h-94c-34 0 -60 12 -76 47l-57 127h-45v-109c0 -42 -23 -65 -66 -65h-78c-42 0 -65 23 -65 65z" />
    <glyph glyph-name="Lacute" unicode="&#x139;" horiz-adv-x="551" 
d="M151 764c-43 0 -60 33 -38 72l23 42c18 32 42 47 77 47h54c56 0 68 -37 33 -80l-35 -42c-22 -26 -45 -39 -79 -39h-35zM55 65v589c0 43 23 65 66 65h80c43 0 65 -22 65 -65v-474h215c43 0 66 -23 66 -65v-50c0 -42 -23 -65 -66 -65h-360c-43 0 -66 23 -66 65z" />
    <glyph glyph-name="lacute" unicode="&#x13a;" horiz-adv-x="322" 
d="M133 764c-43 0 -60 33 -38 72l23 42c18 32 42 47 77 47h54c56 0 68 -37 33 -80l-35 -42c-22 -26 -45 -39 -79 -39h-35zM38 214v440c0 43 23 65 66 65h78c42 0 65 -22 65 -65v-433c0 -31 7 -42 21 -44c28 -3 46 -20 46 -55v-61c0 -40 -19 -66 -66 -66
c-105 0 -210 25 -210 219z" />
    <glyph glyph-name="Lcommaaccent" unicode="&#x13b;" horiz-adv-x="551" 
d="M231 -83c0 31 23 39 58 39h26c58 0 75 -32 75 -75c0 -84 -48 -119 -90 -119h-18c-37 0 -57 11 -57 35c0 25 11 43 11 68c0 12 -5 36 -5 52zM55 65v589c0 43 23 65 66 65h80c43 0 65 -22 65 -65v-474h215c43 0 66 -23 66 -65v-50c0 -42 -23 -65 -66 -65h-360
c-43 0 -66 23 -66 65z" />
    <glyph glyph-name="lcommaaccent" unicode="&#x13c;" horiz-adv-x="321" 
d="M110 -83c0 31 23 39 58 39h26c58 0 75 -32 75 -75c0 -84 -48 -119 -90 -119h-18c-37 0 -57 11 -57 35c0 25 11 43 11 68c0 12 -5 36 -5 52zM37 214v440c0 43 23 65 66 65h78c42 0 65 -22 65 -65v-433c0 -31 7 -42 21 -44c28 -3 46 -20 46 -55v-61c0 -40 -19 -66 -66 -66
c-105 0 -210 25 -210 219z" />
    <glyph glyph-name="Lcaron" unicode="&#x13d;" horiz-adv-x="553" 
d="M338 680c0 31 23 39 58 39h26c58 0 75 -32 75 -75c0 -84 -48 -119 -90 -119h-18c-37 0 -57 11 -57 35c0 25 11 43 11 68c0 12 -5 36 -5 52zM55 65v589c0 43 23 65 66 65h80c43 0 65 -22 65 -65v-474h215c43 0 66 -23 66 -65v-50c0 -42 -23 -65 -66 -65h-360
c-43 0 -66 23 -66 65z" />
    <glyph glyph-name="lcaron" unicode="&#x13e;" horiz-adv-x="322" 
d="M298 680c0 31 23 39 58 39h26c58 0 75 -32 75 -75c0 -84 -48 -119 -90 -119h-18c-37 0 -57 11 -57 35c0 25 11 43 11 68c0 12 -5 36 -5 52zM38 214v440c0 43 23 65 66 65h78c42 0 65 -22 65 -65v-433c0 -31 7 -42 21 -44c28 -3 46 -20 46 -55v-61c0 -40 -19 -66 -66 -66
c-105 0 -210 25 -210 219z" />
    <glyph glyph-name="Ldot" unicode="&#x13f;" horiz-adv-x="557" 
d="M55 65v589c0 43 23 65 66 65h80c43 0 65 -22 65 -65v-474h215c43 0 66 -23 66 -65v-50c0 -42 -23 -65 -66 -65h-360c-43 0 -66 23 -66 65zM414 310c-43 0 -66 22 -66 65v61c0 43 23 65 66 65h53c43 0 66 -22 66 -65v-61c0 -43 -23 -65 -66 -65h-53z" />
    <glyph glyph-name="ldot" unicode="&#x140;" horiz-adv-x="488" 
d="M38 214v440c0 43 23 65 66 65h78c42 0 65 -22 65 -65v-433c0 -31 7 -42 21 -44c28 -3 46 -20 46 -55v-61c0 -40 -19 -66 -66 -66c-105 0 -210 25 -210 219zM363 310c-43 0 -66 22 -66 65v61c0 43 23 65 66 65h53c43 0 66 -22 66 -65v-61c0 -43 -23 -65 -66 -65h-53z" />
    <glyph glyph-name="Lslash" unicode="&#x141;" horiz-adv-x="555" 
d="M59 65v96c-22 -9 -49 9 -49 61v56c0 37 9 58 30 70l19 10v296c0 43 22 65 65 65h80c43 0 66 -22 66 -65v-175l18 10c46 26 79 7 79 -45v-55c0 -37 -14 -61 -45 -79l-52 -29v-101h215c43 0 65 -23 65 -65v-50c0 -42 -22 -65 -65 -65h-361c-43 0 -65 23 -65 65z" />
    <glyph glyph-name="lslash" unicode="&#x142;" horiz-adv-x="329" 
d="M5 304c0 36 8 58 29 69l11 6v275c0 43 22 65 65 65h78c43 0 65 -22 65 -65v-158c37 14 63 -7 63 -52v-55c0 -37 -13 -60 -40 -76l-23 -13v-79c0 -31 7 -42 21 -44c28 -3 47 -20 47 -55v-61c0 -40 -19 -66 -66 -66c-106 0 -210 25 -210 219c-22 -9 -40 10 -40 44v46z" />
    <glyph glyph-name="Nacute" unicode="&#x143;" horiz-adv-x="733" 
d="M356 764c-43 0 -60 33 -38 72l23 42c18 32 42 47 77 47h54c56 0 68 -37 33 -80l-35 -42c-22 -26 -45 -39 -79 -39h-35zM55 65v589c0 43 23 65 66 65h96c37 0 61 -13 78 -44l118 -231c29 -52 61 -132 61 -132h2s-9 84 -9 132v210c0 43 22 65 65 65h80c43 0 66 -22 66 -65
v-589c0 -42 -23 -65 -66 -65h-96c-36 0 -60 13 -77 44l-119 230c-29 51 -61 131 -61 131h-2s9 -83 9 -131v-209c0 -42 -22 -65 -65 -65h-80c-43 0 -66 23 -66 65z" />
    <glyph glyph-name="nacute" unicode="&#x144;" 
d="M299 559c-43 0 -60 33 -38 72l23 42c18 32 42 47 77 47h54c56 0 68 -37 33 -80l-35 -42c-22 -26 -45 -39 -79 -39h-35zM38 65v389c0 43 23 65 65 65h69c43 0 64 -26 64 -73h2c28 52 70 85 154 85c93 0 188 -40 188 -192v-274c0 -42 -23 -65 -66 -65h-78
c-42 0 -65 23 -65 65v229c0 37 -17 49 -46 49c-65 0 -78 -60 -78 -114v-164c0 -42 -23 -65 -66 -65h-78c-42 0 -65 23 -65 65z" />
    <glyph glyph-name="Ncommaaccent" unicode="&#x145;" horiz-adv-x="733" 
d="M293 -83c0 31 23 39 58 39h26c58 0 75 -32 75 -75c0 -84 -48 -119 -90 -119h-18c-37 0 -57 11 -57 35c0 25 11 43 11 68c0 12 -5 36 -5 52zM55 65v589c0 43 23 65 66 65h96c37 0 61 -13 78 -44l118 -231c29 -52 61 -132 61 -132h2s-9 84 -9 132v210c0 43 22 65 65 65h80
c43 0 66 -22 66 -65v-589c0 -42 -23 -65 -66 -65h-96c-36 0 -60 13 -77 44l-119 230c-29 51 -61 131 -61 131h-2s9 -83 9 -131v-209c0 -42 -22 -65 -65 -65h-80c-43 0 -66 23 -66 65z" />
    <glyph glyph-name="ncommaaccent" unicode="&#x146;" 
d="M230 -83c0 31 23 39 58 39h26c58 0 75 -32 75 -75c0 -84 -48 -119 -90 -119h-18c-37 0 -57 11 -57 35c0 25 11 43 11 68c0 12 -5 36 -5 52zM38 65v389c0 43 23 65 65 65h69c43 0 64 -26 64 -73h2c28 52 70 85 154 85c93 0 188 -40 188 -192v-274c0 -42 -23 -65 -66 -65
h-78c-42 0 -65 23 -65 65v229c0 37 -17 49 -46 49c-65 0 -78 -60 -78 -114v-164c0 -42 -23 -65 -66 -65h-78c-42 0 -65 23 -65 65z" />
    <glyph glyph-name="Ncaron" unicode="&#x147;" horiz-adv-x="733" 
d="M317 764c-35 0 -59 13 -79 43l-24 38c-30 45 -18 80 26 80h41c37 0 48 -15 66 -46l18 -37h2l18 37c18 31 29 46 66 46h41c44 0 56 -35 26 -80l-24 -38c-20 -30 -44 -43 -79 -43h-98zM55 65v589c0 43 23 65 66 65h96c37 0 61 -13 78 -44l118 -231c29 -52 61 -132 61 -132
h2s-9 84 -9 132v210c0 43 22 65 65 65h80c43 0 66 -22 66 -65v-589c0 -42 -23 -65 -66 -65h-96c-36 0 -60 13 -77 44l-119 230c-29 51 -61 131 -61 131h-2s9 -83 9 -131v-209c0 -42 -22 -65 -65 -65h-80c-43 0 -66 23 -66 65z" />
    <glyph glyph-name="ncaron" unicode="&#x148;" 
d="M261 559c-35 0 -59 13 -79 43l-24 38c-30 45 -18 80 26 80h41c37 0 48 -15 66 -46l18 -37h2l18 37c18 31 29 46 66 46h41c44 0 56 -35 26 -80l-24 -38c-20 -30 -44 -43 -79 -43h-98zM38 65v389c0 43 23 65 65 65h69c43 0 64 -26 64 -73h2c28 52 70 85 154 85
c93 0 188 -40 188 -192v-274c0 -42 -23 -65 -66 -65h-78c-42 0 -65 23 -65 65v229c0 37 -17 49 -46 49c-65 0 -78 -60 -78 -114v-164c0 -42 -23 -65 -66 -65h-78c-42 0 -65 23 -65 65z" />
    <glyph glyph-name="napostrophe" unicode="&#x149;" 
d="M-56 680c0 31 23 39 58 39h26c58 0 75 -32 75 -75c0 -84 -48 -119 -90 -119h-18c-37 0 -57 11 -57 35c0 25 11 43 11 68c0 12 -5 36 -5 52zM38 65v389c0 43 23 65 65 65h69c43 0 64 -26 64 -73h2c28 52 70 85 154 85c93 0 188 -40 188 -192v-274c0 -42 -23 -65 -66 -65
h-78c-42 0 -65 23 -65 65v229c0 37 -17 49 -46 49c-65 0 -78 -60 -78 -114v-164c0 -42 -23 -65 -66 -65h-78c-42 0 -65 23 -65 65z" />
    <glyph glyph-name="Eng" unicode="&#x14a;" horiz-adv-x="734" 
d="M55 65v589c0 43 23 65 66 65h96c40 0 63 -16 78 -44l119 -231c25 -49 60 -132 60 -132h2s-9 84 -9 132v210c0 43 22 65 65 65h80c43 0 66 -22 66 -65v-665c0 -174 -183 -199 -238 -199s-78 25 -78 67v46c0 53 36 60 66 65c17 3 46 9 46 30l-155 276
c-28 50 -60 131 -60 131h-2s9 -83 9 -131v-209c0 -42 -22 -65 -65 -65h-80c-43 0 -66 23 -66 65z" />
    <glyph glyph-name="eng" unicode="&#x14b;" horiz-adv-x="618" 
d="M371 11v283c0 37 -17 49 -46 49c-65 0 -78 -60 -78 -114v-164c0 -42 -23 -65 -66 -65h-78c-42 0 -65 23 -65 65v389c0 43 23 65 65 65h69c43 0 64 -26 64 -73h2c28 52 70 85 154 85c93 0 188 -40 188 -192v-345c0 -168 -177 -203 -231 -203h-20c-43 0 -66 23 -66 66v47
c0 43 23 60 66 65c24 3 42 17 42 42z" />
    <glyph glyph-name="Omacron" unicode="&#x14c;" horiz-adv-x="807" 
d="M326 781c-43 0 -65 19 -65 61v9c0 43 22 62 65 62h154c43 0 66 -19 66 -62v-9c0 -42 -23 -61 -66 -61h-154zM24 364c0 206 151 367 379 367s380 -161 380 -367c0 -211 -152 -376 -380 -376s-379 165 -379 376zM242 364c0 -105 66 -184 161 -184c96 0 162 79 162 184
c0 100 -66 175 -162 175c-95 0 -161 -75 -161 -175z" />
    <glyph glyph-name="omacron" unicode="&#x14d;" horiz-adv-x="632" 
d="M239 576c-43 0 -65 19 -65 61v9c0 43 22 62 65 62h154c43 0 66 -19 66 -62v-9c0 -42 -23 -61 -66 -61h-154zM15 257c0 166 134 274 300 274c168 0 302 -108 302 -274c0 -164 -134 -269 -301 -269s-301 105 -301 269zM226 257c0 -64 42 -97 90 -97s91 33 91 97
c0 65 -43 102 -91 102s-90 -37 -90 -102z" />
    <glyph glyph-name="Obreve" unicode="&#x14e;" horiz-adv-x="807" 
d="M24 364c0 206 151 367 379 367s380 -161 380 -367c0 -211 -152 -376 -380 -376s-379 165 -379 376zM242 364c0 -105 66 -184 161 -184c96 0 162 79 162 184c0 100 -66 175 -162 175c-95 0 -161 -75 -161 -175zM403 758c-80 0 -193 42 -193 130c0 19 10 28 38 32l42 5
c37 4 46 -19 53 -37c7 -17 24 -33 59 -33s52 16 59 33c7 18 16 41 53 37l42 -5c28 -4 38 -13 38 -32c0 -88 -111 -130 -191 -130z" />
    <glyph glyph-name="obreve" unicode="&#x14f;" horiz-adv-x="632" 
d="M15 257c0 166 134 274 300 274c168 0 302 -108 302 -274c0 -164 -134 -269 -301 -269s-301 105 -301 269zM226 257c0 -64 42 -97 90 -97s91 33 91 97c0 65 -43 102 -91 102s-90 -37 -90 -102zM316 553c-80 0 -193 42 -193 130c0 19 10 28 38 32l42 5c37 4 46 -19 53 -37
c7 -17 24 -33 59 -33s52 16 59 33c7 18 16 41 53 37l42 -5c28 -4 38 -13 38 -32c0 -88 -111 -130 -191 -130z" />
    <glyph glyph-name="Ohungarumlaut" unicode="&#x150;" horiz-adv-x="807" 
d="M510 764c-57 0 -59 42 -39 79l19 35c18 33 43 47 77 47h44c59 0 65 -42 33 -80l-35 -42c-23 -28 -44 -39 -79 -39h-20zM278 764c-50 0 -65 29 -42 77l17 36c16 33 40 48 77 48h28c51 0 65 -32 42 -78l-18 -37c-16 -32 -45 -46 -78 -46h-26zM24 364c0 206 151 367 379 367
s380 -161 380 -367c0 -211 -152 -376 -380 -376s-379 165 -379 376zM242 364c0 -105 66 -184 161 -184c96 0 162 79 162 184c0 100 -66 175 -162 175c-95 0 -161 -75 -161 -175z" />
    <glyph glyph-name="ohungarumlaut" unicode="&#x151;" horiz-adv-x="632" 
d="M423 559c-57 0 -59 42 -39 79l19 35c18 33 43 47 77 47h44c59 0 65 -42 33 -80l-35 -42c-23 -28 -44 -39 -79 -39h-20zM191 559c-50 0 -65 29 -42 77l17 36c16 33 40 48 77 48h28c51 0 65 -32 42 -78l-18 -37c-16 -32 -45 -46 -78 -46h-26zM15 257c0 166 134 274 300 274
c168 0 302 -108 302 -274c0 -164 -134 -269 -301 -269s-301 105 -301 269zM226 257c0 -64 42 -97 90 -97s91 33 91 97c0 65 -43 102 -91 102s-90 -37 -90 -102z" />
    <glyph glyph-name="OE" unicode="&#x152;" horiz-adv-x="988" 
d="M21 361c0 206 180 366 392 366c78 0 89 -8 137 -8h336c43 0 66 -22 66 -65v-50c0 -42 -23 -65 -66 -65h-189v-87h136c43 0 65 -23 65 -65v-50c0 -43 -22 -65 -65 -65h-136v-92h203c43 0 66 -23 66 -65v-50c0 -42 -23 -65 -66 -65h-351c-48 0 -58 -7 -136 -7
c-212 0 -392 163 -392 368zM239 361c0 -103 80 -190 174 -190c46 0 73 7 73 7v363s-27 7 -73 7c-94 0 -174 -84 -174 -187z" />
    <glyph glyph-name="oe" unicode="&#x153;" horiz-adv-x="943" 
d="M15 258c0 163 129 273 292 273c97 0 141 -30 190 -66h2c41 34 80 66 181 66c159 0 247 -112 247 -248c0 -29 -28 -63 -69 -63h-243c16 -38 52 -60 98 -60c26 0 54 5 81 17c40 17 68 12 88 -26l16 -31c19 -37 13 -70 -23 -90c-40 -21 -102 -42 -180 -42
c-107 0 -149 37 -191 72h-2c-49 -38 -94 -72 -193 -72c-165 0 -294 108 -294 270zM224 258c0 -62 43 -98 91 -98s90 36 90 97c0 63 -41 102 -90 102c-48 0 -91 -38 -91 -101zM618 325h108c3 32 -14 65 -48 65c-45 0 -58 -34 -60 -65z" />
    <glyph glyph-name="Racute" unicode="&#x154;" horiz-adv-x="643" 
d="M300 764c-43 0 -60 33 -38 72l23 42c18 32 42 47 77 47h54c56 0 68 -37 33 -80l-35 -42c-22 -26 -45 -39 -79 -39h-35zM55 65v589c0 43 23 65 66 65h195c66 0 111 -4 143 -15c81 -27 141 -110 141 -216c0 -73 -30 -158 -100 -201v-2s16 -18 32 -46l90 -160
c28 -50 3 -79 -45 -79h-93c-31 0 -59 12 -77 46l-91 176h-50v-157c0 -42 -22 -65 -65 -65h-80c-43 0 -66 23 -66 65zM266 402h45c50 0 75 22 75 76c0 19 -3 41 -32 53c-16 7 -33 8 -56 8h-32v-137z" />
    <glyph glyph-name="racute" unicode="&#x155;" horiz-adv-x="423" 
d="M239 558c-43 0 -60 33 -38 72l23 42c18 32 42 47 77 47h54c56 0 68 -37 33 -80l-35 -42c-22 -26 -45 -39 -79 -39h-35zM38 65v389c0 43 23 65 65 65h69c43 0 66 -22 66 -65v-20c0 -15 -2 -29 -2 -29h2c15 46 69 120 129 120c41 0 54 -23 54 -66v-68
c0 -43 -22 -66 -64 -66c-74 0 -110 -53 -110 -129v-131c0 -42 -23 -65 -66 -65h-78c-42 0 -65 23 -65 65z" />
    <glyph glyph-name="Rcommaaccent" unicode="&#x156;" horiz-adv-x="643" 
d="M259 -83c0 31 23 39 58 39h26c58 0 75 -32 75 -75c0 -84 -48 -119 -90 -119h-18c-37 0 -57 11 -57 35c0 25 11 43 11 68c0 12 -5 36 -5 52zM55 65v589c0 43 23 65 66 65h195c66 0 111 -4 143 -15c81 -27 141 -110 141 -216c0 -73 -30 -158 -100 -201v-2s16 -18 32 -46
l90 -160c28 -50 3 -79 -45 -79h-93c-31 0 -59 12 -77 46l-91 176h-50v-157c0 -42 -22 -65 -65 -65h-80c-43 0 -66 23 -66 65zM266 402h45c50 0 75 22 75 76c0 19 -3 41 -32 53c-16 7 -33 8 -56 8h-32v-137z" />
    <glyph glyph-name="rcommaaccent" unicode="&#x157;" horiz-adv-x="423" 
d="M69 -83c0 31 23 39 58 39h26c58 0 75 -32 75 -75c0 -84 -48 -119 -90 -119h-18c-37 0 -57 11 -57 35c0 25 11 43 11 68c0 12 -5 36 -5 52zM38 65v389c0 43 23 65 65 65h69c43 0 66 -22 66 -65v-20c0 -15 -2 -29 -2 -29h2c15 46 69 120 129 120c41 0 54 -23 54 -66v-68
c0 -43 -22 -66 -64 -66c-74 0 -110 -53 -110 -129v-131c0 -42 -23 -65 -66 -65h-78c-42 0 -65 23 -65 65z" />
    <glyph glyph-name="Rcaron" unicode="&#x158;" horiz-adv-x="643" 
d="M262 764c-35 0 -59 13 -79 43l-24 38c-30 45 -18 80 26 80h41c37 0 48 -15 66 -46l18 -37h2l18 37c18 31 29 46 66 46h41c44 0 56 -35 26 -80l-24 -38c-20 -30 -44 -43 -79 -43h-98zM55 65v589c0 43 23 65 66 65h195c66 0 111 -4 143 -15c81 -27 141 -110 141 -216
c0 -73 -30 -158 -100 -201v-2s16 -18 32 -46l90 -160c28 -50 3 -79 -45 -79h-93c-31 0 -59 12 -77 46l-91 176h-50v-157c0 -42 -22 -65 -65 -65h-80c-43 0 -66 23 -66 65zM266 402h45c50 0 75 22 75 76c0 19 -3 41 -32 53c-16 7 -33 8 -56 8h-32v-137z" />
    <glyph glyph-name="rcaron" unicode="&#x159;" horiz-adv-x="423" 
d="M201 558c-35 0 -59 13 -79 43l-24 38c-30 45 -18 80 26 80h41c37 0 48 -15 66 -46l18 -37h2l18 37c18 31 29 46 66 46h41c44 0 56 -35 26 -80l-24 -38c-20 -30 -44 -43 -79 -43h-98zM38 65v389c0 43 23 65 65 65h69c43 0 66 -22 66 -65v-20c0 -15 -2 -29 -2 -29h2
c15 46 69 120 129 120c41 0 54 -23 54 -66v-68c0 -43 -22 -66 -64 -66c-74 0 -110 -53 -110 -129v-131c0 -42 -23 -65 -66 -65h-78c-42 0 -65 23 -65 65z" />
    <glyph glyph-name="Sacute" unicode="&#x15a;" horiz-adv-x="578" 
d="M277 764c-43 0 -60 33 -38 72l23 42c18 32 42 47 77 47h54c56 0 68 -37 33 -80l-35 -42c-22 -26 -45 -39 -79 -39h-35zM54 58c-25 19 -44 45 -13 90l38 55c24 35 51 37 90 16c23 -9 63 -41 119 -41c41 0 53 15 53 32c0 76 -304 61 -304 291c0 138 114 230 267 230
c83 0 163 -27 200 -52c35 -25 38 -55 21 -90l-29 -57c-24 -47 -56 -39 -89 -23c-36 16 -63 32 -106 32c-40 0 -54 -14 -54 -33c0 -82 305 -56 305 -287c0 -124 -94 -233 -264 -233c-99 0 -193 38 -234 70z" />
    <glyph glyph-name="sacute" unicode="&#x15b;" horiz-adv-x="467" 
d="M212 559c-43 0 -60 33 -38 72l23 42c18 32 42 47 77 47h54c56 0 68 -37 33 -80l-35 -42c-22 -26 -45 -39 -79 -39h-35zM51 31c-37 23 -40 55 -17 91l17 27c22 34 48 37 90 21c10 -4 47 -22 85 -22c22 0 30 9 30 20c0 44 -232 6 -232 188c0 116 101 175 225 175
c64 0 125 -16 153 -30c36 -18 42 -52 24 -88l-14 -28c-9 -19 -24 -51 -85 -31c-26 8 -53 18 -82 18c-20 0 -28 -7 -28 -19c0 -42 232 -4 232 -183c0 -104 -83 -182 -222 -182c-80 0 -149 26 -176 43z" />
    <glyph glyph-name="Scircumflex" unicode="&#x15c;" horiz-adv-x="578" 
d="M161 764c-44 0 -56 33 -26 80l24 38c18 28 45 43 79 43h98c34 0 61 -15 79 -43l24 -38c30 -47 18 -80 -27 -80h-40c-39 0 -50 16 -65 45l-19 38h-2l-19 -38c-15 -29 -26 -45 -65 -45h-41zM54 58c-25 19 -44 45 -13 90l38 55c24 35 51 37 90 16c23 -9 63 -41 119 -41
c41 0 53 15 53 32c0 76 -304 61 -304 291c0 138 114 230 267 230c83 0 163 -27 200 -52c35 -25 38 -55 21 -90l-29 -57c-24 -47 -56 -39 -89 -23c-36 16 -63 32 -106 32c-40 0 -54 -14 -54 -33c0 -82 305 -56 305 -287c0 -124 -94 -233 -264 -233c-99 0 -193 38 -234 70z
" />
    <glyph glyph-name="scircumflex" unicode="&#x15d;" horiz-adv-x="467" 
d="M99 559c-44 0 -56 33 -26 80l24 38c18 28 45 43 79 43h98c34 0 61 -15 79 -43l24 -38c30 -47 18 -80 -27 -80h-40c-39 0 -50 16 -65 45l-19 38h-2l-19 -38c-15 -29 -26 -45 -65 -45h-41zM51 31c-37 23 -40 55 -17 91l17 27c22 34 48 37 90 21c10 -4 47 -22 85 -22
c22 0 30 9 30 20c0 44 -232 6 -232 188c0 116 101 175 225 175c64 0 125 -16 153 -30c36 -18 42 -52 24 -88l-14 -28c-9 -19 -24 -51 -85 -31c-26 8 -53 18 -82 18c-20 0 -28 -7 -28 -19c0 -42 232 -4 232 -183c0 -104 -83 -182 -222 -182c-80 0 -149 26 -176 43z" />
    <glyph glyph-name="Scedilla" unicode="&#x15e;" horiz-adv-x="579" 
d="M231 -37l9 28c-80 9 -152 40 -186 67c-25 19 -44 45 -13 90l38 55c24 35 51 37 90 16c23 -9 63 -41 119 -41c41 0 53 15 53 32c0 76 -304 61 -304 291c0 138 114 230 267 230c83 0 163 -27 200 -52c35 -25 38 -55 21 -90l-29 -57c-24 -47 -56 -39 -89 -23
c-36 16 -63 32 -106 32c-40 0 -54 -14 -54 -33c0 -82 305 -56 305 -287c0 -113 -78 -213 -219 -230l-5 -20c40 -4 77 -26 77 -84c0 -76 -65 -99 -124 -99c-31 0 -70 7 -70 47c0 36 16 49 27 49s20 -1 24 -1c15 0 20 9 20 20c0 15 -16 19 -38 20c-19 1 -21 16 -13 40z" />
    <glyph glyph-name="scedilla" unicode="&#x15f;" horiz-adv-x="469" 
d="M159 -37l10 30c-54 7 -97 25 -117 38c-37 23 -40 55 -17 91l17 27c22 34 48 37 90 21c10 -4 47 -22 85 -22c22 0 30 9 30 20c0 44 -232 6 -232 188c0 116 101 175 225 175c64 0 125 -16 153 -30c36 -18 42 -52 24 -88l-14 -28c-9 -19 -24 -51 -85 -31
c-26 8 -53 18 -82 18c-20 0 -28 -7 -28 -19c0 -42 232 -4 232 -183c0 -96 -70 -170 -190 -180l-4 -19c40 -4 77 -26 77 -84c0 -76 -65 -99 -124 -99c-31 0 -70 7 -70 47c0 36 16 49 27 49s20 -1 24 -1c15 0 20 9 20 20c0 15 -16 19 -38 20c-19 1 -21 16 -13 40z" />
    <glyph glyph-name="Scaron" unicode="&#x160;" horiz-adv-x="578" 
d="M238 764c-35 0 -59 13 -79 43l-24 38c-30 45 -18 80 26 80h41c37 0 48 -15 66 -46l18 -37h2l18 37c18 31 29 46 66 46h41c44 0 56 -35 26 -80l-24 -38c-20 -30 -44 -43 -79 -43h-98zM54 58c-25 19 -44 45 -13 90l38 55c24 35 51 37 90 16c23 -9 63 -41 119 -41
c41 0 53 15 53 32c0 76 -304 61 -304 291c0 138 114 230 267 230c83 0 163 -27 200 -52c35 -25 38 -55 21 -90l-29 -57c-24 -47 -56 -39 -89 -23c-36 16 -63 32 -106 32c-40 0 -54 -14 -54 -33c0 -82 305 -56 305 -287c0 -124 -94 -233 -264 -233c-99 0 -193 38 -234 70z
" />
    <glyph glyph-name="scaron" unicode="&#x161;" horiz-adv-x="467" 
d="M176 559c-35 0 -59 13 -79 43l-24 38c-30 45 -18 80 26 80h41c37 0 48 -15 66 -46l18 -37h2l18 37c18 31 29 46 66 46h41c44 0 56 -35 26 -80l-24 -38c-20 -30 -44 -43 -79 -43h-98zM51 31c-37 23 -40 55 -17 91l17 27c22 34 48 37 90 21c10 -4 47 -22 85 -22
c22 0 30 9 30 20c0 44 -232 6 -232 188c0 116 101 175 225 175c64 0 125 -16 153 -30c36 -18 42 -52 24 -88l-14 -28c-9 -19 -24 -51 -85 -31c-26 8 -53 18 -82 18c-20 0 -28 -7 -28 -19c0 -42 232 -4 232 -183c0 -104 -83 -182 -222 -182c-80 0 -149 26 -176 43z" />
    <glyph glyph-name="Tcommaaccent" unicode="&#x162;" horiz-adv-x="631" 
d="M253 -37l13 37c-36 3 -56 26 -56 65v474h-140c-42 0 -65 23 -65 65v50c0 43 23 65 65 65h491c42 0 65 -22 65 -65v-50c0 -42 -23 -65 -65 -65h-140v-474c0 -42 -23 -65 -64 -65l-7 -29c40 -4 77 -26 77 -84c0 -76 -65 -99 -124 -99c-31 0 -70 7 -70 47c0 36 16 49 27 49
s20 -1 24 -1c15 0 20 9 20 20c0 15 -16 19 -38 20c-19 1 -21 16 -13 40z" />
    <glyph glyph-name="tcommaaccent" unicode="&#x163;" horiz-adv-x="420" 
d="M172 -37l19 57c-56 25 -106 73 -106 164v163h-6c-41 0 -64 23 -64 65v31c0 43 23 65 64 65h13v85c0 43 22 65 65 65h71c43 0 66 -22 66 -65v-85h36c43 0 66 -22 66 -65v-31c0 -42 -23 -65 -64 -65h-38v-124c0 -27 15 -43 43 -47c47 -7 64 -15 64 -60v-56
c0 -49 -30 -65 -85 -65c-11 0 -25 1 -41 3l-6 -27c40 -4 77 -26 77 -84c0 -76 -65 -99 -124 -99c-31 0 -70 7 -70 47c0 36 16 49 27 49s20 -1 24 -1c15 0 20 9 20 20c0 15 -16 19 -38 20c-19 1 -21 16 -13 40z" />
    <glyph glyph-name="Tcaron" unicode="&#x164;" horiz-adv-x="631" 
d="M265 764c-35 0 -59 13 -79 43l-24 38c-30 45 -18 80 26 80h41c37 0 48 -15 66 -46l18 -37h2l18 37c18 31 29 46 66 46h41c44 0 56 -35 26 -80l-24 -38c-20 -30 -44 -43 -79 -43h-98zM210 65v474h-140c-42 0 -65 23 -65 65v50c0 43 23 65 65 65h491c42 0 65 -22 65 -65
v-50c0 -42 -23 -65 -65 -65h-140v-474c0 -42 -23 -65 -65 -65h-81c-42 0 -65 23 -65 65z" />
    <glyph glyph-name="tcaron" unicode="&#x165;" horiz-adv-x="418" 
d="M335 676c0 31 23 39 58 39h26c58 0 75 -32 75 -75c0 -84 -48 -119 -90 -119h-18c-37 0 -57 11 -57 35c0 25 11 43 11 68c0 12 -5 36 -5 52zM83 184v163h-6c-41 0 -64 23 -64 65v31c0 43 23 65 64 65h13v85c0 43 22 65 65 65h71c43 0 66 -22 66 -65v-85h36
c43 0 66 -22 66 -65v-31c0 -42 -23 -65 -64 -65h-38v-124c0 -27 15 -43 43 -47c47 -7 64 -15 64 -60v-56c0 -49 -30 -65 -85 -65c-65 0 -231 24 -231 189z" />
    <glyph glyph-name="Tbar" unicode="&#x166;" horiz-adv-x="631" 
d="M210 65v189h-70c-43 0 -66 23 -66 66v20c0 42 23 65 66 65h70v134h-140c-43 0 -65 23 -65 65v50c0 43 22 65 65 65h490c43 0 66 -22 66 -65v-50c0 -42 -23 -65 -66 -65h-139v-134h76c43 0 66 -23 66 -65v-20c0 -43 -23 -66 -66 -66h-76v-189c0 -42 -23 -65 -66 -65h-80
c-43 0 -65 23 -65 65z" />
    <glyph glyph-name="tbar" unicode="&#x167;" horiz-adv-x="419" 
d="M83 184v38h-5c-42 0 -64 21 -64 60v3c0 40 22 60 65 60h4v40h-5c-42 0 -64 20 -64 60v3c0 40 22 60 65 60h11v85c0 43 22 65 65 65h72c43 0 65 -22 65 -65v-85h37c42 0 65 -20 65 -60v-3c0 -40 -23 -60 -64 -60h-38v-40h37c42 0 65 -20 65 -60v-3c0 -39 -23 -60 -64 -60
h-38v-11c0 -12 15 -26 43 -30c47 -7 65 -20 65 -65v-56c0 -49 -31 -65 -86 -65c-65 0 -231 24 -231 189z" />
    <glyph glyph-name="Utilde" unicode="&#x168;" horiz-adv-x="716" 
d="M49 269v385c0 43 23 65 65 65h81c42 0 65 -22 65 -65v-385c0 -60 39 -89 98 -89c60 0 99 29 99 88v386c0 43 22 65 65 65h80c43 0 65 -22 65 -65v-385c0 -163 -121 -281 -308 -281c-189 0 -310 118 -310 281zM204 763c-35 0 -57 17 -57 53c0 57 50 112 120 112
c83 0 110 -56 147 -56c16 0 27 4 31 23c2 18 22 30 54 30h13c38 0 57 -14 57 -49c0 -67 -48 -116 -119 -116c-83 0 -111 56 -147 56c-18 0 -31 -10 -35 -25c-4 -18 -23 -28 -50 -28h-14z" />
    <glyph glyph-name="utilde" unicode="&#x169;" horiz-adv-x="609" 
d="M243 454v-228c0 -37 17 -49 46 -49c61 0 73 60 73 114v163c0 43 23 65 66 65h78c42 0 65 -22 65 -65v-389c0 -42 -23 -65 -65 -65h-69c-43 0 -64 23 -64 57v16h-2c-29 -66 -88 -85 -150 -85c-94 0 -187 43 -187 192v274c0 43 23 65 66 65h78c42 0 65 -22 65 -65zM148 558
c-35 0 -57 17 -57 53c0 57 50 112 120 112c83 0 110 -56 147 -56c16 0 27 4 31 23c2 18 22 30 54 30h13c38 0 57 -14 57 -49c0 -67 -48 -116 -119 -116c-83 0 -111 56 -147 56c-18 0 -31 -10 -35 -25c-4 -18 -23 -28 -50 -28h-14z" />
    <glyph glyph-name="Umacron" unicode="&#x16a;" horiz-adv-x="716" 
d="M49 269v385c0 43 23 65 65 65h81c42 0 65 -22 65 -65v-385c0 -60 39 -89 98 -89c60 0 99 29 99 88v386c0 43 22 65 65 65h80c43 0 65 -22 65 -65v-385c0 -163 -121 -281 -308 -281c-189 0 -310 118 -310 281zM281 781c-43 0 -65 19 -65 61v9c0 43 22 62 65 62h154
c43 0 66 -19 66 -62v-9c0 -42 -23 -61 -66 -61h-154z" />
    <glyph glyph-name="umacron" unicode="&#x16b;" horiz-adv-x="609" 
d="M243 454v-228c0 -37 17 -49 46 -49c61 0 73 60 73 114v163c0 43 23 65 66 65h78c42 0 65 -22 65 -65v-389c0 -42 -23 -65 -65 -65h-69c-43 0 -64 23 -64 57v16h-2c-29 -66 -88 -85 -150 -85c-94 0 -187 43 -187 192v274c0 43 23 65 66 65h78c42 0 65 -22 65 -65zM225 576
c-43 0 -65 19 -65 61v9c0 43 22 62 65 62h154c43 0 66 -19 66 -62v-9c0 -42 -23 -61 -66 -61h-154z" />
    <glyph glyph-name="Ubreve" unicode="&#x16c;" horiz-adv-x="716" 
d="M49 269v385c0 43 23 65 65 65h81c42 0 65 -22 65 -65v-385c0 -60 39 -89 98 -89c60 0 99 29 99 88v386c0 43 22 65 65 65h80c43 0 65 -22 65 -65v-385c0 -163 -121 -281 -308 -281c-189 0 -310 118 -310 281zM358 758c-80 0 -193 42 -193 130c0 19 10 28 38 32l42 5
c37 4 46 -19 53 -37c7 -17 24 -33 59 -33s52 16 59 33c7 18 16 41 53 37l42 -5c28 -4 38 -13 38 -32c0 -88 -111 -130 -191 -130z" />
    <glyph glyph-name="ubreve" unicode="&#x16d;" horiz-adv-x="609" 
d="M243 454v-228c0 -37 17 -49 46 -49c61 0 73 60 73 114v163c0 43 23 65 66 65h78c42 0 65 -22 65 -65v-389c0 -42 -23 -65 -65 -65h-69c-43 0 -64 23 -64 57v16h-2c-29 -66 -88 -85 -150 -85c-94 0 -187 43 -187 192v274c0 43 23 65 66 65h78c42 0 65 -22 65 -65zM303 553
c-80 0 -193 42 -193 130c0 19 10 28 38 32l42 5c37 4 46 -19 53 -37c7 -17 24 -33 59 -33s52 16 59 33c7 18 16 41 53 37l42 -5c28 -4 38 -13 38 -32c0 -88 -111 -130 -191 -130z" />
    <glyph glyph-name="Uring" unicode="&#x16e;" horiz-adv-x="716" 
d="M357 749c-57 0 -120 25 -120 90s63 91 120 91c58 0 122 -26 122 -91s-64 -90 -122 -90zM357 803c22 0 36 14 36 36s-14 37 -36 37c-20 0 -34 -15 -34 -37s13 -36 34 -36zM49 269v385c0 43 23 65 65 65h81c42 0 65 -22 65 -65v-385c0 -60 39 -89 98 -89c60 0 99 29 99 88
v386c0 43 22 65 65 65h80c43 0 65 -22 65 -65v-385c0 -163 -121 -281 -308 -281c-189 0 -310 118 -310 281z" />
    <glyph glyph-name="uring" unicode="&#x16f;" horiz-adv-x="609" 
d="M302 544c-57 0 -120 25 -120 90s63 91 120 91c58 0 122 -26 122 -91s-64 -90 -122 -90zM302 598c22 0 36 14 36 36s-14 37 -36 37c-20 0 -34 -15 -34 -37s13 -36 34 -36zM243 454v-228c0 -37 17 -49 46 -49c61 0 73 60 73 114v163c0 43 23 65 66 65h78
c42 0 65 -22 65 -65v-389c0 -42 -23 -65 -65 -65h-69c-43 0 -64 23 -64 57v16h-2c-29 -66 -88 -85 -150 -85c-94 0 -187 43 -187 192v274c0 43 23 65 66 65h78c42 0 65 -22 65 -65z" />
    <glyph glyph-name="Uhungarumlaut" unicode="&#x170;" horiz-adv-x="716" 
d="M49 269v385c0 43 23 65 65 65h81c42 0 65 -22 65 -65v-385c0 -60 39 -89 98 -89c60 0 99 29 99 88v386c0 43 22 65 65 65h80c43 0 65 -22 65 -65v-385c0 -163 -121 -281 -308 -281c-189 0 -310 118 -310 281zM466 764c-57 0 -59 42 -39 79l19 35c18 33 43 47 77 47h44
c59 0 65 -42 33 -80l-35 -42c-23 -28 -44 -39 -79 -39h-20zM234 764c-50 0 -65 29 -42 77l17 36c16 33 40 48 77 48h28c51 0 65 -32 42 -78l-18 -37c-16 -32 -45 -46 -78 -46h-26z" />
    <glyph glyph-name="uhungarumlaut" unicode="&#x171;" horiz-adv-x="609" 
d="M243 454v-228c0 -37 17 -49 46 -49c61 0 73 60 73 114v163c0 43 23 65 66 65h78c42 0 65 -22 65 -65v-389c0 -42 -23 -65 -65 -65h-69c-43 0 -64 23 -64 57v16h-2c-29 -66 -88 -85 -150 -85c-94 0 -187 43 -187 192v274c0 43 23 65 66 65h78c42 0 65 -22 65 -65zM410 559
c-57 0 -59 42 -39 79l19 35c18 33 43 47 77 47h44c59 0 65 -42 33 -80l-35 -42c-23 -28 -44 -39 -79 -39h-20zM178 559c-50 0 -65 29 -42 77l17 36c16 33 40 48 77 48h28c51 0 65 -32 42 -78l-18 -37c-16 -32 -45 -46 -78 -46h-26z" />
    <glyph glyph-name="Uogonek" unicode="&#x172;" horiz-adv-x="717" 
d="M49 269v385c0 43 23 65 65 65h81c42 0 65 -22 65 -65v-385c0 -60 39 -89 98 -89c60 0 99 29 99 88v386c0 43 22 65 65 65h80c43 0 65 -22 65 -65v-385c0 -220 -217 -263 -217 -318c0 -8 7 -14 18 -20c17 -9 21 -29 18 -58l-5 -36c-3 -30 -29 -40 -57 -40
c-48 0 -128 40 -128 99c0 34 25 68 49 92c-183 6 -296 123 -296 281z" />
    <glyph glyph-name="uogonek" unicode="&#x173;" horiz-adv-x="608" 
d="M372 65v8h-2c-29 -66 -88 -85 -150 -85c-94 0 -187 43 -187 192v274c0 43 23 65 66 65h78c42 0 65 -22 65 -65v-228c0 -37 17 -49 46 -49c61 0 73 60 73 114v163c0 43 23 65 66 65h78c42 0 65 -22 65 -65v-389c0 -64 -57 -69 -57 -117c0 -8 8 -11 18 -17
c17 -10 22 -29 18 -58l-5 -36c-4 -30 -29 -40 -57 -40c-49 0 -127 40 -127 99c0 40 18 80 43 111c-19 9 -31 28 -31 58z" />
    <glyph glyph-name="Wcircumflex" unicode="&#x174;" horiz-adv-x="999" 
d="M366 764c-44 0 -56 33 -26 80l24 38c18 28 45 43 79 43h98c34 0 61 -15 79 -43l24 -38c30 -47 18 -80 -27 -80h-40c-39 0 -50 16 -65 45l-19 38h-2l-19 -38c-15 -29 -26 -45 -65 -45h-41zM161 57l-139 590c-11 45 11 72 57 72h87c40 0 63 -19 72 -58l62 -355
c6 -37 7 -75 7 -75h2s1 38 10 75l82 356c10 38 33 57 73 57h50c39 0 63 -19 71 -57l79 -356c8 -38 10 -75 10 -75h2s0 38 7 75l70 356c8 38 32 57 73 57h84c46 0 67 -27 57 -72l-147 -591c-10 -38 -34 -56 -73 -56h-117c-39 0 -63 19 -72 57l-60 259c-8 36 -11 76 -11 76h-1
s-1 -40 -10 -76l-61 -259c-9 -38 -33 -57 -72 -57h-119c-40 0 -63 19 -73 57z" />
    <glyph glyph-name="wcircumflex" unicode="&#x175;" horiz-adv-x="823" 
d="M286 559c-44 0 -56 33 -26 80l24 38c18 28 45 43 79 43h98c34 0 61 -15 79 -43l24 -38c30 -47 18 -80 -27 -80h-40c-39 0 -50 16 -65 45l-19 38h-2l-19 -38c-15 -29 -26 -45 -65 -45h-41zM117 56l-101 389c-11 46 10 74 56 74h84c41 0 63 -19 71 -58l33 -222
c4 -24 3 -54 3 -54h2s3 30 7 54l40 223c8 38 32 58 71 58h59c40 0 63 -20 71 -58l41 -223c4 -24 5 -54 5 -54h2s0 30 4 54l33 222c9 39 31 58 71 58h82c46 0 67 -28 56 -74l-101 -389c-10 -38 -34 -56 -72 -56h-118c-39 0 -63 19 -72 57l-22 140c-4 24 -8 55 -8 55h-2
s-4 -31 -8 -55l-23 -140c-9 -38 -32 -57 -72 -57h-120c-38 0 -62 18 -72 56z" />
    <glyph glyph-name="Ycircumflex" unicode="&#x176;" horiz-adv-x="619" 
d="M204 65v225l-192 351c-26 45 -6 78 45 78h98c37 0 60 -15 76 -49l39 -95c22 -54 39 -118 39 -118h2s17 64 39 118l39 95c15 34 38 49 75 49h98c51 0 71 -33 45 -78l-192 -351v-225c0 -42 -23 -65 -65 -65h-81c-43 0 -65 23 -65 65zM184 764c-44 0 -56 33 -26 80l24 38
c18 28 45 43 79 43h98c34 0 61 -15 79 -43l24 -38c30 -47 18 -80 -27 -80h-40c-39 0 -50 16 -65 45l-19 38h-2l-19 -38c-15 -29 -26 -45 -65 -45h-41z" />
    <glyph glyph-name="ycircumflex" unicode="&#x177;" horiz-adv-x="547" 
d="M34 -78c17 37 41 43 65 39c7 -1 15 -3 27 -3c27 0 53 21 62 46l3 8l-189 431c-20 45 0 76 50 76h97c39 0 66 -17 75 -54l36 -143c8 -29 16 -99 16 -99h2s11 71 16 100l25 140c7 39 34 56 73 56h90c48 0 69 -30 53 -75l-172 -483c-47 -133 -151 -171 -239 -171
c-26 0 -51 5 -73 11c-39 13 -49 47 -32 86zM151 558c-44 0 -56 33 -26 80l24 38c18 28 45 43 79 43h98c34 0 61 -15 79 -43l24 -38c30 -47 18 -80 -27 -80h-40c-39 0 -50 16 -65 45l-19 38h-2l-19 -38c-15 -29 -26 -45 -65 -45h-41z" />
    <glyph glyph-name="Ydieresis" unicode="&#x178;" horiz-adv-x="619" 
d="M204 65v225l-192 351c-26 45 -6 78 45 78h98c37 0 60 -15 76 -49l39 -95c22 -54 39 -118 39 -118h2s17 64 39 118l39 95c15 34 38 49 75 49h98c51 0 71 -33 45 -78l-192 -351v-225c0 -42 -23 -65 -65 -65h-81c-43 0 -65 23 -65 65zM418 766c-43 0 -65 23 -65 66v27
c0 43 22 66 65 66h17c43 0 65 -23 65 -66v-27c0 -43 -22 -66 -65 -66h-17zM189 766c-42 0 -65 23 -65 66v27c0 43 23 66 65 66h17c43 0 66 -23 66 -66v-27c0 -43 -23 -66 -66 -66h-17z" />
    <glyph glyph-name="Zacute" unicode="&#x179;" horiz-adv-x="626" 
d="M312 764c-43 0 -60 33 -38 72l23 42c18 32 42 47 77 47h54c56 0 68 -37 33 -80l-35 -42c-22 -26 -45 -39 -79 -39h-35zM23 65v21c0 32 7 55 26 81l220 308c33 46 57 65 57 65v2s-25 -3 -56 -3h-171c-43 0 -65 23 -65 65v50c0 43 22 65 65 65h430c43 0 65 -22 65 -64v-19
c0 -32 -7 -56 -26 -82l-221 -310c-33 -46 -57 -65 -57 -65v-2s25 3 56 3h189c42 0 65 -23 65 -65v-50c0 -42 -23 -65 -65 -65h-447c-43 0 -65 23 -65 65z" />
    <glyph glyph-name="zacute" unicode="&#x17a;" horiz-adv-x="536" 
d="M250 559c-43 0 -60 33 -38 72l23 42c18 32 42 47 77 47h54c56 0 68 -37 33 -80l-35 -42c-22 -26 -45 -39 -79 -39h-35zM22 50v15c0 32 8 46 28 72l130 161c28 34 46 47 46 47v2s-11 -2 -43 -2h-89c-43 0 -66 23 -66 66v43c0 43 23 65 66 65h349c43 0 66 -17 66 -50v-15
c0 -32 -9 -46 -29 -72l-128 -162c-27 -33 -48 -47 -48 -47v-2s12 3 45 3h98c42 0 65 -23 65 -65v-44c0 -42 -23 -65 -65 -65h-360c-43 0 -65 17 -65 50z" />
    <glyph glyph-name="Zdotaccent" unicode="&#x17b;" horiz-adv-x="626" 
d="M23 65v21c0 32 7 55 26 81l220 308c33 46 57 65 57 65v2s-25 -3 -56 -3h-171c-43 0 -65 23 -65 65v50c0 43 22 65 65 65h430c43 0 65 -22 65 -64v-19c0 -32 -7 -56 -26 -82l-221 -310c-33 -46 -57 -65 -57 -65v-2s25 3 56 3h189c42 0 65 -23 65 -65v-50
c0 -42 -23 -65 -65 -65h-447c-43 0 -65 23 -65 65zM304 777c-43 0 -66 22 -66 65v17c0 43 23 66 66 66h38c43 0 66 -23 66 -66v-17c0 -43 -23 -65 -66 -65h-38z" />
    <glyph glyph-name="zdotaccent" unicode="&#x17c;" horiz-adv-x="536" 
d="M22 50v15c0 32 8 46 28 72l130 161c28 34 46 47 46 47v2s-11 -2 -43 -2h-89c-43 0 -66 23 -66 66v43c0 43 23 65 66 65h349c43 0 66 -17 66 -50v-15c0 -32 -9 -46 -29 -72l-128 -162c-27 -33 -48 -47 -48 -47v-2s12 3 45 3h98c42 0 65 -23 65 -65v-44
c0 -42 -23 -65 -65 -65h-360c-43 0 -65 17 -65 50zM242 572c-43 0 -66 22 -66 65v17c0 43 23 66 66 66h38c43 0 66 -23 66 -66v-17c0 -43 -23 -65 -66 -65h-38z" />
    <glyph glyph-name="Zcaron" unicode="&#x17d;" horiz-adv-x="626" 
d="M273 764c-35 0 -59 13 -79 43l-24 38c-30 45 -18 80 26 80h41c37 0 48 -15 66 -46l18 -37h2l18 37c18 31 29 46 66 46h41c44 0 56 -35 26 -80l-24 -38c-20 -30 -44 -43 -79 -43h-98zM23 65v21c0 32 7 55 26 81l220 308c33 46 57 65 57 65v2s-25 -3 -56 -3h-171
c-43 0 -65 23 -65 65v50c0 43 22 65 65 65h430c43 0 65 -22 65 -64v-19c0 -32 -7 -56 -26 -82l-221 -310c-33 -46 -57 -65 -57 -65v-2s25 3 56 3h189c42 0 65 -23 65 -65v-50c0 -42 -23 -65 -65 -65h-447c-43 0 -65 23 -65 65z" />
    <glyph glyph-name="zcaron" unicode="&#x17e;" horiz-adv-x="536" 
d="M227 559c-35 0 -59 13 -79 43l-24 38c-30 45 -18 80 26 80h41c37 0 48 -15 66 -46l18 -37h2l18 37c18 31 29 46 66 46h41c44 0 56 -35 26 -80l-24 -38c-20 -30 -44 -43 -79 -43h-98zM22 50v15c0 32 8 46 28 72l130 161c28 34 46 47 46 47v2s-11 -2 -43 -2h-89
c-43 0 -66 23 -66 66v43c0 43 23 65 66 65h349c43 0 66 -17 66 -50v-15c0 -32 -9 -46 -29 -72l-128 -162c-27 -33 -48 -47 -48 -47v-2s12 3 45 3h98c42 0 65 -23 65 -65v-44c0 -42 -23 -65 -65 -65h-360c-43 0 -65 17 -65 50z" />
    <glyph glyph-name="longs" unicode="&#x17f;" horiz-adv-x="331" 
d="M82 65v282h-4c-43 0 -65 23 -65 65v31c0 43 22 65 65 65h4v26c0 166 177 189 232 189h19c43 0 65 -23 65 -66v-45c0 -42 -22 -61 -64 -65c-15 -2 -43 -4 -43 -25v-457c0 -42 -23 -65 -66 -65h-78c-42 0 -65 23 -65 65z" />
    <glyph glyph-name="florin" unicode="&#x192;" horiz-adv-x="465" 
d="M38 46c11 0 27 -2 42 -2c26 0 51 6 54 42l17 206c-30 0 -52 22 -52 65v31c0 42 22 65 67 65l9 84c18 170 178 194 272 194c6 0 16 0 28 -1c42 -4 62 -29 62 -69v-44c0 -44 -16 -64 -43 -64c-11 0 -29 2 -47 2c-31 0 -63 -7 -67 -42l-6 -60h20c42 0 65 -23 65 -65v-31
c0 -43 -23 -65 -63 -65h-36l-20 -231c-15 -170 -180 -194 -272 -194c-49 0 -88 13 -88 71v44c0 44 21 64 58 64z" />
    <glyph glyph-name="Scommaaccent" unicode="&#x218;" horiz-adv-x="578" 
d="M203 -83c0 31 23 39 58 39h26c58 0 75 -32 75 -75c0 -84 -48 -119 -90 -119h-18c-37 0 -57 11 -57 35c0 25 11 43 11 68c0 12 -5 36 -5 52zM54 58c-25 19 -44 45 -13 90l38 55c24 35 51 37 90 16c23 -9 63 -41 119 -41c41 0 53 15 53 32c0 76 -304 61 -304 291
c0 138 114 230 267 230c83 0 163 -27 200 -52c35 -25 38 -55 21 -90l-29 -57c-24 -47 -56 -39 -89 -23c-36 16 -63 32 -106 32c-40 0 -54 -14 -54 -33c0 -82 305 -56 305 -287c0 -124 -94 -233 -264 -233c-99 0 -193 38 -234 70z" />
    <glyph glyph-name="scommaaccent" unicode="&#x219;" horiz-adv-x="467" 
d="M144 -83c0 31 23 39 58 39h26c58 0 75 -32 75 -75c0 -84 -48 -119 -90 -119h-18c-37 0 -57 11 -57 35c0 25 11 43 11 68c0 12 -5 36 -5 52zM51 31c-37 23 -40 55 -17 91l17 27c22 34 48 37 90 21c10 -4 47 -22 85 -22c22 0 30 9 30 20c0 44 -232 6 -232 188
c0 116 101 175 225 175c64 0 125 -16 153 -30c36 -18 42 -52 24 -88l-14 -28c-9 -19 -24 -51 -85 -31c-26 8 -53 18 -82 18c-20 0 -28 -7 -28 -19c0 -42 232 -4 232 -183c0 -104 -83 -182 -222 -182c-80 0 -149 26 -176 43z" />
    <glyph glyph-name="uni021A" unicode="&#x21a;" horiz-adv-x="631" 
d="M239 -83c0 31 23 39 58 39h26c58 0 75 -32 75 -75c0 -84 -48 -119 -90 -119h-18c-37 0 -57 11 -57 35c0 25 11 43 11 68c0 12 -5 36 -5 52zM210 65v474h-140c-42 0 -65 23 -65 65v50c0 43 23 65 65 65h491c42 0 65 -22 65 -65v-50c0 -42 -23 -65 -65 -65h-140v-474
c0 -42 -23 -65 -65 -65h-81c-42 0 -65 23 -65 65z" />
    <glyph glyph-name="uni021B" unicode="&#x21b;" horiz-adv-x="418" 
d="M158 -83c0 31 23 39 58 39h26c58 0 75 -32 75 -75c0 -84 -48 -119 -90 -119h-18c-37 0 -57 11 -57 35c0 25 11 43 11 68c0 12 -5 36 -5 52zM83 184v163h-6c-41 0 -64 23 -64 65v31c0 43 23 65 64 65h13v85c0 43 22 65 65 65h71c43 0 66 -22 66 -65v-85h36
c43 0 66 -22 66 -65v-31c0 -42 -23 -65 -64 -65h-38v-124c0 -27 15 -43 43 -47c47 -7 64 -15 64 -60v-56c0 -49 -30 -65 -85 -65c-65 0 -231 24 -231 189z" />
    <glyph glyph-name="circumflex" unicode="&#x2c6;" horiz-adv-x="480" 
d="M114 764c-44 0 -56 33 -26 80l24 38c18 28 45 43 79 43h98c34 0 61 -15 79 -43l24 -38c30 -47 18 -80 -27 -80h-40c-39 0 -50 16 -65 45l-19 38h-2l-19 -38c-15 -29 -26 -45 -65 -45h-41z" />
    <glyph glyph-name="caron" unicode="&#x2c7;" horiz-adv-x="480" 
d="M191 764c-35 0 -59 13 -79 43l-24 38c-30 45 -18 80 26 80h41c37 0 48 -15 66 -46l18 -37h2l18 37c18 31 29 46 66 46h41c44 0 56 -35 26 -80l-24 -38c-20 -30 -44 -43 -79 -43h-98z" />
    <glyph glyph-name="breve" unicode="&#x2d8;" horiz-adv-x="477" 
d="M239 758c-80 0 -193 42 -193 130c0 19 10 28 38 32l42 5c37 4 46 -19 53 -37c7 -17 24 -33 59 -33s52 16 59 33c7 18 16 41 53 37l42 -5c28 -4 38 -13 38 -32c0 -88 -111 -130 -191 -130z" />
    <glyph glyph-name="dotaccent" unicode="&#x2d9;" horiz-adv-x="478" 
d="M220 777c-43 0 -66 22 -66 65v17c0 43 23 66 66 66h38c43 0 66 -23 66 -66v-17c0 -43 -23 -65 -66 -65h-38z" />
    <glyph glyph-name="ring" unicode="&#x2da;" horiz-adv-x="478" 
d="M238 749c-57 0 -120 25 -120 90s63 91 120 91c58 0 122 -26 122 -91s-64 -90 -122 -90zM238 803c22 0 36 14 36 36s-14 37 -36 37c-20 0 -34 -15 -34 -37s13 -36 34 -36z" />
    <glyph glyph-name="ogonek" unicode="&#x2db;" horiz-adv-x="480" 
d="M128 -104c0 47 46 91 78 114c25 18 49 27 83 20c37 -7 43 -24 21 -47c-14 -15 -28 -19 -28 -34c0 -10 7 -11 18 -18c15 -10 22 -26 18 -58l-5 -36c-4 -30 -25 -41 -57 -40c-51 2 -128 39 -128 99z" />
    <glyph glyph-name="tilde" unicode="&#x2dc;" horiz-adv-x="478" 
d="M85 763c-35 0 -57 17 -57 53c0 57 50 112 120 112c83 0 110 -56 147 -56c16 0 27 4 31 23c2 18 22 30 54 30h13c38 0 57 -14 57 -49c0 -67 -48 -116 -119 -116c-83 0 -111 56 -147 56c-18 0 -31 -10 -35 -25c-4 -18 -23 -28 -50 -28h-14z" />
    <glyph glyph-name="hungarumlaut" unicode="&#x2dd;" horiz-adv-x="478" 
d="M298 764c-57 0 -59 42 -39 79l19 35c18 33 43 47 77 47h44c59 0 65 -42 33 -80l-35 -42c-23 -28 -44 -39 -79 -39h-20zM66 764c-50 0 -65 29 -42 77l17 36c16 33 40 48 77 48h28c51 0 65 -32 42 -78l-18 -37c-16 -32 -45 -46 -78 -46h-26z" />
    <glyph glyph-name="uni1E9E" unicode="&#x1e9e;" horiz-adv-x="697" 
d="M48 65v403c0 153 101 251 259 251h268c43 0 66 -23 66 -66v-34c0 -32 -4 -57 -22 -81l-86 -118v-2c91 -27 138 -122 138 -194c0 -129 -109 -224 -241 -224h-39c-42 0 -65 23 -65 65v50c0 42 21 65 63 65h25c32 0 40 24 40 44c0 19 -7 42 -41 42h-11c-43 0 -65 23 -65 66
v41c0 31 3 49 19 75l23 36c22 35 43 56 43 56v2s-13 -3 -51 -3h-64c-25 0 -43 -28 -43 -66v-408c0 -42 -22 -65 -65 -65h-85c-43 0 -66 23 -66 65z" />
    <glyph glyph-name="endash" unicode="&#x2013;" horiz-adv-x="697" 
d="M100 211c-43 0 -66 22 -66 65v24c0 43 23 65 66 65h498c42 0 65 -22 65 -65v-24c0 -43 -23 -65 -65 -65h-498z" />
    <glyph glyph-name="emdash" unicode="&#x2014;" horiz-adv-x="897" 
d="M100 211c-43 0 -66 22 -66 65v24c0 43 23 65 66 65h698c42 0 65 -22 65 -65v-24c0 -43 -23 -65 -65 -65h-698z" />
    <glyph glyph-name="quoteleft" unicode="&#x2018;" horiz-adv-x="236" 
d="M76 464c-49 0 -69 29 -53 75l51 145c12 33 35 52 75 52h16c46 0 61 -27 52 -71l-29 -143c-8 -38 -31 -58 -72 -58h-40z" />
    <glyph glyph-name="quoteright" unicode="&#x2019;" horiz-adv-x="233" 
d="M76 464c-46 0 -61 27 -52 71l29 143c8 39 31 58 71 58h40c47 0 70 -29 54 -75l-52 -145c-13 -36 -37 -52 -75 -52h-15z" />
    <glyph glyph-name="quotesinglbase" unicode="&#x201a;" horiz-adv-x="242" 
d="M17 -7l29 143c8 40 30 59 71 59h40c49 0 69 -30 53 -75l-51 -146c-13 -35 -37 -52 -75 -52h-15c-47 0 -62 28 -52 71z" />
    <glyph glyph-name="quotedblleft" unicode="&#x201c;" horiz-adv-x="459" 
d="M298 464c-49 0 -69 29 -53 75l51 145c12 33 35 52 75 52h17c46 0 61 -27 52 -71l-29 -143c-8 -39 -31 -58 -72 -58h-41zM76 464c-49 0 -69 29 -53 75l51 145c12 33 35 52 75 52h17c46 0 61 -27 52 -71l-29 -143c-8 -39 -31 -58 -71 -58h-42z" />
    <glyph glyph-name="quotedblright" unicode="&#x201d;" horiz-adv-x="456" 
d="M298 464c-46 0 -61 27 -52 71l29 143c8 39 31 58 71 58h42c46 0 69 -29 53 -75l-52 -145c-13 -36 -37 -52 -75 -52h-16zM76 464c-46 0 -61 27 -52 71l29 143c8 39 31 58 71 58h42c49 0 69 -30 53 -75l-51 -145c-12 -33 -35 -52 -75 -52h-17z" />
    <glyph glyph-name="quotedblbase" unicode="&#x201e;" horiz-adv-x="465" 
d="M239 -7l29 143c8 40 30 59 71 59h41c47 0 70 -29 54 -75l-52 -146c-13 -35 -37 -52 -75 -52h-16c-47 0 -62 28 -52 71zM17 -7l29 143c8 40 30 59 71 59h41c47 0 70 -29 54 -75l-52 -146c-13 -35 -37 -52 -75 -52h-16c-47 0 -62 28 -52 71z" />
    <glyph glyph-name="dagger" unicode="&#x2020;" horiz-adv-x="514" 
d="M158 15v350h-69c-43 0 -66 22 -66 65v24c0 43 23 65 66 65h69v135c0 43 22 65 65 65h68c43 0 65 -22 65 -65v-135h69c43 0 66 -22 66 -65v-24c0 -43 -23 -65 -66 -65h-69v-350c0 -42 -22 -65 -65 -65h-68c-43 0 -65 23 -65 65z" />
    <glyph glyph-name="daggerdbl" unicode="&#x2021;" horiz-adv-x="525" 
d="M163 15v125h-69c-42 0 -65 23 -65 66v23c0 43 23 66 65 66h69v70h-69c-42 0 -65 22 -65 65v24c0 43 23 65 65 65h69v135c0 43 23 65 66 65h67c43 0 66 -22 66 -65v-135h69c43 0 65 -22 65 -65v-24c0 -43 -22 -65 -65 -65h-69v-70h69c43 0 65 -23 65 -66v-23
c0 -43 -22 -66 -65 -66h-69v-125c0 -42 -23 -65 -66 -65h-67c-43 0 -66 23 -66 65z" />
    <glyph glyph-name="bullet" unicode="&#x2022;" horiz-adv-x="457" 
d="M228 90c-111 0 -200 90 -200 201s89 201 200 201s201 -90 201 -201s-90 -201 -201 -201z" />
    <glyph glyph-name="ellipsis" unicode="&#x2026;" horiz-adv-x="958" 
d="M741 65v61c0 43 23 65 65 65h54c43 0 65 -22 65 -65v-61c0 -42 -22 -65 -65 -65h-54c-42 0 -65 23 -65 65zM387 65v61c0 43 22 65 65 65h54c43 0 65 -22 65 -65v-61c0 -42 -22 -65 -65 -65h-54c-43 0 -65 23 -65 65zM33 65v61c0 43 22 65 65 65h54c42 0 65 -22 65 -65
v-61c0 -42 -23 -65 -65 -65h-54c-43 0 -65 23 -65 65z" />
    <glyph glyph-name="perthousand" unicode="&#x2030;" horiz-adv-x="1321" 
d="M222 363c-109 0 -195 82 -195 183s86 185 195 185c108 0 194 -83 194 -185s-86 -183 -194 -183zM140 80l467 600c21 27 43 39 79 39h28c56 0 74 -36 40 -79l-467 -601c-22 -29 -46 -39 -79 -39h-29c-55 0 -73 36 -39 80zM222 505c24 0 46 18 46 42s-22 42 -46 42
c-25 0 -46 -19 -46 -42s21 -42 46 -42zM909 170c0 101 86 186 194 186s195 -85 195 -186s-87 -182 -195 -182s-194 81 -194 182zM484 171c0 100 86 185 195 185c108 0 195 -84 195 -185c0 -102 -87 -183 -195 -183c-109 0 -195 82 -195 183zM1057 172c0 -24 22 -42 46 -42
c25 0 46 19 46 42s-21 42 -46 42c-24 0 -46 -18 -46 -42zM633 172c0 -24 22 -42 46 -42c25 0 46 19 46 42s-21 42 -46 42c-24 0 -46 -18 -46 -42z" />
    <glyph glyph-name="guilsinglleft" unicode="&#x2039;" horiz-adv-x="349" 
d="M144 115l-96 121c-25 31 -25 61 0 92l96 122c21 26 45 38 80 38h36c55 0 73 -37 38 -80l-100 -126l100 -125c34 -43 21 -80 -30 -80h-44c-35 0 -59 12 -80 38z" />
    <glyph glyph-name="guilsinglright" unicode="&#x203a;" horiz-adv-x="350" 
d="M90 77c-56 0 -73 37 -38 80l100 125l-100 126c-36 43 -22 80 29 80h45c34 0 58 -12 79 -38l97 -122c24 -31 24 -61 0 -92l-97 -121c-21 -26 -45 -38 -79 -38h-36z" />
    <glyph glyph-name="fraction" unicode="&#x2044;" horiz-adv-x="184" 
d="M17 49c-16 -34 -39 -49 -76 -49h-20c-41 0 -52 31 -31 77l278 593c16 34 40 49 76 49h20c41 0 52 -31 31 -77z" />
    <glyph glyph-name="Euro" unicode="&#x20ac;" horiz-adv-x="611" 
d="M85 227c-43 0 -59 20 -59 56c0 35 16 55 58 55c-1 13 -2 24 -1 37c-39 0 -57 20 -57 56s17 56 61 56h15c49 144 186 244 351 244c19 0 38 -1 57 -3c44 -6 62 -36 50 -78l-17 -64c-10 -35 -28 -52 -53 -52c-10 0 -21 2 -43 2c-49 0 -89 -15 -118 -49h112
c53 0 69 -19 62 -56c-7 -39 -24 -56 -71 -56h-130c-1 -13 0 -24 3 -37h104c53 0 69 -19 62 -55c-8 -41 -24 -56 -71 -56h-56c33 -28 74 -41 113 -41c15 0 29 3 49 3c32 0 54 -16 59 -53l13 -65c8 -40 -9 -70 -51 -77c-22 -4 -47 -6 -74 -6c-172 0 -297 96 -347 239h-21z" />
    <glyph glyph-name="trademark" unicode="&#x2122;" horiz-adv-x="999" 
d="M471 337l25 319c3 42 26 63 68 63h23c38 0 63 -14 76 -50l37 -99c5 -14 13 -45 13 -45h2s7 31 12 45l38 99c14 35 38 50 76 50h22c42 0 65 -21 68 -63l23 -319c3 -44 -19 -68 -63 -68h-20c-42 0 -66 21 -67 63l-1 69c0 15 1 48 1 48h-2l-16 -48c-12 -37 -33 -51 -69 -51
h-6c-37 0 -58 14 -70 51l-15 48h-2s2 -33 1 -48l-3 -69c-2 -42 -26 -63 -68 -63h-21c-42 0 -65 24 -62 68zM234 269c-43 0 -65 23 -65 65v257h-72c-43 0 -65 18 -65 61v7c0 41 22 60 65 60h290c43 0 66 -19 66 -60v-7c0 -43 -23 -61 -66 -61h-69v-257c0 -42 -22 -65 -65 -65
h-19z" />
    <glyph glyph-name="minus" unicode="&#x2212;" horiz-adv-x="638" 
d="M105 211c-43 0 -66 22 -66 65v24c0 43 23 65 66 65h429c42 0 65 -22 65 -65v-24c0 -43 -23 -65 -65 -65h-429z" />
    <glyph glyph-name="infinity" unicode="&#x221e;" horiz-adv-x="513" 
d="M257 132c-119 0 -217 98 -217 217c0 120 98 216 217 216c120 0 216 -96 216 -216c0 -119 -96 -217 -216 -217z" />
    <glyph glyph-name="approxequal" unicode="&#x2248;" horiz-adv-x="638" 
d="M84 380l-6 9c-21 34 -18 66 14 90c37 27 81 46 127 46c94 0 127 -70 198 -70c15 0 30 3 45 10c39 22 66 23 89 -14l5 -9c22 -34 19 -67 -13 -90c-37 -27 -81 -46 -126 -46c-94 0 -127 70 -198 70c-16 0 -31 -3 -46 -11c-37 -22 -66 -22 -89 15zM84 132l-6 9
c-21 35 -18 67 14 90c37 27 81 46 127 46c94 0 127 -70 198 -70c15 0 30 4 45 10c39 22 66 24 89 -14l5 -9c22 -34 19 -66 -13 -90c-37 -27 -81 -46 -126 -46c-94 0 -127 70 -198 70c-16 0 -31 -3 -46 -11c-37 -22 -66 -22 -89 15z" />
    <glyph glyph-name="notequal" unicode="&#x2260;" horiz-adv-x="638" 
d="M152 9c-27 16 -32 43 -12 77h-15c-43 0 -66 23 -66 66v23c0 43 23 66 66 66h109l57 94h-166c-43 0 -66 23 -66 66v24c0 42 23 65 66 65h265l29 50c21 37 49 45 78 28c31 -18 34 -39 22 -62l-8 -16c45 0 68 -23 68 -65v-24c0 -43 -23 -66 -65 -66h-100l-56 -94h156
c42 0 65 -23 65 -66v-23c0 -43 -23 -66 -65 -66h-254l-28 -50c-20 -37 -51 -45 -80 -27z" />
    <glyph glyph-name="lessequal" unicode="&#x2264;" horiz-adv-x="638" 
d="M99 204c-32 14 -50 33 -50 76v17c0 43 18 62 50 76l396 175c45 20 76 0 76 -49v-34c0 -36 -17 -60 -52 -74l-266 -102v-2l266 -100c34 -13 52 -38 52 -75v-33c0 -51 -33 -69 -76 -50zM118 -58h387c43 0 66 -23 66 -66v-23c0 -43 -23 -66 -66 -66h-387
c-43 0 -65 23 -65 66v23c0 43 22 66 65 66z" />
    <glyph glyph-name="greaterequal" unicode="&#x2265;" horiz-adv-x="638" 
d="M67 79v33c0 37 17 62 51 75l266 100v2l-266 102c-35 14 -51 38 -51 74v34c0 48 29 70 76 50l395 -176c32 -14 50 -33 50 -76v-17c0 -43 -18 -62 -50 -76l-395 -174c-46 -20 -76 0 -76 49zM133 -58h388c42 0 65 -23 65 -66v-23c0 -43 -23 -66 -65 -66h-388
c-42 0 -65 23 -65 66v23c0 43 23 66 65 66z" />
    <glyph glyph-name="commaaccent" unicode="&#xf6c3;" horiz-adv-x="335" 
d="M105 -83c0 31 23 39 58 39h26c58 0 75 -32 75 -75c0 -84 -48 -119 -90 -119h-18c-37 0 -57 11 -57 35c0 25 11 43 11 68c0 12 -5 36 -5 52z" />
    <glyph glyph-name="apple" unicode="&#xf8ff;" horiz-adv-x="1130" 
d="M168 -5v152l-126 72v278l126 71v151l265 142l134 -71l132 71l265 -142v-151l124 -71v-278l-124 -72v-152l-265 -141l-132 71l-134 -71zM208 30l238 -126l121 66l118 -66l238 126v139l114 64v249l-114 66v136l-238 126l-118 -64l-121 64l-238 -126v-136l-114 -66v-249
l114 -64v-139zM242 64v121l-99 60v225l99 58v123l215 114l110 -59l107 59l214 -114v-123l100 -58v-225l-100 -60v-121l-214 -114l-107 58l-110 -58zM420 91h153v155h162v127h-162v111h49c12 0 17 -2 17 -14v-21h135v116c0 31 -9 45 -44 45h-353v-126h43v-393z" />
    <glyph glyph-name="zero.tnum" 
d="M306 -12c-209 0 -278 168 -278 373c0 206 69 370 278 370c210 0 278 -164 278 -370c0 -205 -68 -373 -278 -373zM306 180c48 0 62 82 62 181s-14 178 -62 178c-47 0 -61 -79 -61 -178s14 -181 61 -181z" />
    <glyph glyph-name="one.tnum" 
d="M66 65v50c0 42 22 65 65 65h85v224c0 29 3 59 3 59h-2s-10 -15 -16 -21c-25 -24 -59 -25 -88 6l-31 35c-30 30 -28 63 3 92l122 112c25 23 47 32 81 32h68c43 0 66 -22 66 -65v-474h87c43 0 65 -23 65 -65v-50c0 -42 -22 -65 -65 -65h-378c-43 0 -65 23 -65 65z" />
    <glyph glyph-name="two.tnum" 
d="M42 65v23c0 270 291 322 291 395c0 41 -34 50 -53 50c-18 0 -37 -6 -54 -22c-29 -28 -60 -40 -92 -14l-49 39c-33 26 -41 56 -16 88c38 50 109 107 231 107c111 0 254 -60 254 -226c0 -219 -267 -265 -278 -325h223c43 0 66 -23 66 -65v-50c0 -42 -23 -65 -66 -65h-388
c-40 0 -69 23 -69 65z" />
    <glyph glyph-name="three.tnum" 
d="M76 42c-33 24 -36 56 -15 91l32 53c22 38 52 40 89 18c28 -12 55 -18 82 -18c58 0 82 20 82 47c0 38 -32 52 -91 52h-27c-34 0 -53 12 -70 45l-6 11c-14 27 -7 56 16 85l32 40c39 48 70 77 70 77v2s-24 -6 -72 -6h-74c-43 0 -65 23 -65 65v50c0 43 22 65 65 65h334
c43 0 65 -23 65 -65v-19c0 -33 -8 -56 -29 -81l-100 -115c112 -29 164 -117 164 -199c0 -122 -82 -252 -277 -252c-95 0 -161 27 -205 54z" />
    <glyph glyph-name="four.tnum" 
d="M64 166c-43 0 -65 22 -65 65v18c0 31 7 53 23 80l202 347c18 31 42 43 78 43h145c43 0 65 -22 65 -65v-315h15c43 0 65 -22 65 -65v-43c0 -43 -22 -65 -64 -65h-16v-101c0 -42 -22 -65 -65 -65h-78c-43 0 -65 23 -65 65v101h-240zM209 339h95v115c0 42 7 84 7 84h-2
s-17 -48 -35 -81l-65 -116v-2z" />
    <glyph glyph-name="five.tnum" 
d="M83 43c-34 22 -37 55 -17 89l33 54c21 38 51 41 89 19c27 -12 59 -19 85 -19c30 0 75 16 75 63c0 42 -38 65 -91 65c-14 0 -28 -1 -42 -4c-33 -8 -57 -13 -88 -1l-13 5c-35 14 -52 39 -49 77l17 265c3 42 26 63 68 63h292c43 0 65 -22 65 -65v-50c0 -42 -22 -65 -65 -65
h-172l-2 -32c-1 -11 -3 -27 -3 -27h2s21 3 36 3c180 0 262 -105 262 -232c0 -154 -110 -263 -273 -263c-93 0 -165 27 -209 55z" />
    <glyph glyph-name="six.tnum" 
d="M30 327c0 214 130 404 356 404c33 0 80 -4 105 -11c41 -12 53 -43 41 -82l-18 -57c-15 -47 -37 -49 -75 -45c-17 2 -24 3 -38 3c-71 0 -109 -27 -135 -81h2s36 19 92 19c146 0 224 -118 224 -228c0 -117 -84 -261 -252 -261c-141 0 -302 101 -302 339zM246 277
c0 -57 40 -102 81 -102c30 0 51 24 51 62c0 25 -9 77 -91 77c-26 0 -41 -5 -41 -37z" />
    <glyph glyph-name="seven.tnum" 
d="M104 77l203 398c27 53 43 65 43 65v2s-12 -3 -38 -3h-202c-43 0 -66 23 -66 65v50c0 43 23 65 66 65h401c43 0 65 -23 65 -66v-38c0 -31 -5 -53 -19 -81l-248 -486c-17 -34 -41 -48 -77 -48h-81c-51 0 -70 32 -47 77z" />
    <glyph glyph-name="eight.tnum" 
d="M28 204c0 87 71 150 103 174c-46 36 -75 78 -75 140c0 103 77 213 246 213c141 0 260 -76 260 -203c0 -76 -46 -132 -75 -163c56 -35 95 -87 95 -156c0 -105 -86 -221 -276 -221c-192 0 -278 118 -278 216zM341 438c13 17 23 34 23 59c0 37 -18 59 -58 59
c-38 0 -50 -20 -50 -43c0 -34 26 -53 85 -75zM234 234c0 -40 23 -71 73 -71c42 0 64 23 64 54c0 27 -19 43 -110 80c-21 -21 -27 -44 -27 -63z" />
    <glyph glyph-name="nine.tnum" 
d="M28 470c0 117 84 261 252 261c141 0 302 -101 302 -339c0 -214 -130 -404 -356 -404c-33 0 -80 4 -105 11c-41 12 -53 43 -41 82l18 57c15 47 37 50 75 45c17 -2 24 -3 38 -3c71 0 109 27 135 81h-2s-36 -19 -92 -19c-146 0 -224 118 -224 228zM234 482
c0 -25 9 -77 91 -77c26 0 41 5 41 37c0 57 -40 102 -81 102c-30 0 -51 -24 -51 -62z" />
    <glyph glyph-name="hyphen.case" horiz-adv-x="392" 
d="M99 256c-43 0 -65 23 -65 66v49c0 43 22 65 65 65h194c42 0 65 -22 65 -65v-49c0 -43 -23 -66 -65 -66h-194z" />
    <glyph glyph-name="parenleft.case" horiz-adv-x="314" 
d="M130 -26c-66 116 -105 253 -105 406c0 128 36 251 100 363c18 32 43 44 79 44h29c52 0 69 -31 47 -77c-47 -105 -72 -218 -72 -329c0 -124 27 -248 77 -369c20 -46 2 -77 -48 -77h-33c-36 0 -58 11 -74 39z" />
    <glyph glyph-name="parenright.case" horiz-adv-x="313" 
d="M31 16c47 119 74 243 74 365c0 111 -24 224 -72 329c-22 46 -7 77 43 77h33c36 0 61 -12 79 -44c65 -112 100 -235 100 -363c0 -151 -37 -287 -101 -401c-18 -31 -42 -44 -77 -44h-33c-51 0 -67 32 -46 81z" />
    <glyph glyph-name="bracketleft.case" horiz-adv-x="347" 
d="M47 0v721c0 43 23 66 66 66h153c42 0 65 -23 65 -66v-11c0 -42 -21 -65 -60 -65h-52v-568h47c42 0 65 -23 65 -66v-11c0 -42 -23 -65 -65 -65h-153c-43 0 -66 23 -66 65z" />
    <glyph glyph-name="bracketright.case" horiz-adv-x="347" 
d="M16 11c0 43 23 66 66 66h46v568h-46c-43 0 -66 23 -66 65v11c0 43 23 66 66 66h152c43 0 66 -23 66 -66v-721c0 -42 -23 -65 -66 -65h-152c-43 0 -66 23 -66 65v11z" />
    <glyph glyph-name="braceleft.case" horiz-adv-x="391" 
d="M100 85v99c0 37 -13 60 -31 74c-34 20 -54 33 -54 71v69c0 38 20 52 52 72c20 13 33 38 33 77v90c0 124 126 156 182 156h21c43 0 66 -22 66 -65v-24c0 -43 -23 -65 -66 -65c-18 0 -31 -6 -31 -29v-117c0 -103 -86 -127 -86 -127v-2s86 -20 86 -126v-126
c0 -22 13 -29 31 -29c43 0 66 -22 66 -65v-24c0 -43 -23 -65 -66 -65h-21c-56 0 -182 32 -182 156z" />
    <glyph glyph-name="braceright.case" horiz-adv-x="390" 
d="M22 18c0 43 22 65 65 65c19 0 32 7 32 29v126c0 106 85 126 85 126v2s-85 24 -85 127v117c0 23 -13 29 -32 29c-43 0 -65 22 -65 65v24c0 43 22 65 65 65h22c56 0 181 -32 181 -156v-90c0 -39 13 -64 33 -77c32 -20 52 -34 52 -72v-69c0 -38 -21 -50 -53 -71
c-20 -13 -32 -37 -32 -74v-99c0 -124 -125 -156 -181 -156h-22c-43 0 -65 22 -65 65v24z" />
    <glyph glyph-name="at.case" horiz-adv-x="813" 
d="M14 356c0 213 163 379 420 379c214 0 302 -116 302 -257v-159h10c43 0 65 -22 65 -65v-10c0 -42 -22 -65 -65 -65h-223c-161 0 -236 92 -236 178c0 84 71 171 236 171h22c0 36 -72 51 -108 51c-147 0 -230 -120 -230 -229c0 -95 62 -175 184 -205c29 -7 63 -16 63 -68
v-25c0 -51 -28 -63 -68 -62c-124 3 -372 104 -372 366zM487 362c0 -23 15 -43 48 -43h10v87h-8c-35 0 -50 -21 -50 -44z" />
    <glyph glyph-name="guillemotleft.case" horiz-adv-x="636" 
d="M335 296c-25 31 -25 61 0 92l96 122c22 26 45 38 80 38h36c55 0 73 -37 38 -80l-100 -126l100 -125c34 -43 21 -80 -30 -80h-44c-35 0 -58 12 -80 38zM144 175l-96 121c-25 31 -25 61 0 92l96 122c21 26 45 38 80 38h36c55 0 73 -37 38 -80l-100 -126l100 -125
c34 -43 21 -80 -30 -80h-44c-35 0 -59 12 -80 38z" />
    <glyph glyph-name="guillemotright.case" horiz-adv-x="637" 
d="M338 217l100 125l-100 126c-35 43 -21 80 29 80h45c35 0 59 -12 80 -38l96 -122c25 -31 25 -61 0 -92l-96 -121c-21 -26 -45 -38 -80 -38h-36c-55 0 -72 37 -38 80zM89 137c-56 0 -72 37 -38 80l100 125l-100 126c-36 43 -21 80 29 80h45c35 0 58 -12 80 -38l96 -122
c25 -31 25 -61 0 -92l-96 -121c-22 -26 -45 -38 -80 -38h-36z" />
    <glyph glyph-name="guilsinglleft.case" horiz-adv-x="349" 
d="M144 175l-96 121c-25 31 -25 61 0 92l96 122c21 26 45 38 80 38h36c55 0 73 -37 38 -80l-100 -126l100 -125c34 -43 21 -80 -30 -80h-44c-35 0 -59 12 -80 38z" />
    <glyph glyph-name="guilsinglright.case" horiz-adv-x="350" 
d="M89 137c-56 0 -72 37 -38 80l100 125l-100 126c-36 43 -21 80 29 80h45c35 0 58 -12 80 -38l96 -122c25 -31 25 -61 0 -92l-96 -121c-22 -26 -45 -38 -80 -38h-36z" />
    <glyph glyph-name="endash.case" horiz-adv-x="695" 
d="M99 271c-43 0 -66 22 -66 65v24c0 43 23 65 66 65h498c42 0 65 -22 65 -65v-24c0 -43 -23 -65 -65 -65h-498z" />
    <glyph glyph-name="emdash.case" horiz-adv-x="895" 
d="M98 271c-42 0 -65 22 -65 65v24c0 43 23 65 65 65h698c43 0 66 -22 66 -65v-24c0 -43 -23 -65 -66 -65h-698z" />
    <glyph glyph-name="periodcentered.case" horiz-adv-x="255" 
d="M100 248c-43 0 -65 23 -65 66v62c0 42 22 65 65 65h55c43 0 65 -23 65 -65v-62c0 -43 -22 -66 -65 -66h-55z" />
    <glyph glyph-name="questiondown.case" horiz-adv-x="453" 
d="M307 485c43 0 65 -22 65 -65v-5c0 -90 -151 -143 -151 -203c0 -27 22 -40 47 -40c9 0 25 3 39 9c37 18 75 18 97 -15l30 -44c23 -35 24 -63 -11 -86c-39 -25 -96 -52 -174 -52c-111 0 -244 65 -244 203c0 148 142 189 167 249l3 8c9 32 25 41 62 41h70zM365 654v-44
c0 -43 -22 -65 -65 -65h-55c-42 0 -65 22 -65 65v44c0 42 23 65 65 65h55c43 0 65 -23 65 -65z" />
    <glyph glyph-name="exclamdown.case" horiz-adv-x="288" 
d="M168 485c41 0 64 -22 66 -64l16 -354c2 -38 -21 -67 -64 -67h-84c-38 0 -66 23 -64 67l15 354c2 42 25 64 66 64h49zM236 654v-44c0 -43 -22 -65 -65 -65h-54c-43 0 -66 22 -66 65v44c0 42 23 65 66 65h54c43 0 65 -23 65 -65z" />
    <glyph glyph-name="bullet.case" horiz-adv-x="457" 
d="M228 156c-111 0 -200 90 -200 201s89 201 200 201s201 -90 201 -201s-90 -201 -201 -201z" />
    <glyph glyph-name="zero.p_osf" horiz-adv-x="593" 
d="M34 281c0 144 72 290 264 290c191 0 261 -147 261 -293c0 -149 -71 -290 -261 -290c-191 0 -264 146 -264 293zM244 280c0 -60 5 -120 54 -120c48 0 53 59 53 118c0 60 -6 121 -53 121c-49 0 -54 -60 -54 -119z" />
    <glyph glyph-name="one.p_osf" horiz-adv-x="517" 
d="M37 65v44c0 42 23 65 65 65h78v105c0 27 2 71 2 71h-2c-14 -18 -39 -34 -65 -34c-19 0 -37 11 -51 32l-23 34c-24 35 -16 67 20 90l103 65c26 16 49 22 81 22h66c43 0 66 -22 66 -65v-320h67c43 0 65 -23 65 -65v-44c0 -42 -22 -65 -65 -65h-342c-42 0 -65 23 -65 65z
" />
    <glyph glyph-name="two.p_osf" horiz-adv-x="556" 
d="M32 65v21c0 36 14 59 45 77c51 30 207 131 207 193c0 30 -28 38 -43 38c-25 0 -51 -10 -76 -25c-35 -25 -65 -25 -90 9l-26 33c-26 32 -26 65 8 91c44 33 115 69 213 69c90 0 224 -42 224 -181c0 -113 -113 -198 -167 -220v-2s24 6 71 6h57c43 0 65 -23 65 -65v-44
c0 -42 -22 -65 -65 -65h-357c-43 0 -66 23 -66 65z" />
    <glyph glyph-name="three.p_osf" horiz-adv-x="537" 
d="M48 46c25 42 54 37 90 20c22 -11 46 -22 87 -22c58 0 82 29 82 57c0 49 -55 58 -97 58h-24c-37 0 -60 14 -75 46s-11 59 12 87l37 45c28 35 58 51 58 51v1s-34 -5 -82 -5h-41c-43 0 -65 23 -65 65v45c0 43 22 65 65 65h316c43 0 66 -20 66 -58v-13c0 -30 -9 -57 -31 -80
l-108 -111c111 -25 178 -102 178 -195c0 -107 -87 -230 -280 -230c-85 0 -158 24 -193 48c-37 26 -36 57 -16 91z" />
    <glyph glyph-name="four.p_osf" 
d="M10 84v23c0 32 8 48 23 75l184 333c17 31 41 44 77 44h157c43 0 65 -22 65 -65v-302h12c43 0 65 -23 65 -65v-44c0 -42 -22 -65 -65 -65h-12v-69c0 -42 -22 -65 -65 -65h-78c-43 0 -66 23 -66 65v69h-231c-43 0 -66 23 -66 66zM216 192h91v116c0 37 7 85 7 85h-2
s-18 -46 -35 -80z" />
    <glyph glyph-name="five.p_osf" horiz-adv-x="545" 
d="M37 6l20 36c20 38 50 42 89 20c27 -13 59 -21 87 -21c36 0 84 18 84 67c0 45 -34 68 -87 68c-46 0 -92 -22 -140 -2l-12 5c-34 14 -46 38 -43 75l17 242c3 42 26 63 67 63h276c43 0 66 -22 66 -65v-45c0 -42 -23 -65 -66 -65h-162c-2 -42 -7 -58 -7 -58h2s23 3 38 3
c182 0 261 -109 261 -216c0 -147 -113 -244 -276 -244c-85 0 -152 24 -195 48c-35 21 -39 54 -19 89z" />
    <glyph glyph-name="six.p_osf" horiz-adv-x="596" 
d="M29 305c0 199 120 382 339 382c46 0 93 -8 107 -11c41 -9 54 -38 40 -81l-13 -39c-16 -47 -44 -47 -76 -44c-17 2 -32 3 -44 3c-74 0 -108 -40 -129 -85h2s46 23 107 23c125 0 208 -114 208 -224c0 -108 -80 -241 -248 -241c-139 0 -293 90 -293 317zM241 258
c0 -49 30 -99 73 -99c28 0 49 21 49 60c0 34 -16 76 -86 76c-22 0 -36 -4 -36 -37z" />
    <glyph glyph-name="seven.p_osf" horiz-adv-x="535" 
d="M73 -39l187 364c24 47 39 62 39 62v2s-19 -4 -37 -4h-188c-43 0 -66 23 -66 66v43c0 43 23 65 66 65h391c43 0 65 -23 65 -66v-29c0 -31 -6 -54 -20 -82l-235 -450c-17 -34 -40 -48 -77 -48h-78c-51 0 -70 32 -47 77z" />
    <glyph glyph-name="eight.p_osf" horiz-adv-x="595" 
d="M26 194c0 74 54 123 99 162c-38 28 -66 69 -66 129c0 100 77 201 238 201c145 0 250 -82 250 -195c0 -75 -46 -127 -63 -154c49 -30 82 -76 82 -139c0 -102 -86 -210 -269 -210c-187 0 -271 113 -271 206zM339 408c9 11 15 40 15 53c0 37 -19 57 -55 57
c-37 0 -47 -19 -47 -36c0 -31 31 -54 87 -74zM226 221c0 -31 21 -65 73 -65c44 0 62 21 62 43c0 27 -26 44 -107 78c-22 -18 -28 -41 -28 -56z" />
    <glyph glyph-name="nine.p_osf" horiz-adv-x="600" 
d="M569 254c0 -199 -120 -382 -339 -382c-46 0 -93 8 -107 11c-41 9 -54 38 -40 81l13 39c16 47 44 47 76 44c17 -2 32 -3 44 -3c74 0 108 39 129 85h-2s-46 -23 -107 -23c-125 0 -208 114 -208 224c0 108 80 241 248 241c139 0 293 -90 293 -317zM357 301
c0 49 -30 99 -73 99c-28 0 -49 -21 -49 -60c0 -34 16 -76 86 -76c22 0 36 4 36 37z" />
    <glyph glyph-name="zero.t_osf" 
d="M43 281c0 144 72 290 264 290c191 0 261 -147 261 -293c0 -149 -71 -290 -261 -290c-191 0 -264 146 -264 293zM253 280c0 -60 5 -120 54 -120c48 0 53 59 53 118c0 60 -6 121 -53 121c-49 0 -54 -60 -54 -119z" />
    <glyph glyph-name="one.t_osf" 
d="M83 65v44c0 42 23 65 65 65h78v105c0 27 2 71 2 71h-2c-14 -18 -39 -34 -65 -34c-19 0 -37 11 -51 32l-23 34c-24 35 -16 67 20 90l103 65c26 16 49 22 81 22h66c43 0 66 -22 66 -65v-320h67c43 0 65 -23 65 -65v-44c0 -42 -22 -65 -65 -65h-342c-42 0 -65 23 -65 65z
" />
    <glyph glyph-name="two.t_osf" 
d="M59 65v21c0 36 14 59 45 77c51 30 207 131 207 193c0 30 -28 38 -43 38c-25 0 -51 -10 -76 -25c-35 -25 -65 -25 -90 9l-26 33c-26 32 -26 65 8 91c44 33 115 69 213 69c90 0 224 -42 224 -181c0 -113 -113 -198 -167 -220v-2s24 6 71 6h57c43 0 65 -23 65 -65v-44
c0 -42 -22 -65 -65 -65h-357c-43 0 -66 23 -66 65z" />
    <glyph glyph-name="three.t_osf" 
d="M83 48c25 42 54 37 90 20c22 -11 46 -22 87 -22c58 0 82 29 82 57c0 49 -55 58 -97 58h-24c-37 0 -60 14 -75 46s-11 59 12 87l37 45c28 35 58 51 58 51v1s-34 -5 -82 -5h-41c-43 0 -65 23 -65 65v45c0 43 22 65 65 65h316c43 0 66 -20 66 -58v-13c0 -30 -9 -57 -31 -80
l-108 -111c111 -25 178 -102 178 -195c0 -107 -87 -230 -280 -230c-85 0 -158 24 -193 48c-37 26 -36 57 -16 91z" />
    <glyph glyph-name="four.t_osf" 
d="M9 84v23c0 32 8 48 23 75l184 333c17 31 41 44 77 44h157c43 0 65 -22 65 -65v-302h12c43 0 65 -23 65 -65v-44c0 -42 -22 -65 -65 -65h-12v-69c0 -42 -22 -65 -65 -65h-78c-43 0 -66 23 -66 65v69h-231c-43 0 -66 23 -66 66zM215 192h91v116c0 37 7 85 7 85h-2
s-18 -46 -35 -80z" />
    <glyph glyph-name="five.t_osf" 
d="M71 6l20 36c20 38 50 42 89 20c27 -13 59 -21 87 -21c36 0 84 18 84 67c0 45 -34 68 -87 68c-46 0 -92 -22 -140 -2l-12 5c-34 14 -46 38 -43 75l17 242c3 42 26 63 67 63h276c43 0 66 -22 66 -65v-45c0 -42 -23 -65 -66 -65h-162c-2 -42 -7 -58 -7 -58h2s23 3 38 3
c182 0 261 -109 261 -216c0 -147 -113 -244 -276 -244c-85 0 -152 24 -195 48c-35 21 -39 54 -19 89z" />
    <glyph glyph-name="six.t_osf" 
d="M38 305c0 199 120 382 339 382c46 0 93 -8 107 -11c41 -9 54 -38 40 -81l-13 -39c-16 -47 -44 -47 -76 -44c-17 2 -32 3 -44 3c-74 0 -108 -40 -129 -85h2s46 23 107 23c125 0 208 -114 208 -224c0 -108 -80 -241 -248 -241c-139 0 -293 90 -293 317zM250 258
c0 -49 30 -99 73 -99c28 0 49 21 49 60c0 34 -16 76 -86 76c-22 0 -36 -4 -36 -37z" />
    <glyph glyph-name="seven.t_osf" 
d="M111 -39l187 364c24 47 39 62 39 62v2s-19 -4 -37 -4h-188c-43 0 -66 23 -66 66v43c0 43 23 65 66 65h391c43 0 65 -23 65 -66v-29c0 -31 -6 -54 -20 -82l-235 -450c-17 -34 -40 -48 -77 -48h-78c-51 0 -70 32 -47 77z" />
    <glyph glyph-name="eight.t_osf" 
d="M34 194c0 74 54 123 99 162c-38 28 -66 69 -66 129c0 100 77 201 238 201c145 0 250 -82 250 -195c0 -75 -46 -127 -63 -154c49 -30 82 -76 82 -139c0 -102 -86 -210 -269 -210c-187 0 -271 113 -271 206zM347 408c9 11 15 40 15 53c0 37 -19 57 -55 57
c-37 0 -47 -19 -47 -36c0 -31 31 -54 87 -74zM234 221c0 -31 21 -65 73 -65c44 0 62 21 62 43c0 27 -26 44 -107 78c-22 -18 -28 -41 -28 -56z" />
    <glyph glyph-name="nine.t_osf" 
d="M573 254c0 -199 -120 -382 -339 -382c-46 0 -93 8 -107 11c-41 9 -54 38 -40 81l13 39c16 47 44 47 76 44c17 -2 32 -3 44 -3c74 0 108 39 129 85h-2s-46 -23 -107 -23c-125 0 -208 114 -208 224c0 108 80 241 248 241c139 0 293 -90 293 -317zM361 301
c0 49 -30 99 -73 99c-28 0 -49 -21 -49 -60c0 -34 16 -76 86 -76c22 0 36 4 36 37z" />
    <glyph glyph-name="dollar.osf" horiz-adv-x="541" 
d="M67 44c-32 23 -39 53 -17 90l26 44c8 14 20 33 46 33c37 0 73 -46 137 -46c25 0 37 6 37 17c0 53 -265 42 -265 232c0 97 77 158 176 179v30c0 43 19 65 62 65h5c42 0 60 -18 60 -52v-39c44 -5 95 -20 118 -33c31 -17 43 -47 26 -87l-20 -47c-11 -26 -25 -38 -48 -38
c-31 0 -67 31 -119 31c-29 0 -43 -8 -43 -19c0 -46 265 -30 265 -221c0 -82 -54 -160 -175 -188v-29c0 -42 -19 -65 -61 -65h-5c-43 0 -61 19 -61 53v37c-58 8 -117 34 -144 53z" />
    <glyph glyph-name="cent.osf" horiz-adv-x="529" 
d="M218 34v19c-129 35 -190 142 -190 247s61 212 190 248v17c0 43 23 65 66 65h2c43 0 66 -15 66 -43v-30c35 -5 86 -20 118 -41c37 -25 36 -53 14 -90l-23 -39c-12 -20 -27 -31 -47 -31c-27 0 -38 21 -88 21c-75 0 -92 -47 -92 -76c0 -30 19 -77 92 -77c49 0 59 21 87 21
c21 0 36 -11 48 -31l23 -39c23 -38 20 -68 -14 -90c-21 -14 -68 -34 -118 -41v-10c0 -43 -23 -65 -66 -65h-2c-43 0 -66 22 -66 65z" />
    <glyph glyph-name="sterling.osf" horiz-adv-x="604" 
d="M40 65v44c0 42 24 65 52 65v52c-34 0 -51 19 -51 61v6c0 41 17 60 51 60v21c0 136 121 226 268 226c62 0 113 -14 150 -31c39 -17 45 -51 26 -87l-24 -42c-14 -24 -32 -35 -54 -35c-29 0 -37 13 -91 13c-26 0 -64 -14 -64 -43v-22h97c43 0 66 -19 66 -60v-6
c0 -42 -23 -61 -66 -61h-97v-52h207c43 0 65 -23 65 -65v-44c0 -42 -22 -65 -65 -65h-405c-41 0 -65 23 -65 65z" />
    <glyph glyph-name="yen.osf" horiz-adv-x="630" 
d="M112 107c-42 0 -65 17 -65 53v6c0 36 23 53 65 53h94l-44 77h-50c-42 0 -65 16 -65 53v6c0 36 23 52 52 52l-56 102c-25 46 -6 79 47 79h96c37 0 60 -16 76 -49l12 -38c18 -56 37 -135 37 -135h2s18 81 37 135l13 38c15 33 39 49 76 49h96c52 0 71 -33 45 -79l-57 -102
c43 0 65 -16 65 -52v-6c0 -37 -22 -53 -65 -53h-62l-44 -77h106c43 0 65 -17 65 -53v-6c0 -36 -22 -53 -65 -53h-106v-42c0 -42 -23 -65 -65 -65h-81c-42 0 -65 23 -65 65v42h-94z" />
    <glyph glyph-name="florin.osf" horiz-adv-x="503" 
d="M36 50c10 0 24 -2 39 -2c30 0 63 7 66 44l14 156c-32 2 -56 23 -56 66v30c0 43 23 66 66 66h3l8 83c17 170 178 194 272 194c50 0 90 -13 90 -70v-45c0 -42 -15 -64 -40 -64c-11 0 -29 4 -48 4c-46 0 -69 -24 -72 -59l-4 -43h20c43 0 66 -23 66 -66v-30
c0 -43 -23 -66 -66 -66h-35l-15 -181c-15 -170 -178 -194 -270 -194c-50 0 -88 15 -88 71v44c0 41 18 62 50 62z" />
    <glyph glyph-name="Euro.osf" horiz-adv-x="565" 
d="M92 187c-43 0 -65 11 -65 39v8c0 33 24 44 65 44c-1 11 -1 25 -1 37c-40 0 -64 11 -64 41v11c0 29 22 39 65 39h16c42 113 147 194 312 194c55 0 106 -9 88 -78l-10 -35c-10 -32 -24 -47 -47 -47c-17 0 -33 2 -48 2c-26 0 -68 -5 -85 -36h92c46 0 66 -13 58 -48
c-8 -33 -26 -43 -67 -43h-107c-1 -10 1 -30 2 -37h89c48 0 69 -15 59 -50c-9 -32 -26 -41 -67 -41h-50c17 -32 65 -37 94 -37c11 0 26 2 44 2c32 0 52 -14 57 -47l5 -36c6 -41 -8 -70 -50 -77c-17 -3 -37 -4 -57 -4c-163 0 -266 79 -310 199h-18z" />
    <glyph glyph-name="zero.numerator" horiz-adv-x="402" 
d="M201 267c-134 0 -176 104 -176 232c0 129 42 231 176 231c133 0 176 -102 176 -231c0 -128 -43 -232 -176 -232zM201 403c20 0 25 44 25 96c0 51 -5 93 -25 93c-19 0 -25 -42 -25 -93c0 -52 6 -96 25 -96z" />
    <glyph glyph-name="one.numerator" horiz-adv-x="354" 
d="M88 277c-43 0 -65 19 -65 60v7c0 42 18 61 52 61h35v93c0 21 3 35 3 35h-2s-3 -4 -5 -6c-11 -11 -33 -8 -47 6l-20 20c-28 28 -22 60 9 89l50 46c25 23 48 32 81 32h15c43 0 66 -23 66 -65v-250h24c42 0 65 -19 65 -61v-7c0 -41 -23 -60 -65 -60h-196z" />
    <glyph glyph-name="two.numerator" horiz-adv-x="390" 
d="M82 277c-48 0 -65 24 -65 70c0 155 193 179 193 232c0 13 -12 20 -27 20c-9 0 -18 -3 -27 -8c-36 -20 -66 -30 -91 -2l-8 9c-27 31 -33 57 -2 84c25 21 72 48 132 48c74 0 174 -39 174 -142c0 -132 -163 -157 -176 -183h116c43 0 65 -19 65 -61v-7c0 -41 -22 -60 -65 -60
h-219z" />
    <glyph glyph-name="three.numerator" horiz-adv-x="370" 
d="M166 267c-51 0 -91 13 -119 30c-21 12 -30 27 -30 44c0 12 4 25 13 39l5 9c13 21 26 30 43 30c26 0 34 -17 78 -17c30 0 40 13 40 27c0 19 -19 25 -41 25h-4c-29 0 -44 5 -56 26c-3 6 -5 16 -5 22c0 17 13 33 31 52l13 14c8 9 30 24 30 24v2s-27 -3 -38 -3h-35
c-43 0 -65 19 -65 62v7c0 41 22 60 65 60h174c43 0 65 -17 65 -46v-8c0 -31 -7 -51 -31 -74l-54 -50c75 -21 102 -65 102 -115c0 -77 -57 -160 -181 -160z" />
    <glyph glyph-name="four.numerator" horiz-adv-x="419" 
d="M265 277c-43 0 -65 23 -65 65v13h-127c-43 0 -65 17 -65 50v16c0 31 7 43 23 71l107 185c18 31 42 43 78 43h66c43 0 65 -23 65 -65v-184c42 0 56 -19 56 -53v-7c0 -35 -14 -56 -56 -56v-13c0 -42 -22 -65 -65 -65h-17zM138 471h62v85c0 16 4 45 4 45h-2s-9 -29 -17 -44
l-47 -84v-2z" />
    <glyph glyph-name="five.numerator" horiz-adv-x="377" 
d="M180 267c-49 0 -91 12 -121 27c-37 20 -37 52 -17 89l3 5c20 37 42 34 79 20c15 -5 26 -7 44 -7s41 10 41 32c0 31 -32 33 -56 33c-18 0 -40 -5 -55 -5c-12 0 -23 2 -34 7c-25 10 -36 33 -33 71l8 119c3 40 27 62 68 62h154c43 0 66 -19 66 -60v-5c0 -40 -23 -61 -66 -61
h-96c-1 -25 -3 -32 -3 -32l2 -1s16 3 39 3c97 0 157 -61 157 -133c0 -78 -56 -164 -180 -164z" />
    <glyph glyph-name="six.numerator" horiz-adv-x="393" 
d="M212 267c-90 0 -192 58 -192 209c0 130 75 254 226 254c24 0 42 -3 54 -7c44 -14 48 -50 36 -79l-2 -5c-14 -35 -31 -54 -62 -46c-9 2 -19 4 -29 4c-40 0 -60 -24 -70 -53l2 -1s20 15 62 15c44 0 138 -26 138 -126c0 -93 -62 -165 -163 -165zM210 398c13 0 21 11 21 28
c0 9 -2 47 -46 47c-17 0 -19 -6 -19 -17c0 -36 24 -58 44 -58z" />
    <glyph glyph-name="seven.numerator" horiz-adv-x="368" 
d="M96 277c-52 0 -72 33 -45 79l131 222c5 9 10 13 10 13v2s-16 -2 -23 -2h-91c-43 0 -65 19 -65 62v7c0 41 22 60 65 60h218c43 0 66 -18 66 -50v-12c0 -31 -6 -50 -22 -77l-147 -259c-17 -30 -40 -45 -77 -45h-20z" />
    <glyph glyph-name="eight.numerator" horiz-adv-x="405" 
d="M204 267c-92 0 -183 49 -183 135c0 49 29 81 64 108c-26 21 -43 47 -43 88c0 89 81 132 161 132c88 0 168 -52 168 -128c0 -46 -32 -80 -50 -100c35 -21 60 -52 60 -100c0 -92 -91 -135 -177 -135zM226 546c4 7 13 25 13 38c0 23 -19 31 -35 31c-14 0 -25 -8 -25 -25
c0 -18 16 -32 47 -44zM201 382c17 0 35 7 35 28c0 17 -17 30 -61 48c-11 -11 -16 -29 -16 -39c0 -28 20 -37 42 -37z" />
    <glyph glyph-name="nine.numerator" horiz-adv-x="392" 
d="M181 730c90 0 192 -58 192 -209c0 -130 -75 -254 -226 -254c-24 0 -42 3 -54 7c-44 14 -48 50 -36 79l2 5c14 35 31 54 62 46c9 -2 19 -4 29 -4c40 0 60 24 70 53l-2 1s-20 -15 -62 -15c-44 0 -138 26 -138 126c0 93 62 165 163 165zM183 599c-13 0 -21 -11 -21 -28
c0 -9 2 -47 46 -47c17 0 19 6 19 17c0 36 -24 58 -44 58z" />
    <glyph glyph-name="zerosuperior" unicode="&#x2070;" horiz-adv-x="402" 
d="M201 413c-134 0 -176 104 -176 232c0 129 42 231 176 231c133 0 176 -102 176 -231c0 -128 -43 -232 -176 -232zM201 549c20 0 25 44 25 96c0 51 -5 93 -25 93c-19 0 -25 -42 -25 -93c0 -52 6 -96 25 -96z" />
    <glyph glyph-name="foursuperior" unicode="&#x2074;" horiz-adv-x="418" 
d="M265 423c-43 0 -65 23 -65 65v13h-127c-43 0 -65 17 -65 50v16c0 31 7 43 23 71l107 185c18 31 42 43 78 43h66c43 0 65 -23 65 -65v-184c42 0 56 -19 56 -53v-7c0 -35 -14 -56 -56 -56v-13c0 -42 -22 -65 -65 -65h-17zM138 617h62v85c0 16 4 45 4 45h-2s-9 -29 -17 -44
l-47 -84v-2z" />
    <glyph glyph-name="fivesuperior" unicode="&#x2075;" horiz-adv-x="378" 
d="M180 413c-49 0 -91 12 -121 27c-37 20 -37 52 -17 89l3 5c20 37 42 34 79 20c15 -5 26 -7 44 -7s41 10 41 32c0 31 -32 33 -56 33c-18 0 -40 -5 -55 -5c-12 0 -23 2 -34 7c-25 10 -36 33 -33 71l8 119c3 40 27 62 68 62h154c43 0 66 -19 66 -60v-5c0 -40 -23 -61 -66 -61
h-96c-1 -25 -3 -32 -3 -32l2 -1s16 3 39 3c97 0 157 -61 157 -133c0 -78 -56 -164 -180 -164z" />
    <glyph glyph-name="sixsuperior" unicode="&#x2076;" horiz-adv-x="392" 
d="M211 413c-90 0 -192 58 -192 209c0 130 75 254 226 254c24 0 42 -3 54 -7c44 -14 48 -50 36 -79l-2 -5c-14 -35 -31 -54 -62 -46c-9 2 -19 4 -29 4c-40 0 -60 -24 -70 -53l2 -1s20 15 62 15c44 0 138 -26 138 -126c0 -93 -62 -165 -163 -165zM209 544c13 0 21 11 21 28
c0 9 -2 47 -46 47c-17 0 -19 -6 -19 -17c0 -36 24 -58 44 -58z" />
    <glyph glyph-name="sevensuperior" unicode="&#x2077;" horiz-adv-x="367" 
d="M95 423c-52 0 -72 33 -45 79l131 222c5 9 10 13 10 13v2s-16 -2 -23 -2h-91c-43 0 -65 19 -65 62v7c0 41 22 60 65 60h218c43 0 66 -18 66 -50v-12c0 -31 -6 -50 -22 -77l-147 -259c-17 -30 -40 -45 -77 -45h-20z" />
    <glyph glyph-name="eightsuperior" unicode="&#x2078;" horiz-adv-x="404" 
d="M204 413c-92 0 -183 49 -183 135c0 49 29 81 64 108c-26 21 -43 47 -43 88c0 89 81 132 161 132c88 0 168 -52 168 -128c0 -46 -32 -80 -50 -100c35 -21 60 -52 60 -100c0 -92 -91 -135 -177 -135zM226 692c4 7 13 25 13 38c0 23 -19 31 -35 31c-14 0 -25 -8 -25 -25
c0 -18 16 -32 47 -44zM201 528c17 0 35 7 35 28c0 17 -17 30 -61 48c-11 -11 -16 -29 -16 -39c0 -28 20 -37 42 -37z" />
    <glyph glyph-name="ninesuperior" unicode="&#x2079;" horiz-adv-x="392" 
d="M181 876c90 0 192 -58 192 -209c0 -130 -75 -254 -226 -254c-24 0 -42 3 -54 7c-44 14 -48 50 -36 79l2 5c14 35 31 54 62 46c9 -2 19 -4 29 -4c40 0 60 24 70 53l-2 1s-20 -15 -62 -15c-44 0 -138 26 -138 126c0 93 62 165 163 165zM183 745c-13 0 -21 -11 -21 -28
c0 -9 2 -47 46 -47c17 0 19 6 19 17c0 36 -24 58 -44 58z" />
    <glyph glyph-name="zeroinferior" unicode="&#x2080;" horiz-adv-x="402" 
d="M201 -167c-134 0 -176 104 -176 232c0 129 42 231 176 231c133 0 176 -102 176 -231c0 -128 -43 -232 -176 -232zM201 -31c20 0 25 44 25 96c0 51 -5 93 -25 93c-19 0 -25 -42 -25 -93c0 -52 6 -96 25 -96z" />
    <glyph glyph-name="oneinferior" unicode="&#x2081;" horiz-adv-x="354" 
d="M88 -157c-43 0 -65 19 -65 60v7c0 42 18 61 52 61h35v93c0 21 3 35 3 35h-2s-3 -4 -5 -6c-11 -11 -33 -8 -47 6l-20 20c-28 28 -22 60 9 89l50 46c25 23 48 32 81 32h15c43 0 66 -23 66 -65v-250h24c42 0 65 -19 65 -61v-7c0 -41 -23 -60 -65 -60h-196z" />
    <glyph glyph-name="twoinferior" unicode="&#x2082;" horiz-adv-x="390" 
d="M82 -157c-48 0 -65 24 -65 70c0 155 193 179 193 232c0 13 -12 20 -27 20c-9 0 -18 -3 -27 -8c-36 -20 -66 -30 -91 -2l-8 9c-27 31 -33 57 -2 84c25 21 72 48 132 48c74 0 174 -39 174 -142c0 -132 -163 -157 -176 -183h116c43 0 65 -19 65 -61v-7
c0 -41 -22 -60 -65 -60h-219z" />
    <glyph glyph-name="threeinferior" unicode="&#x2083;" horiz-adv-x="370" 
d="M166 -166c-51 0 -91 13 -119 30c-21 12 -30 27 -30 44c0 12 4 25 13 39l5 9c13 21 26 30 43 30c26 0 34 -17 78 -17c30 0 40 13 40 27c0 19 -19 25 -41 25h-4c-29 0 -44 5 -56 26c-3 6 -5 16 -5 22c0 17 13 33 31 52l13 14c8 9 30 24 30 24v2s-27 -3 -38 -3h-35
c-43 0 -65 19 -65 62v7c0 41 22 60 65 60h174c43 0 65 -17 65 -46v-8c0 -31 -7 -51 -31 -74l-54 -50c75 -21 102 -65 102 -115c0 -77 -57 -160 -181 -160z" />
    <glyph glyph-name="fourinferior" unicode="&#x2084;" horiz-adv-x="418" 
d="M265 -157c-43 0 -65 23 -65 65v13h-127c-43 0 -65 17 -65 50v16c0 31 7 43 23 71l107 185c18 31 42 43 78 43h66c43 0 65 -23 65 -65v-184c42 0 56 -19 56 -53v-7c0 -35 -14 -56 -56 -56v-13c0 -42 -22 -65 -65 -65h-17zM138 37h62v85c0 16 4 45 4 45h-2s-9 -29 -17 -44
l-47 -84v-2z" />
    <glyph glyph-name="fiveinferior" unicode="&#x2085;" horiz-adv-x="378" 
d="M180 -167c-49 0 -91 12 -121 27c-37 20 -37 52 -17 89l3 5c20 37 42 34 79 20c15 -5 26 -7 44 -7s41 10 41 32c0 31 -32 33 -56 33c-18 0 -40 -5 -55 -5c-12 0 -23 2 -34 7c-25 10 -36 33 -33 71l8 119c3 40 27 62 68 62h154c43 0 66 -19 66 -60v-5
c0 -40 -23 -61 -66 -61h-96c-1 -25 -3 -32 -3 -32l2 -1s16 3 39 3c97 0 157 -61 157 -133c0 -78 -56 -164 -180 -164z" />
    <glyph glyph-name="sixinferior" unicode="&#x2086;" horiz-adv-x="392" 
d="M211 -167c-90 0 -192 58 -192 209c0 130 75 254 226 254c24 0 42 -3 54 -7c44 -14 48 -50 36 -79l-2 -5c-14 -35 -31 -54 -62 -46c-9 2 -19 4 -29 4c-40 0 -60 -24 -70 -53l2 -1s20 15 62 15c44 0 138 -26 138 -126c0 -93 -62 -165 -163 -165zM209 -36c13 0 21 11 21 28
c0 9 -2 47 -46 47c-17 0 -19 -6 -19 -17c0 -36 24 -58 44 -58z" />
    <glyph glyph-name="seveninferior" unicode="&#x2087;" horiz-adv-x="367" 
d="M95 -156c-52 0 -72 33 -45 79l131 222c5 9 10 13 10 13v2s-16 -2 -23 -2h-91c-43 0 -65 19 -65 62v7c0 41 22 60 65 60h218c43 0 66 -18 66 -50v-12c0 -31 -6 -50 -22 -77l-147 -259c-17 -30 -40 -45 -77 -45h-20z" />
    <glyph glyph-name="eightinferior" unicode="&#x2088;" horiz-adv-x="404" 
d="M204 -167c-92 0 -183 49 -183 135c0 49 29 81 64 108c-26 21 -43 47 -43 88c0 89 81 132 161 132c88 0 168 -52 168 -128c0 -46 -32 -80 -50 -100c35 -21 60 -52 60 -100c0 -92 -91 -135 -177 -135zM226 112c4 7 13 25 13 38c0 23 -19 31 -35 31c-14 0 -25 -8 -25 -25
c0 -18 16 -32 47 -44zM201 -52c17 0 35 7 35 28c0 17 -17 30 -61 48c-11 -11 -16 -29 -16 -39c0 -28 20 -37 42 -37z" />
    <glyph glyph-name="nineinferior" unicode="&#x2089;" horiz-adv-x="392" 
d="M181 296c90 0 192 -58 192 -209c0 -130 -75 -254 -226 -254c-24 0 -42 3 -54 7c-44 14 -48 50 -36 79l2 5c14 35 31 54 62 46c9 -2 19 -4 29 -4c40 0 60 24 70 53l-2 1s-20 -15 -62 -15c-44 0 -138 26 -138 126c0 93 62 165 163 165zM183 165c-13 0 -21 -11 -21 -28
c0 -9 2 -47 46 -47c17 0 19 6 19 17c0 36 -24 58 -44 58z" />
    <glyph glyph-name="zero.denominator" horiz-adv-x="402" 
d="M201 -10c-134 0 -176 104 -176 232c0 129 42 231 176 231c133 0 176 -102 176 -231c0 -128 -43 -232 -176 -232zM201 126c20 0 25 44 25 96c0 51 -5 93 -25 93c-19 0 -25 -42 -25 -93c0 -52 6 -96 25 -96z" />
    <glyph glyph-name="one.denominator" horiz-adv-x="354" 
d="M88 0c-43 0 -65 19 -65 60v7c0 42 18 61 52 61h35v93c0 21 3 35 3 35h-2s-3 -4 -5 -6c-11 -11 -33 -8 -47 6l-20 20c-28 28 -22 60 9 89l50 46c25 23 48 32 81 32h15c43 0 66 -23 66 -65v-250h24c42 0 65 -19 65 -61v-7c0 -41 -23 -60 -65 -60h-196z" />
    <glyph glyph-name="two.denominator" horiz-adv-x="390" 
d="M82 0c-48 0 -65 24 -65 70c0 155 193 179 193 232c0 13 -12 20 -27 20c-9 0 -18 -3 -27 -8c-36 -20 -66 -30 -91 -2l-8 9c-27 31 -33 57 -2 84c25 21 72 48 132 48c74 0 174 -39 174 -142c0 -132 -163 -157 -176 -183h116c43 0 65 -19 65 -61v-7c0 -41 -22 -60 -65 -60
h-219z" />
    <glyph glyph-name="three.denominator" horiz-adv-x="370" 
d="M166 -10c-51 0 -91 13 -119 30c-21 12 -30 27 -30 44c0 12 4 25 13 39l5 9c13 21 26 30 43 30c26 0 34 -17 78 -17c30 0 40 13 40 27c0 19 -19 25 -41 25h-4c-29 0 -44 5 -56 26c-3 6 -5 16 -5 22c0 17 13 33 31 52l13 14c8 9 30 24 30 24v2s-27 -3 -38 -3h-35
c-43 0 -65 19 -65 62v7c0 41 22 60 65 60h174c43 0 65 -17 65 -46v-8c0 -31 -7 -51 -31 -74l-54 -50c75 -21 102 -65 102 -115c0 -77 -57 -160 -181 -160z" />
    <glyph glyph-name="four.denominator" horiz-adv-x="418" 
d="M265 0c-43 0 -65 23 -65 65v13h-127c-43 0 -65 17 -65 50v16c0 31 7 43 23 71l107 185c18 31 42 43 78 43h66c43 0 65 -23 65 -65v-184c42 0 56 -19 56 -53v-7c0 -35 -14 -56 -56 -56v-13c0 -42 -22 -65 -65 -65h-17zM138 194h62v85c0 16 4 45 4 45h-2s-9 -29 -17 -44
l-47 -84v-2z" />
    <glyph glyph-name="five.denominator" horiz-adv-x="378" 
d="M180 -10c-49 0 -91 12 -121 27c-37 20 -37 52 -17 89l3 5c20 37 42 34 79 20c15 -5 26 -7 44 -7s41 10 41 32c0 31 -32 33 -56 33c-18 0 -40 -5 -55 -5c-12 0 -23 2 -34 7c-25 10 -36 33 -33 71l8 119c3 40 27 62 68 62h154c43 0 66 -19 66 -60v-5c0 -40 -23 -61 -66 -61
h-96c-1 -25 -3 -32 -3 -32l2 -1s16 3 39 3c97 0 157 -61 157 -133c0 -78 -56 -164 -180 -164z" />
    <glyph glyph-name="six.denominator" horiz-adv-x="392" 
d="M211 -10c-90 0 -192 58 -192 209c0 130 75 254 226 254c24 0 42 -3 54 -7c44 -14 48 -50 36 -79l-2 -5c-14 -35 -31 -54 -62 -46c-9 2 -19 4 -29 4c-40 0 -60 -24 -70 -53l2 -1s20 15 62 15c44 0 138 -26 138 -126c0 -93 -62 -165 -163 -165zM209 121c13 0 21 11 21 28
c0 9 -2 47 -46 47c-17 0 -19 -6 -19 -17c0 -36 24 -58 44 -58z" />
    <glyph glyph-name="seven.denominator" horiz-adv-x="367" 
d="M95 0c-52 0 -72 33 -45 79l131 222c5 9 10 13 10 13v2s-16 -2 -23 -2h-91c-43 0 -65 19 -65 62v7c0 41 22 60 65 60h218c43 0 66 -18 66 -50v-12c0 -31 -6 -50 -22 -77l-147 -259c-17 -30 -40 -45 -77 -45h-20z" />
    <glyph glyph-name="eight.denominator" horiz-adv-x="404" 
d="M204 -10c-92 0 -183 49 -183 135c0 49 29 81 64 108c-26 21 -43 47 -43 88c0 89 81 132 161 132c88 0 168 -52 168 -128c0 -46 -32 -80 -50 -100c35 -21 60 -52 60 -100c0 -92 -91 -135 -177 -135zM226 269c4 7 13 25 13 38c0 23 -19 31 -35 31c-14 0 -25 -8 -25 -25
c0 -18 16 -32 47 -44zM201 105c17 0 35 7 35 28c0 17 -17 30 -61 48c-11 -11 -16 -29 -16 -39c0 -28 20 -37 42 -37z" />
    <glyph glyph-name="nine.denominator" horiz-adv-x="392" 
d="M181 453c90 0 192 -58 192 -209c0 -130 -75 -254 -226 -254c-24 0 -42 3 -54 7c-44 14 -48 50 -36 79l2 5c14 35 31 54 62 46c9 -2 19 -4 29 -4c40 0 60 24 70 53l-2 1s-20 -15 -62 -15c-44 0 -138 26 -138 126c0 93 62 165 163 165zM183 322c-13 0 -21 -11 -21 -28
c0 -9 2 -47 46 -47c17 0 19 6 19 17c0 36 -24 58 -44 58z" />
    <glyph glyph-name="thinspace" unicode="&#x2009;" horiz-adv-x="20" 
 />
    <glyph glyph-name="uni00A0" unicode="&#xa0;" horiz-adv-x="250" 
 />
    <glyph glyph-name="uni00AD" unicode="&#xad;" horiz-adv-x="396" 
d="M101 198c-43 0 -65 23 -65 65v50c0 43 22 65 65 65h194c43 0 65 -22 65 -65v-50c0 -42 -22 -65 -65 -65h-194z" />
    </font>
</defs>
</svg>
